<?xml version="1.0" encoding="utf-8"?>
<!-- Generator: Adobe Illustrator 20.0.0, SVG Export Plug-In . SVG Version: 6.00 Build 0)  -->
<svg version="1.1" id="Layer_1" xmlns="http://www.w3.org/2000/svg" xmlns:xlink="http://www.w3.org/1999/xlink" width="42" height="42" x="0px" y="0px"
	 viewBox="0 0 80.4 80.4" style="enable-background:new 0 0 80.4 80.4;" xml:space="preserve">
<path d="M57.9,70.8c-0.1-0.6-0.5-0.6-1.1-0.2c-0.9,0.7-2.2,1.2-3.9,1.7s-3.6,0.8-5.8,0.8c-3.8,0-6.7-0.7-8.6-2.2
	c-0.1-0.1-0.3-0.2-0.6-0.2c-0.3,0-0.7,0.2-1.2,0.5c-0.2,0.2-0.3,0.4-0.3,0.7c0,0.3,0.1,0.6,0.3,0.9c1,0.9,2.3,1.6,3.9,2
	c1.6,0.4,3.1,0.6,4.6,0.6c1.5,0,2.9-0.1,4.4-0.2c1.2-0.1,2.5-0.4,3.8-0.9s2.3-0.9,2.9-1.3s1.1-0.7,1.3-0.9
	C58,71.8,58.1,71.3,57.9,70.8z M56.2,65.7c-0.6-1.4-1.1-2.3-1.7-2.7c-0.7-0.4-1.8-0.7-3.4-0.7c-1.4,0-2.4,0.1-3.2,0.4
	c-0.9,0.4-2,1.2-3.5,2.5c-0.8,0.7-0.9,1.4-0.5,2c0.3,0.2,0.5,0.3,0.8,0.2s0.7-0.5,1.4-1c0.1-0.1,0.2-0.2,0.5-0.4
	c0.2-0.2,0.4-0.3,0.5-0.4c0.1-0.1,0.2-0.2,0.4-0.3c0.2-0.1,0.4-0.3,0.5-0.3c0.1-0.1,0.3-0.1,0.6-0.2c0.2-0.1,0.5-0.2,0.7-0.2
	c0.2,0,0.5-0.1,0.7-0.1s0.6,0,0.9,0c0.8,0,1.5,0.1,2,0.3c0.5,0.2,0.9,0.4,1,0.6c0.2,0.2,0.4,0.5,0.6,1c0.3,0.5,0.5,0.8,0.6,0.9
	c0.1,0.1,0.3,0.1,0.6,0C56.2,66.9,56.4,66.4,56.2,65.7z M71.9,53.2c0-0.7-0.1-1.3-0.2-2s-0.4-1.3-0.7-2s-0.8-1.2-1.5-1.6
	C68.8,47.2,68,47,67.1,47c-1,0-2.4,0.6-4.3,1.8c-1.9,1.2-3.8,2.5-5.7,3.7c-1.9,1.2-3.4,1.9-4.5,1.9c-0.8,0-1.7-0.3-2.8-0.8
	c-1.1-0.6-2.2-1.3-3.4-2.2s-2.4-1.7-3.7-2.6s-2.8-1.6-4.4-2.2c-1.7-0.6-3.3-0.9-4.9-0.8c-3.4,0-6.3,1.2-8.8,3.5s-3.7,4.9-3.7,7.9
	c-0.1,3.3,1,5.7,3.3,7.3c0.9,0.6,1.8,1,2.8,1.3s2.5,0.4,4.6,0.4c1.7,0,3.6-0.5,5.9-1.4c2.2-1,4.2-2,6-3.2s3.5-2.2,5.3-3.1
	s3.2-1.4,4.1-1.4c0.8,0,1.7,0.5,2.9,1.4c1.2,0.9,2.2,1.9,3.2,3s2,2.1,3,3c1.1,0.9,1.9,1.4,2.5,1.4c1,0.1,1.9-0.1,2.6-0.6
	c0.7-0.5,1.5-1.4,2.5-2.8c0.8-1.2,1.5-2.7,1.9-4.5S71.9,54.6,71.9,53.2z M74.3,46.1c0,4.9-0.9,9.4-2.8,13.5
	c-1.8,4.2-4.3,7.7-7.4,10.5s-6.7,5-10.8,6.6s-8.4,2.4-12.9,2.4s-8.8-0.9-13-2.6c-4.2-1.7-7.8-4-11-7s-5.7-6.5-7.6-10.7
	s-2.8-8.7-2.8-13.4c0-2.6,0.3-5.2,0.9-7.7s1.3-4.6,2.2-6.5c0.9-1.8,1.9-3.6,3.1-5.3c1.2-1.7,2.4-3.1,3.5-4.2
	c1.1-1.1,2.3-2.1,3.5-3.1c1.2-0.9,2.2-1.6,2.9-2.1c0.7-0.4,1.3-0.8,1.9-1.1c0.4-0.2,1.2-0.6,2.3-1.2c1.1-0.5,1.9-1,2.4-1.3
	c0.5-0.3,1.2-0.7,2.1-1.3c0.9-0.6,1.8-1.2,2.7-2c1.1-0.8,1.9-1.9,2.6-3.2s1.1-3.2,1.3-5.6c3.8,4.6,6.6,7.4,8.3,8.6
	c1.3,0.9,3.2,1.9,5.8,3s4.5,2.1,5.7,2.9c0.6,0.4,1.2,0.8,1.7,1.1c0.5,0.4,1.4,1,2.7,2.1S64,21,64.9,22c1,1.1,2.1,2.5,3.3,4.2
	c1.2,1.7,2.3,3.6,3.1,5.4s1.5,4.1,2.1,6.6S74.3,43.4,74.3,46.1z"/>
</svg>
