<svg xmlns="http://www.w3.org/2000/svg" width="200" height="200" fill="none" viewBox="0 0 1500 1500"><path fill="url(#a)" d="M769.351 186.565v578.812c0 21.325-17.323 38.637-38.662 38.637H44.662C23.324 804.014 6 786.702 6 765.377V186.565c0-21.325 17.324-38.637 38.662-38.637h685.953c21.413 0 38.736 17.312 38.736 38.637"/><path fill="url(#b)" d="M305.333 147.928v656.16H44.662C23.324 804.088 6 786.776 6 765.451V186.639c0-21.324 17.324-38.637 38.662-38.637h260.671z" opacity=".4"/><path fill="#498DBC" d="M255.965 491.946H64.514c-3.197 0-5.725-2.601-5.725-5.721 0-3.195 2.602-5.722 5.725-5.722h191.377c3.197 0 5.725 2.601 5.725 5.722.074 3.12-2.528 5.721-5.651 5.721M255.965 527.537H64.514c-3.197 0-5.725-2.601-5.725-5.722 0-3.195 2.602-5.721 5.725-5.721h191.377c3.197 0 5.725 2.601 5.725 5.721.074 3.121-2.528 5.722-5.651 5.722M255.965 563.127H64.514c-3.197 0-5.725-2.6-5.725-5.721 0-3.195 2.602-5.721 5.725-5.721h191.377c3.197 0 5.725 2.6 5.725 5.721.074 3.121-2.528 5.721-5.651 5.721" opacity=".3"/><path fill="url(#c)" d="M231.132 667.224H89.347c-16.877 0-30.558-13.671-30.558-30.538s13.68-30.538 30.558-30.538h141.785c16.878 0 30.558 13.671 30.558 30.538s-13.68 30.538-30.558 30.538"/><path fill="#fff" d="M126.374 645.899c-.223 0-.372-.074-.446-.148-.149-.149-.149-.297-.149-.446V628.29c0-.223.075-.372.149-.446.149-.149.297-.149.446-.149h6.543c1.784 0 3.197.298 4.387.818s2.081 1.337 2.676 2.377c.595 1.041.967 2.378.967 3.938v4.013c-.075 1.634-.372 2.972-.967 4.012a5.78 5.78 0 0 1-2.602 2.378c-1.19.52-2.602.743-4.312.743h-6.692zm3.495-3.418h3.048c.892 0 1.561-.148 2.156-.371.595-.297.967-.669 1.264-1.263q.446-.892.446-2.229c0-.52 0-.966.074-1.338v-1.188c0-.372 0-.818-.074-1.338 0-1.337-.372-2.303-1.041-2.898-.669-.594-1.636-.966-2.974-.966h-2.899zM151.578 646.122c-1.561 0-2.974-.297-4.089-.817-1.19-.52-2.082-1.337-2.677-2.378-.669-1.04-.966-2.377-1.041-4.012v-4.458c.075-1.56.372-2.898 1.041-3.938a6.8 6.8 0 0 1 2.751-2.452c1.19-.52 2.528-.817 4.09-.817s2.899.297 4.014.817c1.19.52 2.082 1.337 2.751 2.452.67 1.04 1.041 2.378 1.041 3.938 0 .743.075 1.486.075 2.229s0 1.486-.075 2.229c-.074 1.635-.371 2.972-1.041 4.012-.669 1.041-1.561 1.858-2.676 2.378-1.264.594-2.602.817-4.164.817m0-3.343c1.041 0 1.859-.297 2.528-.966.669-.595.967-1.635 1.041-2.972 0-.743.074-1.486.074-2.155s0-1.412-.074-2.155c0-.891-.149-1.634-.52-2.229-.298-.594-.744-.966-1.264-1.263-.521-.297-1.116-.371-1.785-.371a4.5 4.5 0 0 0-1.784.371c-.521.297-.967.669-1.264 1.263-.298.595-.446 1.338-.521 2.229v4.31c.075 1.337.372 2.377 1.041 2.972.669.594 1.487.966 2.528.966M163.325 645.899c-.223 0-.371-.074-.446-.148-.149-.149-.149-.297-.149-.446V628.29c0-.223.075-.372.149-.446.149-.149.298-.149.446-.149h2.379c.298 0 .447.075.595.149.149.149.223.223.223.297l6.989 10.923V628.29c0-.223.075-.372.149-.446.149-.149.297-.149.446-.149h2.677c.223 0 .371.075.446.149.148.149.148.297.148.446v16.941c0 .148-.074.297-.148.445q-.224.223-.446.223h-2.38c-.297 0-.446-.074-.594-.223-.149-.148-.223-.222-.223-.297l-6.989-10.551v10.403c0 .223-.075.371-.149.445-.149.149-.297.149-.446.149h-2.677zM182.062 645.899c-.223 0-.372-.074-.447-.148-.148-.149-.148-.297-.148-.446V628.29c0-.223.074-.372.148-.446.149-.149.298-.149.447-.149h11.896c.223 0 .371.075.446.149.074.074.148.297.148.446v2.08c0 .149-.074.297-.148.446-.149.149-.298.149-.446.149h-8.476v4.086h7.881c.223 0 .372.075.446.149.149.149.149.297.149.446v1.932c0 .148-.075.297-.149.445-.149.149-.297.149-.446.149h-7.881v4.235h8.624c.223 0 .372.075.446.149.149.148.149.297.149.446v2.08c0 .223-.074.372-.149.446-.148.149-.297.148-.446.148h-12.044z"/><path fill="url(#d)" d="M704.519 667.447h-333.46c-14.275 0-25.873-11.591-25.873-25.857V277.734c0-14.266 11.598-25.858 25.873-25.858h333.46c14.275 0 25.874 11.592 25.874 25.858v363.93c0 14.266-11.599 25.783-25.874 25.783" opacity=".4"/><path fill="url(#e)" d="M670.467 626.358h-265.43c-14.795 0-26.766-11.962-26.766-26.749V319.714c0-14.786 11.971-26.749 26.766-26.749h265.43c14.796 0 26.766 11.963 26.766 26.749v279.895c0 14.787-11.97 26.749-26.766 26.749"/><path fill="url(#f)" d="M537.826 551.462c50.712 0 91.822-41.084 91.822-91.763s-41.11-91.763-91.822-91.763-91.822 41.084-91.822 91.763 41.11 91.763 91.822 91.763"/><path fill="url(#g)" d="M537.826 521.741c34.287 0 62.083-27.777 62.083-62.042s-27.796-62.042-62.083-62.042-62.082 27.777-62.082 62.042 27.795 62.042 62.082 62.042"/><path fill="#F15A24" d="M537.827 502.348c23.57 0 42.677-19.095 42.677-42.649s-19.107-42.649-42.677-42.649-42.677 19.094-42.677 42.649c0 23.554 19.107 42.649 42.677 42.649" opacity=".5"/><path fill="#fff" d="m554.184 456.132-22.305-14.266c-3.42-2.154-7.881.298-7.881 4.31v28.532c0 4.012 4.461 6.464 7.881 4.309l22.305-14.266c3.123-2.006 3.123-6.612 0-8.619"/><path fill="url(#h)" fill-opacity=".5" d="M255.742 361.249H123.473c-3.271 0-5.948-2.675-5.948-5.944v-14.563c0-3.27 2.677-5.945 5.948-5.945h132.195c3.271 0 5.948 2.675 5.948 5.945v14.563c.074 3.269-2.603 5.944-5.874 5.944m0-61.596H123.473c-3.271 0-5.948-2.675-5.948-5.945v-14.563c0-3.269 2.677-5.944 5.948-5.944h132.195c3.271 0 5.948 2.675 5.948 5.944v14.563c.074 3.27-2.603 5.945-5.874 5.945m5.948 117.174v-14.563c0-3.27-2.677-5.945-5.948-5.945H123.473c-3.271 0-5.948 2.675-5.948 5.945v14.563c0 3.269 2.677 5.944 5.948 5.944h132.195c3.345.074 6.022-2.601 6.022-5.944"/><path fill="#40C67C" d="M78.79 306.34c11.045 0 20-8.949 20-19.987 0-11.039-8.955-19.988-20-19.988-11.047 0-20 8.949-20 19.988s8.953 19.987 20 19.987"/><path fill="url(#i)" d="M78.79 367.936c11.045 0 20-8.948 20-19.987s-8.955-19.987-20-19.987c-11.047 0-20 8.948-20 19.987s8.953 19.987 20 19.987"/><path fill="url(#j)" d="M78.79 429.532c11.045 0 20-8.948 20-19.987s-8.955-19.987-20-19.987c-11.047 0-20 8.948-20 19.987s8.953 19.987 20 19.987"/><path fill="#40C67C" d="M213.734 361.249h-90.261c-3.271 0-5.948-2.675-5.948-5.944v-14.563c0-3.27 2.677-5.945 5.948-5.945h90.187c3.271 0 5.948 2.675 5.948 5.945v14.563c.074 3.269-2.602 5.944-5.874 5.944M254.552 299.653H124.663a7.137 7.137 0 0 1-7.138-7.133v-12.335a7.137 7.137 0 0 1 7.138-7.133h129.964a7.137 7.137 0 0 1 7.137 7.133v12.335c-.074 3.938-3.271 7.133-7.212 7.133"/><path fill="#fff" d="M76.41 293.04c-.371 0-.669-.149-.966-.372l-5.948-5.944a1.3 1.3 0 0 1 0-1.858c.52-.52 1.338-.52 1.859 0l4.981 4.979 9.74-9.734c.52-.52 1.338-.52 1.859 0a1.3 1.3 0 0 1 0 1.858l-10.558 10.699c-.297.223-.595.372-.967.372"/><path fill="#FFBA00" d="M66.447 213.76a7.656 7.656 0 0 0 7.658-7.654 7.656 7.656 0 0 0-7.658-7.653 7.656 7.656 0 0 0-7.658 7.653 7.656 7.656 0 0 0 7.658 7.654M93.361 213.76a7.656 7.656 0 0 0 7.658-7.654 7.656 7.656 0 0 0-7.658-7.653 7.656 7.656 0 0 0-7.658 7.653 7.656 7.656 0 0 0 7.658 7.654M120.277 213.76a7.656 7.656 0 0 0 7.658-7.654 7.656 7.656 0 0 0-7.658-7.653 7.656 7.656 0 0 0-7.658 7.653 7.656 7.656 0 0 0 7.658 7.654"/><path fill="url(#k)" d="M570.687 881.882H217.153c-43.048 0-77.919-34.847-77.919-77.868s34.871-77.868 77.919-77.868h353.534c43.049 0 77.919 34.847 77.919 77.868s-34.87 77.868-77.919 77.868"/><path fill="url(#l)" d="M535.892 834.255H217.005c-15.093 0-27.36-12.26-27.36-27.343s12.267-27.343 27.36-27.343h318.887c15.094 0 27.361 12.259 27.361 27.343 0 15.157-12.267 27.343-27.361 27.343"/><path fill="url(#m)" d="M517.602 814.565H221.838c-4.164 0-7.584-3.418-7.584-7.579s3.42-7.579 7.584-7.579h295.764c4.163 0 7.584 3.418 7.584 7.579s-3.421 7.579-7.584 7.579"/><path fill="url(#n)" d="M551.283 862.267c30.551 0 55.317-24.75 55.317-55.281s-24.766-55.281-55.317-55.281c-30.55 0-55.316 24.75-55.316 55.281s24.766 55.281 55.316 55.281"/><path fill="url(#o)" d="M551.284 844.954c20.983 0 37.993-16.999 37.993-37.968s-17.01-37.968-37.993-37.968-37.993 16.999-37.993 37.968 17.01 37.968 37.993 37.968"/><path fill="#fff" d="M555.669 822.069h-11.004c-4.015 0-7.806-1.56-10.706-4.458-2.825-2.898-4.387-6.687-4.387-10.699 0-4.83 2.379-9.437 6.394-12.26.818-.595 2.008-.372 2.603.446.594.817.371 2.006-.446 2.6-2.974 2.155-4.759 5.573-4.759 9.214 0 3.046 1.19 5.87 3.272 8.024 2.156 2.155 4.981 3.344 8.029 3.344h11.004a1.84 1.84 0 0 1 1.859 1.858c.074 1.114-.818 1.931-1.859 1.931"/><path fill="#fff" d="M551.283 826.527c-.446 0-.967-.148-1.339-.52a1.884 1.884 0 0 1 0-2.675l3.123-3.046-3.123-3.121a1.884 1.884 0 0 1 0-2.675 1.886 1.886 0 0 1 2.677 0l4.387 4.384a1.884 1.884 0 0 1 0 2.675l-4.387 4.384c-.372.372-.892.594-1.338.594M565.558 819.617c-.595 0-1.19-.297-1.562-.817-.594-.817-.371-2.006.446-2.601 2.974-2.154 4.759-5.572 4.759-9.213 0-3.046-1.19-5.87-3.272-8.025-2.156-2.154-4.981-3.343-8.029-3.343h-11.004a1.84 1.84 0 0 1-1.859-1.858 1.84 1.84 0 0 1 1.859-1.857H557.9c4.015 0 7.806 1.56 10.706 4.458 2.825 2.898 4.387 6.687 4.387 10.699 0 4.83-2.38 9.437-6.394 12.26-.298.223-.67.297-1.041.297"/><path fill="#fff" d="M551.282 800.002c-.446 0-.966-.149-1.338-.52l-4.386-4.384c-.372-.372-.521-.818-.521-1.338s.223-.966.521-1.337l4.386-4.384a1.886 1.886 0 0 1 2.677 0 1.884 1.884 0 0 1 0 2.675l-3.049 3.046 3.049 3.047a1.884 1.884 0 0 1 0 2.675c-.372.371-.892.52-1.339.52"/><path fill="url(#p)" d="M1342.22 765.823v488.757c0 36.26-29.37 65.61-65.65 65.61h-270.71V699.397h269.89c11.45 0 22.3 2.897 31.67 8.024a82 82 0 0 1 5.5 3.344c3.57 2.378 6.85 5.127 9.82 8.099 12.04 12.037 19.48 28.606 19.48 46.959"/><path fill="url(#q)" d="M1140.21 813.004h-91.9c-21.19 0-38.29-17.163-38.29-38.265 0-21.176 17.18-38.266 38.29-38.266h91.9c21.19 0 38.29 17.164 38.29 38.266s-17.17 38.265-38.29 38.265"/><path fill="url(#r)" d="M1342.22 765.823v488.757c0 36.26-29.37 65.61-65.65 65.61h-67.36V767.383c0-36.408 28.7-67.243 65.13-67.912h1.34c11.45 0 22.3 2.898 31.67 8.025a82 82 0 0 1 5.5 3.343c3.57 2.378 6.84 5.127 9.82 8.099 12.11 11.963 19.55 28.532 19.55 46.885"/><path fill="url(#s)" d="M1342.22 1144.99h-105.58v49.18h105.58z"/><path fill="url(#t)" d="M1360.51 1019.79h-49.37c-11.97 0-21.64-9.66-21.64-21.625 0-11.963 9.67-21.622 21.64-21.622h49.37c11.97 0 21.63 9.659 21.63 21.622 0 11.965-9.66 21.625-21.63 21.625"/><path fill="url(#u)" d="M1360.51 1082.94h-49.37c-11.97 0-21.64-9.66-21.64-21.62s9.67-21.62 21.64-21.62h49.37c11.97 0 21.63 9.66 21.63 21.62s-9.66 21.62-21.63 21.62"/><path fill="url(#v)" d="M1212.7 1500H703.105l26.097-179.81h472.418l7.96 128.54z"/><path fill="url(#w)" d="M1160.13 1500h-7.28l-7.88-122.15c-.15-2.01 1.41-3.72 3.42-3.87 2-.14 3.71 1.42 3.86 3.42z"/><path fill="url(#x)" d="M1209.58 1448.73c-122.53-9.29-147.14-93.69-152.05-128.54h144.09z"/><path fill="url(#y)" d="m729.202 1320.19-11.747 80.91c79.852-3.56 487.735-22.66 487.735-22.66l-3.57-58.25z" opacity=".4"/><path fill="url(#z)" d="m792.624 1051.89-19.926 140.43-8.699 61.15s-60.818 44.73-119.852 33.95c-59.034-10.7-98.96-58.99-98.96-58.99l-44.313-58.85-44.238-58.77-12.862-17.09c-71.897-14.94-115.986-56.47-131.749-73.86-2.081-2.3-3.792-5.05-4.907-7.87a25.6 25.6 0 0 1-1.71-9.14c0-13.973 11.376-25.341 25.354-25.341h99.777c18.142 0 35.837 6.241 49.889 17.758L621.47 1109.84l22.677-50.08z"/><path fill="url(#A)" d="m772.697 1192.24-8.699 61.15s-60.819 44.73-119.853 33.96c-59.033-10.7-98.959-59-98.959-59l-44.313-58.85c63.941 21.4 165.354 143.41 264.686 10.26-.074.07 2.751 4.9 7.138 12.48"/><path fill="#F15A24" d="M488.161 1095.8s-11.302 12.03-31.525 15.01l-12.862-17.09c-.075 0 22.899 2.97 44.387 2.08" opacity=".5"/><path fill="url(#B)" d="m1268.76 970.599-2.08 34.921-4.09 70.74-2.38 40.56-31.9 20.74-8.92 5.79-12.27 8.03.23 5.2.74 16.34 2.16 48.97 4.31 98.15 2.08 47.11H709.723l6.542-47.11 13.532-98.15 15.688-113.46c-13.457-1.71-25.279-3.86-35.762-6.39-64.016-15.53-76.358-43.69-76.358-43.69s82.306-213.396 130.113-226.473c2.602-.743 5.204-1.486 7.658-2.155 2.825-.817 5.725-1.634 8.476-2.452 9.517-2.749 18.587-5.349 25.874-7.653.966-.297 1.933-.668 2.899-.966 21.933-7.281 27.361-10.773 27.361-10.773l225.654-60.705 35.09-8.768 2.01 8.025s2.08 10.922 9.22 25.486c2.97 6.092 6.84 12.928 11.82 19.838 1.71 2.378 3.49 4.681 5.5 7.059 5.95 7.207 13.16 14.266 21.86 20.73 7.21 5.87 15.39 12.037 24.09 18.353 14.87 10.699 31.3 21.621 46.54 31.429 34.06 22.142 53.61 60.854 51.23 101.274"/><path fill="url(#C)" d="M1119.47 791.903c-62.9 36.259-160.005 81.212-237.701 68.432-38.29-6.316-61.859-23.034-76.208-40.569.966-.297 1.933-.669 2.899-.966 21.933-7.282 27.361-10.774 27.361-10.774l225.649-60.704 35.1-8.768 2 8.025s2.09 10.922 9.22 25.485c2.83 6.167 6.69 13.003 11.68 19.839"/><path fill="url(#D)" d="M1216.64 1367.3H709.723l6.468-47.11h498.369z"/><path fill="url(#E)" d="M1242.66 976.469v245.571H729.797l15.688-113.46c-13.457-1.71-25.279-3.87-35.762-6.39V976.469z"/><path fill="url(#F)" d="M772.697 897.337 749.5 1077.74l-3.941 30.84c-95.391-11.89-112.12-50.08-112.12-50.08s4.536-11.67 11.971-29.72c24.61-59.147 81.487-186.798 118.142-196.754 2.602-.743 5.13-1.486 7.658-2.155 6.989 28.681 1.487 67.466 1.487 67.466"/><path fill="url(#G)" d="m1268.76 970.599-2.08 34.921-4.17 70.74-2.37 40.64-53.09 34.55.97 21.62-12.2-.96-107.43-8.4V959.008s6.69-66.946 53.08-104.172c8.4-6.835 18.14-12.631 29.45-16.792 14.94 10.7 31.3 21.622 46.54 31.43 34.12 21.993 53.68 60.705 51.3 101.125"/><path fill="url(#H)" d="m1260.21 1116.97-53.08 34.55.96 21.63-12.19-.97c-34.28-8.69-74.05-18.8-107.44-27.27v-91.76l174.43 18.5z"/><path fill="url(#I)" d="M1207.27 389.038c-.07.074-.22.223-.29.297-76.29 77.943-163.13 72.742-219.113 56.99-12.863-3.641-24.09-7.802-33.16-11.666-1.116-.446-2.156-.966-3.197-1.337-13.978-6.167-22.082-11.146-22.082-11.146l48.55-48.89 207.062-208.343L1238.72 111s8.03 13.003 16.29 34.55c5.05 13.375 10.26 30.167 13.53 49.114 9.51 54.463 3.94 127.502-61.27 194.374"/><path fill="url(#J)" d="M1207.27 389.038c-.07.074-.22.223-.29.297-76.29 77.943-163.13 72.742-219.112 56.99l-33.16-11.666-3.792-1.337c.223 0 .372 0 .52-.075 134.204-12.334 274.054-182.336 316.954-238.583 9.67 54.463 4.09 127.502-61.12 194.374"/><path fill="url(#K)" d="M1207.27 389.038c-.07.074-.22.223-.29.297 27.65-110.858-5.28-192.739-21.86-224.392l53.6-53.943s93.09 150.313-31.45 278.038"/><path fill="url(#L)" d="M1340.29 459.625c-18.67 23.628-42.61 43.466-68.18 59.887-78.66 50.748-172.12 69.398-172.12 69.398 22.3 8.545 56.06-.669 83.27-14.415 0 0-16.13 59.888-84.09 90.351 1.86-.297 31.52-5.126 48.25-16.123 0 0 1.19 35.219-48.99 60.259v37.597s-88.48 74.896-191.827 74.673c-23.197-.074-47.064-3.938-70.856-13.151 0 0 4.313-6.465 9.071-16.867 5.056-10.997 10.558-26.452 11.822-43.392 0 0-99.332-6.613-128.254-122.747-3.941-15.901 3.123-32.544 17.398-40.495 15.688-8.767 35.613-23.405 46.915-45.027 20.595-39.38 68.699-120.517 154.648-137.235 79.333-15.381 117.023 8.322 117.023 8.322s10.64-4.236 27.88-12.186c50.41-23.331 157.85-78.537 224.32-153.656 20.89-23.628 37.77-49.262 47.51-76.457 0 0 10.11 16.049 19.33 42.798 18.74 53.795 33.98 150.981-43.12 248.466"/><path fill="url(#M)" d="M1340.29 459.625c-18.67 23.628-42.61 43.466-68.18 59.887 82.08-109.001 60.37-224.243 44.53-274.694 20.9-23.628 37.77-49.262 47.51-76.457 0 0 10.11 16.049 19.33 42.798 18.67 53.795 33.91 150.981-43.19 248.466"/><path fill="#FFCA83" d="M1383.56 211.159c-95.77 138.647-291.23 187.315-291.23 187.315 66.32-30.612 231.15-116.431 271.9-230.039 0 0 10.03 15.975 19.33 42.724M1254.93 145.55 978.053 373.286l207.067-208.343 53.6-53.943s8.03 13.003 16.21 34.55" opacity=".6"/><path fill="#F15A24" d="M944.447 734.69s-12.416 59.888-99.554 56.544c5.055-10.997 10.557-26.452 11.821-43.392-.074 0 59.629-1.784 87.733-13.152M1098.43 725.031v21.622s-88.48 74.896-191.826 74.673c95.166-18.352 169.886-77.422 191.826-96.295" opacity=".5"/><path fill="url(#N)" d="m946.454 642.63.595 6.762c.446 5.052.297 9.956-.521 14.786-1.784 11.294-6.914 21.77-14.498 30.835-13.234 15.752-33.978 26.897-58.067 29.127-24.907 2.303-48.105-5.35-64.09-19.245-8.327-7.207-14.647-16.198-18.29-26.228a55.6 55.6 0 0 1-3.271-14.415l-.595-6.761z"/><path fill="url(#O)" d="m946.454 642.63.595 6.762c.446 5.052.297 9.956-.521 14.786l-155.019 14.414a55.6 55.6 0 0 1-3.272-14.414l-.594-6.762z"/><path fill="url(#P)" d="M932.104 694.939c-13.234 15.752-33.978 26.897-58.067 29.126-24.907 2.303-48.104-5.35-64.09-19.244 11.525-12.631 33.086-22.365 58.439-24.743 26.395-2.452 50.261 3.715 63.718 14.861"/><path fill="#F15A24" d="M797.456 598.718H772.92a12.465 12.465 0 0 0-12.49 12.482v1.561c0 4.829 2.751 9.213 7.137 11.294l12.342 5.87a12.5 12.5 0 0 0 10.558 0l12.342-5.87a12.47 12.47 0 0 0 7.138-11.294V611.2c0-6.91-5.576-12.482-12.491-12.482" opacity=".5"/><path fill="url(#Q)" d="M824.818 573.752c12.196 0 22.082-13.439 22.082-30.018 0-16.578-9.886-30.018-22.082-30.018-12.195 0-22.082 13.44-22.082 30.018s9.887 30.018 22.082 30.018"/><path fill="#fff" d="M818.127 543.066c2.956 0 5.353-2.928 5.353-6.539s-2.397-6.538-5.353-6.538-5.354 2.927-5.354 6.538 2.397 6.539 5.354 6.539"/><path fill="url(#R)" d="M944.447 573.752c12.196 0 22.082-13.439 22.082-30.018 0-16.578-9.886-30.018-22.082-30.018-12.195 0-22.082 13.44-22.082 30.018s9.887 30.018 22.082 30.018"/><path fill="#fff" d="M937.755 543.066c2.957 0 5.354-2.928 5.354-6.539s-2.397-6.538-5.354-6.538c-2.956 0-5.353 2.927-5.353 6.538s2.397 6.539 5.353 6.539"/><path fill="#F87C38" d="M842.663 509.035c-1.339-.371-2.677-1.114-3.718-2.229-9.442-9.808-22.454-14.117-34.87-11.368-4.982 1.04-9.591-2.378-10.335-7.727-.743-5.35 2.677-10.551 7.658-11.591 18.142-3.938 37.027 2.08 50.484 16.197 3.494 3.641 3.494 9.883-.074 13.895-2.454 2.675-6.023 3.715-9.145 2.823M923.033 505.246c1.71 0 3.42-.372 4.982-1.263 14.126-7.356 30.483-7.876 43.866-1.412 5.354 2.601 11.822.372 14.424-4.904s.372-11.665-4.907-14.191c-19.48-9.437-43.197-8.768-63.346 1.708-5.279 2.75-7.286 9.14-4.535 14.341a10.75 10.75 0 0 0 9.516 5.721"/><path fill="#FFCA83" d="M993.167 626.067c21.133-.752 37.973-9.639 37.613-19.851-.37-10.211-17.79-17.881-38.929-17.13-21.134.752-37.972 9.639-37.609 19.851s17.791 17.881 38.925 17.13" opacity=".6"/><path fill="url(#S)" d="M1242.66 1228.65c-11.67 27.42-30.85 52.98-62.08 67.09-30.71 13.82-66.02 12.34-96.36-2.3-32.34-15.68-82.45-48.74-138.436-117.4-20.818-25.48-43.123-49.78-66.692-71.47-10.929-10.11-22.23-19.62-33.755-28.54-36.357-28.08-75.242-49.48-116.209-60.18-4.312-1.19-8.624-2.16-12.937-3.05 0 0-21.933.6-18.736-22.66 3.197-23.256 59.852-64.345 109.964-66.723s211.151 101.943 305.351 179.963l39.26 3.64 108.11 10.03c.07-.08 4.9 59.22-17.48 111.6"/><path fill="url(#T)" d="M1242.66 1228.65c-11.67 27.42-30.85 52.98-62.08 67.09-30.7 13.82-66.02 12.34-96.36-2.3-32.34-15.68-82.45-48.74-138.435-117.4-20.818-25.48-43.123-49.78-66.692-71.47-10.93-10.11-22.231-19.62-33.755-28.54-36.357-28.08-75.242-49.48-116.209-60.18 51.748-6.02 155.391-8.69 221.935 52.38 88.926 81.36 103.416 163.76 291.596 160.42"/><path fill="#F15A24" d="M1175.52 1168.84c-17.91-25.64-62.6-65.54-62.6-65.54l39.26 3.64zM621.469 1109.84l62.603 53.87-53.533-74.08z" opacity=".5"/><path fill="url(#U)" d="m953.443 1000.47-74.276 103.95c-10.929-10.11-22.231-19.62-33.755-28.54l72.12-100.972z"/><path fill="url(#V)" d="m992.624 1011.39-3.866-2.75c-.818-14.562-13.606-33.509-33.904-47.998-20.297-14.489-42.379-20.433-56.431-16.42l-3.866-2.75-6.543 9.214h.074c-.223.297-.446.52-.669.817-10.186 14.266 3.495 41.535 30.558 60.857 27.063 19.32 57.324 23.4 67.51 9.14.223-.3.371-.6.594-.9h.075z"/><path fill="url(#W)" d="M992.624 1011.39c-10.186 14.27-40.446 10.18-67.51-9.14-27.063-19.317-40.818-46.586-30.557-60.852s40.446-10.179 67.509 9.139c27.064 19.319 40.744 46.588 30.558 60.853"/><path fill="url(#X)" d="M981.919 1003.81c-7.287 10.26-30.41 6.24-51.599-8.84-21.19-15.083-32.491-35.665-25.131-45.919 7.287-10.253 30.409-6.241 51.599 8.842s32.417 35.665 25.131 45.917"/><path fill="url(#Y)" d="M947.196 979.069c-.669.966-2.9.595-4.982-.817-2.007-1.486-3.122-3.418-2.453-4.384s2.9-.594 4.981.817 3.197 3.418 2.454 4.384"/><path fill="url(#Z)" d="M159.979 941.472h455.394c9.963 0 18.067 8.099 18.067 18.056 0 9.956-8.104 18.055-18.067 18.055H159.979c-9.963 0-18.067-8.099-18.067-18.055.074-10.031 8.104-18.056 18.067-18.056"/><path fill="url(#aa)" d="m749.426 1077.74-3.941 30.84c-95.391-11.89-112.12-50.08-112.12-50.08s4.536-11.67 11.971-29.72c14.2 11.14 55.985 40.86 104.09 48.96"/><path fill="url(#ab)" d="m1279.69 565.802-75.02-128.988c33.23-19.319 75.84-8.025 95.09 25.188l5.06 8.768c19.4 33.139 8.1 75.714-25.13 95.032"/><path fill="url(#ac)" d="m1280.14 563.796-133.69-66.352c-17.1 34.402-3.04 76.16 31.38 93.249l9.07 4.533c34.35 17.015 76.14 2.972 93.24-31.43"/><path fill="url(#ad)" d="m1285.27 604.068 108.4 105.508 53.46-70.587-131.46-74.227z"/><path fill="url(#ae)" d="m1388.98 711.88-67.51 108.555 78.74 44.655 51.01-134.486z"/><path fill="url(#af)" d="M1349.58 926.389c33.88 0 61.34-27.444 61.34-61.299 0-33.854-27.46-61.299-61.34-61.299s-61.34 27.445-61.34 61.299 27.46 61.299 61.34 61.299"/><path fill="url(#ag)" d="M1349.58 889.907c13.71 0 24.83-11.111 24.83-24.817s-11.12-24.817-24.83-24.817c-13.72 0-24.83 11.111-24.83 24.817s11.11 24.817 24.83 24.817"/><path fill="url(#ah)" d="M1435.75 745.91c31.62 0 57.25-25.615 57.25-57.213 0-31.597-25.63-57.212-57.25-57.212s-57.25 25.615-57.25 57.212 25.63 57.213 57.25 57.213"/><path fill="url(#ai)" d="M1435.75 711.88c12.81 0 23.2-10.379 23.2-23.183s-10.39-23.182-23.2-23.182-23.2 10.379-23.2 23.182c0 12.804 10.39 23.183 23.2 23.183"/><path fill="url(#aj)" d="M1285.27 617.516c25.21 0 45.65-20.425 45.65-45.621s-20.44-45.622-45.65-45.622c-25.22 0-45.65 20.426-45.65 45.622s20.43 45.621 45.65 45.621"/><path fill="url(#ak)" d="M1285.27 590.322c10.18 0 18.44-8.25 18.44-18.427s-8.26-18.427-18.44-18.427c-10.19 0-18.44 8.25-18.44 18.427s8.25 18.427 18.44 18.427"/><defs><linearGradient id="a" x1="387.662" x2="387.662" y1="1264.6" y2="47.253" gradientUnits="userSpaceOnUse"><stop stop-color="#002649"/><stop offset=".321" stop-color="#042A4F"/><stop offset=".748" stop-color="#0F3460"/><stop offset="1" stop-color="#183D6D"/></linearGradient><linearGradient id="b" x1="155.676" x2="155.676" y1="1264.6" y2="47.253" gradientUnits="userSpaceOnUse"><stop stop-color="#03192E"/><stop offset=".5" stop-color="#223C6A"/><stop offset="1" stop-color="#4A74A2"/></linearGradient><linearGradient id="c" x1="160.239" x2="160.239" y1="738.91" y2="518.056" gradientUnits="userSpaceOnUse"><stop stop-color="#FF2A64"/><stop offset=".031" stop-color="#FF3462"/><stop offset=".169" stop-color="#FF595A"/><stop offset=".313" stop-color="#FF7854"/><stop offset=".463" stop-color="#FF904E"/><stop offset=".62" stop-color="#FFA24B"/><stop offset=".791" stop-color="#FFAC49"/><stop offset="1" stop-color="#FFAF48"/></linearGradient><linearGradient id="d" x1="537.8" x2="537.8" y1="1091.01" y2="257.243" gradientUnits="userSpaceOnUse"><stop stop-color="#03192E"/><stop offset=".5" stop-color="#223C6A"/><stop offset="1" stop-color="#4A74A2"/></linearGradient><linearGradient id="e" x1="537.8" x2="537.8" y1="673.601" y2="112.399" gradientUnits="userSpaceOnUse"><stop stop-color="#386E9F"/><stop offset="1" stop-color="#fff"/></linearGradient><linearGradient id="f" x1="537.8" x2="537.8" y1="650.078" y2="276.893" gradientUnits="userSpaceOnUse"><stop stop-color="#002649"/><stop offset=".321" stop-color="#042A4F"/><stop offset=".748" stop-color="#0F3460"/><stop offset="1" stop-color="#183D6D"/></linearGradient><linearGradient id="g" x1="537.8" x2="537.8" y1="588.492" y2="336.026" gradientUnits="userSpaceOnUse"><stop stop-color="#FF2A64"/><stop offset=".075" stop-color="#FF465E"/><stop offset=".18" stop-color="#FF6657"/><stop offset=".295" stop-color="#FF8152"/><stop offset=".419" stop-color="#FF954D"/><stop offset=".559" stop-color="#FFA44A"/><stop offset=".727" stop-color="#FFAC49"/><stop offset="1" stop-color="#FFAF48"/></linearGradient><linearGradient id="h" x1="189.61" x2="189.61" y1="1249.39" y2="-2.368" gradientUnits="userSpaceOnUse"><stop stop-color="#223C6A"/><stop offset="1" stop-color="#5A8AB7"/></linearGradient><linearGradient id="i" x1="78.78" x2="78.78" y1="468.804" y2="301.677" gradientUnits="userSpaceOnUse"><stop stop-color="#223C6A"/><stop offset="1" stop-color="#5A8AB7"/></linearGradient><linearGradient id="j" x1="78.78" x2="78.78" y1="510.427" y2="343.3" gradientUnits="userSpaceOnUse"><stop stop-color="#223C6A"/><stop offset="1" stop-color="#5A8AB7"/></linearGradient><linearGradient id="k" x1="393.906" x2="393.906" y1="979.297" y2="422.023" gradientUnits="userSpaceOnUse"><stop stop-color="#223C6A"/><stop offset="1" stop-color="#5A8AB7"/></linearGradient><linearGradient id="l" x1="189.714" x2="563.245" y1="806.978" y2="806.978" gradientUnits="userSpaceOnUse"><stop stop-color="#002649"/><stop offset=".321" stop-color="#042A4F"/><stop offset=".748" stop-color="#0F3460"/><stop offset="1" stop-color="#183D6D"/></linearGradient><linearGradient id="m" x1="565.458" x2="42.119" y1="806.978" y2="806.978" gradientUnits="userSpaceOnUse"><stop stop-color="#FF2A64"/><stop offset=".031" stop-color="#FF3462"/><stop offset=".169" stop-color="#FF595A"/><stop offset=".313" stop-color="#FF7854"/><stop offset=".463" stop-color="#FF904E"/><stop offset=".62" stop-color="#FFA24B"/><stop offset=".791" stop-color="#FFAC49"/><stop offset="1" stop-color="#FFAF48"/></linearGradient><linearGradient id="n" x1="551.283" x2="551.283" y1="909.807" y2="685.44" gradientUnits="userSpaceOnUse"><stop stop-color="#FF2A64"/><stop offset=".031" stop-color="#FF3462"/><stop offset=".169" stop-color="#FF595A"/><stop offset=".313" stop-color="#FF7854"/><stop offset=".463" stop-color="#FF904E"/><stop offset=".62" stop-color="#FFA24B"/><stop offset=".791" stop-color="#FFAC49"/><stop offset="1" stop-color="#FFAF48"/></linearGradient><linearGradient id="o" x1="551.283" x2="551.283" y1="880.897" y2="588.608" gradientUnits="userSpaceOnUse"><stop stop-color="#FF2A64"/><stop offset=".031" stop-color="#FF3462"/><stop offset=".169" stop-color="#FF595A"/><stop offset=".313" stop-color="#FF7854"/><stop offset=".463" stop-color="#FF904E"/><stop offset=".62" stop-color="#FFA24B"/><stop offset=".791" stop-color="#FFAC49"/><stop offset="1" stop-color="#FFAF48"/></linearGradient><linearGradient id="p" x1="1174.02" x2="1174.02" y1="1381.3" y2="537.774" gradientUnits="userSpaceOnUse"><stop stop-color="#002649"/><stop offset=".321" stop-color="#042A4F"/><stop offset=".748" stop-color="#0F3460"/><stop offset="1" stop-color="#183D6D"/></linearGradient><linearGradient id="q" x1="1094.23" x2="1094.23" y1="903.499" y2="562.888" gradientUnits="userSpaceOnUse"><stop stop-color="#183D6D"/><stop offset=".194" stop-color="#1C4373"/><stop offset=".453" stop-color="#265483"/><stop offset=".746" stop-color="#376F9F"/><stop offset="1" stop-color="#498DBC"/></linearGradient><linearGradient id="r" x1="1275.72" x2="1275.72" y1="669.586" y2="1297.13" gradientUnits="userSpaceOnUse"><stop stop-color="#002649"/><stop offset=".321" stop-color="#042A4F"/><stop offset=".748" stop-color="#0F3460"/><stop offset="1" stop-color="#183D6D"/></linearGradient><linearGradient id="s" x1="1289.43" x2="1289.43" y1="1297.2" y2="1073.12" gradientUnits="userSpaceOnUse"><stop stop-color="#223C6A"/><stop offset="1" stop-color="#5A8AB7"/></linearGradient><linearGradient id="t" x1="1335.8" x2="1335.8" y1="1204.69" y2="865.114" gradientUnits="userSpaceOnUse"><stop stop-color="#FF2A64"/><stop offset=".031" stop-color="#FF3462"/><stop offset=".169" stop-color="#FF595A"/><stop offset=".313" stop-color="#FF7854"/><stop offset=".463" stop-color="#FF904E"/><stop offset=".62" stop-color="#FFA24B"/><stop offset=".791" stop-color="#FFAC49"/><stop offset="1" stop-color="#FFAF48"/></linearGradient><linearGradient id="u" x1="1335.8" x2="1335.8" y1="1204.69" y2="865.114" gradientUnits="userSpaceOnUse"><stop stop-color="#FF2A64"/><stop offset=".031" stop-color="#FF3462"/><stop offset=".169" stop-color="#FF595A"/><stop offset=".313" stop-color="#FF7854"/><stop offset=".463" stop-color="#FF904E"/><stop offset=".62" stop-color="#FFA24B"/><stop offset=".791" stop-color="#FFAC49"/><stop offset="1" stop-color="#FFAF48"/></linearGradient><linearGradient id="v" x1="957.911" x2="957.911" y1="1690.08" y2="1212.25" gradientUnits="userSpaceOnUse"><stop stop-color="#223C6A"/><stop offset="1" stop-color="#5A8AB7"/></linearGradient><linearGradient id="w" x1="1152.53" x2="1152.53" y1="1709.81" y2="1432.07" gradientUnits="userSpaceOnUse"><stop stop-color="#223C6A"/><stop offset="1" stop-color="#5A8AB7"/></linearGradient><linearGradient id="x" x1="1133.52" x2="1133.52" y1="1584.69" y2="1243.01" gradientUnits="userSpaceOnUse"><stop stop-color="#03192E"/><stop offset=".5" stop-color="#223C6A"/><stop offset="1" stop-color="#4A74A2"/></linearGradient><linearGradient id="y" x1="961.342" x2="961.342" y1="1486.62" y2="1271.63" gradientUnits="userSpaceOnUse"><stop stop-color="#002649"/><stop offset=".321" stop-color="#042A4F"/><stop offset=".748" stop-color="#0F3460"/><stop offset="1" stop-color="#183D6D"/></linearGradient><linearGradient id="z" x1="901.556" x2="291.333" y1="1416.01" y2="750.957" gradientUnits="userSpaceOnUse"><stop stop-color="#FF2A64"/><stop offset=".031" stop-color="#FF3462"/><stop offset=".169" stop-color="#FF595A"/><stop offset=".313" stop-color="#FF7854"/><stop offset=".463" stop-color="#FF904E"/><stop offset=".62" stop-color="#FFA24B"/><stop offset=".791" stop-color="#FFAC49"/><stop offset="1" stop-color="#FFAF48"/></linearGradient><linearGradient id="A" x1="990.81" x2="241.758" y1="1630.74" y2="677.034" gradientUnits="userSpaceOnUse"><stop stop-color="#FF2A64"/><stop offset=".031" stop-color="#FF3462"/><stop offset=".169" stop-color="#FF595A"/><stop offset=".313" stop-color="#FF7854"/><stop offset=".463" stop-color="#FF904E"/><stop offset=".62" stop-color="#FFA24B"/><stop offset=".791" stop-color="#FFAC49"/><stop offset="1" stop-color="#FFAF48"/></linearGradient><linearGradient id="B" x1="951.162" x2="951.162" y1="1501.45" y2="612.708" gradientUnits="userSpaceOnUse"><stop stop-color="#223C6A"/><stop offset="1" stop-color="#5A8AB7"/></linearGradient><linearGradient id="C" x1="962.503" x2="962.503" y1="1026.54" y2="581.872" gradientUnits="userSpaceOnUse"><stop stop-color="#386E9F"/><stop offset="1" stop-color="#fff"/></linearGradient><linearGradient id="D" x1="963.186" x2="963.186" y1="1622.56" y2="1033.21" gradientUnits="userSpaceOnUse"><stop stop-color="#386E9F"/><stop offset="1" stop-color="#fff"/></linearGradient><linearGradient id="E" x1="976.202" x2="976.202" y1="1629.66" y2="775.69" gradientUnits="userSpaceOnUse"><stop stop-color="#03192E"/><stop offset=".5" stop-color="#223C6A"/><stop offset="1" stop-color="#4A74A2"/></linearGradient><linearGradient id="F" x1="704.059" x2="704.059" y1="1168.42" y2="365.784" gradientUnits="userSpaceOnUse"><stop stop-color="#386E9F"/><stop offset="1" stop-color="#fff"/></linearGradient><linearGradient id="G" x1="1178.7" x2="1178.7" y1="1168.42" y2="365.784" gradientUnits="userSpaceOnUse"><stop stop-color="#386E9F"/><stop offset="1" stop-color="#fff"/></linearGradient><linearGradient id="H" x1="1175.64" x2="1175.64" y1="1321.38" y2="816.613" gradientUnits="userSpaceOnUse"><stop stop-color="#386E9F"/><stop offset="1" stop-color="#fff"/></linearGradient><linearGradient id="I" x1="1100.81" x2="1100.81" y1="552.629" y2="-121.519" gradientUnits="userSpaceOnUse"><stop stop-color="#FF2A64"/><stop offset=".031" stop-color="#FF3462"/><stop offset=".169" stop-color="#FF595A"/><stop offset=".313" stop-color="#FF7854"/><stop offset=".463" stop-color="#FF904E"/><stop offset=".62" stop-color="#FFA24B"/><stop offset=".791" stop-color="#FFAC49"/><stop offset="1" stop-color="#FFAF48"/></linearGradient><linearGradient id="J" x1="1111.57" x2="1111.57" y1="459.594" y2="-50.933" gradientUnits="userSpaceOnUse"><stop stop-color="#FF2A64"/><stop offset=".031" stop-color="#FF3462"/><stop offset=".169" stop-color="#FF595A"/><stop offset=".313" stop-color="#FF7854"/><stop offset=".463" stop-color="#FF904E"/><stop offset=".62" stop-color="#FFA24B"/><stop offset=".791" stop-color="#FFAC49"/><stop offset="1" stop-color="#FFAF48"/></linearGradient><linearGradient id="K" x1="1228.63" x2="1228.63" y1="383.587" y2="-160.492" gradientUnits="userSpaceOnUse"><stop stop-color="#FF2A64"/><stop offset=".031" stop-color="#FF3462"/><stop offset=".169" stop-color="#FF595A"/><stop offset=".313" stop-color="#FF7854"/><stop offset=".463" stop-color="#FF904E"/><stop offset=".62" stop-color="#FFA24B"/><stop offset=".791" stop-color="#FFAC49"/><stop offset="1" stop-color="#FFAF48"/></linearGradient><linearGradient id="L" x1="1062.96" x2="1062.96" y1="1347.88" y2="71.831" gradientUnits="userSpaceOnUse"><stop stop-color="#FF2A64"/><stop offset=".031" stop-color="#FF3462"/><stop offset=".169" stop-color="#FF595A"/><stop offset=".313" stop-color="#FF7854"/><stop offset=".463" stop-color="#FF904E"/><stop offset=".62" stop-color="#FFA24B"/><stop offset=".791" stop-color="#FFAC49"/><stop offset="1" stop-color="#FFAF48"/></linearGradient><linearGradient id="M" x1="1335.37" x2="1335.37" y1="632.464" y2="-53.809" gradientUnits="userSpaceOnUse"><stop stop-color="#FF2A64"/><stop offset=".031" stop-color="#FF3462"/><stop offset=".169" stop-color="#FF595A"/><stop offset=".313" stop-color="#FF7854"/><stop offset=".463" stop-color="#FF904E"/><stop offset=".62" stop-color="#FFA24B"/><stop offset=".791" stop-color="#FFAC49"/><stop offset="1" stop-color="#FFAF48"/></linearGradient><linearGradient id="N" x1="867.525" x2="867.525" y1="704.867" y2="560.226" gradientUnits="userSpaceOnUse"><stop stop-color="#03192E"/><stop offset=".5" stop-color="#223C6A"/><stop offset="1" stop-color="#4A74A2"/></linearGradient><linearGradient id="O" x1="1024.29" x2="831.856" y1="821.535" y2="621.812" gradientUnits="userSpaceOnUse"><stop stop-color="#386E9F"/><stop offset="1" stop-color="#fff"/></linearGradient><linearGradient id="P" x1="870.989" x2="870.989" y1="753.797" y2="568.736" gradientUnits="userSpaceOnUse"><stop stop-color="#FF2A64"/><stop offset=".031" stop-color="#FF3462"/><stop offset=".169" stop-color="#FF595A"/><stop offset=".313" stop-color="#FF7854"/><stop offset=".463" stop-color="#FF904E"/><stop offset=".62" stop-color="#FFA24B"/><stop offset=".791" stop-color="#FFAC49"/><stop offset="1" stop-color="#FFAF48"/></linearGradient><linearGradient id="Q" x1="824.804" x2="824.804" y1="580.155" y2="490.641" gradientUnits="userSpaceOnUse"><stop stop-color="#03192E"/><stop offset=".5" stop-color="#223C6A"/><stop offset="1" stop-color="#4A74A2"/></linearGradient><linearGradient id="R" x1="944.428" x2="944.428" y1="580.155" y2="490.641" gradientUnits="userSpaceOnUse"><stop stop-color="#03192E"/><stop offset=".5" stop-color="#223C6A"/><stop offset="1" stop-color="#4A74A2"/></linearGradient><linearGradient id="S" x1="1527.62" x2="721.807" y1="1581.58" y2="814.692" gradientUnits="userSpaceOnUse"><stop stop-color="#FF2A64"/><stop offset=".031" stop-color="#FF3462"/><stop offset=".169" stop-color="#FF595A"/><stop offset=".313" stop-color="#FF7854"/><stop offset=".463" stop-color="#FF904E"/><stop offset=".62" stop-color="#FFA24B"/><stop offset=".791" stop-color="#FFAC49"/><stop offset="1" stop-color="#FFAF48"/></linearGradient><linearGradient id="T" x1="1415.33" x2="609.787" y1="1558.42" y2="738.921" gradientUnits="userSpaceOnUse"><stop stop-color="#FF2A64"/><stop offset=".031" stop-color="#FF3462"/><stop offset=".169" stop-color="#FF595A"/><stop offset=".313" stop-color="#FF7854"/><stop offset=".463" stop-color="#FF904E"/><stop offset=".62" stop-color="#FFA24B"/><stop offset=".791" stop-color="#FFAC49"/><stop offset="1" stop-color="#FFAF48"/></linearGradient><linearGradient id="U" x1="814.209" x2="923.77" y1="1177.28" y2="998.238" gradientUnits="userSpaceOnUse"><stop stop-color="#223C6A"/><stop offset="1" stop-color="#5A8AB7"/></linearGradient><linearGradient id="V" x1="867.945" x2="968.061" y1="1074.96" y2="944.799" gradientUnits="userSpaceOnUse"><stop stop-color="#03192E"/><stop offset=".5" stop-color="#223C6A"/><stop offset="1" stop-color="#4A74A2"/></linearGradient><linearGradient id="W" x1="907.308" x2="982.972" y1="1043.31" y2="903.454" gradientUnits="userSpaceOnUse"><stop stop-color="#A0D3F0"/><stop offset="1" stop-color="#fff"/></linearGradient><linearGradient id="X" x1="905.164" x2="956.649" y1="1097.74" y2="934.777" gradientUnits="userSpaceOnUse"><stop stop-color="#223C6A"/><stop offset="1" stop-color="#5A8AB7"/></linearGradient><linearGradient id="Y" x1="962.701" x2="937.876" y1="1021.72" y2="962.969" gradientUnits="userSpaceOnUse"><stop stop-color="#FF2A64"/><stop offset=".031" stop-color="#FF3462"/><stop offset=".169" stop-color="#FF595A"/><stop offset=".313" stop-color="#FF7854"/><stop offset=".463" stop-color="#FF904E"/><stop offset=".62" stop-color="#FFA24B"/><stop offset=".791" stop-color="#FFAC49"/><stop offset="1" stop-color="#FFAF48"/></linearGradient><linearGradient id="Z" x1="387.664" x2="387.664" y1="1119.53" y2="851.443" gradientUnits="userSpaceOnUse"><stop stop-color="#223C6A"/><stop offset="1" stop-color="#5A8AB7"/></linearGradient><linearGradient id="aa" x1="691.412" x2="691.412" y1="1321.38" y2="816.613" gradientUnits="userSpaceOnUse"><stop stop-color="#386E9F"/><stop offset="1" stop-color="#fff"/></linearGradient><linearGradient id="ab" x1="1549.03" x2="1258.97" y1="937.723" y2="462.913" gradientUnits="userSpaceOnUse"><stop stop-color="#223C6A"/><stop offset="1" stop-color="#5A8AB7"/></linearGradient><linearGradient id="ac" x1="1472" x2="1181.93" y1="984.783" y2="509.973" gradientUnits="userSpaceOnUse"><stop stop-color="#223C6A"/><stop offset="1" stop-color="#5A8AB7"/></linearGradient><linearGradient id="ad" x1="1556.74" x2="1266.68" y1="933.013" y2="458.203" gradientUnits="userSpaceOnUse"><stop stop-color="#223C6A"/><stop offset="1" stop-color="#5A8AB7"/></linearGradient><linearGradient id="ae" x1="1502.81" x2="1212.75" y1="965.956" y2="491.146" gradientUnits="userSpaceOnUse"><stop stop-color="#223C6A"/><stop offset="1" stop-color="#5A8AB7"/></linearGradient><linearGradient id="af" x1="1284.64" x2="1390.25" y1="1000.66" y2="779.841" gradientUnits="userSpaceOnUse"><stop stop-color="#386E9F"/><stop offset="1" stop-color="#fff"/></linearGradient><linearGradient id="ag" x1="1349.58" x2="1349.58" y1="916.903" y2="812.587" gradientUnits="userSpaceOnUse"><stop stop-color="#223C6A"/><stop offset="1" stop-color="#5A8AB7"/></linearGradient><linearGradient id="ah" x1="1448.43" x2="1423.22" y1="795.694" y2="582.811" gradientUnits="userSpaceOnUse"><stop stop-color="#386E9F"/><stop offset="1" stop-color="#fff"/></linearGradient><linearGradient id="ai" x1="1435.75" x2="1435.75" y1="790.752" y2="621.554" gradientUnits="userSpaceOnUse"><stop stop-color="#223C6A"/><stop offset="1" stop-color="#5A8AB7"/></linearGradient><linearGradient id="aj" x1="1359.52" x2="1217.6" y1="648.599" y2="501.857" gradientUnits="userSpaceOnUse"><stop stop-color="#386E9F"/><stop offset="1" stop-color="#fff"/></linearGradient><linearGradient id="ak" x1="1285.25" x2="1285.25" y1="638.582" y2="525.813" gradientUnits="userSpaceOnUse"><stop stop-color="#223C6A"/><stop offset="1" stop-color="#5A8AB7"/></linearGradient></defs></svg>