<svg width="63" height="47" xmlns="http://www.w3.org/2000/svg"><g fill-rule="nonzero" fill="none"><path d="M38.974 4L63 47H52.288L33.403 13.257 38.974 4zm-7.873 32.165L24.94 47H14l6.014-10.835H31.1z" fill="#959595"/><path d="M22.441 0c7.381 0 11.072 2.895 11.072 8.685 0 3.508-1.487 5.9-4.46 7.174C33.018 16.943 35 19.927 35 24.809 35 31.603 30.814 35 22.441 35H0V0h22.441zm.377 19.57H7.517v9.836h15.475c2.851 0 4.277-1.64 4.277-4.918 0-3.278-1.484-4.917-4.451-4.917zM20.902 5.495H7.517v8.579h13.2c3.592 0 5.388-1.43 5.388-4.29 0-2.86-1.735-4.289-5.203-4.289z" fill="#FFF"/></g></svg>