<svg width="97" height="72" xmlns="http://www.w3.org/2000/svg"><g fill-rule="nonzero" fill="none"><path d="M60.226 8L97 72H80.604L51.698 21.778 60.226 8zM48.174 55.874L38.747 72H22l9.205-16.126h16.97z" fill="#636466"/><path d="M34.624 0C46.01 0 51.705 4.467 51.705 13.4c0 5.412-2.293 9.101-6.88 11.068C50.942 26.14 54 30.744 54 38.277 54 48.759 47.541 54 34.624 54H0V0h34.624zm.58 30.195H11.599v15.174h23.875c4.4 0 6.6-2.529 6.6-7.587s-2.29-7.587-6.868-7.587zM32.249 8.476h-20.65v13.236h20.366c5.541 0 8.312-2.206 8.312-6.618 0-4.412-2.676-6.618-8.028-6.618z" fill="#1A2E5A"/></g></svg>