<svg width="30" height="24" xmlns="http://www.w3.org/2000/svg">
	<g fill="none" fill-rule="evenodd">
		<path fill="#2D2D2D" d="M-137-814h375V44h-375z"/><path d="M30 2.824a12.436 12.436 0 01-3.528.974 6.086 6.086 0 002.696-3.36 12.51 12.51 0 01-3.9 1.482C24.135.706 22.543 0 20.736 0c-3.37 0-6.123 2.71-6.123 6.056 0 .48.057.946.158 1.384A17.58 17.58 0 012.094 1.115a5.921 5.921 0 00-.832 3.036 5.936 5.936 0 002.739 5.025c-1.018 0-1.965-.282-2.796-.705v.042c0 2.936 2.122 5.393 4.933 5.943a6.142 6.142 0 01-2.768.1 6.126 6.126 0 005.736 4.206C7.012 20.4 4.36 21.36 1.463 21.36c-.488 0-.975-.028-1.463-.085A17.615 17.615 0 009.436 24c11.3 0 17.51-9.233 17.51-17.238 0-.268 0-.522-.015-.79A12.187 12.187 0 0030 2.824z" fill="#FFF" fill-rule="nonzero"/>
	</g>
</svg>