<svg width="37" height="26" xmlns="http://www.w3.org/2000/svg">
	<g fill="none" fill-rule="evenodd">
		<path fill="#2D2D2D" d="M-189-812h375V46h-375z"/>
		<path d="M14.8 18.571L24.401 13 14.8 7.429V18.57M36.186 4.03c.24.873.407 2.043.518 3.529.13 1.485.185 2.767.185 3.881L37 13c0 4.067-.296 7.057-.814 8.97-.462 1.671-1.535 2.749-3.2 3.213-.87.241-2.461.408-4.903.52-2.405.13-4.606.186-6.641.186L18.5 26c-7.752 0-12.58-.297-14.486-.817-1.665-.464-2.738-1.542-3.2-3.213-.24-.873-.407-2.043-.518-3.529a44.855 44.855 0 01-.185-3.881L0 13c0-4.067.296-7.057.814-8.97.463-1.671 1.535-2.749 3.2-3.213.87-.241 2.461-.408 4.903-.52 2.405-.13 4.607-.186 6.642-.186L18.5 0c7.752 0 12.58.297 14.486.817 1.665.464 2.738 1.542 3.2 3.213z" fill="#FFF" fill-rule="nonzero"/>
	</g>
</svg>