<svg xmlns="http://www.w3.org/2000/svg" viewBox="0 0 1269.91 626"><title>404</title><g style="isolation:isolate"><g id="b0b00349-45e9-475c-9628-ef23385d3d2d" data-name="Layer 1"><path d="M231.85,32.17l-103.2,183.2v38.4h122.4v54.58h58.4V253.77H347v-0.29c16.44,34.62,45.33,54.86,86.23,54.86,41.27,0,70.3-20.13,86.84-54.58H640.65v54.58h58.4V253.77h37.6v-43.6h-37.6v-178h-77.6L536.09,183.72q0.39-7.4.39-15.15C536.47,83,501.77,32,433.37,32Z" style="fill:#683996;mix-blend-mode:color-dodge"/><path d="M103.2,254L0,437.2v38.4H122.4v54.58h58.4V475.6h37.6v-0.29c16.44,34.62,45.33,54.86,86.23,54.86,41.27,0,70.3-20.13,86.84-54.58H512v54.58h58.4V475.6H608V432H570.4V254H492.8L407.43,405.55q0.39-7.4.39-15.15c0-85.6-34.7-136.57-103.1-136.57Z" style="fill:#6bc9ca;opacity:0.4;mix-blend-mode:color-dodge"/><path d="M252.53,476.07l-38.7,68.7v14.4h45.9v20.47h21.9V559.16h14.1v-0.11c6.17,13,17,20.57,32.34,20.57s26.36-7.55,32.56-20.47h45.2v20.47h21.9V559.16h14.1V542.81h-14.1V476.07h-29.1l-32,56.83q0.15-2.78.15-5.68c0-32.1-13-51.21-38.66-51.21Z" style="fill:#683996;mix-blend-mode:color-dodge"/><path d="M733.11,196L629.91,379.2v38.4h122.4v54.58h58.4V417.6h37.6v-0.29c16.44,34.62,45.33,54.86,86.23,54.86,41.27,0,70.3-20.13,86.84-54.58h120.54v54.58h58.4V417.6h37.6V374h-37.6V196h-77.6l-85.37,151.55q0.39-7.4.39-15.15c0-85.6-34.7-136.57-103.1-136.57Z" style="fill:#cc3533;opacity:0.8;mix-blend-mode:color-dodge"/><path d="M757.23,418.87l-77.4,137.4v28.8h91.8V626h43.8V585.07h28.2v-0.21c12.33,26,34,41.15,64.67,41.15,30.95,0,52.72-15.1,65.13-40.93h90.4V626h43.8V585.07h28.2v-32.7h-28.2V418.87h-58.2l-64,113.66q0.29-5.55.29-11.36c0-64.2-26-102.43-77.33-102.43Z" style="fill:#683996;opacity:0.6000000000000001;mix-blend-mode:overlay"/><path d="M765.11,0.17l-103.2,183.2v38.4h122.4v54.58h58.4V221.77h37.6v-0.29c16.44,34.62,45.33,54.86,86.23,54.86,41.27,0,70.3-20.13,86.84-54.58h120.54v54.58h58.4V221.77h37.6v-43.6h-37.6V0.17h-77.6l-85.37,151.55q0.39-7.4.39-15.15C1069.74,51,1035,0,966.63,0Z" style="fill:#cc3533;opacity:0.8;mix-blend-mode:color-dodge"/><path d="M301,176.17l-103.2,183.2v38.4h122.4v54.58h58.4V397.77h37.6v-0.29c16.44,34.62,45.33,54.86,86.23,54.86,41.27,0,70.3-20.13,86.84-54.58H709.83v54.58h58.4V397.77h37.6v-43.6h-37.6v-178h-77.6L605.26,327.72q0.39-7.4.39-15.15c0-85.6-34.7-136.57-103.1-136.57Z" style="fill:#24428e;mix-blend-mode:color-dodge"/><path d="M144.94,64L41.74,247.2v38.4h122.4v54.58h58.4V285.6h37.6v-0.29c16.44,34.62,45.33,54.86,86.23,54.86,41.27,0,70.3-20.13,86.84-54.58H553.74v54.58h58.4V285.6h37.6V242h-37.6V64h-77.6L449.17,215.55q0.39-7.4.39-15.15c0-85.6-34.7-136.57-103.1-136.57Z" style="fill:#cc3533;mix-blend-mode:color-dodge"/><path d="M699.24,66L596,249.24v38.4h122.4v54.58h58.4V287.64h37.6v-0.29c16.44,34.62,45.33,54.86,86.23,54.86,41.27,0,70.3-20.13,86.84-54.58H1108v54.58h58.4V287.64H1204V244h-37.6V66h-77.6l-85.37,151.55q0.39-7.4.39-15.15c0-85.6-34.7-136.57-103.1-136.57Z" style="fill:#24428e;opacity:0.8;mix-blend-mode:color-dodge"/></g></g></svg>