<svg width="85" viewBox="0 0 104 123">
  <g fill-rule="nonzero" fill="none">
    <path d="M.563 68.64L11.73 49.103c1.155-2.02 3.754-2.695 5.775-1.54l82.393 48.023c2.02 1.155 2.695 3.753 1.54 5.774L90.27 120.897c-1.155 2.02-3.753 2.695-5.775 1.54L2.103 74.414C.082 73.259-.592 70.66.563 68.64z" fill="#BF392B"/>
    <path d="M12.397 49.191L12.205 49 10 52.924 73 109 12.397 49.191z" fill="#AC3327"/>
    <path d="M90.391 120.878l11.051-19.71c1.144-2.04.477-4.662-1.524-5.827L74.1 80 58 106.605l26.675 15.827c2 1.165 4.573.485 5.716-1.554z" fill="#D6D6D6"/>
    <path fill="#CACACA" d="M62.487 99l-.487.648L73 109z"/>
    <path d="M11.235 43.818L27.126 28.22c1.647-1.627 4.36-1.627 6.007 0l67.632 66.124a4.066 4.066 0 0 1 0 5.838l-15.89 15.598c-1.648 1.627-4.361 1.627-6.008 0L11.235 49.656a4.065 4.065 0 0 1 0-5.838z" fill="#E2574C"/>
    <path d="M26.627 29L23 32.557 65 96 26.627 29z" fill="#CB4E44"/>
    <path d="M100.772 100.2a4.076 4.076 0 0 0 0-5.831L77.952 72 56 93.126l23.012 22.655c1.637 1.625 4.333 1.625 5.97 0l15.79-15.581z" fill="#E0E0E0"/>
    <path d="M28.106 22.84l19.561-11.276c2.024-1.156 4.625-.482 5.782 1.542l47.987 83.27c1.156 2.025.482 4.627-1.542 5.784l-19.561 11.276c-2.024 1.156-4.625.482-5.782-1.542L26.564 28.623c-1.156-2.024-.482-4.626 1.542-5.783z" fill="#D07C40"/>
    <path fill="#D1D1D1" d="M60.4 88l-.4.405L65 96z"/>
    <path d="M80.249 113.433l19.637-11.342c2.032-1.163 2.709-3.78 1.548-5.816L84.602 67 58 83.48l16.348 28.402c1.258 2.035 3.87 2.714 5.9 1.55z" fill="#EBEBEB"/>
    <path d="M49.48 13.313a4.788 4.788 0 0 1 0-2.313c-.567.096-1.039.29-1.606.578L44 13.891l26.646 79.037L49.48 13.313zM79.81 107H80v-.096l-.19.096z" fill="#BB6F39"/>
    <path d="M80.799 107H81v-.098l-.201.098zM66.906 78l-.906.586 5.033 14.158L66.906 78z" fill="#DBDBDB"/>
    <path d="M52.068 8.92l21.8-5.78c2.218-.577 4.533.675 5.208 2.89l24.79 90.943c.579 2.216-.772 4.528-2.99 5.106l-21.8 5.78c-2.218.578-4.533-.674-5.208-2.89L49.175 14.027c-.676-2.216.675-4.528 2.893-5.106z" fill="#F4B459"/>
    <path d="M79.016 0h19.968A4.977 4.977 0 0 1 104 5.007v93.986A4.977 4.977 0 0 1 98.984 104H79.016A4.977 4.977 0 0 1 74 98.993V5.007A4.977 4.977 0 0 1 79.016 0z" fill="#EFC75E"/>
    <path d="M66 74.527l8.053 29.442c.575 2.192 2.876 3.526 5.176 2.859l21.666-5.717c2.205-.572 3.547-2.859 2.972-5.05L95.814 67 66 74.527z" fill="#E6E6E6"/>
    <path d="M73.5 5.017c0-.768.2-1.44.5-2.017-.2 0-.5 0-.7.096L68 4.441 73.5 81V5.017z" fill="#DBA250"/>
    <path d="M74 67v31.087c0 2.74 2.219 4.913 5.016 4.913h19.968c2.797 0 5.016-2.173 5.016-4.913V67H74z" fill="#EFEFEF"/>
    <path fill="#DDD" d="M74 73l-1 .186L74 81z"/>
    <path d="M79 72v4.808h16.15V72H79zm0 25h6.65v-2.885H79V97zm0-6.731h6.65v-2.884H79v2.884zm0-6.73h6.65v-2.885H79v2.884zm16.625 8.653c1.33 0 2.375 1.058 2.375 2.404C98 95.942 96.955 97 95.625 97s-2.375-1.058-2.375-2.404c0-1.346 1.045-2.404 2.375-2.404z" fill="#BFBFBF"/>
  </g>
</svg>
