<svg width="90" viewBox="0 0 101 111">
  <g fill-rule="nonzero" fill="none">
    <path d="M89 3.828C88.993 1.717 87.265.007 85.13 0H25.152v19.138c0 2.114-1.732 3.828-3.87 3.828H0v84.206c.007 2.111 1.735 3.821 3.87 3.828h81.26c2.135-.007 3.863-1.717 3.87-3.828V3.828z" fill="#FFE9CC"/>
    <path fill="#939598" d="M30 101l2.57-18 11.572 3.857L48 98.429z"/>
    <path d="M25 111h60.121c2.142 0 3.879-1.71 3.879-3.818V52c-10.594 28.56-34.352 50.463-64 59z" fill="#FFE2BD"/>
    <path fill="#ACABB1" d="M74 41.5l5.5-5.5L96 52.5 90.5 58z"/>
    <path d="M88.461 29.065c-.639.062-1.27.182-1.888.358a11.313 11.313 0 0 0-4.91 2.888L79 34.992 95.015 51l2.663-2.662a11.321 11.321 0 0 0 2.214-12.896 11.332 11.332 0 0 0-11.43-6.377z" fill="#C6C5CA"/>
    <path d="M72.72 42L32 82.726l10.869 5.425 24.415-24.429-24.415 24.429 2.45 4.9L48.302 99l39.47-39.475L89 58.296l-3.151-3.15L72.72 42zm.174 16.11l2.716-2.714-2.716 2.714z" fill="#FFD733"/>
    <path d="M25 19.167V0L0 23h21.154A3.84 3.84 0 0 0 25 19.167z" fill="#FFA993"/>
    <path d="M48.958 84a1.956 1.956 0 0 1-1.383-3.342L68.57 59.671a1.953 1.953 0 0 1 1.936-.615 1.956 1.956 0 1 1 .826 3.373l-20.99 20.998a1.957 1.957 0 0 1-1.384.573zM75.057 59a2.058 2.058 0 0 1-1.455-3.513l2.91-2.91a2.058 2.058 0 0 1 2.91 2.91l-2.91 2.91a2.047 2.047 0 0 1-1.455.603z" fill="#F1F2F2"/>
    <path d="M53.087 52H12.913C11.857 52 11 50.88 11 49.5s.857-2.5 1.913-2.5h40.174C54.143 47 55 48.12 55 49.5s-.857 2.5-1.913 2.5zM42.059 64H12.94C11.87 64 11 62.88 11 61.5s.87-2.5 1.941-2.5H42.06C43.13 59 44 60.12 44 61.5s-.87 2.5-1.941 2.5zM31 75H13c-1.104 0-2-1.12-2-2.5s.896-2.5 2-2.5h18c1.104 0 2 1.12 2 2.5s-.896 2.5-2 2.5zM66.048 41H28.952C27.874 41 27 39.88 27 38.5s.874-2.5 1.952-2.5h37.096C67.126 36 68 37.12 68 38.5s-.874 2.5-1.952 2.5zM21.167 41h-7.334C12.821 41 12 39.88 12 38.5s.82-2.5 1.833-2.5h7.334C22.179 36 23 37.12 23 38.5s-.82 2.5-1.833 2.5z" fill="#FF7956"/>
  </g>
</svg>
