<svg width="100" viewBox="0 0 126 126">
  <g fill-rule="nonzero" fill="none">
    <path d="M126 63c0 12.629-3.715 24.387-10.114 34.246a63.092 63.092 0 0 1-7.213 9.144 62.12 62.12 0 0 1-4.044 3.896 62.958 62.958 0 0 1-14.033 9.363 62.31 62.31 0 0 1-15.042 5.098A63.486 63.486 0 0 1 63 126a63.28 63.28 0 0 1-16.347-2.145 62.423 62.423 0 0 1-14.69-6.02A63.271 63.271 0 0 1 6.735 91.37C2.426 82.845-.001 73.204-.001 63.001s2.427-19.844 6.735-28.371A63.287 63.287 0 0 1 33.133 7.516l.134-.072C42.122 2.694 52.246 0 63 0c5.438 0 10.715.69 15.75 1.982.218.06.435.117.65.175.607.163 1.21.335 1.808.514 14.31 4.313 26.475 13.58 34.498 25.805a63.507 63.507 0 0 1 2.38 3.93C123.128 41.464 126 51.896 126 63z" fill="#515A6E"/>
    <path d="M63 23.695c0 .295-.006.59-.014.885-.39 13.893-21.583 13.893-21.975 0-.009-.296-.011-.59-.011-.885 0-4.314.883-8.42 2.485-12.16A31.35 31.35 0 0 1 52 0c6.734 5.734 11 14.22 11 23.695z" fill="#E5D6B9"/>
    <path d="M52 35c-5.397 0-10.794-3.473-10.99-10.42-.007-.295-.01-.59-.01-.885 0-4.313.884-8.42 2.486-12.16A31.34 31.34 0 0 1 52 0c-1.04 3.123-1.873 7.064-2.417 11.535-.454 3.74-.706 7.847-.706 12.16 0 .296 0 .59.003.885C48.936 31.527 50.47 35 52 35z" fill="#D1A982"/>
    <path d="M63 23.292c-8.53 3.7-9.942-8.496-13.815-4.708-.043.041-.083.081-.125.117-3.83 3.587-7.541-.195-5.462-7.362A30.843 30.843 0 0 1 52.064 0C58.759 5.636 63 13.977 63 23.292z" fill="#49AAB7"/>
    <path d="M52 0c-1.028 3.212-1.849 7.264-2.386 11.862a103.846 103.846 0 0 0-.597 7.701c-3.804 3.753-7.488-.204-5.422-7.701A32.175 32.175 0 0 1 52 0z" fill="#488089"/>
    <path d="M60 31l-1.195 34.963L56.759 126a63.78 63.78 0 0 1-10.58-1.884l-1.985-58.153L43 31h17z" fill="#5CBF96"/>
    <path d="M50 125a57.846 57.846 0 0 1-3.909-.923l-1.93-57.504L43 32h6.235l.286 34.573L50 125z" fill="#529E5F"/>
    <path fill="#E6E6E6" d="M60 32l-1.193 34H44.194L43 32z"/>
    <path fill="#CCC" d="M50 66h-5.753L43 32h6.694z"/>
    <path d="M118 29l-.13 3.939-.994 30.008-1.157 34.984A63.027 63.027 0 0 1 104.713 111l-1.589-48.053L102 29h16z" fill="#49AAB7"/>
    <path d="M109 107.096a63.121 63.121 0 0 1-4.151 3.904l-1.669-48.053L102 29h6.335l.29 33.947.375 44.149z" fill="#488089"/>
    <path fill="#E6E6E6" d="M118 28l-1.123 34h-13.753L102 28z"/>
    <path fill="#CCC" d="M109 62h-5.753L102 28h6.693z"/>
    <path fill="#E5D6B9" d="M126 2l-3.943 13.15L118.204 28h-16.405L96.08 8.93l-.002-.004L94 2z"/>
    <path fill="#D1A982" d="M108 27.996l-.005.004h-6.186L96.083 8.93l-.003-.004L94 2h8.761z"/>
    <path d="M126 2l-3.943 13.077c-1.397-2.156-2.704-4.584-5.361-5.508-6.36-2.203-5.502 3.599-10.826 5.849-.127.054-.251.1-.374.148-5.106 1.875-8.215-2.692-9.416-6.675l-.002-.004L94 2h32z" fill="#EA7E5A"/>
    <path d="M106 15.566c-5.33 1.875-8.575-2.692-9.828-6.675l-.003-.003L94 2h9.134L106 15.566z" fill="#D64F39"/>
    <path d="M90 20.489v99.429a59.363 59.363 0 0 1-14.627 5.11A59.183 59.183 0 0 1 69 126V20.489l5.978-11.665 3.503-6.837L79.5 0l1.372 2.677 3.151 6.147L90 20.49z" fill="#F7D65E"/>
    <path d="M90 20.34A21.988 21.988 0 0 1 79.496 23 21.911 21.911 0 0 1 69 20.34L79.496 0l.002.003L90 20.34z" fill="#E5D6B9"/>
    <path d="M80 0l-.403 2.162-3.92 21.02v101.846A64.763 64.763 0 0 1 69 126V20.489l6.263-11.665 3.67-6.837L80 0z" fill="#D1A22A"/>
    <path d="M80 .003L75.75 23A23.426 23.426 0 0 1 69 20.676L79.998 0 80 .003z" fill="#D1A982"/>
    <path d="M84 8.842A11.262 11.262 0 0 1 78.998 10c-.66 0-1.307-.055-1.931-.163A11.048 11.048 0 0 1 74 8.842L78.998 0 84 8.842z" fill="#ED5972"/>
    <path d="M80 0l-1.546 10A7.597 7.597 0 0 1 76 8.99L80 0z" fill="#D8375A"/>
    <path d="M33 0v119a61.553 61.553 0 0 1-6.95-4.45C18.047 108.634 11.482 100.804 7 91.713V0h26z" fill="#EA7E5A"/>
    <g fill="#D64F39">
      <path d="M22.063 7.001H32.91v3.713H22.063zM22.063 18.917H32.91v3.714H22.063zM22.063 30.832H32.91v3.714H22.063zM22.063 42.748H32.91v3.713H22.063zM22.063 54.664H32.91v3.713H22.063zM22.063 66.58H32.91v3.712H22.063zM22.063 78.495H32.91v3.714H22.063zM22.063 90.41H32.91v3.714H22.063zM22.063 102.326H32.91v3.714H22.063zM32.911 114.243v3.714h-1.163A62.504 62.504 0 0 1 26 114.243h6.912z"/>
    </g>
  </g>
</svg>
