<svg width="150" viewBox="0 0 148 84">
  <g fill-rule="nonzero" fill="none">
    <path d="M85.33 26.436h13.245v13.512h6.697c3.093 0 6.274-.55 9.202-1.54 1.44-.487 3.055-1.165 4.474-2.017-1.87-2.436-2.824-5.512-3.104-8.544-.383-4.125.451-9.492 3.248-12.72l1.393-1.607 1.659 1.33c4.177 3.35 7.69 8.03 8.309 13.365 5.03-1.477 10.935-1.128 15.368 1.426l1.819 1.047-.957 1.865c-3.75 7.302-11.589 9.564-19.252 9.164-11.467 28.503-36.434 41.998-66.704 41.998-15.64 0-29.988-5.835-38.159-19.682l-.134-.225-1.19-2.417c-2.762-6.096-3.68-12.773-3.057-19.445l.187-1.998H29.7V26.436h13.245V13.218h26.49V0H85.33v26.436z" fill="#364548"/>
    <path d="M128.46 30.88c.891-6.894-4.294-12.309-7.51-14.88-3.706 4.263-4.282 15.435 1.532 20.139-3.245 2.867-10.082 5.466-17.083 5.466h-85.22c-.68 7.27.602 13.967 3.532 19.697l.97 1.765a32.697 32.697 0 0 0 2.009 3c3.504.223 6.734.3 9.69.235 5.808-.127 10.547-.81 14.139-2.048.528-.163 1.09.12 1.271.64a1.017 1.017 0 0 1-.6 1.284c-.479.166-.977.32-1.49.466h-.002c-2.828.804-5.861 1.344-9.774 1.584.233.004-.242.035-.243.035-.133.009-.3.028-.434.035-1.54.086-3.202.104-4.901.104-1.859 0-3.689-.035-5.735-.14l-.053.036C35.658 76.238 46.761 81 60.678 81c29.454 0 54.437-12.99 65.5-42.152 7.848.8 15.391-1.19 18.822-7.854-5.465-3.138-12.494-2.138-16.54-.114" fill="#22A0C8"/>
    <path d="M128.47 31.643c.886-6.785-4.26-12.113-7.452-14.643-3.678 4.195-4.25 15.188 1.52 19.817-3.22 2.822-10.005 5.38-16.953 5.38H26.02c-.345 10.956 3.777 19.274 11.07 24.302 5.765-.125 10.467-.797 14.032-2.015a1.02 1.02 0 0 1 1.262.628.999.999 0 0 1-.597 1.265c-.474.163-.968.314-1.478.458h-.002c-2.807.791-6.075 1.391-9.958 1.628l-.095-.089c9.948 5.034 24.372 5.016 40.909-1.25C99.706 60.095 116.96 46.706 129 31.393c-.181.081-.358.164-.53.249" fill="#37B1D9"/>
    <path d="M21 51c.528 3.95 1.671 7.65 3.365 11.02l.968 1.79a33.15 33.15 0 0 0 2.004 3.042c3.497.227 6.72.305 9.669.239 5.795-.13 10.523-.822 14.106-2.078a1.02 1.02 0 0 1 1.27.649 1.037 1.037 0 0 1-.6 1.303 27.63 27.63 0 0 1-1.487.473h-.002c-2.822.815-6.09 1.398-9.994 1.642-.134.009-.368.01-.503.018-1.535.087-3.176.14-4.872.14-1.854 0-3.75-.035-5.791-.14C36.217 77.152 47.363 82 61.249 82c25.159 0 47.047-9.659 59.751-31H21" fill="#1B81A5"/>
    <path d="M26 51c1.502 6.685 5.112 11.933 10.353 15.506 5.788-.124 10.51-.791 14.09-2.002a1.026 1.026 0 0 1 1.268.625.99.99 0 0 1-.6 1.256c-.476.162-.972.313-1.484.456h-.002c-2.818.785-6.152 1.347-10.052 1.583 9.99 5 24.432 4.927 41.038-1.297C90.657 63.36 100.326 57.753 109 51H26" fill="#1D91B4"/>
    <path d="M32 29.393h11.607V41H32V29.393zm.967.967h.916v9.673h-.916V30.36zm1.722 0h.953v9.673h-.953V30.36zm1.758 0h.953v9.673h-.953V30.36zm1.76 0h.952v9.673h-.952V30.36zm1.758 0h.953v9.673h-.953V30.36zm1.759 0h.916v9.673h-.916V30.36zM45.392 16H57v11.607H45.392V16zm.968.968h.915v9.672h-.915v-9.672zm1.722 0h.952v9.672h-.952v-9.672zm1.758 0h.952v9.672h-.952v-9.672zm1.759 0h.952v9.672H51.6v-9.672zm1.759 0h.953v9.672h-.953v-9.672zm1.758 0h.917v9.672h-.917v-9.672z" fill="#23A3C2"/>
    <path d="M45 29h12v12H45V29zm1 1h.947v10h-.946V30zm1.78 0h.985v10h-.984V30zm1.818 0h.985v10h-.985V30zm1.819 0h.984v10h-.984V30zm1.818 0h.985v10h-.985V30zm1.817 0H56v10h-.948V30z" fill="#34BBDE"/>
    <path d="M58 29h12v12H58V29zm1 1h.946v10H59V30zm1.78 0h.984v10h-.984V30zm1.818 0h.985v10h-.985V30zm1.819 0h.984v10h-.984V30zm1.817 0h.986v10h-.986V30zm1.819 0H69v10h-.947V30z" fill="#23A3C2"/>
    <path d="M58 16h11.607v11.607H58V16zm.967.968h.915v9.672h-.915v-9.672zm1.722 0h.952v9.672h-.952v-9.672zm1.759 0h.952v9.672h-.952v-9.672zm1.759 0h.952v9.672h-.952v-9.672zm1.758 0h.953v9.672h-.953v-9.672zm1.759 0h.916v9.672h-.916v-9.672zm3.669 12.425H83V41H71.393V29.393zm.967.967h.916v9.673h-.916V30.36zm1.722 0h.952v9.673h-.952V30.36zm1.758 0h.953v9.673h-.953V30.36zm1.76 0h.952v9.673H77.6V30.36zm1.758 0h.953v9.673h-.953V30.36zm1.759 0h.916v9.673h-.916V30.36z" fill="#34BBDE"/>
    <path d="M72 15h12v12H72V15zm1 1h.947v10H73V16zm1.78 0h.985v10h-.984V16zm1.818 0h.985v10h-.985V16zm1.819 0h.985v10h-.985V16zm1.818 0h.985v10h-.985V16zm1.818 0H83v10h-.947V16z" fill="#23A3C2"/>
    <path d="M72 2h12v12H72V2zm1 1h.947v10H73V2.998zm1.78 0h.985v10h-.984V2.998zm1.818 0h.985v10h-.985V2.998zm1.819 0h.985v10h-.985V2.998zm1.818 0h.985v10h-.985V2.998zm1.818 0H83v10h-.947V2.998z" fill="#34BBDE"/>
    <path d="M85 29h12v12H85V29zm1 1h.947v10H86V30zm1.78 0h.984v10h-.984V30zm1.818 0h.985v10h-.985V30zm1.818 0h.985v10h-.985V30zm1.819 0h.984v10h-.984V30zm1.818 0H96v10h-.947V30z" fill="#23A3C2"/>
    <path d="M55.96 59a3 3 0 1 1 .08 6 3 3 0 0 1-.08-6" fill="#D3ECEC"/>
    <path d="M55.895 59.493c.289 0 .564.054.819.152a.918.918 0 0 0 .46 1.716c.35 0 .654-.193.811-.479a2.247 2.247 0 0 1-.653 2.606 2.27 2.27 0 0 1-2.693.133 2.249 2.249 0 0 1-.91-2.528 2.262 2.262 0 0 1 2.166-1.6M0 52.078h147c-3.2-.808-10.126-1.9-8.984-6.078-5.82 6.707-19.856 4.706-23.399 1.399-3.944 5.697-26.908 3.531-28.51-.907-4.945 5.78-20.268 5.78-25.213 0-1.603 4.438-24.566 6.604-28.511.906-3.542 3.308-17.577 5.309-23.397-1.397 1.142 4.177-5.784 5.27-8.986 6.078" fill="#364548"/>
    <path d="M64 80.933C56.163 77.308 51.862 72.38 49.469 67c-2.911.81-6.41 1.328-10.476 1.55a88.875 88.875 0 0 1-4.833.126c-1.95 0-4.003-.056-6.16-.167C35.187 75.51 44.028 80.902 60.398 81A97.72 97.72 0 0 0 64 80.933" fill="#BDD9D7"/>
    <path d="M53 72c-1.134-1.445-2.234-3.26-3.043-5-3.044.816-6.704 1.338-10.957 1.563C41.921 70.05 46.098 71.43 53 72" fill="#D3ECEC"/>
  </g>
</svg>
