<svg width="117" viewBox="0 0 117 34">
  <path d="M.761 26.512V13.447H17.02v-.764H.76V.764h17.286V0H0v27.276h18.199v-.764H.762zM32.858 7.64l-6.74 8.902-6.586-8.901h-.99l7.12 9.474-7.806 10.161h.914l7.348-9.589 7.387 9.59h.951l-7.843-10.163 7.158-9.474h-.914zM36.74 34V21.775h.076c.457 1.783 1.358 3.216 2.703 4.298 1.346 1.083 3.059 1.624 5.14 1.624 1.345 0 2.539-.274 3.58-.821a7.62 7.62 0 0 0 2.607-2.235c.698-.943 1.231-2.038 1.6-3.286.367-1.248.551-2.56.551-3.934 0-1.478-.19-2.84-.57-4.088-.382-1.248-.934-2.33-1.657-3.247a7.618 7.618 0 0 0-2.627-2.14c-1.028-.509-2.19-.764-3.484-.764-.99 0-1.91.147-2.76.44a7.382 7.382 0 0 0-2.265 1.241 8.399 8.399 0 0 0-1.714 1.891 8.722 8.722 0 0 0-1.104 2.388h-.076V7.64h-.761V34h.761zm7.92-7.03c-2.387 0-4.303-.82-5.75-2.463-1.447-1.643-2.17-4.005-2.17-7.087 0-1.273.178-2.483.533-3.629.355-1.146.87-2.152 1.542-3.018A7.41 7.41 0 0 1 41.31 8.71c.99-.51 2.107-.764 3.35-.764 1.27 0 2.38.255 3.332.764a6.76 6.76 0 0 1 2.36 2.082c.622.879 1.092 1.885 1.41 3.018a13.34 13.34 0 0 1 .475 3.61 13.65 13.65 0 0 1-.438 3.42 9.79 9.79 0 0 1-1.352 3.056 7.367 7.367 0 0 1-2.341 2.215c-.952.573-2.1.86-3.446.86zm12.525.306V16.16c0-1.07.153-2.114.458-3.133a7.68 7.68 0 0 1 1.408-2.693c.635-.777 1.44-1.388 2.418-1.834.977-.446 2.138-.63 3.484-.554v-.764c-1.168-.025-2.19.102-3.065.382-.876.28-1.631.662-2.266 1.146a5.848 5.848 0 0 0-1.523 1.7 7.616 7.616 0 0 0-.837 2.082h-.077V7.64h-.76v19.637h.76zm8.72-9.665h16.37a13.64 13.64 0 0 0-.399-3.896c-.317-1.248-.825-2.356-1.523-3.324a7.761 7.761 0 0 0-2.703-2.33c-1.104-.586-2.418-.879-3.94-.879-1.092 0-2.158.23-3.199.688a7.953 7.953 0 0 0-2.741 2.005c-.787.879-1.421 1.955-1.904 3.229-.482 1.273-.723 2.724-.723 4.354 0 1.452.165 2.808.495 4.069.33 1.26.837 2.356 1.523 3.285a6.877 6.877 0 0 0 2.646 2.159c1.078.51 2.38.751 3.902.726 2.234 0 4.112-.63 5.635-1.891 1.523-1.261 2.424-3.037 2.704-5.33h-.762c-.33 2.165-1.174 3.789-2.532 4.871-1.358 1.083-3.065 1.624-5.12 1.624-1.397 0-2.577-.242-3.542-.726a6.42 6.42 0 0 1-2.36-1.987c-.61-.84-1.06-1.827-1.352-2.96-.292-1.133-.45-2.362-.476-3.687zm15.61-.764h-15.61c.075-1.375.33-2.61.76-3.705.432-1.096.997-2.032 1.695-2.808a7.082 7.082 0 0 1 2.437-1.777 7.341 7.341 0 0 1 2.989-.611c1.269 0 2.385.236 3.35.707a6.925 6.925 0 0 1 2.418 1.93c.647.814 1.135 1.763 1.465 2.845.33 1.083.495 2.222.495 3.42zm16.562-3.4h.76c0-2.19-.634-3.782-1.903-4.775-1.269-.993-2.995-1.49-5.178-1.49-1.218 0-2.246.153-3.084.459-.837.305-1.523.7-2.056 1.184-.533.483-.913 1.018-1.142 1.604-.228.586-.343 1.146-.343 1.681 0 1.07.19 1.923.572 2.56.38.636.977 1.133 1.789 1.49.558.254 1.193.483 1.904.687.71.204 1.535.42 2.475.65.837.204 1.662.407 2.474.61.812.205 1.53.478 2.151.822.622.344 1.13.783 1.523 1.318.394.535.59 1.235.59 2.101 0 .84-.196 1.554-.59 2.14a4.763 4.763 0 0 1-1.503 1.432c-.61.37-1.289.637-2.037.802-.75.166-1.479.249-2.19.249-2.31 0-4.08-.516-5.311-1.547-1.231-1.032-1.846-2.655-1.846-4.871h-.762c0 2.47.666 4.278 1.999 5.425 1.332 1.146 3.306 1.719 5.92 1.719.838 0 1.682-.096 2.532-.287a7.023 7.023 0 0 0 2.285-.936 5.172 5.172 0 0 0 1.637-1.68c.419-.688.628-1.529.628-2.522 0-.942-.184-1.706-.552-2.292a4.64 4.64 0 0 0-1.447-1.452 7.66 7.66 0 0 0-2.018-.898A117.62 117.62 0 0 0 93.09 17a393.49 393.49 0 0 0-2.799-.726c-.799-.204-1.541-.446-2.227-.726-.66-.28-1.186-.681-1.58-1.203-.393-.522-.59-1.267-.59-2.235 0-.178.05-.497.152-.955.102-.458.343-.923.724-1.394.38-.471.964-.892 1.751-1.261.787-.37 1.866-.554 3.236-.554.94 0 1.796.102 2.57.306.774.203 1.44.528 1.999.974.558.446.99 1.012 1.295 1.7.304.688.457 1.528.457 2.521zm17.627 0h.762c0-2.19-.634-3.782-1.904-4.775-1.269-.993-2.995-1.49-5.178-1.49-1.218 0-2.246.153-3.084.459-.837.305-1.523.7-2.056 1.184-.533.483-.913 1.018-1.142 1.604-.228.586-.342 1.146-.342 1.681 0 1.07.19 1.923.57 2.56.381.636.978 1.133 1.79 1.49a13.76 13.76 0 0 0 1.904.687c.71.204 1.535.42 2.474.65.838.204 1.663.407 2.475.61.813.205 1.53.478 2.152.822.621.344 1.13.783 1.522 1.318.394.535.59 1.235.59 2.101 0 .84-.196 1.554-.59 2.14a4.763 4.763 0 0 1-1.503 1.432c-.61.37-1.289.637-2.038.802-.748.166-1.478.249-2.189.249-2.31 0-4.08-.516-5.31-1.547-1.232-1.032-1.847-2.655-1.847-4.871h-.762c0 2.47.666 4.278 1.999 5.425 1.332 1.146 3.306 1.719 5.92 1.719.838 0 1.682-.096 2.532-.287a7.026 7.026 0 0 0 2.285-.936 5.172 5.172 0 0 0 1.637-1.68c.419-.688.628-1.529.628-2.522 0-.942-.184-1.706-.552-2.292A4.636 4.636 0 0 0 115 18.528a7.664 7.664 0 0 0-2.018-.898c-.753-.217-1.508-.427-2.265-.63a393.5 393.5 0 0 0-2.799-.726c-.8-.204-1.542-.446-2.227-.726-.66-.28-1.187-.681-1.58-1.203s-.59-1.267-.59-2.235c0-.178.05-.497.152-.955.102-.458.343-.923.724-1.394.38-.471.964-.892 1.75-1.261.788-.37 1.867-.554 3.237-.554.94 0 1.796.102 2.57.306.775.203 1.44.528 2 .974.558.446.989 1.012 1.294 1.7.304.688.457 1.528.457 2.521z" fill="#222" fill-rule="nonzero"/>
</svg>
