<svg id="7126c0ba-0d3a-43a0-8021-2dcfc9703b6c" data-name="Layer 1" xmlns="http://www.w3.org/2000/svg" viewBox="0 0 18.48 18.48"><title>icon-link</title><path d="M10.59,13.41a1,1,0,0,1,0,1.42,1,1,0,0,1-1.42,0,5,5,0,0,1,0-7.07h0l3.54-3.54a5,5,0,1,1,7.07,7.07l-1.49,1.49a6.91,6.91,0,0,0-.4-2.42l0.47-.48a3,3,0,1,0-4.24-4.24L10.59,9.17a3,3,0,0,0,0,4.24m2.82-4.24a1,1,0,0,1,1.42,0,5,5,0,0,1,0,7.07h0l-3.54,3.54a5,5,0,1,1-7.07-7.07l1.49-1.49a7,7,0,0,0,.4,2.43l-0.47.47a3,3,0,0,0,4.24,4.24l3.53-3.53a3,3,0,0,0,0-4.24A1,1,0,0,1,13.41,9.17Z" transform="translate(-2.76 -2.76)" style="fill:#24408f"/></svg>