<?xml version="1.0" encoding="utf-8"?>
<!-- Generator: Adobe Illustrator 20.0.0, SVG Export Plug-In . SVG Version: 6.00 Build 0)  -->
<svg version="1.1" id="Layer_1" xmlns="http://www.w3.org/2000/svg" xmlns:xlink="http://www.w3.org/1999/xlink" x="0px" y="0px"
	 viewBox="0 0 269.3 54.2" style="enable-background:new 0 0 269.3 54.2;" xml:space="preserve">
<style type="text/css">
	.st0{clip-path:url(#SVGID_2_);}
	.st1{fill:#319999;}
	.st2{fill:#FFFFFF;}
	.st3{fill:url(#SVGID_3_);}
	.st4{fill:#69C8C9;}
	.st5{fill:url(#SVGID_4_);}
</style>
<title>logo</title>
<g>
	<defs>
		<path id="SVGID_1_" d="M272.8,53.3c0,0.4-0.3,0.7-0.7,0.7H0.7C0.3,54,0,53.7,0,53.3V0.7C0,0.3,0.3,0,0.7,0c0,0,0,0,0,0h271.4
			c0.4,0,0.7,0.3,0.7,0.7c0,0,0,0,0,0L272.8,53.3L272.8,53.3z"/>
	</defs>
	<clipPath id="SVGID_2_">
		<use xlink:href="#SVGID_1_"  style="overflow:visible;"/>
	</clipPath>
	<g class="st0">
		<path class="st1" d="M269.3,49.8V4.1c-0.1-0.3-0.3-0.6-0.7-0.7H130.1l1.3,2.1h135.8v42.9H130.9l-1.3,2.1h139
			C269.3,50.5,269.3,50.2,269.3,49.8L269.3,49.8z"/>
		
			<image style="overflow:visible;opacity:0.3;enable-background:new    ;" width="183" height="90" xlink:href="73B7A7EF719EE79D.png"  transform="matrix(1 0 0 1 -16 -18)">
		</image>
		<path class="st1" d="M145.7,26.9L128.8,0H0.7C0.3,0,0,0.3,0,0.7c0,0,0,0,0,0v52.6C0,53.7,0.3,54,0.7,54h128l16.9-26.5
			C145.8,27.4,145.8,27.1,145.7,26.9C145.7,26.9,145.7,26.9,145.7,26.9z"/>
		<path class="st2" d="M170.9,15.3c6.2,0,11.2,5,11.2,11.1c0,6.2-5,11.2-11.1,11.2c-6.2,0-11.2-5-11.2-11.1c-0.2-6,4.6-11,10.6-11.2
			C170.6,15.3,170.8,15.3,170.9,15.3z M170.9,34.4c4.4,0.1,8.1-3.5,8.1-7.9c0.1-4.4-3.5-8.1-7.9-8.1s-8.1,3.5-8.1,7.9
			c0,0,0,0.1,0,0.1c-0.2,4.3,3.2,7.8,7.4,8C170.6,34.5,170.8,34.5,170.9,34.4z"/>
		
			<linearGradient id="SVGID_3_" gradientUnits="userSpaceOnUse" x1="276.825" y1="-29.92" x2="276.825" y2="-62.46" gradientTransform="matrix(1 0 0 -1 -80 -14)">
			<stop  offset="0.6" style="stop-color:#FFFFFF"/>
			<stop  offset="1" style="stop-color:#319999"/>
		</linearGradient>
		<path class="st3" d="M192.8,15.9h3.9l13.1,32.5h-3.4L200,32.5h-10.8l-2,4.8h-3.4L192.8,15.9z M190.1,29.8h9l-4.4-11.1L190.1,29.8z
			"/>
		<path class="st2" d="M209.1,15.9h9.6c4.8,0,8.1,2,8.1,6.8c0.1,3.5-2.6,6.4-6,6.6l7.7,7.4v0.7h-4.1l-7.9-8.3h-3.9v8.3h-3.5
			L209.1,15.9L209.1,15.9z M212.5,18.7v7.6h6.5c2.4,0,4.3-1.2,4.3-3.8c0-2.8-1.9-3.8-4.3-3.8H212.5L212.5,18.7z M231.9,15.9h9.1
			c6.4,0,11.2,3.7,11.2,10.8s-4.8,10.7-11.2,10.7h-9.1L231.9,15.9L231.9,15.9z M235.4,18.7v15.9h5.5c4.6,0,7.9-2.8,7.9-7.9
			s-3.3-8-7.9-8L235.4,18.7L235.4,18.7z"/>
		<path class="st4" d="M124.7,48.5H5.5V5.5h122.1l-1.3-2.1H4.1c-0.4,0-0.7,0.3-0.7,0.7v45.7c0,0.4,0.3,0.7,0.7,0.7h121.7l1.3-2.1
			L124.7,48.5L124.7,48.5z"/>
		<path class="st2" d="M38.8,28.4H24.9v9h-2.8V15.9h2.8v9h13.8v-9h2.8v21.5h-2.8C38.8,37.4,38.8,28.4,38.8,28.4z M57.3,15.6
			c6.2,0,11.2,5,11.2,11.1c0,6.2-5,11.2-11.1,11.2c-6.2,0-11.2-5-11.2-11.1c0,0,0,0,0,0c-0.2-6,4.6-11,10.6-11.2
			C57,15.6,57.1,15.6,57.3,15.6z M57.3,34.8c4.4,0.1,8.1-3.5,8.1-7.9c0.1-4.4-3.5-8.1-7.9-8.1s-8.1,3.5-8.1,7.9c0,0,0,0.1,0,0.1
			c-0.2,4.3,3.2,7.8,7.4,8C57,34.8,57.1,34.8,57.3,34.8z"/>
		
			<linearGradient id="SVGID_4_" gradientUnits="userSpaceOnUse" x1="162.04" y1="-51.39" x2="162.04" y2="-19.54" gradientTransform="matrix(1 0 0 -1 -80 -14)">
			<stop  offset="0.6" style="stop-color:#FFFFFF"/>
			<stop  offset="1" style="stop-color:#6AC8C9"/>
		</linearGradient>
		<path class="st5" d="M69,15.9h3.6l7.1,18.8L91.5,5.5h3.6L81.7,37.4h-4.1L69,15.9z"/>
		<path class="st2" d="M114.2,15.9h9.3c4.8,0,8.1,2.2,8.1,7c0,3.7-2.8,6.2-6.2,6.7l7.5,7.5v0.3h-3.7l-7.9-7.6h-3.7v7.6h-3.5
			L114.2,15.9L114.2,15.9z M117.7,18.7V27h6.2c2.2,0.2,4.1-1.5,4.3-3.7c0-0.2,0-0.3,0-0.5c0-2.8-1.9-4.2-4.3-4.2
			C123.9,18.7,117.7,18.7,117.7,18.7z M109.4,34.6H88.3l-1.1,2.8h22.2V34.6z M106.6,24.9H92.3l-1.2,2.8h15.4V24.9z M108.7,15.9H96.1
			L95,18.7h13.7V15.9z M150.8,26.3c2.2-0.5,3.7-2.5,3.6-4.7c0-3.9-2.8-5.7-7.4-5.7h-8.3l3.1,5.1v-2.3h4.7c2.7,0,4.4,0.8,4.4,3.2
			c0,2.2-1.8,3.1-4.5,3.1h-1.9l1.1,1.9c0.1,0.2,0.1,0.3-0.1,0.5l-0.3,0.4h2.2c3.2,0,5.1,1.1,5.1,3.6c0,2.1-1.5,3.3-4.5,3.3h-6.2
			v-1.4l-2.7,4.2h9.3c5,0,7.6-2.1,7.6-5.6C156.1,28.5,154.1,26.9,150.8,26.3L150.8,26.3z"/>
	</g>
</g>
</svg>
