<svg width="182" viewBox="0 0 182 52">
  <g fill-rule="nonzero" fill="none">
    <path d="M169.677 21.8c-.164.032-.328.392-.328.588a396.453 396.453 0 0 0-.065 7.133c0 .065.098.196.196.196.492.033 1.672.065 2.688.065 1.409 0 2.228-.196 2.688-.392 1.179-.59 1.736-1.865 1.736-3.272 0-3.173-2.228-4.384-5.539-4.384-.23-.033-.884-.033-1.376.066zm8.456 14.624c0-3.239-2.393-5.039-6.719-5.039-.197 0-1.573-.032-1.9.033-.1.033-.23.099-.23.197 0 2.322-.033 6.02.065 7.46.066.62.525 1.504 1.082 1.766.59.327 1.934.392 2.851.392 2.59 0 4.85-1.439 4.85-4.809zM162.992 20c.327 0 1.31.098 3.834.098 2.392 0 4.293-.065 6.62-.065 2.851 0 6.784 1.014 6.784 5.267 0 2.094-1.475 3.763-3.408 4.58-.098.033-.098.099 0 .131C179.574 30.7 182 32.4 182 35.606c0 3.141-1.966 5.137-4.818 6.38-1.737.752-3.9 1.014-6.096 1.014-1.671 0-6.161-.196-8.652-.13-.262-.099.23-1.277.459-1.473.59-.033 1.049-.065 1.671-.262.886-.229.984-.49 1.115-1.832.065-1.145.065-5.202.065-8.081 0-3.959.033-6.641 0-7.95-.032-1.014-.393-1.342-1.114-1.538a59.116 59.116 0 0 0-2.229-.327c-.164-.164.393-1.276.59-1.407zM144.08 40.35c.787.621 2.327.883 3.704.883 1.77 0 3.539-.327 5.243-1.865 1.737-1.57 2.95-3.99 2.95-7.851 0-3.698-1.41-6.708-4.294-8.474-1.638-1.015-3.736-1.44-6.161-1.44-.721 0-1.41.033-1.835.23-.099.065-.328.36-.328.523-.066.654-.066 5.692-.066 8.637 0 3.043 0 7.296.066 7.787 0 .49.23 1.243.721 1.57zM136.64 20c.623 0 3.015.098 4.162.098 2.066 0 3.54-.098 7.44-.098 3.277 0 6.03.883 7.997 2.552 2.392 2.061 3.638 4.908 3.638 8.375 0 4.94-2.262 7.787-4.523 9.423-2.261 1.669-5.21 2.65-9.406 2.65-2.228 0-6.063-.065-9.242-.098h-.033c-.164-.294.262-1.44.524-1.472.853-.098 1.082-.131 1.508-.294.688-.262.82-.622.918-1.833.098-2.257.065-4.973.065-8.048 0-2.192.033-6.478-.033-7.853-.098-1.144-.59-1.439-1.573-1.635-.491-.098-1.147-.23-2.064-.327-.131-.23.458-1.244.622-1.44z" fill="#8E714E"/>
    <path d="M96.557 41.746c-.823-.096-1.416-.224-2.14-.544-.099-.065-.264-.385-.264-.513-.065-1.122-.065-4.326-.065-6.473 0-1.73-.296-3.236-1.054-4.293C92.145 28.705 90.862 28 89.215 28c-1.448 0-3.39.961-5.004 2.307-.032.032-.296.257-.263-.096 0-.353.066-1.058.099-1.538.033-.449-.23-.673-.23-.673-1.054.513-4.017 1.185-5.103 1.281-.79.161-.988.898-.164 1.154h.032c.889.256 1.482.545 1.942.833.33.257.297.61.297.898.032 2.402.032 6.088-.066 8.106-.033.801-.263 1.09-.856 1.218l.066-.032c-.461.096-.823.192-1.383.256-.198.192-.198 1.218 0 1.442.362 0 2.271-.096 3.852-.096 2.173 0 3.292.096 3.851.096.23-.256.297-1.218.165-1.442-.625-.032-1.086-.096-1.514-.224-.593-.129-.757-.417-.79-1.09-.066-1.698-.066-5.287-.066-7.722 0-.673.197-.993.395-1.186.757-.64 1.975-1.089 3.062-1.089 1.053 0 1.744.32 2.27.737.725.577.956 1.41 1.054 2.019.165 1.378.1 4.101.1 6.472 0 1.282-.1 1.603-.593 1.763-.23.096-.823.224-1.515.288-.23.224-.164 1.218 0 1.442.955 0 2.074-.096 3.72-.096 2.041 0 3.358.096 3.885.096.164-.192.23-1.121.099-1.378zm9.119-12.24c-1.745 0-2.831 1.314-2.831 3.364 0 2.083.954 4.486 3.654 4.486.46 0 1.317-.192 1.711-.64.626-.577 1.054-1.73 1.054-2.949 0-2.659-1.35-4.261-3.588-4.261zm-.23 14.163a2.89 2.89 0 0 0-1.416.352c-1.383.865-2.008 1.698-2.008 2.692 0 .929.362 1.666 1.152 2.307.955.8 2.271 1.186 3.95 1.186 3.358 0 4.84-1.763 4.84-3.493 0-1.218-.626-2.019-1.91-2.467-.921-.385-2.6-.577-4.609-.577zm.23 8.331c-2.008 0-3.457-.417-4.708-1.346-1.218-.897-1.745-2.243-1.745-3.172 0-.256.066-.962.659-1.602.362-.385 1.152-1.122 3.029-2.371.065-.032.098-.064.098-.129 0-.064-.066-.128-.132-.16-1.547-.576-2.008-1.506-2.14-2.018v-.065c-.032-.192-.098-.384.198-.576.23-.16.56-.353.922-.577.56-.32 1.152-.673 1.514-.962.066-.064.066-.127.066-.192 0-.064-.066-.128-.132-.16-2.304-.737-3.456-2.403-3.456-4.903 0-1.634.757-3.108 2.107-4.037.921-.705 3.226-1.57 4.74-1.57h.1c1.546.032 2.402.353 3.62.77.659.223 1.284.32 2.14.32 1.284 0 1.844-.385 2.304-.833.034.064.1.224.132.64a2.372 2.372 0 0 1-.428 1.474c-.263.353-.855.61-1.448.61h-.165c-.592-.065-.856-.13-.856-.13l-.131.065c-.033.064 0 .128.033.224l.033.065c.065.288.197 1.153.197 1.377 0 2.628-1.086 3.781-2.239 4.646a7.703 7.703 0 0 1-3.851 1.442c-.033 0-.164 0-.461.032-.165 0-.395.033-.428.033h-.033c-.263.063-.922.384-.922.928 0 .481.296 1.058 1.712 1.154.296.032.592.032.922.065 1.876.127 4.214.288 5.3.64 1.514.545 2.469 1.859 2.469 3.429 0 2.371-1.744 4.582-4.642 5.96-1.415.609-2.831.929-4.378.929zm18.764-22.334c-.69 0-1.316.16-1.777.48-1.284.77-1.942 2.308-1.942 4.55 0 4.199 2.172 7.147 5.267 7.147.922 0 1.646-.257 2.271-.77.955-.769 1.449-2.307 1.449-4.454 0-4.165-2.14-6.953-5.267-6.953zm.593 13.714c-5.596 0-7.604-4.005-7.604-7.754 0-2.627 1.086-4.646 3.258-6.088 1.548-.93 3.392-1.442 5.038-1.442 4.28 0 7.275 2.98 7.275 7.274 0 2.916-1.185 5.223-3.457 6.633-1.086.705-2.963 1.377-4.51 1.377zM66.37 29.666c-.692 0-1.317.16-1.778.48-1.284.77-1.942 2.308-1.942 4.55 0 4.199 2.172 7.147 5.267 7.147.922 0 1.646-.257 2.272-.77.954-.769 1.448-2.307 1.448-4.454 0-4.165-2.107-6.953-5.267-6.953zm.592 13.714c-5.596 0-7.604-4.005-7.604-7.754 0-2.627 1.086-4.646 3.258-6.088 1.548-.93 3.392-1.442 5.038-1.442 4.28 0 7.275 2.98 7.275 7.274 0 2.916-1.185 5.223-3.457 6.633-1.053.705-2.93 1.377-4.51 1.377zm-37.628-.32c-.066-.096-.132-.384-.099-.737 0-.256.066-.417.099-.48.691-.097 1.053-.193 1.448-.289.659-.16.922-.512.955-1.314.099-1.922.099-5.575.066-8.107v-.064c0-.288 0-.64-.362-.897a7.543 7.543 0 0 0-1.976-.833c-.296-.096-.493-.256-.46-.448 0-.193.197-.417.625-.481 1.087-.096 3.917-.769 5.037-1.25.066.064.165.257.165.513l-.033.352c-.033.353-.066.77-.066 1.186 0 .128.132.224.263.224a.472.472 0 0 0 .198-.064c2.107-1.602 4.016-2.179 5.003-2.179 1.614 0 2.865.737 3.82 2.275.065.097.131.129.23.129.066 0 .164-.032.197-.097 1.943-1.442 3.885-2.307 5.169-2.307 3.061 0 4.872 2.211 4.872 5.96 0 1.057 0 2.435-.033 3.685 0 1.121-.032 2.147-.032 2.884 0 .16.23.673.592.769.46.224 1.086.32 1.91.448h.032c.066.225-.065 1.058-.197 1.218-.198 0-.494 0-.823-.032a49.92 49.92 0 0 0-2.502-.064c-2.041 0-3.095.032-4.116.096-.065-.256-.098-1.025 0-1.218.593-.095.89-.192 1.252-.288.658-.192.823-.48.856-1.314 0-.608.131-5.8-.066-7.05-.198-1.28-1.185-2.787-3.358-2.787-.823 0-2.107.32-3.358 1.25a.563.563 0 0 0-.132.32v.032c.132.673.132 1.442.132 2.628v2.083c0 1.442-.033 2.787 0 3.812 0 .706.428.866.79.994.198.032.329.064.494.096.296.064.592.129 1.053.224.066.129.066.545-.033.898-.033.192-.099.288-.132.32-1.119-.032-2.27-.064-3.95-.064-.493 0-1.35.032-2.074.032-.593 0-1.152.032-1.481.032-.033-.064-.1-.288-.1-.64 0-.29.067-.513.133-.578.164-.032.296-.063.46-.063.395-.065.725-.129 1.054-.193.56-.16.757-.448.79-1.153.099-1.602.198-6.184-.033-7.338-.395-1.859-1.481-2.788-3.226-2.788-1.02 0-2.305.48-3.358 1.25-.165.128-.296.448-.296.737v1.89c0 2.307 0 5.191.033 6.441.033.384.164.833.921.993.165.032.428.096.758.129l.592.095c.066.193.033.962-.099 1.218-.329 0-.724-.032-1.185-.032a54.982 54.982 0 0 0-2.567-.064c-1.153 0-1.976.032-2.634.064-.461-.064-.823-.064-1.218-.064z" fill="#442D22"/>
    <path d="M12.373 51l-1.399-.468s.171-6.984-2.388-7.485C6.881 41.11 8.86-39.156 15 42.78c0 0-2.115 1.036-2.49 2.808-.41 1.737-.137 5.413-.137 5.413z" fill="#FFF"/>
    <path d="M12.373 51l-1.399-.468s.171-6.984-2.388-7.485C6.881 41.11 8.86-39.156 15 42.78c0 0-2.115 1.036-2.49 2.808-.41 1.737-.137 5.413-.137 5.413z" fill="#A6A385"/>
    <path d="M13.976 44s11.26-7.785 8.624-23.98C20.06 8.246 14.07 4.387 13.411 2.902 12.691 1.847 12 0 12 0l.47 32.752c0 .033-.972 10.027 1.506 11.248" fill="#FFF"/>
    <path d="M13.976 44s11.26-7.785 8.624-23.98C20.06 8.246 14.07 4.387 13.411 2.902 12.691 1.847 12 0 12 0l.47 32.752c0 .033-.972 10.027 1.506 11.248" fill="#499D4A"/>
    <path d="M9.747 45S-.587 37.339.027 23.85c.582-13.49 7.88-20.12 9.29-21.318.92-1.066.95-1.466 1.012-2.532.644 1.499.522 22.417.613 24.882.276 9.492-.49 18.32-1.195 20.118z" fill="#FFF"/>
    <path d="M9.747 45S-.587 37.339.027 23.85c.582-13.49 7.88-20.12 9.29-21.318.92-1.066.95-1.466 1.012-2.532.644 1.499.522 22.417.613 24.882.276 9.492-.49 18.32-1.195 20.118z" fill="#58AA50"/>
  </g>
</svg>
