<svg xmlns="http://www.w3.org/2000/svg" xmlns:xlink="http://www.w3.org/1999/xlink" viewBox="0 0 1280 296"><defs><pattern id="ea68edab-5a99-4e45-abcb-bdef88c578f8" data-name="New Pattern" width="160" height="180" patternTransform="translate(-20 -2810.87)" patternUnits="userSpaceOnUse" viewBox="0 0 160 180"><rect width="160" height="180" fill="none"/><polygon points="152 0 176 45 152 90 168 90 192 45 168 0 152 0" fill="#3b3b3b"/><polygon points="168 90 144 135 168 180 152 180 128 135 152 90 168 90" fill="#4d4d4e"/><polygon points="120 0 144 45 120 90 136 90 160 45 136 0 120 0" fill="#3b3b3b"/><polygon points="152 0 176 45 152 90 168 90 192 45 168 0 152 0" fill="#3b3b3b"/><polygon points="168 90 144 135 168 180 152 180 128 135 152 90 168 90" fill="#4d4d4e"/><polygon points="136 90 112 135 136 180 120 180 96 135 120 90 136 90" fill="#4d4d4e"/><polygon points="88 0 112 45 88 90 104 90 128 45 104 0 88 0" fill="#3b3b3b"/><polygon points="120 0 144 45 120 90 136 90 160 45 136 0 120 0" fill="#3b3b3b"/><polygon points="152 0 176 45 152 90 168 90 192 45 168 0 152 0" fill="#3b3b3b"/><polygon points="168 90 144 135 168 180 152 180 128 135 152 90 168 90" fill="#4d4d4e"/><polygon points="136 90 112 135 136 180 120 180 96 135 120 90 136 90" fill="#4d4d4e"/><polygon points="104 90 80 135 104 180 88 180 64 135 88 90 104 90" fill="#4d4d4e"/><polygon points="56 0 80 45 56 90 72 90 96 45 72 0 56 0" fill="#3b3b3b"/><polygon points="88 0 112 45 88 90 104 90 128 45 104 0 88 0" fill="#3b3b3b"/><polygon points="120 0 144 45 120 90 136 90 160 45 136 0 120 0" fill="#3b3b3b"/><polygon points="152 0 176 45 152 90 168 90 192 45 168 0 152 0" fill="#3b3b3b"/><polygon points="168 90 144 135 168 180 152 180 128 135 152 90 168 90" fill="#4d4d4e"/><polygon points="136 90 112 135 136 180 120 180 96 135 120 90 136 90" fill="#4d4d4e"/><polygon points="104 90 80 135 104 180 88 180 64 135 88 90 104 90" fill="#4d4d4e"/><polygon points="72 90 48 135 72 180 56 180 32 135 56 90 72 90" fill="#4d4d4e"/><polygon points="24 0 48 45 24 90 40 90 64 45 40 0 24 0" fill="#3b3b3b"/><polygon points="56 0 80 45 56 90 72 90 96 45 72 0 56 0" fill="#3b3b3b"/><polygon points="88 0 112 45 88 90 104 90 128 45 104 0 88 0" fill="#3b3b3b"/><polygon points="120 0 144 45 120 90 136 90 160 45 136 0 120 0" fill="#3b3b3b"/><polygon points="136 90 112 135 136 180 120 180 96 135 120 90 136 90" fill="#4d4d4e"/><polygon points="104 90 80 135 104 180 88 180 64 135 88 90 104 90" fill="#4d4d4e"/><polygon points="72 90 48 135 72 180 56 180 32 135 56 90 72 90" fill="#4d4d4e"/><polygon points="40 90 16 135 40 180 24 180 0 135 24 90 40 90" fill="#4d4d4e"/><polygon points="-8 0 16 45 -8 90 8 90 32 45 8 0 -8 0" fill="#3b3b3b"/><polygon points="24 0 48 45 24 90 40 90 64 45 40 0 24 0" fill="#3b3b3b"/><polygon points="56 0 80 45 56 90 72 90 96 45 72 0 56 0" fill="#3b3b3b"/><polygon points="88 0 112 45 88 90 104 90 128 45 104 0 88 0" fill="#3b3b3b"/><polygon points="104 90 80 135 104 180 88 180 64 135 88 90 104 90" fill="#4d4d4e"/><polygon points="72 90 48 135 72 180 56 180 32 135 56 90 72 90" fill="#4d4d4e"/><polygon points="40 90 16 135 40 180 24 180 0 135 24 90 40 90" fill="#4d4d4e"/><polygon points="8 90 -16 135 8 180 -8 180 -32 135 -8 90 8 90" fill="#4d4d4e"/><polygon points="-8 0 16 45 -8 90 8 90 32 45 8 0 -8 0" fill="#3b3b3b"/><polygon points="24 0 48 45 24 90 40 90 64 45 40 0 24 0" fill="#3b3b3b"/><polygon points="56 0 80 45 56 90 72 90 96 45 72 0 56 0" fill="#3b3b3b"/><polygon points="72 90 48 135 72 180 56 180 32 135 56 90 72 90" fill="#4d4d4e"/><polygon points="40 90 16 135 40 180 24 180 0 135 24 90 40 90" fill="#4d4d4e"/><polygon points="8 90 -16 135 8 180 -8 180 -32 135 -8 90 8 90" fill="#4d4d4e"/><polygon points="-8 0 16 45 -8 90 8 90 32 45 8 0 -8 0" fill="#3b3b3b"/><polygon points="24 0 48 45 24 90 40 90 64 45 40 0 24 0" fill="#3b3b3b"/><polygon points="40 90 16 135 40 180 24 180 0 135 24 90 40 90" fill="#4d4d4e"/><polygon points="8 90 -16 135 8 180 -8 180 -32 135 -8 90 8 90" fill="#4d4d4e"/><polygon points="-8 0 16 45 -8 90 8 90 32 45 8 0 -8 0" fill="#3b3b3b"/><polygon points="8 90 -16 135 8 180 -8 180 -32 135 -8 90 8 90" fill="#4d4d4e"/></pattern></defs><title>pattern</title><g style="isolation:isolate"><g id="1225a675-05ca-4426-926c-2b21e3a10851" data-name="Layer 1"><rect width="1280" height="296" fill="#013333"/><rect y="0.06" width="1280" height="294.94" opacity="0.1" fill="url(#ea68edab-5a99-4e45-abcb-bdef88c578f8)" style="mix-blend-mode:multiply"/></g></g></svg>