<svg width="93" viewBox="0 0 93 84">
  <g fill-rule="nonzero" fill="none">
    <path d="M0 41.849c0 7.056 6.858 13.643 17.67 17.355-2.159 10.92-.386 19.722 5.533 23.151 6.084 3.525 15.148 1.085 23.752-6.47 8.386 7.25 16.861 10.103 22.775 6.664 6.08-3.535 7.928-12.934 5.709-24.194C86.7 54.615 93 48.998 93 41.849c0-6.892-6.87-12.854-17.537-16.543 2.388-11.726.364-20.314-5.8-23.885C63.72-2.022 55.146.978 46.636 8.418 37.783.522 29.294-1.889 23.136 1.692 17.2 5.145 15.504 14.106 17.67 25.228 7.223 28.888 0 34.985 0 41.85z" fill="#FFF"/>
    <path d="M73.243 28.985a55.516 55.516 0 0 0-2.672-.844c.149-.606.287-1.215.413-1.826 2.022-9.838.7-17.764-3.816-20.373-4.33-2.503-11.411.107-18.563 6.343a55.56 55.56 0 0 0-2.066 1.9c-.451-.432-.91-.857-1.376-1.272-7.495-6.67-15.008-9.48-19.52-6.863-4.325 2.51-5.606 9.96-3.785 19.285.181.923.385 1.842.613 2.754a54.97 54.97 0 0 0-3.072.969C10.612 32.128 5 36.939 5 41.93c0 5.155 6.024 10.325 15.177 13.46.742.252 1.49.487 2.245.702a54.506 54.506 0 0 0-.652 2.97c-1.736 9.162-.38 16.436 3.934 18.93 4.456 2.575 11.935-.072 19.217-6.45a47.056 47.056 0 0 0 1.732-1.6 54.53 54.53 0 0 0 2.244 2.05c7.054 6.084 14.02 8.54 18.331 6.04 4.452-2.583 5.899-10.398 4.02-19.906a47.194 47.194 0 0 0-.497-2.223 48.62 48.62 0 0 0 1.543-.483C81.81 52.26 88 47.153 88 41.93c0-5.009-5.793-9.853-14.757-12.945z" fill="#53C1DE"/>
    <path d="M70.883 52.561c-.448.151-.908.297-1.377.438-1.038-3.337-2.439-6.885-4.153-10.551 1.636-3.579 2.983-7.082 3.992-10.397.838.247 1.653.507 2.437.781C79.372 35.485 84 39.408 84 42.43c0 3.22-5 7.4-13.116 10.131zm-3.368 6.778c.821 4.21.938 8.017.395 10.993-.489 2.673-1.471 4.456-2.685 5.17-2.585 1.52-8.112-.456-14.072-5.665a50.516 50.516 0 0 1-2.062-1.909c2.31-2.567 4.62-5.551 6.874-8.865 3.964-.357 7.71-.941 11.107-1.738.166.685.315 1.357.443 2.014zm-34.06 15.9c-2.525.906-4.536.932-5.752.22-2.587-1.515-3.662-7.364-2.195-15.21.174-.927.374-1.85.599-2.765 3.359.754 7.077 1.297 11.05 1.625 2.27 3.242 4.646 6.223 7.04 8.833-.509.5-1.03.987-1.562 1.46-3.182 2.826-6.37 4.83-9.18 5.837zm-11.83-22.697c-3.998-1.389-7.3-3.192-9.564-5.16C10.027 45.611 9 43.855 9 42.43c0-3.032 4.452-6.9 11.877-9.53.932-.328 1.873-.629 2.823-.902 1.026 3.39 2.372 6.935 3.997 10.519-1.646 3.638-3.011 7.238-4.047 10.668a42.671 42.671 0 0 1-2.024-.643zm3.966-27.413c-1.541-8-.518-14.033 2.058-15.548 2.743-1.613 8.81.687 15.204 6.453.409.369.82.755 1.23 1.154-2.382 2.598-4.736 5.556-6.985 8.78-3.857.363-7.55.946-10.943 1.727-.21-.85-.397-1.706-.564-2.566zM60.965 34a113.5 113.5 0 0 0-2.494-4.165c2.617.336 5.123.782 7.477 1.327a76.65 76.65 0 0 1-2.624 7.172A124.59 124.59 0 0 0 60.964 34zM46.539 19.73a75.84 75.84 0 0 1 4.826 5.917 101.578 101.578 0 0 0-9.692-.002 78.19 78.19 0 0 1 4.866-5.914zM32.021 34.026a105.658 105.658 0 0 0-2.314 4.307 79.312 79.312 0 0 1-2.606-7.207 77.934 77.934 0 0 1 7.434-1.296 104.924 104.924 0 0 0-2.514 4.196zm2.59 21.261a73.536 73.536 0 0 1-7.559-1.234 80.583 80.583 0 0 1 2.659-7.353 105.005 105.005 0 0 0 4.9 8.587zm12.025 10.095a79.693 79.693 0 0 1-4.934-5.997c1.57.063 3.171.095 4.798.095 1.672 0 3.324-.038 4.95-.112a75.446 75.446 0 0 1-4.814 6.014zm16.721-18.81a76.294 76.294 0 0 1 2.754 7.327 73.306 73.306 0 0 1-7.65 1.324 124.816 124.816 0 0 0 2.518-4.238 113.577 113.577 0 0 0 2.378-4.413zm-5.413 2.636a116.97 116.97 0 0 1-3.934 6.447c-2.433.176-4.948.267-7.51.267-2.552 0-5.034-.08-7.425-.238a101.164 101.164 0 0 1-7.506-13.167 101.5 101.5 0 0 1 3.488-6.714 100.23 100.23 0 0 1 3.976-6.429 97.738 97.738 0 0 1 14.948.003 107.423 107.423 0 0 1 3.952 6.407 117.237 117.237 0 0 1 3.535 6.682 107.768 107.768 0 0 1-3.524 6.742zM65.17 9.476c2.746 1.608 3.814 8.094 2.089 16.6a47.632 47.632 0 0 1-.37 1.656c-3.401-.797-7.096-1.39-10.964-1.76-2.253-3.258-4.588-6.221-6.932-8.786a51.813 51.813 0 0 1 1.886-1.757c6.054-5.35 11.713-7.463 14.29-5.953z" fill="#FFF"/>
    <path d="M47 35c3.866 0 7 3.358 7 7.5 0 4.142-3.134 7.5-7 7.5s-7-3.358-7-7.5c0-4.142 3.134-7.5 7-7.5" fill="#53C1DE"/>
  </g>
</svg>
