<?xml version="1.0" encoding="utf-8"?>
<!-- Generator: Adobe Illustrator 18.1.0, SVG Export Plug-In . SVG Version: 6.00 Build 0)  -->
<!DOCTYPE svg PUBLIC "-//W3C//DTD SVG 1.1//EN" "http://www.w3.org/Graphics/SVG/1.1/DTD/svg11.dtd">
<svg version="1.1" id="Layer_1" xmlns="http://www.w3.org/2000/svg" xmlns:xlink="http://www.w3.org/1999/xlink" x="0px" y="0px"
	 viewBox="0 0 566.9 139.7" enable-background="new 0 0 566.9 139.7" xml:space="preserve">
<g display="none">
	
		<radialGradient id="SVGID_1_" cx="285.0001" cy="375.1051" r="542.0006" gradientTransform="matrix(1 0 0 0.462 0 -16.9779)" gradientUnits="userSpaceOnUse">
		<stop  offset="6.593410e-02" style="stop-color:#E1F4FD"/>
		<stop  offset="0.4451" style="stop-color:#ABE1FA"/>
		<stop  offset="1" style="stop-color:#1E6EA6"/>
	</radialGradient>
	<path display="inline" fill-rule="evenodd" clip-rule="evenodd" fill="url(#SVGID_1_)" d="M0,156.4h14.3c-4.6-1.3-9.3-2.7-14.3-4.1
		V156.4z M0,55.7v18.7c24,13.5,43.3,24.4,59.5,33.5c38.5,21.7,65.7,37.2,85.6,48.6h14.3c-17.7-11.4-42-26.8-76.5-48.6
		C62.4,94.8,35.9,78.2,0,55.7z M378.5-105.5H315c-10.8,122.1-15.7,179.7-19,213.2c-2.1,21.9-3.9,37.3-5.4,48.7H305
		c3.7-11.4,8.4-26.8,14.6-48.7C329.1,74.2,344.7,16.5,378.5-105.5z M435.7,156.4h14.5c25.2-11.5,58.7-26.9,106-48.8
		c3.5-1.6,7.1-3.3,10.8-5V90.1c-12.8,6.5-24.1,12.3-34.3,17.4C489.4,129.5,458.8,144.9,435.7,156.4z M0,147.7
		c10.4,3.2,19.9,6.1,28.7,8.8h14.5c-12.7-4.1-27-8.7-43.3-14V147.7z M0,0.9v31.1c49.5,35.2,82.5,58.7,106.6,75.9
		c30.4,21.7,51.8,37.2,67.4,48.6h14.6c-13.4-11.4-31.9-26.9-58.2-48.6C103.8,86,64.8,54,0,0.9z M505.9-105.5h-63.5
		c-56.8,122-83.4,179.7-99.2,213.2c-10.3,21.9-18,37.3-23.8,48.7h14.5c8-11.4,18.5-26.8,32.9-48.7
		C388.9,74.3,426.3,16.5,505.9-105.5z M479.2,156.4c22.5-8.8,50.8-19.9,87.7-34.5v-8.9c-44.7,19-77.2,32.8-102.2,43.4H479.2z
		 M0,136.5c22.6,7.8,41.6,14.4,57.7,20h14.6c-19.2-7.1-42.8-15.8-72.3-26.7V136.5z M0-102.6v61.2C82,38.1,126.1,80.7,153.9,107.8
		c22.3,21.7,37.8,37.2,49.2,48.6h14.6c-9.1-11.4-21.8-26.9-40-48.6C149.7,74.5,101.4,17.5,0-102.6z M390.5,107.7
		c-18.5,21.9-31.9,37.3-42.1,48.8H363c12.3-11.5,28.6-26.8,51.2-48.8C442,80.8,485.7,38.2,566.9-40.8v-61.4
		C466.3,17.5,418.5,74.5,390.5,107.7z M508.4,156.4c16.5-5.6,35.8-12.2,58.6-20.1v-6.7c-29.6,10.9-53.4,19.6-73.1,26.8H508.4z
		 M0,121.9c36.8,14.6,64.8,25.8,86.7,34.5h14.5C77,145.9,44.7,132,0,112.9V121.9z M124.3-105.5H60.8
		C141.2,16.6,179.4,74.2,201.3,107.8c14.2,21.8,23.9,37.2,30.9,48.7h14.6c-4.9-11.4-11.7-26.9-21.9-48.7
		C209.3,74.2,181.8,16.6,124.3-105.5z M377.5,156.4H392c16.6-11.5,38.6-26.9,69.5-48.8c24-17,56.6-40.2,105.4-75V1.5
		C502.9,54.2,464.2,86,437.8,107.6C411,129.6,391.9,144.9,377.5,156.4z M537.6,156.4c9-2.7,18.8-5.7,29.4-8.9v-5.2
		c-16.5,5.3-31,10-44,14.2H537.6z M0,89.7v12.6c4.1,1.9,8.1,3.8,12,5.6c46.7,21.7,79.7,37.2,103.8,48.6h14.6
		c-22-11.4-52.1-26.8-94.7-48.6C25.1,102.5,13.4,96.5,0,89.7z M251.2-105.5h-63.5c34.7,122.1,51.5,179.7,60.8,213.2
		c6,21.8,10,37.3,12.8,48.7h14.7c-0.7-11.4-1.8-26.9-3.8-48.7C269.3,74.2,263.3,16.6,251.2-105.5z M406.6,156.4h14.7
		c20.9-11.5,48.6-26.9,87.7-48.8c15.8-8.9,34.7-19.5,58-32.5V56.3c-35.2,22.2-61.3,38.5-81.8,51.3
		C450.1,129.5,425.3,144.9,406.6,156.4z M566.9,156.4v-4.3c-5.1,1.5-10.1,2.9-14.8,4.3H566.9z"/>
	
		<radialGradient id="SVGID_2_" cx="283.4825" cy="375.1051" r="551.0054" gradientTransform="matrix(1 0 0 0.462 0 -16.9779)" gradientUnits="userSpaceOnUse">
		<stop  offset="5.494510e-02" style="stop-color:#E1F4FD"/>
		<stop  offset="0.489" style="stop-color:#ABE1FA"/>
		<stop  offset="1" style="stop-color:#1E6EA6"/>
	</radialGradient>
	<path display="inline" fill-rule="evenodd" clip-rule="evenodd" fill="url(#SVGID_2_)" d="M0,152.3c5,1.4,9.7,2.8,14.3,4.1h14.5
		c-8.8-2.7-18.4-5.6-28.7-8.8V152.3z M0,31.9v23.7C35.9,78.2,62.4,94.8,83,107.8c34.5,21.7,58.7,37.2,76.5,48.6H174
		c-15.6-11.4-37-26.9-67.4-48.6C82.6,90.6,49.5,67.1,0,31.9z M442.4-105.5h-64c-33.8,122-49.4,179.7-58.9,213.2
		c-6.2,21.9-10.9,37.3-14.6,48.7h14.5c5.8-11.4,13.4-26.8,23.8-48.7C359,74.2,385.7,16.5,442.4-105.5z M450.2,156.4h14.6
		c25-10.5,57.5-24.3,102.2-43.4v-10.5c-3.7,1.7-7.3,3.4-10.8,5C508.8,129.5,475.3,144.9,450.2,156.4z M0,142.4
		c16.3,5.3,30.6,9.9,43.3,14h14.5c-16.1-5.6-35.1-12.1-57.7-20V142.4z M0-41.4V0.9C64.8,54,103.8,86,130.3,107.8
		c26.3,21.7,44.8,37.2,58.2,48.6h14.6c-11.4-11.4-26.8-26.9-49.2-48.6C126.1,80.7,82,38.1,0-41.4z M505.9-105.5
		c-79.6,122-117,179.8-139,213.2c-14.5,21.9-25,37.3-32.9,48.7h14.5c10.2-11.5,23.5-26.8,42.1-48.8c28-33.1,75.8-90.1,176.4-209.9
		v-3.2H505.9z M493.8,156.4c19.7-7.2,43.6-15.9,73.1-26.8V122c-36.9,14.5-65.2,25.6-87.7,34.5H493.8z M0,129.7
		c29.5,10.9,53.1,19.6,72.3,26.7h14.5c-21.9-8.7-49.9-19.9-86.7-34.5V129.7z M60.8-105.5H0v2.9c101.4,120.1,149.7,177,177.6,210.4
		c18.2,21.7,30.9,37.2,40,48.6h14.5c-7.1-11.4-16.8-26.9-30.9-48.7C179.4,74.2,141.2,16.6,60.8-105.5z M363,156.4h14.5
		c14.5-11.5,33.6-26.8,60.4-48.8c26.4-21.6,65-53.4,129.1-106.2v-42.3C485.7,38.2,442,80.8,414.2,107.7
		C391.6,129.6,375.3,144.9,363,156.4z M523,156.4c13-4.2,27.5-8.9,44-14.2v-5.9c-22.8,7.8-42.1,14.4-58.6,20.1H523z M0,102.3v10.6
		c44.7,19.1,77,33,101.3,43.5h14.6C91.7,145.1,58.7,129.6,12,107.9C8.2,106.1,4.2,104.2,0,102.3z M187.8-105.5h-63.5
		c57.5,122.1,85,179.7,100.6,213.2c10.1,21.8,17,37.2,21.9,48.7h14.6c-2.8-11.4-6.7-26.9-12.8-48.7
		C239.3,74.2,222.5,16.6,187.8-105.5z M392,156.4h14.5c18.7-11.5,43.6-26.9,78.6-48.8c20.5-12.8,46.5-29.2,81.8-51.3V32.6
		c-48.8,34.8-81.4,58-105.4,75C430.6,129.6,408.7,144.9,392,156.4z M552.2,156.4c4.7-1.4,9.7-2.8,14.8-4.3v-4.7
		c-10.6,3.2-20.3,6.2-29.4,8.9H552.2z M0,74.4v15.3c13.3,6.8,25.1,12.8,35.7,18.2c42.6,21.7,72.7,37.2,94.7,48.6h14.7
		c-19.9-11.4-47-26.9-85.6-48.6C43.3,98.7,24,87.8,0,74.4z M251.2-105.5c12.1,122.1,18,179.7,21.1,213.2c2,21.8,3.1,37.2,3.8,48.7
		h14.6c1.5-11.4,3.3-26.9,5.4-48.7c3.2-33.5,8.1-91.1,19-213.2H251.2z M421.2,156.4h14.5c23.1-11.5,53.7-26.9,96.9-48.8
		c10.2-5.2,21.6-10.9,34.3-17.4V75.1c-23.2,13.1-42.1,23.7-58,32.5C469.8,129.5,442.1,144.9,421.2,156.4z"/>
</g>
<g display="none">
	
		<radialGradient id="SVGID_3_" cx="285" cy="642.9214" r="542.0006" gradientTransform="matrix(-1 0 0 -0.3372 566.9648 373.2767)" gradientUnits="userSpaceOnUse">
		<stop  offset="0.4121" style="stop-color:#E1F4FD"/>
		<stop  offset="1" style="stop-color:#95B6DF"/>
	</radialGradient>
	<path display="inline" fill-rule="evenodd" clip-rule="evenodd" fill="url(#SVGID_3_)" d="M566.9,156.4h-14.3c4.6,1,9.3,2,14.3,3
		V156.4z M566.9,229.9v-13.6c-24-9.8-43.3-17.8-59.5-24.4c-38.5-15.9-65.7-27.2-85.6-35.5h-14.3c17.7,8.3,42,19.6,76.5,35.5
		C504.6,201.4,531,213.5,566.9,229.9z M188.5,347.6H252c10.8-89.1,15.7-131.2,19-155.6c2.1-15.9,3.9-27.2,5.4-35.6H262
		c-3.7,8.4-8.4,19.6-14.6,35.6C237.9,216.4,222.3,258.5,188.5,347.6z M131.3,156.4h-14.5c-25.2,8.4-58.7,19.7-106,35.7
		c-3.5,1.2-7.1,2.4-10.8,3.7v9.1c12.8-4.7,24.1-8.9,34.3-12.7C77.6,176.1,108.2,164.8,131.3,156.4z M566.9,162.8
		c-10.4-2.3-19.9-4.4-28.7-6.4h-14.5c12.7,3,27,6.4,43.3,10.2V162.8z M566.9,270v-22.7c-49.5-25.7-82.5-42.8-106.6-55.4
		C430,176,408.6,164.7,393,156.4h-14.6c13.4,8.3,31.9,19.6,58.2,35.5C463.1,207.8,502.1,231.2,566.9,270z M61,347.6h63.5
		c56.8-89.1,83.4-131.2,99.2-155.6c10.3-16,18-27.2,23.8-35.6H233c-8,8.4-18.5,19.6-32.9,35.6C178,216.4,140.6,258.5,61,347.6z
		 M87.7,156.4c-22.5,6.4-50.8,14.5-87.7,25.1v6.5c44.7-13.9,77.2-24,102.2-31.7H87.7z M566.9,171c-22.6-5.7-41.6-10.5-57.7-14.6
		h-14.6c19.2,5.2,42.8,11.6,72.3,19.5V171z M566.9,345.5v-44.7c-82-58-126.1-89.1-153.9-108.9c-22.3-15.9-37.8-27.2-49.2-35.5h-14.6
		c9.1,8.3,21.8,19.6,40,35.5C417.3,216.2,465.6,257.8,566.9,345.5z M176.5,192c18.5-16,31.9-27.2,42.1-35.6h-14.6
		c-12.3,8.4-28.6,19.6-51.2,35.6C125,211.6,81.2,242.7,0,300.4v44.8C100.7,257.8,148.4,216.2,176.5,192z M58.6,156.4
		c-16.5,4.1-35.8,8.9-58.6,14.6v4.9c29.6-7.9,53.4-14.3,73.1-19.5H58.6z M566.9,181.6c-36.8-10.7-64.8-18.8-86.7-25.2h-14.5
		c24.3,7.6,56.6,17.8,101.3,31.8V181.6z M442.7,347.6h63.5c-80.4-89.1-118.6-131.1-140.5-155.7c-14.2-15.9-23.9-27.2-30.9-35.5
		h-14.6c4.9,8.3,11.7,19.6,21.9,35.5C357.7,216.4,385.1,258.5,442.7,347.6z M189.5,156.4h-14.6c-16.6,8.4-38.6,19.6-69.5,35.6
		c-24,12.4-56.6,29.4-105.4,54.7v22.7C64.1,231,102.7,207.8,129.1,192C155.9,176,175,164.8,189.5,156.4z M29.4,156.4
		c-9,2-18.8,4.2-29.4,6.5v3.8c16.5-3.9,31-7.3,44-10.3H29.4z M566.9,205.1v-9.2c-4.1-1.4-8.1-2.8-12-4.1
		c-46.7-15.9-79.7-27.1-103.8-35.4h-14.6c22,8.3,52.1,19.6,94.7,35.4C541.8,195.8,553.6,200.2,566.9,205.1z M315.7,347.6h63.5
		c-34.7-89.1-51.5-131.2-60.8-155.6c-6-15.9-10-27.2-12.8-35.5h-14.7c0.7,8.4,1.8,19.6,3.8,35.5
		C297.7,216.4,303.6,258.5,315.7,347.6z M160.4,156.4h-14.7c-20.9,8.4-48.6,19.6-87.7,35.6c-15.8,6.5-34.7,14.2-58,23.8v13.7
		c35.2-16.2,61.3-28.1,81.8-37.5C116.8,176.1,141.7,164.8,160.4,156.4z M0,156.4v3.1c5.1-1.1,10.1-2.1,14.8-3.1H0z"/>
	
		<radialGradient id="SVGID_4_" cx="283.4824" cy="642.9214" r="551.0054" gradientTransform="matrix(-1 0 0 -0.3372 566.9648 373.2767)" gradientUnits="userSpaceOnUse">
		<stop  offset="0" style="stop-color:#E1F4FD"/>
		<stop  offset="1" style="stop-color:#95B6DF"/>
	</radialGradient>
	<path display="inline" fill-rule="evenodd" clip-rule="evenodd" fill="url(#SVGID_4_)" d="M566.9,159.4c-5-1-9.7-2-14.3-3h-14.5
		c8.8,2,18.4,4.1,28.7,6.4V159.4z M566.9,247.3v-17.3c-35.9-16.5-62.3-28.6-82.9-38.1c-34.5-15.9-58.7-27.1-76.5-35.5H393
		c15.6,8.3,37,19.6,67.4,35.5C484.4,204.4,517.4,221.6,566.9,247.3z M124.5,347.6h64c33.8-89.1,49.4-131.2,58.9-155.6
		c6.2-16,10.9-27.2,14.6-35.6h-14.5c-5.8,8.4-13.4,19.6-23.8,35.6C207.9,216.4,181.3,258.5,124.5,347.6z M116.8,156.4h-14.6
		c-25,7.7-57.5,17.8-102.2,31.7v7.7c3.7-1.3,7.3-2.5,10.8-3.7C58.1,176.1,91.6,164.8,116.8,156.4z M566.9,166.7
		c-16.3-3.9-30.6-7.2-43.3-10.2h-14.5c16.1,4.1,35.1,8.9,57.7,14.6V166.7z M566.9,300.8V270c-64.8-38.8-103.8-62.1-130.3-78.1
		c-26.3-15.9-44.8-27.2-58.2-35.5h-14.6c11.4,8.3,26.8,19.6,49.2,35.5C440.8,211.7,485,242.8,566.9,300.8z M61,347.6
		c79.6-89.1,117-131.2,139-155.6c14.5-16,25-27.2,32.9-35.6h-14.5c-10.2,8.4-23.5,19.6-42.1,35.6c-28,24.2-75.8,65.8-176.4,153.2
		v2.4H61z M73.2,156.4C53.4,161.7,29.6,168,0,176v5.6c36.9-10.6,65.2-18.7,87.7-25.1H73.2z M566.9,175.9
		c-29.5-8-53.1-14.3-72.3-19.5h-14.5c21.9,6.4,49.9,14.5,86.7,25.2V175.9z M506.2,347.6h60.8v-2.1
		c-101.4-87.6-149.7-129.2-177.6-153.5c-18.2-15.9-30.9-27.2-40-35.5h-14.5c7.1,8.3,16.8,19.6,30.9,35.5
		C387.6,216.5,425.8,258.5,506.2,347.6z M203.9,156.4h-14.5c-14.5,8.4-33.6,19.6-60.4,35.6c-26.4,15.8-65,39-129.1,77.5v30.9
		C81.2,242.7,125,211.6,152.7,192C175.4,176,191.7,164.8,203.9,156.4z M44,156.4c-13,3-27.5,6.5-44,10.3v4.3
		c22.8-5.7,42.1-10.5,58.6-14.6H44z M566.9,195.9v-7.8c-44.7-14-77-24.1-101.3-31.8h-14.6c24.2,8.3,57.1,19.6,103.8,35.4
		C558.8,193.2,562.8,194.5,566.9,195.9z M379.2,347.6h63.5c-57.5-89.1-85-131.2-100.6-155.7c-10.1-15.9-17-27.2-21.9-35.5h-14.6
		c2.8,8.3,6.7,19.6,12.8,35.5C327.7,216.4,344.5,258.5,379.2,347.6z M174.9,156.4h-14.5c-18.7,8.4-43.6,19.6-78.6,35.6
		c-20.5,9.3-46.5,21.3-81.8,37.5v17.3c48.8-25.4,81.4-42.3,105.4-54.7C136.3,176,158.3,164.8,174.9,156.4z M14.8,156.4
		c-4.7,1-9.7,2-14.8,3.1v3.4c10.6-2.4,20.3-4.5,29.4-6.5H14.8z M566.9,216.3v-11.2c-13.3-5-25.1-9.3-35.7-13.3
		c-42.6-15.9-72.7-27.1-94.7-35.4h-14.7c19.9,8.3,47,19.6,85.6,35.5C523.6,198.5,543,206.5,566.9,216.3z M315.7,347.6
		c-12.1-89.1-18-131.2-21.1-155.6c-2-15.9-3.1-27.2-3.8-35.5h-14.6c-1.5,8.4-3.3,19.6-5.4,35.6c-3.2,24.4-8.1,66.5-19,155.6H315.7z
		 M145.7,156.4h-14.5c-23.1,8.4-53.7,19.6-96.9,35.7c-10.2,3.8-21.6,8-34.3,12.7v11c23.2-9.5,42.1-17.3,58-23.8
		C97.1,176,124.9,164.8,145.7,156.4z"/>
</g>
<path fill="#227C7F" d="M560.7,139.6v-13.4h-1.5v-0.4h-3v0.4h-1v-1.3h-2.6v-1h-9.9v2.2H540v-18.7h-6.3v-2.1h-0.6v-0.6h-2.6v1.5h-1
	v-1.5h-0.8v-1.2h-0.7V103h-5.8v0.5h-1v1.2h-1.4v2.7h-3.5v15.1h-1.6v2.8h-1.5v0.3h-7v-3.8h-2.6v-2.5h-1v2.5h-0.5v3.8h-7.2v-18.4h-0.8
	v-7.5H493V94h-1.1v-2.9h-0.7v-1.9v-0.6V88h-2.4v0.7h-8.3V88h-3.3v0.7h-5.2V88h-2.4v0.7v0.6v1.9h-0.7V94h-1.1v5.8h-0.9v7.5H466v14.8
	h-0.6v-10.7h-2.5v-0.5h-1.6v-1.8h-7.7v1.8h-4.1v-2.1h-1.2v2.5h-3.1v7.3h-0.9v-1.5H442V74.6h-2.5v-2.2h2.6v-0.7l-13.6-1.2v-1.8h-2.1
	v-0.4h-1.3v0.4H424l-3.1-2.1h-5.5v-0.4h-0.8l-3.7,2.2v0.5h-0.8v5h0.3v0.7H409v5h-0.3V36.8h-11.1v-2.3h-1v-2.3h-0.4v2.3H396v-6.3
	h-0.3v-0.4h-0.3v-1h0.3v-1h0.3v-6.1h-0.3v-1l-5-1v-3h-0.2v3l-0.9-0.2h-3.9v-1.1h-0.4v1.1h-1.8v-0.4h-0.4V16h-0.3v1.1h-0.4v-0.5h-0.3
	L382,0l-0.2,16.6h-0.2v0.5h-0.5v-0.8h-0.4v0.8h-0.3v0.4H377l-0.3,0v-0.9h-0.6l-0.2-4l-0.2,5l-3.8,0.3l-0.2-15.7l-0.2,15.7l-5.2,0.4
	v-0.7c0.1-0.1,0.2-0.4,0.2-0.6c0-0.4-0.2-0.7-0.4-0.7c-0.2,0-0.4,0.3-0.4,0.7c0,0.3,0.1,0.5,0.2,0.6v0.7l-0.7,0.1l-5.5,2.1V21h-0.3
	v5.4h0.3v0.3h0.4v1h-0.4v0.6h-0.3v54.8h-1.5v14.3h-0.4l-0.3-10.2h-0.6v-0.8h-0.6v-0.5h-0.7v-0.7h-0.7v-0.5h-0.5v-0.6h-0.6v-0.8h-0.5
	v-0.7h-0.4V82h-0.5v-0.6h-0.8l-0.4-26.5l-0.4,26.5H350V82h-0.5v0.7h-0.4v0.7h-0.5v0.8h-0.6v0.6h-0.5v0.5h-0.7v0.7h-0.7v0.5h-0.6v0.8
	h-0.6l-0.4,14.8h-1.7V43.2h-0.7v-1.2v-0.6v-0.4h-0.5v0.4h-0.8v-5.2v-0.5v-0.5h-0.5v0.5h-0.7V28h-0.5v-4.7h-1.7V20h-1.1v-2.7h-0.8
	v-1.8h-0.3v1.8H334v-1.8h-0.3v1.8h-0.4v-1.8H333v1.8h-0.4v-1.4h-0.3v1.4H332v-2.3h-0.3v2.3h-0.4v-1.8H331v1.8h-0.4v-1.4h-0.3v1.4
	h-0.5v-3.2h-0.3v3.2h-0.4v-1.8h-0.3v1.8h-0.4v-1.4h-0.3v1.4h-0.3v-1.8h-0.3v1.8h-0.4v-1.8h-0.3v1.8h-0.4v-1.4h-0.3v1.4h-0.4v-1.8
	h-0.3v1.8h-0.4v-2.7H325v2.7h-0.4v-1.4h-0.3v1.4h-0.4v-2.8h-0.3v2.8h-0.4v-1.8H323v1.8h-0.4v-1.4h-0.3v1.4h-0.9V20h-0.8v3.2h-1.8V28
	h-0.6v7.6h-1v-0.5h-0.5v0.5v0.5v5.2h-1.6v21.8h-1.5v-4.7h-3.4v-5.3h-3.6v-8.9l-3.8-1.2l-0.3-6.6l-0.3,6.6l-2.4,1.3v-2.6h-0.3v1.7
	h-0.6v-0.6h-0.3v0.6H298v-1.2h-0.3v3.3l-3.4,1.8v12.9l-8,3.8v1.4h-2.6v2.4h-3.4v13.6h-2.9v29.8h-2.3V86.9h-0.6v-6.2h-0.8v-4.4h-1.3
	v-2.1h-0.7V72v-0.5h-1.6V72h-5.8v-0.5h-2.8V72h-2.9v-0.5H257V72v2.2h-0.7v2.1h-1.3v4.4h-0.8v6.2h-0.6v12.7H252V39.5h-4.9v-1.3h0.7
	v-0.7h-0.7v-1.4h0.7v-0.7h-0.7V34h0.7v-0.7h-0.7v-1.4h0.7v-0.7h-0.7v-1.4h0.7V29h-0.7v-1.4h0.7v-0.7h-0.7v-1.4h0.7v-0.7h-0.7v-1.4
	h0.7v-0.7h-0.7V22h-2.5v-2h-0.2v-5.3h-0.5v-0.6h0.6V13h0l3.7-1.5v-0.9c-3.1-0.6-7.6-1-12.5-1c-4.9,0-9.3,0.4-12.5,1v0.9l3.7,1.5h0
	v1.2h0.6v0.6h-0.5V20h-1.4v2H224v35.8h-5.6v6.9h-1.1v32.2H215v-0.6h0.4v-1.1H215V94h0.4v-1.1H215v-1.1h0.4v-1.1H215v-1.1h0.4v-1.1
	H215v-1.1h0.4V86H215h-4v-1h-0.5v-1.1h0.5v-1.1h-0.5v-1.1h0.5v-1.1h-0.5H208V62.1h-6.1v-2.8h-8.6v-1.1h-1.9v-1.1h-0.7v-0.5h-0.3
	v-0.5h-0.4v0.5h-0.3v-0.8h-1.5v0.8h-1v0.5h-1v1.1h-1.7v1.1h-5.4v2.8h-6.5v48h-1.9v-1h-0.3V85.8h-1V85h-6.6v0.8h-1.1v-3.9h-0.3v-1.2
	h-0.3v-2h-1.5v-2.1l0.3-0.3h0.1v-0.4h-0.1h-0.3v-0.4h0.3v-0.3h0.2v-0.4l-0.9-0.2h-0.8v-0.2h0.1V74h0.2v-0.3h-0.2h-0.3V74v0.2H158
	l0.1-2.4l0.2-0.3v-0.8h-0.8l0.3-0.8h0.3v-0.5h-0.8v-0.3l0.2-0.7h0.4v-0.8h-3.2v0.8h0.4l0.2,0.7v0.3h-0.8v0.5h0.3l0.3,0.8h-0.8v0.8
	l0.2,0.3l0.1,2.4h-0.3V74v-0.3h-0.3h-0.2V74h0.2v0.3h0.1v0.2H153l-0.9,0.2v0.4h0.2v0.3h0.3v0.4h-0.3h-0.1v0.4h0.1l0.3,0.3v2.1H151v2
	h-0.3v1.2h-0.3v3.9h-10.1v12.5h-5.4v2.8h-3.5v3h-1.2v-3h-14.7v4.9h-1.6v6.9h-1.2v-3.1h-3v-14h-4.4v-7.3h0.4l-1.7-3.2l-0.8,1.5
	l-5-9.1L98,58.1l-0.3,19.7l-5,9.1l-0.8-1.5l-1.7,3.2h0.4v1.5h-4.7v-4.8H66v4.8h-9.1v5.4H44.2v3.1h-3.6V122h-1V92.6h-9v-3.3h-9v3.3
	H11.1v17.7H6.3v5h-3v22.4H1.9v1.9H0v17.1h566.9v-17.1H560.7z M243.3,12.8v-1c0.2,0,0.4,0,0.5,0.1v0.8L243.3,12.8z M243,12.9
	l-0.6,0.2h0v-1.5c0.2,0,0.4,0,0.6,0V12.9z M242.1,13.1h-0.7v-1.5c0.2,0,0.5,0,0.7,0.1V13.1z M241.1,13.1h-0.8v-1.6
	c0.3,0,0.6,0,0.8,0V13.1z M240,13.1h-1v-1.6c0.3,0,0.6,0,1,0V13.1z M238.7,13.1h-1.3v-1.7c0.4,0,0.9,0,1.3,0V13.1z M237.1,13.1h-1.3
	v-1.7c0.4,0,0.9,0,1.3,0V13.1z M235.5,13.1h-1.3v-1.7c0.4,0,0.9,0,1.3,0V13.1z M233.9,13.1h-1.3v-1.7c0.4,0,0.9,0,1.3,0V13.1z
	 M232.3,13.1h-1v-1.6c0.3,0,0.6,0,1,0V13.1z M231.1,13.1h-0.8v-1.5c0.3,0,0.6,0,0.8,0V13.1z M229.9,13.1h-0.7v-1.5
	c0.2,0,0.5,0,0.7-0.1V13.1z M228.9,13.1L228.9,13.1l-0.6-0.2v-1.2c0.2,0,0.4,0,0.6,0V13.1z M228,12.8l-0.5-0.2v-0.8
	c0.2,0,0.4,0,0.5-0.1V12.8z M243.7,13.4h-0.4l0.4-0.2V13.4z M244.1,12.4v-0.6c0.4,0,0.8,0.1,1.2,0.1L244.1,12.4z M227.2,11.8v0.6
	l-1.2-0.5C226.3,11.9,226.8,11.9,227.2,11.8z M228,13.4h-0.4v-0.2L228,13.4z M298.9,44.9L298.9,44.9l0.1-0.1L298.9,44.9z
	 M367.7,139.1C367.7,139.1,367.7,139.1,367.7,139.1c0,0,0-0.1,0-0.2c0.1,0,0.2,0,0.3,0c-0.1,0.1-0.1,0.2-0.1,0.3
	C367.7,139.2,367.7,139.1,367.7,139.1z M325.3,138.6h0.2C325.4,138.6,325.4,138.7,325.3,138.6C325.3,138.7,325.3,138.7,325.3,138.6
	C325.3,138.6,325.3,138.6,325.3,138.6z M326.7,139c0.1-0.1,0.2-0.2,0.3-0.3h0.1c0,0.1,0,0.2,0,0.3c-0.1,0-0.3,0.1-0.4,0.1
	C326.7,139,326.7,139,326.7,139z M97.8,138.4c0,0.1,0,0.1,0,0.2c-0.1,0-0.1-0.1-0.2-0.1c0-0.1,0.1-0.2,0.1-0.2s0,0-0.1,0
	c0-0.1,0.1-0.2,0.1-0.3C97.7,138.1,97.8,138.2,97.8,138.4z M299.5,43.7v0.7h-0.6v-0.7H299.5z M298.6,43.7v0.7H298v-0.7H298.6z
	 M298,44.8h0.6V45l-0.6,0.3V44.8z"/>
</svg>
