<?xml version="1.0" encoding="utf-8"?>
<!-- Generator: Adobe Illustrator 18.1.1, SVG Export Plug-In . SVG Version: 6.00 Build 0)  -->
<svg version="1.1" id="facebook-square" xmlns="http://www.w3.org/2000/svg" xmlns:xlink="http://www.w3.org/1999/xlink" x="0px"
	 y="0px" viewBox="0 349 750 750" enable-background="new 0 349 750 750" xml:space="preserve">
<path fill="#FFFFFF" d="M247.6,563.7V606c140.6,0,254.1,113.5,254.1,254.1H544C544,696.7,411.1,563.7,247.6,563.7z M247.6,648.3
	v42.3c93.6,0,169.4,75.8,169.4,169.4h42.3C459.3,743.2,364.4,648.3,247.6,648.3z M247.6,733v42.3c47,0,84.7,37.7,84.7,84.7h42.3
	C374.6,790.2,317.4,733,247.6,733z M247.6,817.7c-23.3,0-42.3,19-42.3,42.3s19,42.3,42.3,42.3c23.3,0,42.3-19,42.3-42.3
	S270.9,817.7,247.6,817.7z"/>
</svg>
