<svg version="1.1" id="Layer_1" xmlns="http://www.w3.org/2000/svg" xmlns:xlink="http://www.w3.org/1999/xlink" x="0px" y="0px"
	 viewBox="0 0 189 127.6" enable-background="new 0 0 189 127.6" xml:space="preserve">
	<pattern x="-188.5" y="-301.7" width="48" height="162" patternUnits="userSpaceOnUse" viewBox="0 -162 48 162" overflow="visible" id="Unnamed_Pattern">
		<path fill="none" d="M0 0h48v-162H0zM38.1-121.4c-.1-.2-.2-.3-.2-.6 0-.2.1-.5.2-.6l9.8-17v-20.8L26-122.3c-.1.2-.2.3-.2.5s.1.5.2.6l.2.4L48-82.4v-21.3l-9.8-17.4c0-.1-.1-.3-.1-.3zM0-139.6L12.9-162H.9l-.9 1.5zM35.7-40.2c.1-.2.2-.4.2-.6 0-.2-.1-.4-.2-.5L12.9-81h-.2L0-103.7v21.3L.8-81H1l22.7 39.4c.1.2.2.4.2.6 0 .2-.1.4-.2.6v.3L1.1 0h12l22.4-39.8s.1-.4.2-.4z"/>
		<path fill="#E6E6E6" d="M.9-162H0v1.5zM.8-81L0-82.4v1.4z"/>
		<path fill="#ccc" d="M0-103.7L12.8-81h12L2.4-120.8l-.2-.4c-.1-.2-.2-.4-.2-.6 0-.2.1-.4.2-.5L24.9-162h-12L0-139.6v35.9z"/>
		<path fill="#E6E6E6" d="M47.7-40.4c.1-.2.2-.3.2-.6 0-.2-.1-.5-.2-.6L24.9-81h-12l22.8 39.6c.1.2.2.3.2.5s-.1.5-.2.6l-.2.4L13.1 0h12l22.6-40.1v-.3z"/>
		<path fill="#ccc" d="M23.7-40.4c.1-.2.2-.3.2-.6 0-.2-.1-.5-.2-.6L.9-81H0v19.2l11.7 20.4c.1.2.2.3.2.5s-.1.5-.2.6l-.2.4L0-19.4V0h1.1l22.6-40.1v-.3z"/>
		<path fill="#E6E6E6" d="M26.2-121.2c-.1-.2-.2-.4-.2-.6 0-.2.1-.4.2-.5L48-160.5v-1.5H36.9l-22.7 39.4c-.1.2-.2.4-.2.6 0 .2.1.4.2.6v.3L36.8-81H48v-1.4l-21.6-38.4c-.1 0-.2-.4-.2-.4z"/>
		<path fill="#ccc" d="M38.2-122.6c-.1.2-.2.4-.2.6 0 .2.1.4.2.6v.3l9.8 17.4v-36l-9.8 17.1zM37.1 0H48v-19.4zM48-81H36.9L48-61.8z"/>
	</pattern>
	<!-- <pattern  id="SVGID_1_" xlink:href="#Unnamed_Pattern" patternTransform="matrix(0.7875 0 0 0.7875 -1207.7644 358.5027)"></pattern> -->
	<path opacity=".2" fill="url(#Unnamed_Pattern)" d="M-.5.3h189v127H-.5z"/>
</svg>