<svg width="140" viewBox="0 0 158 94">
  <g fill-rule="nonzero" fill="none">
    <path d="M14.664 0h128.608C151.412 0 158 6.585 158 14.72v49.066c0 8.135-6.588 14.72-14.728 14.72h-46.12L103.481 94l-27.84-15.494H14.727C6.589 78.506 0 71.92 0 63.786V14.72C-.064 6.65 6.524 0 14.664 0z" fill="#9B5C8F"/>
    <path d="M9.104 13.69c.898-1.215 2.244-1.854 4.04-1.982 3.27-.256 5.13 1.278 5.58 4.604 1.987 13.365 4.168 24.684 6.476 33.956l14.044-26.666c1.283-2.43 2.887-3.71 4.81-3.837 2.823-.192 4.554 1.598 5.26 5.371 1.603 8.505 3.655 15.731 6.092 21.87 1.667-16.242 4.489-27.945 8.465-35.17.961-1.791 2.373-2.686 4.232-2.815 1.476-.127 2.822.32 4.04 1.28 1.219.959 1.86 2.174 1.989 3.645.064 1.15-.129 2.11-.641 3.07-2.502 4.603-4.554 12.341-6.221 23.084-1.603 10.423-2.18 18.545-1.796 24.364.129 1.598-.128 3.005-.77 4.22-.77 1.407-1.923 2.175-3.398 2.302-1.668.128-3.4-.639-5.067-2.365-5.964-6.076-10.71-15.156-14.172-27.242-4.17 8.185-7.247 14.324-9.235 18.416-3.784 7.227-6.99 10.936-9.684 11.127-1.732.128-3.206-1.343-4.489-4.412-3.27-8.377-6.798-24.556-10.58-48.536-.258-1.662.127-3.134 1.025-4.284zm137.815 10.04c-2.308-4.029-5.708-6.459-10.26-7.418a16.892 16.892 0 0 0-3.464-.384c-6.156 0-11.158 3.197-15.07 9.592-3.335 5.435-5.002 11.446-5.002 18.033 0 4.924 1.026 9.144 3.078 12.662 2.308 4.028 5.708 6.458 10.26 7.417 1.219.256 2.373.384 3.464.384 6.22 0 11.222-3.197 15.07-9.592 3.335-5.5 5.002-11.51 5.002-18.097.064-4.988-1.026-9.145-3.078-12.597zm-8.08 17.713c-.898 4.22-2.501 7.353-4.875 9.464-1.859 1.662-3.59 2.365-5.193 2.046-1.54-.32-2.823-1.662-3.784-4.157-.77-1.982-1.154-3.964-1.154-5.819 0-1.598.128-3.197.448-4.667.578-2.622 1.668-5.18 3.399-7.61 2.117-3.134 4.361-4.412 6.67-3.965 1.539.32 2.822 1.663 3.783 4.157.77 1.982 1.155 3.964 1.155 5.819 0 1.663-.129 3.26-.45 4.731zM106.774 23.73c-2.309-4.029-5.772-6.459-10.26-7.418a16.887 16.887 0 0 0-3.464-.384c-6.157 0-11.159 3.197-15.07 9.592-3.335 5.435-5.003 11.446-5.003 18.033 0 4.924 1.026 9.144 3.078 12.662 2.309 4.028 5.708 6.458 10.261 7.417 1.219.256 2.373.384 3.463.384 6.22 0 11.223-3.197 15.07-9.592 3.336-5.5 5.003-11.51 5.003-18.097 0-4.988-1.026-9.145-3.078-12.597zm-8.145 17.713c-.898 4.22-2.501 7.353-4.874 9.464-1.86 1.662-3.591 2.365-5.195 2.046-1.538-.32-2.82-1.662-3.783-4.157-.77-1.982-1.154-3.964-1.154-5.819 0-1.598.128-3.197.449-4.667.577-2.622 1.667-5.18 3.399-7.61 2.116-3.134 4.36-4.412 6.669-3.965 1.54.32 2.822 1.663 3.784 4.157.77 1.982 1.154 3.964 1.154 5.819.065 1.663-.128 3.26-.449 4.731z" fill="#FFF"/>
  </g>
</svg>
