<svg width="85" viewBox="0 0 84 84">
  <path d="M5.97 41.999c0 14.262 8.287 26.586 20.306 32.427L9.089 27.336a35.894 35.894 0 0 0-3.12 14.663zm60.352-1.818c0-4.453-1.6-7.537-2.972-9.937-1.826-2.968-3.538-5.481-3.538-8.45 0-3.311 2.512-6.394 6.05-6.394.16 0 .311.02.467.029C59.92 9.556 51.38 5.97 42 5.97c-12.587 0-23.66 6.458-30.103 16.24.845.026 1.642.043 2.319.043 3.768 0 9.601-.457 9.601-.457 1.943-.114 2.172 2.738.232 2.968 0 0-1.952.23-4.124.343l13.12 39.028 7.885-23.648-5.613-15.38a65.605 65.605 0 0 1-3.778-.344c-1.942-.114-1.714-3.082.227-2.968 0 0 5.95.457 9.49.457 3.769 0 9.603-.457 9.603-.457 1.943-.114 2.172 2.738.23 2.968 0 0-1.955.23-4.123.343l13.02 38.732 3.594-12.01c1.557-4.983 2.743-8.562 2.743-11.647zm-23.69 4.97l-10.81 31.412a36.027 36.027 0 0 0 22.142-.574 3.164 3.164 0 0 1-.257-.496L42.631 45.15zm30.981-20.438c.155 1.147.243 2.38.243 3.705 0 3.656-.683 7.766-2.74 12.905l-11.005 31.82C70.822 66.897 78.027 55.292 78.027 42c0-6.264-1.6-12.155-4.414-17.287zM42 0C18.841 0 0 18.84 0 41.999 0 65.16 18.841 84 42 84c23.156 0 42-18.84 42-42.001C84 18.84 65.156 0 42 0zm0 82.075c-22.095 0-40.073-17.978-40.073-40.076 0-22.096 17.977-40.073 40.073-40.073 22.095 0 40.071 17.977 40.071 40.073 0 22.098-17.976 40.076-40.07 40.076z" fill="#464342" fill-rule="nonzero"/>
</svg>
