<svg xmlns="http://www.w3.org/2000/svg" viewBox="0 0 1269.91 626"><title>404</title><g data-name="Layer 1" style="isolation:isolate"><path d="M231.85 32.17l-103.2 183.2v38.4h122.4v54.58h58.4v-54.58H347v-.29c16.44 34.62 45.33 54.86 86.23 54.86 41.27 0 70.3-20.13 86.84-54.58h120.58v54.58h58.4v-54.57h37.6v-43.6h-37.6v-178h-77.6l-85.36 151.55q.39-7.4.39-15.15C536.47 83 501.77 32 433.37 32z" style="mix-blend-mode:color-dodge" fill="#683996"/><path d="M103.2 254L0 437.2v38.4h122.4v54.58h58.4V475.6h37.6v-.29c16.44 34.62 45.33 54.86 86.23 54.86 41.27 0 70.3-20.13 86.84-54.58H512v54.58h58.4V475.6H608V432h-37.6V254h-77.6l-85.37 151.55q.39-7.4.39-15.15c0-85.6-34.7-136.57-103.1-136.57z" style="mix-blend-mode:color-dodge" fill="#6bc9ca" opacity=".4"/><path d="M252.53 476.07l-38.7 68.7v14.4h45.9v20.47h21.9v-20.48h14.1v-.11c6.17 13 17 20.57 32.34 20.57s26.36-7.55 32.56-20.47h45.2v20.47h21.9v-20.46h14.1v-16.35h-14.1v-66.74h-29.1l-32 56.83q.15-2.78.15-5.68c0-32.1-13-51.21-38.66-51.21z" style="mix-blend-mode:color-dodge" fill="#683996"/><path d="M733.11 196l-103.2 183.2v38.4h122.4v54.58h58.4V417.6h37.6v-.29c16.44 34.62 45.33 54.86 86.23 54.86 41.27 0 70.3-20.13 86.84-54.58h120.54v54.58h58.4V417.6h37.6V374h-37.6V196h-77.6l-85.37 151.55q.39-7.4.39-15.15c0-85.6-34.7-136.57-103.1-136.57z" style="mix-blend-mode:color-dodge" fill="#cc3533" opacity=".8"/><path d="M757.23 418.87l-77.4 137.4v28.8h91.8V626h43.8v-40.93h28.2v-.21c12.33 26 34 41.15 64.67 41.15 30.95 0 52.72-15.1 65.13-40.93h90.4V626h43.8v-40.93h28.2v-32.7h-28.2v-133.5h-58.2l-64 113.66q.29-5.55.29-11.36c0-64.2-26-102.43-77.33-102.43z" style="mix-blend-mode:overlay" fill="#683996" opacity=".6"/><path d="M765.11.17l-103.2 183.2v38.4h122.4v54.58h58.4v-54.58h37.6v-.29c16.44 34.62 45.33 54.86 86.23 54.86 41.27 0 70.3-20.13 86.84-54.58h120.54v54.58h58.4v-54.57h37.6v-43.6h-37.6V.17h-77.6l-85.37 151.55q.39-7.4.39-15.15C1069.74 51 1035 0 966.63 0z" style="mix-blend-mode:color-dodge" fill="#cc3533" opacity=".8"/><path d="M301 176.17l-103.2 183.2v38.4h122.4v54.58h58.4v-54.58h37.6v-.29c16.44 34.62 45.33 54.86 86.23 54.86 41.27 0 70.3-20.13 86.84-54.58h120.56v54.58h58.4v-54.57h37.6v-43.6h-37.6v-178h-77.6l-85.37 151.55q.39-7.4.39-15.15c0-85.6-34.7-136.57-103.1-136.57z" style="mix-blend-mode:color-dodge" fill="#24428e"/><path d="M144.94 64L41.74 247.2v38.4h122.4v54.58h58.4V285.6h37.6v-.29c16.44 34.62 45.33 54.86 86.23 54.86 41.27 0 70.3-20.13 86.84-54.58h120.53v54.58h58.4V285.6h37.6V242h-37.6V64h-77.6l-85.37 151.55q.39-7.4.39-15.15c0-85.6-34.7-136.57-103.1-136.57z" style="mix-blend-mode:color-dodge" fill="#cc3533"/><path d="M699.24 66L596 249.24v38.4h122.4v54.58h58.4v-54.58h37.6v-.29c16.44 34.62 45.33 54.86 86.23 54.86 41.27 0 70.3-20.13 86.84-54.58H1108v54.58h58.4v-54.57h37.6V244h-37.6V66h-77.6l-85.37 151.55q.39-7.4.39-15.15c0-85.6-34.7-136.57-103.1-136.57z" style="mix-blend-mode:color-dodge" fill="#24428e" opacity=".8"/></g></svg>