<svg data-name="Layer 1" xmlns="http://www.w3.org/2000/svg" viewBox="0 0 18.48 18.48"><title>icon-link</title><path d="M7.83 10.65a1 1 0 0 1 0 1.42 1 1 0 0 1-1.42 0 5 5 0 0 1 0-7.07l3.54-3.54a5 5 0 1 1 7.07 7.07l-1.49 1.49a6.91 6.91 0 0 0-.4-2.42l.47-.48a3 3 0 1 0-4.24-4.24L7.83 6.41a3 3 0 0 0 0 4.24m2.82-4.24a1 1 0 0 1 1.42 0 5 5 0 0 1 0 7.07l-3.54 3.54a5 5 0 1 1-7.07-7.07l1.49-1.49a7 7 0 0 0 .4 2.43l-.47.47a3 3 0 0 0 4.24 4.24l3.53-3.53a3 3 0 0 0 0-4.24 1 1 0 0 1 0-1.42z" fill="#24408f"/></svg>