<svg id="Layer_1" xmlns="http://www.w3.org/2000/svg" xmlns:xlink="http://www.w3.org/1999/xlink" viewBox="0 0 269.3 54.2"><style>.st0{clip-path:url(#SVGID_2_)}.st1{fill:#319999}.st2{fill:#fff}.st3{fill:url(#SVGID_3_)}.st4{fill:#69c8c9}.st5{fill:url(#SVGID_4_)}</style><title>logo</title><defs><path id="SVGID_1_" d="M272.8 53.3c0 .4-.3.7-.7.7H.7c-.4 0-.7-.3-.7-.7V.7C0 .3.3 0 .7 0h271.4c.4 0 .7.3.7.7v52.6z"/></defs><clipPath id="SVGID_2_"><use xlink:href="#SVGID_1_" overflow="visible"/></clipPath><g class="st0"><path class="st1" d="M269.3 49.8V4.1c-.1-.3-.3-.6-.7-.7H130.1l1.3 2.1h135.8v42.9H130.9l-1.3 2.1h139c.7 0 .7-.3.7-.7z"/><image width="183" height="90" xlink:href="73B7A7EF719EE79D.png" transform="translate(-16 -18)" overflow="visible" opacity=".3"/><path class="st1" d="M145.7 26.9L128.8 0H.7C.3 0 0 .3 0 .7v52.6c0 .4.3.7.7.7h128l16.9-26.5c.2-.1.2-.4.1-.6z"/><path class="st2" d="M170.9 15.3c6.2 0 11.2 5 11.2 11.1 0 6.2-5 11.2-11.1 11.2-6.2 0-11.2-5-11.2-11.1-.2-6 4.6-11 10.6-11.2h.5zm0 19.1c4.4.1 8.1-3.5 8.1-7.9.1-4.4-3.5-8.1-7.9-8.1s-8.1 3.5-8.1 7.9v.1c-.2 4.3 3.2 7.8 7.4 8 .2.1.4.1.5 0z"/><linearGradient id="SVGID_3_" gradientUnits="userSpaceOnUse" x1="276.825" y1="-29.92" x2="276.825" y2="-62.46" gradientTransform="matrix(1 0 0 -1 -80 -14)"><stop offset=".6" stop-color="#fff"/><stop offset="1" stop-color="#319999"/></linearGradient><path class="st3" d="M192.8 15.9h3.9l13.1 32.5h-3.4L200 32.5h-10.8l-2 4.8h-3.4l9-21.4zm-2.7 13.9h9l-4.4-11.1-4.6 11.1z"/><path class="st2" d="M209.1 15.9h9.6c4.8 0 8.1 2 8.1 6.8.1 3.5-2.6 6.4-6 6.6l7.7 7.4v.7h-4.1l-7.9-8.3h-3.9v8.3h-3.5V15.9zm3.4 2.8v7.6h6.5c2.4 0 4.3-1.2 4.3-3.8 0-2.8-1.9-3.8-4.3-3.8h-6.5zm19.4-2.8h9.1c6.4 0 11.2 3.7 11.2 10.8s-4.8 10.7-11.2 10.7h-9.1V15.9zm3.5 2.8v15.9h5.5c4.6 0 7.9-2.8 7.9-7.9s-3.3-8-7.9-8h-5.5z"/><path class="st4" d="M124.7 48.5H5.5v-43h122.1l-1.3-2.1H4.1c-.4 0-.7.3-.7.7v45.7c0 .4.3.7.7.7h121.7l1.3-2.1-2.4.1z"/><path class="st2" d="M38.8 28.4H24.9v9h-2.8V15.9h2.8v9h13.8v-9h2.8v21.5h-2.8c.1 0 .1-9 .1-9zm18.5-12.8c6.2 0 11.2 5 11.2 11.1 0 6.2-5 11.2-11.1 11.2-6.2 0-11.2-5-11.2-11.1-.2-6 4.6-11 10.6-11.2h.5zm0 19.2c4.4.1 8.1-3.5 8.1-7.9.1-4.4-3.5-8.1-7.9-8.1s-8.1 3.5-8.1 7.9v.1c-.2 4.3 3.2 7.8 7.4 8h.5z"/><linearGradient id="SVGID_4_" gradientUnits="userSpaceOnUse" x1="162.04" y1="-51.39" x2="162.04" y2="-19.54" gradientTransform="matrix(1 0 0 -1 -80 -14)"><stop offset=".6" stop-color="#fff"/><stop offset="1" stop-color="#6ac8c9"/></linearGradient><path class="st5" d="M69 15.9h3.6l7.1 18.8L91.5 5.5h3.6L81.7 37.4h-4.1L69 15.9z"/><path class="st2" d="M114.2 15.9h9.3c4.8 0 8.1 2.2 8.1 7 0 3.7-2.8 6.2-6.2 6.7l7.5 7.5v.3h-3.7l-7.9-7.6h-3.7v7.6h-3.5l.1-21.5zm3.5 2.8V27h6.2c2.2.2 4.1-1.5 4.3-3.7v-.5c0-2.8-1.9-4.2-4.3-4.2 0 .1-6.2.1-6.2.1zm-8.3 15.9H88.3l-1.1 2.8h22.2v-2.8zm-2.8-9.7H92.3l-1.2 2.8h15.4v-2.8zm2.1-9H96.1L95 18.7h13.7v-2.8zm42.1 10.4c2.2-.5 3.7-2.5 3.6-4.7 0-3.9-2.8-5.7-7.4-5.7h-8.3l3.1 5.1v-2.3h4.7c2.7 0 4.4.8 4.4 3.2 0 2.2-1.8 3.1-4.5 3.1h-1.9l1.1 1.9c.1.2.1.3-.1.5l-.3.4h2.2c3.2 0 5.1 1.1 5.1 3.6 0 2.1-1.5 3.3-4.5 3.3h-6.2v-1.4l-2.7 4.2h9.3c5 0 7.6-2.1 7.6-5.6.1-3.4-1.9-5-5.2-5.6z"/></g></svg>