<svg xmlns="http://www.w3.org/2000/svg" width="24" height="24" viewBox="0 0 24 24"><path d="M12.2 15.5l-2.55 6.22a10.08 10.08 0 0 0 4.79-.02m6.17-14.64c.19.9.15 1.99-.22 3.19C19.42 13.37 17 19 16.1 21.13c3.48-1.55 5.9-5.01 5.9-9.03 0-1.84-.5-3.57-1.39-5.04M4.31 8.64S3.82 8 3.31 8h-.53C2.28 9.13 2 10.62 2 12c0 4.09 2.5 7.61 6.12 9.11M3.13 7.14C4.8 4.03 8.14 2 12 2c2.5 0 4.78 1.06 6.53 2.56-.5-.1-1.03.01-1.6.33-1.29.74-1.71 2.82-.04 3.87 1.05.65 1.42 2.28 1.38 3.28-.03.99-2.42 5.57-2.42 5.57L13.5 9.63s-.06-.56-.06-.72c0-.2.06-.45.19-.6.09-.09.22-.31.37-.31h1.11v-.86h-6V8h.19c.2 0 .39.29.57.47.22.23.5 1.08.83 1.96l.87 2.87-1.88 4.33-2.06-8.66s.06-.6.19-.7C7.9 8.2 8 8 8.17 8h.05v-.86H3.13z"/></svg>