<svg xmlns="http://www.w3.org/2000/svg" viewBox="0 0 246.2 216.3" enable-background="new 0 0 246.2 216.3"><g fill="#fff"><path d="M-2232.1 445.8l-4.5-6.6h-3.5v6.6h-1.4v-16h6c2.8 0 4.9 1.8 4.9 4.7 0 2.9-2 4.5-4.4 4.6l4.6 6.7h-1.7zm0-11.4c0-2-1.4-3.4-3.6-3.4h-4.5v6.9h4.5c2.2 0 3.6-1.5 3.6-3.5zM-2228.6 439.9c0-3.4 2.4-6.1 5.6-6.1 3.5 0 5.5 2.8 5.5 6.1v.3h-9.7c.1 2.5 1.8 4.6 4.5 4.6 1.5 0 2.8-.6 3.8-1.6l.6.8c-1.2 1.2-2.6 1.9-4.5 1.9-3.4.1-5.8-2.4-5.8-6zm5.5-4.9c-2.7 0-4.1 2.4-4.2 4.4h8.4c0-2-1.3-4.4-4.2-4.4zM-2215.4 444.2l.7-.9c.7.9 2.1 1.7 3.7 1.7 1.9 0 3.1-1 3.1-2.4 0-3.2-7.3-1.4-7.3-5.5 0-1.8 1.5-3.2 4.1-3.2 2 0 3.3.8 4.2 1.7l-.7.9c-.7-.9-1.9-1.5-3.5-1.5-1.8 0-2.9.9-2.9 2.1 0 2.9 7.3 1.1 7.3 5.6 0 1.9-1.4 3.4-4.3 3.4-1.8-.1-3.2-.6-4.4-1.9zM-2202.1 443.9v6.3h-1.2v-16h1.2v1.8c.8-1.2 2.3-2.1 4-2.1 3.1 0 5.2 2.4 5.2 6.1 0 3.7-2.1 6.1-5.2 6.1-1.6-.1-3.1-.9-4-2.2zm7.9-4c0-2.8-1.5-4.9-4.1-4.9-1.6 0-3.1 1-3.8 2.1v5.7c.7 1.1 2.2 2.1 3.8 2.1 2.6 0 4.1-2.1 4.1-5zM-2190.4 439.9c0-3.4 2.2-6.1 5.5-6.1 3.4 0 5.6 2.7 5.6 6.1 0 3.4-2.2 6.1-5.6 6.1-3.3 0-5.5-2.7-5.5-6.1zm9.8 0c0-2.6-1.5-4.9-4.2-4.9s-4.2 2.4-4.2 4.9c0 2.6 1.5 5 4.2 5s4.2-2.4 4.2-5zM-2168.2 445.8V438c0-2.2-1.1-2.9-2.8-2.9-1.5 0-3 .9-3.8 2v8.8h-1.2v-11.6h1.2v1.8c.8-1 2.5-2 4.2-2 2.4 0 3.6 1.2 3.6 3.8v8.1h-1.2zM-2164.1 444.2l.7-.9c.7.9 2.1 1.7 3.7 1.7 1.9 0 3.1-1 3.1-2.4 0-3.2-7.3-1.4-7.3-5.5 0-1.8 1.5-3.2 4.1-3.2 2 0 3.3.8 4.2 1.7l-.7.9c-.7-.9-1.9-1.5-3.5-1.5-1.8 0-2.9.9-2.9 2.1 0 2.9 7.3 1.1 7.3 5.6 0 1.9-1.4 3.4-4.3 3.4-1.8-.1-3.2-.6-4.4-1.9zM-2152.4 431.4c0-.5.5-.9 1-.9s1 .4 1 .9-.4 1-1 1c-.6-.1-1-.5-1-1zm.3 14.4v-11.6h1.2v11.6h-1.2zM-2143.8 445.8l-4.9-11.6h1.4l4.2 10.1 4.2-10.1h1.4l-4.9 11.6h-1.4zM-2136 439.9c0-3.4 2.4-6.1 5.6-6.1 3.5 0 5.5 2.8 5.5 6.1v.3h-9.7c.1 2.5 1.8 4.6 4.5 4.6 1.5 0 2.8-.6 3.8-1.6l.6.8c-1.2 1.2-2.6 1.9-4.5 1.9-3.4.1-5.8-2.4-5.8-6zm5.5-4.9c-2.7 0-4.1 2.4-4.2 4.4h8.4c0-2-1.3-4.4-4.2-4.4zM-2107 445.8V444c-.8 1.2-2.3 2.1-4 2.1-3.1 0-5.2-2.4-5.2-6.1 0-3.7 2.1-6.1 5.2-6.1 1.7 0 3.1.8 4 2.2v-6.3h1.3v16h-1.3zm0-2.9v-5.7c-.7-1.1-2.2-2.1-3.8-2.1-2.6 0-4.1 2.2-4.1 5s1.5 4.9 4.1 4.9c1.6-.1 3.1-1 3.8-2.1zM-2102.5 439.9c0-3.4 2.4-6.1 5.6-6.1 3.5 0 5.5 2.8 5.5 6.1v.3h-9.7c.1 2.5 1.8 4.6 4.5 4.6 1.5 0 2.8-.6 3.8-1.6l.6.8c-1.2 1.2-2.6 1.9-4.5 1.9-3.4.1-5.8-2.4-5.8-6zm5.5-4.9c-2.7 0-4.1 2.4-4.2 4.4h8.4c0-2-1.3-4.4-4.2-4.4zM-2089.3 444.2l.7-.9c.7.9 2.1 1.7 3.7 1.7 1.9 0 3.1-1 3.1-2.4 0-3.2-7.3-1.4-7.3-5.5 0-1.8 1.5-3.2 4.1-3.2 2 0 3.3.8 4.2 1.7l-.7.9c-.7-.9-1.9-1.5-3.5-1.5-1.8 0-2.9.9-2.9 2.1 0 2.9 7.3 1.1 7.3 5.6 0 1.9-1.4 3.4-4.3 3.4-1.8-.1-3.2-.6-4.4-1.9zM-2077.6 431.4c0-.5.5-.9 1-.9s1 .4 1 .9-.4 1-1 1c-.5-.1-1-.5-1-1zm.4 14.4v-11.6h1.2v11.6h-1.2zM-2072.1 448.7l.7-1c1 1.2 2.1 1.6 3.9 1.6 2.1 0 3.9-1.1 3.9-3.7v-1.8c-.8 1.2-2.3 2.2-4 2.2-3.1 0-5.2-2.3-5.2-6s2.1-6.1 5.2-6.1c1.7 0 3.1.8 4 2.2v-1.9h1.3v11.5c0 3.5-2.4 4.8-5.2 4.8-2 0-3.2-.4-4.6-1.8zm8.5-5.9v-5.6c-.7-1.1-2.2-2.1-3.8-2.1-2.6 0-4.1 2.1-4.1 4.9 0 2.8 1.5 4.9 4.1 4.9 1.6 0 3.2-1 3.8-2.1zM-2050.6 445.8V438c0-2.2-1.1-2.9-2.8-2.9-1.5 0-3 .9-3.8 2v8.8h-1.2v-11.6h1.2v1.8c.8-1 2.5-2 4.2-2 2.4 0 3.6 1.2 3.6 3.8v8.1h-1.2zM-2039.9 439.9c0-3.4 2.2-6.1 5.5-6.1 3.4 0 5.6 2.7 5.6 6.1 0 3.4-2.2 6.1-5.6 6.1-3.3 0-5.5-2.7-5.5-6.1zm9.8 0c0-2.6-1.5-4.9-4.2-4.9s-4.2 2.4-4.2 4.9c0 2.6 1.5 5 4.2 5s4.2-2.4 4.2-5zM-2017.7 445.8V438c0-2.2-1.1-2.9-2.8-2.9-1.5 0-3 .9-3.8 2v8.8h-1.2v-11.6h1.2v1.8c.8-1 2.5-2 4.2-2 2.4 0 3.6 1.2 3.6 3.8v8.1h-1.2zM-2007.4 444.2l.7-.9c.7.9 2.1 1.7 3.7 1.7 1.9 0 3.1-1 3.1-2.4 0-3.2-7.3-1.4-7.3-5.5 0-1.8 1.5-3.2 4.1-3.2 2 0 3.3.8 4.2 1.7l-.7.9c-.7-.9-1.9-1.5-3.5-1.5-1.8 0-2.9.9-2.9 2.1 0 2.9 7.3 1.1 7.3 5.6 0 1.9-1.4 3.4-4.3 3.4-1.8-.1-3.2-.6-4.4-1.9zM-1981.6 445.8v-8.1c0-1.6-.7-2.6-2.3-2.6-1.2 0-2.7.9-3.3 2v8.8h-1.3v-8.1c0-1.6-.7-2.6-2.3-2.6-1.2 0-2.6.9-3.3 2v8.8h-1.2v-11.6h1.2v1.8c.5-.7 2.1-2 3.7-2 1.8 0 2.8 1.1 3 2.2.6-1.1 2.2-2.2 3.8-2.2 2.1 0 3.2 1.2 3.2 3.5v8.4h-1.2zM-1969.1 445.8v-1.4c-1 1.1-2.3 1.7-3.9 1.7-2 0-4.1-1.4-4.1-3.9s2-3.8 4.1-3.8c1.6 0 2.9.5 3.9 1.7v-2.4c0-1.7-1.4-2.7-3.1-2.7-1.5 0-2.6.5-3.6 1.7l-.7-.9c1.2-1.3 2.5-1.9 4.5-1.9 2.4 0 4.2 1.1 4.2 3.7v8.2h-1.3zm0-2.3V441c-.8-1.1-2.1-1.6-3.5-1.6-1.9 0-3.2 1.2-3.2 2.9 0 1.6 1.3 2.9 3.2 2.9 1.4-.1 2.7-.7 3.5-1.7zM-1963.9 445.8v-11.6h1.2v2c1-1.3 2.3-2.2 3.9-2.2v1.4h-.6c-1.2 0-2.8 1.1-3.3 2.1v8.4h-1.2zM-1956.1 443.5v-8.3h-1.9v-1.1h1.9V431h1.3v3.2h2.4v1.1h-2.4v8.1c0 .9.4 1.6 1.2 1.6.6 0 1-.3 1.3-.6l.5 1c-.5.4-1 .7-2 .7-1.5-.1-2.3-1-2.3-2.6zM-1948.5 443.9v6.3h-1.2v-16h1.2v1.8c.8-1.2 2.3-2.1 4-2.1 3.1 0 5.2 2.4 5.2 6.1 0 3.7-2.1 6.1-5.2 6.1-1.6-.1-3-.9-4-2.2zm7.9-4c0-2.8-1.5-4.9-4.1-4.9-1.6 0-3.1 1-3.8 2.1v5.7c.7 1.1 2.2 2.1 3.8 2.1 2.6 0 4.1-2.1 4.1-5zM-1928.3 445.8v-7.9c0-2.2-1.1-2.9-2.8-2.9-1.5 0-3 .9-3.8 2v8.8h-1.2v-16h1.2v6.2c.8-1 2.5-2 4.2-2 2.4 0 3.6 1.1 3.6 3.7v8.2h-1.2zM-1923.8 439.9c0-3.4 2.2-6.1 5.5-6.1 3.4 0 5.6 2.7 5.6 6.1 0 3.4-2.2 6.1-5.6 6.1-3.3 0-5.5-2.7-5.5-6.1zm9.8 0c0-2.6-1.5-4.9-4.2-4.9s-4.2 2.4-4.2 4.9c0 2.6 1.5 5 4.2 5s4.2-2.4 4.2-5zM-1901.6 445.8V438c0-2.2-1.1-2.9-2.8-2.9-1.5 0-3 .9-3.8 2v8.8h-1.2v-11.6h1.2v1.8c.8-1 2.5-2 4.2-2 2.4 0 3.6 1.2 3.6 3.8v8.1h-1.2zM-1897.1 439.9c0-3.4 2.4-6.1 5.6-6.1 3.5 0 5.5 2.8 5.5 6.1v.3h-9.7c.1 2.5 1.8 4.6 4.5 4.6 1.5 0 2.8-.6 3.8-1.6l.6.8c-1.2 1.2-2.6 1.9-4.5 1.9-3.4.1-5.8-2.4-5.8-6zm5.5-4.9c-2.7 0-4.1 2.4-4.2 4.4h8.4c0-2-1.3-4.4-4.2-4.4z"/></g><path fill="#34495E" d="M-2116.4 372.6c-10 0-18.1-8.2-18.1-18.1V130.7c0-10 8.2-18.1 18.1-18.1h105.2c10 0 18.1 8.2 18.1 18.1v223.7c0 10-8.2 18.1-18.1 18.1h-105.2z"/><path fill="#283A4D" d="M-2048.1 353.9c0 2.4-1.9 4.3-4.3 4.3h-22.7c-2.4 0-4.3-1.9-4.3-4.3v-1.8c0-2.4 2-4.3 4.3-4.3h22.7c2.4 0 4.3 1.9 4.3 4.3v1.8zM-2058.5 132.2c0 2.9-2.3 5.2-5.2 5.2-2.9 0-5.2-2.3-5.2-5.2 0-2.9 2.4-5.2 5.2-5.2 2.8 0 5.2 2.4 5.2 5.2z"/><path fill="#5D6D7E" d="M-2061.3 132.2c0 1.4-1.1 2.5-2.5 2.5s-2.5-1.1-2.5-2.5 1.1-2.5 2.5-2.5c1.4.1 2.5 1.2 2.5 2.5z"/><path fill="#fff" d="M-2124.3 151.9h120.9v181.4h-120.9z"/><path fill="#E6625C" d="M-2115 161.2h102.3v15.6H-2115z"/><path fill="#E8E8E8" d="M-2115 307.6h102.3v5.1H-2115zM-2115 318.9h102.3v5.1H-2115z"/><path fill="#B3E9FF" d="M-2115 221.3h102.3v80.2H-2115z"/><path fill="#D4D6D8" d="M-2115 182.9h102.3v32.2H-2115z"/><g fill="#fff"><path d="M-1712.6 446.6l-4.5-6.6h-3.5v6.6h-1.4v-16h6c2.8 0 4.9 1.8 4.9 4.7 0 2.9-2 4.5-4.4 4.6l4.6 6.7h-1.7zm.1-11.3c0-2-1.4-3.4-3.6-3.4h-4.5v6.9h4.5c2.2 0 3.6-1.5 3.6-3.5zM-1709.1 440.8c0-3.4 2.4-6.1 5.6-6.1 3.5 0 5.5 2.8 5.5 6.1v.3h-9.7c.1 2.5 1.8 4.6 4.5 4.6 1.5 0 2.8-.6 3.8-1.6l.6.8c-1.2 1.2-2.6 1.9-4.5 1.9-3.4.1-5.8-2.4-5.8-6zm5.5-5c-2.7 0-4.1 2.4-4.2 4.4h8.4c0-1.9-1.2-4.4-4.2-4.4zM-1695.8 445.1l.7-.9c.7.9 2.1 1.7 3.7 1.7 1.9 0 3.1-1 3.1-2.4 0-3.2-7.3-1.4-7.3-5.5 0-1.8 1.5-3.2 4.1-3.2 2 0 3.3.8 4.2 1.7l-.7.9c-.7-.9-1.9-1.5-3.5-1.5-1.8 0-2.9.9-2.9 2.1 0 2.9 7.3 1.1 7.3 5.6 0 1.9-1.4 3.4-4.3 3.4-1.9-.1-3.3-.6-4.4-1.9zM-1682.6 444.8v6.3h-1.2v-16h1.2v1.8c.8-1.2 2.3-2.1 4-2.1 3.1 0 5.2 2.4 5.2 6.1 0 3.7-2.1 6.1-5.2 6.1-1.6-.1-3-.9-4-2.2zm7.9-4c0-2.8-1.5-4.9-4.1-4.9-1.6 0-3.1 1-3.8 2.1v5.7c.7 1.1 2.2 2.1 3.8 2.1 2.6 0 4.1-2.2 4.1-5zM-1670.9 440.8c0-3.4 2.2-6.1 5.5-6.1 3.4 0 5.6 2.7 5.6 6.1 0 3.4-2.2 6.1-5.6 6.1-3.3 0-5.5-2.7-5.5-6.1zm9.8 0c0-2.6-1.5-4.9-4.2-4.9s-4.2 2.4-4.2 4.9c0 2.6 1.5 5 4.2 5s4.2-2.4 4.2-5zM-1648.7 446.6v-7.8c0-2.2-1.1-2.9-2.8-2.9-1.5 0-3 .9-3.8 2v8.8h-1.2v-11.6h1.2v1.8c.8-1 2.5-2 4.2-2 2.4 0 3.6 1.2 3.6 3.8v8.1h-1.2zM-1644.6 445.1l.7-.9c.7.9 2.1 1.7 3.7 1.7 1.9 0 3.1-1 3.1-2.4 0-3.2-7.3-1.4-7.3-5.5 0-1.8 1.5-3.2 4.1-3.2 2 0 3.3.8 4.2 1.7l-.7.9c-.7-.9-1.9-1.5-3.5-1.5-1.8 0-2.9.9-2.9 2.1 0 2.9 7.3 1.1 7.3 5.6 0 1.9-1.4 3.4-4.3 3.4-1.8-.1-3.2-.6-4.4-1.9zM-1632.9 432.3c0-.5.5-.9 1-.9s1 .4 1 .9-.4 1-1 1c-.5-.1-1-.5-1-1zm.4 14.3V435h1.2v11.6h-1.2zM-1624.3 446.6l-4.9-11.6h1.4l4.2 10.1 4.2-10.1h1.4l-4.9 11.6h-1.4zM-1616.5 440.8c0-3.4 2.4-6.1 5.6-6.1 3.5 0 5.5 2.8 5.5 6.1v.3h-9.7c.1 2.5 1.8 4.6 4.5 4.6 1.5 0 2.8-.6 3.8-1.6l.6.8c-1.2 1.2-2.6 1.9-4.5 1.9-3.4.1-5.8-2.4-5.8-6zm5.5-5c-2.7 0-4.1 2.4-4.2 4.4h8.4c0-1.9-1.3-4.4-4.2-4.4zM-1587.5 446.6v-1.8c-.8 1.2-2.3 2.1-4 2.1-3.1 0-5.2-2.4-5.2-6.1 0-3.7 2.1-6.1 5.2-6.1 1.7 0 3.1.8 4 2.2v-6.3h1.3v16h-1.3zm0-2.9V438c-.7-1.1-2.2-2.1-3.8-2.1-2.6 0-4.1 2.2-4.1 5s1.5 4.9 4.1 4.9c1.6 0 3.1-1 3.8-2.1zM-1583 440.8c0-3.4 2.4-6.1 5.6-6.1 3.5 0 5.5 2.8 5.5 6.1v.3h-9.7c.1 2.5 1.8 4.6 4.5 4.6 1.5 0 2.8-.6 3.8-1.6l.6.8c-1.2 1.2-2.6 1.9-4.5 1.9-3.4.1-5.8-2.4-5.8-6zm5.6-5c-2.7 0-4.1 2.4-4.2 4.4h8.4c0-1.9-1.3-4.4-4.2-4.4zM-1569.7 445.1l.7-.9c.7.9 2.1 1.7 3.7 1.7 1.9 0 3.1-1 3.1-2.4 0-3.2-7.3-1.4-7.3-5.5 0-1.8 1.5-3.2 4.1-3.2 2 0 3.3.8 4.2 1.7l-.7.9c-.7-.9-1.9-1.5-3.5-1.5-1.8 0-2.9.9-2.9 2.1 0 2.9 7.3 1.1 7.3 5.6 0 1.9-1.4 3.4-4.3 3.4-1.8-.1-3.3-.6-4.4-1.9zM-1558 432.3c0-.5.5-.9 1-.9s1 .4 1 .9-.4 1-1 1c-.6-.1-1-.5-1-1zm.3 14.3V435h1.2v11.6h-1.2zM-1552.5 449.6l.7-1c1 1.2 2.1 1.6 3.9 1.6 2.1 0 3.9-1.1 3.9-3.7v-1.8c-.8 1.2-2.3 2.2-4 2.2-3.1 0-5.2-2.3-5.2-6s2.1-6.1 5.2-6.1c1.7 0 3.1.8 4 2.2v-1.9h1.3v11.5c0 3.5-2.4 4.8-5.2 4.8-2 0-3.3-.4-4.6-1.8zm8.5-6V438c-.7-1.1-2.2-2.1-3.8-2.1-2.6 0-4.1 2.1-4.1 4.9 0 2.8 1.5 4.9 4.1 4.9 1.6.1 3.1-.9 3.8-2.1zM-1531.1 446.6v-7.8c0-2.2-1.1-2.9-2.8-2.9-1.5 0-3 .9-3.8 2v8.8h-1.2v-11.6h1.2v1.8c.8-1 2.5-2 4.2-2 2.4 0 3.6 1.2 3.6 3.8v8.1h-1.2zM-1520.4 440.8c0-3.4 2.2-6.1 5.5-6.1 3.4 0 5.6 2.7 5.6 6.1 0 3.4-2.2 6.1-5.6 6.1-3.3 0-5.5-2.7-5.5-6.1zm9.8 0c0-2.6-1.5-4.9-4.2-4.9s-4.2 2.4-4.2 4.9c0 2.6 1.5 5 4.2 5s4.2-2.4 4.2-5zM-1498.2 446.6v-7.8c0-2.2-1.1-2.9-2.8-2.9-1.5 0-3 .9-3.8 2v8.8h-1.2v-11.6h1.2v1.8c.8-1 2.5-2 4.2-2 2.4 0 3.6 1.2 3.6 3.8v8.1h-1.2zM-1478.3 446.6v-1.8c-.8 1.2-2.3 2.1-4 2.1-3.1 0-5.2-2.4-5.2-6.1 0-3.7 2.1-6.1 5.2-6.1 1.7 0 3.1.8 4 2.2v-6.3h1.3v16h-1.3zm0-2.9V438c-.7-1.1-2.2-2.1-3.8-2.1-2.6 0-4.1 2.2-4.1 5s1.5 4.9 4.1 4.9c1.6 0 3.1-1 3.8-2.1zM-1473.8 440.8c0-3.4 2.4-6.1 5.6-6.1 3.5 0 5.5 2.8 5.5 6.1v.3h-9.7c.1 2.5 1.8 4.6 4.5 4.6 1.5 0 2.8-.6 3.8-1.6l.6.8c-1.2 1.2-2.6 1.9-4.5 1.9-3.4.1-5.8-2.4-5.8-6zm5.6-5c-2.7 0-4.1 2.4-4.2 4.4h8.4c0-1.9-1.3-4.4-4.2-4.4zM-1460.5 445.1l.7-.9c.7.9 2.1 1.7 3.7 1.7 1.9 0 3.1-1 3.1-2.4 0-3.2-7.3-1.4-7.3-5.5 0-1.8 1.5-3.2 4.1-3.2 2 0 3.3.8 4.2 1.7l-.7.9c-.7-.9-1.9-1.5-3.5-1.5-1.8 0-2.9.9-2.9 2.1 0 2.9 7.3 1.1 7.3 5.6 0 1.9-1.4 3.4-4.3 3.4-1.8-.1-3.3-.6-4.4-1.9zM-1440.5 446.6l-4.6-5.5-2.2 2v3.5h-1.2v-16h1.2v11l6.8-6.6h1.7l-5.4 5.2 5.4 6.4h-1.7zM-1436.1 444.4v-8.3h-1.9V435h1.9v-3.2h1.3v3.2h2.4v1.1h-2.4v8.1c0 .9.4 1.6 1.2 1.6.6 0 1-.3 1.3-.6l.5 1c-.5.4-1 .7-2 .7-1.6 0-2.3-.9-2.3-2.5zM-1430.4 440.8c0-3.4 2.2-6.1 5.5-6.1 3.4 0 5.6 2.7 5.6 6.1 0 3.4-2.2 6.1-5.6 6.1-3.4 0-5.5-2.7-5.5-6.1zm9.8 0c0-2.6-1.5-4.9-4.2-4.9s-4.2 2.4-4.2 4.9c0 2.6 1.5 5 4.2 5 2.6 0 4.2-2.4 4.2-5zM-1414.8 444.8v6.3h-1.2v-16h1.2v1.8c.8-1.2 2.3-2.1 4-2.1 3.1 0 5.2 2.4 5.2 6.1 0 3.7-2.1 6.1-5.2 6.1-1.6-.1-3.1-.9-4-2.2zm7.8-4c0-2.8-1.5-4.9-4.1-4.9-1.6 0-3.1 1-3.8 2.1v5.7c.7 1.1 2.2 2.1 3.8 2.1 2.7 0 4.1-2.2 4.1-5z"/></g><path fill="#E6EAEE" d="M-1523.2 369.1c-1-.8-1.5-1.9-1.8-3l-5.1-26.8h-67.4l-5.1 26.8c-.2 1.1-.8 2.2-1.8 3-1 .8-2.1 1.2-3.3 1.2h87.6c-1 0-2.2-.4-3.1-1.2z"/><path fill="#fff" d="M-1506.8 370.5c-.1-.1-.3-.2-.4-.2h-113.2c-.2 0-.3.1-.4.2-.1.1-.2.3-.2.4v.4c0 1.2 2.5 3.1 4.9 3.1h104.5c2.4 0 4.9-1.9 4.9-3.1v-.4c.1-.1 0-.3-.1-.4z"/><path fill="#E6EAEE" d="M-1520 370.3c-1.1 0-2.3-.4-3.3-1.2-1-.8-1.5-1.9-1.8-3l-5.1-26.8h-67.4l31 31h46.6z"/><path fill="#425A73" d="M-1413.8 119.4c0-2.2-.8-4.4-2.5-6.1-1.7-1.7-3.9-2.5-6.1-2.5h-282.8c-2.2 0-4.4.8-6.1 2.5-1.7 1.7-2.5 3.9-2.5 6.1v190.3h300V119.4z"/><path fill="#fff" d="M-1413.8 330.7c0 2.2-.8 4.4-2.5 6.1-1.7 1.7-3.9 2.5-6.1 2.5h-282.8c-2.2 0-4.4-.8-6.1-2.5-1.7-1.7-2.5-3.9-2.5-6.1v-21h300v21z"/><path fill="#425A73" d="M-1457.6 324.9c0 1.4 1.2 2.6 2.6 2.6h13.2c1.4 0 2.6-1.2 2.6-2.6v-.8c0-1.4-1.2-2.6-2.6-2.6h-13.2c-1.4 0-2.6 1.2-2.6 2.6v.8z"/><path fill="#fff" d="M-1698.6 126h269.7v168.5h-269.7z"/><path fill="#E6625C" d="M-1687.4 135.4h74.6v22.4h-74.6z"/><path fill="#E8E8E8" d="M-1601.1 135.4h162.7v22.4h-162.7zM-1689.2 261.6h250.8v7.4h-250.8zM-1689.2 277.7h250.8v7.4h-250.8z"/><path fill="#B3E9FF" d="M-1689.2 210.3h74.6v42.6h-74.6zM-1601.1 210.3h74.6v42.6h-74.6zM-1513 210.3h74.6v42.6h-74.6z"/><path fill="#D4D6D8" d="M-1689.2 166.5h250.8v35h-250.8z"/><g fill="#fff"><path d="M-2220.4-67.5l-5-7.5h-4v7.5h-1.5v-18h6.7c3.1 0 5.5 2 5.5 5.3s-2.3 5.1-5 5.2l5.2 7.6h-1.9zm.1-12.7c0-2.3-1.6-3.9-4-3.9h-5v7.7h5c2.4.1 4-1.6 4-3.8zM-2216.5-74c0-3.8 2.6-6.8 6.3-6.8 4 0 6.2 3.1 6.2 6.9v.4h-10.9c.1 2.8 2 5.2 5.1 5.2 1.6 0 3.2-.6 4.3-1.8l.7.9c-1.3 1.4-2.9 2.1-5.1 2.1-3.9-.1-6.6-2.9-6.6-6.9zm6.3-5.6c-3.1 0-4.6 2.7-4.7 5h9.5c-.1-2.3-1.6-5-4.8-5zM-2201.6-69.2l.8-1c.8 1.1 2.4 1.9 4.2 1.9 2.2 0 3.5-1.1 3.5-2.6 0-3.6-8.2-1.5-8.2-6.2 0-2 1.7-3.6 4.6-3.6 2.2 0 3.7.9 4.7 1.9l-.8 1c-.8-1-2.2-1.7-3.9-1.7-2 0-3.2 1-3.2 2.4 0 3.3 8.2 1.3 8.2 6.3 0 2.1-1.6 3.8-4.9 3.8-2-.2-3.7-.8-5-2.2zM-2186.6-69.6v7.1h-1.4v-18h1.4v2.1c.9-1.3 2.6-2.4 4.5-2.4 3.5 0 5.8 2.6 5.8 6.8 0 4.2-2.3 6.9-5.8 6.9-1.8-.1-3.5-1-4.5-2.5zm8.8-4.4c0-3.2-1.6-5.6-4.6-5.6-1.8 0-3.5 1.1-4.3 2.3v6.5c.8 1.2 2.5 2.4 4.3 2.4 3 0 4.6-2.5 4.6-5.6zM-2173.5-74c0-3.8 2.4-6.8 6.2-6.8 3.9 0 6.3 3 6.3 6.8s-2.4 6.9-6.3 6.9c-3.7-.1-6.2-3.1-6.2-6.9zm11.1 0c0-2.9-1.7-5.6-4.8-5.6-3 0-4.8 2.7-4.8 5.6 0 2.9 1.7 5.6 4.8 5.6 3.1 0 4.8-2.7 4.8-5.6zM-2148.5-67.5v-8.8c0-2.5-1.3-3.3-3.2-3.3-1.7 0-3.4 1.1-4.2 2.2v9.9h-1.4v-13h1.4v2c.9-1.1 2.8-2.3 4.7-2.3 2.6 0 4.1 1.3 4.1 4.2v9.1h-1.4zM-2143.9-69.2l.8-1c.8 1.1 2.4 1.9 4.2 1.9 2.2 0 3.5-1.1 3.5-2.6 0-3.6-8.2-1.5-8.2-6.2 0-2 1.7-3.6 4.6-3.6 2.2 0 3.7.9 4.7 1.9l-.8 1c-.8-1-2.2-1.7-3.9-1.7-2 0-3.2 1-3.2 2.4 0 3.3 8.2 1.3 8.2 6.3 0 2.1-1.6 3.8-4.9 3.8-2-.2-3.7-.8-5-2.2zM-2130.7-83.6c0-.6.5-1.1 1.1-1.1.6 0 1.1.5 1.1 1.1 0 .6-.5 1.1-1.1 1.1-.6-.1-1.1-.6-1.1-1.1zm.4 16.1v-13h1.4v13h-1.4zM-2121.1-67.5l-5.5-13h1.6l4.8 11.4 4.7-11.4h1.6l-5.5 13h-1.7zM-2112.3-74c0-3.8 2.6-6.8 6.3-6.8 4 0 6.2 3.1 6.2 6.9v.4h-10.9c.1 2.8 2 5.2 5.1 5.2 1.6 0 3.2-.6 4.3-1.8l.7.9c-1.3 1.4-2.9 2.1-5.1 2.1-3.9-.1-6.6-2.9-6.6-6.9zm6.2-5.6c-3.1 0-4.6 2.7-4.7 5h9.5c0-2.3-1.5-5-4.8-5zM-2079.7-67.5v-2.1c-.9 1.3-2.6 2.4-4.5 2.4-3.5 0-5.8-2.6-5.8-6.8 0-4.1 2.3-6.9 5.8-6.9 1.9 0 3.5.9 4.5 2.4v-7.1h1.4v18h-1.4zm0-3.2v-6.5c-.8-1.3-2.5-2.4-4.3-2.4-2.9 0-4.6 2.4-4.6 5.6 0 3.2 1.7 5.6 4.6 5.6 1.9 0 3.6-1.1 4.3-2.3zM-2074.6-74c0-3.8 2.6-6.8 6.3-6.8 4 0 6.2 3.1 6.2 6.9v.4h-10.9c.1 2.8 2 5.2 5.1 5.2 1.6 0 3.2-.6 4.3-1.8l.7.9c-1.3 1.4-2.9 2.1-5.1 2.1-3.9-.1-6.6-2.9-6.6-6.9zm6.3-5.6c-3.1 0-4.6 2.7-4.7 5h9.5c-.1-2.3-1.6-5-4.8-5zM-2059.7-69.2l.8-1c.8 1.1 2.4 1.9 4.2 1.9 2.2 0 3.5-1.1 3.5-2.6 0-3.6-8.2-1.5-8.2-6.2 0-2 1.7-3.6 4.6-3.6 2.2 0 3.7.9 4.7 1.9l-.8 1c-.8-1-2.2-1.7-3.9-1.7-2 0-3.2 1-3.2 2.4 0 3.3 8.2 1.3 8.2 6.3 0 2.1-1.6 3.8-4.9 3.8-2.1-.2-3.7-.8-5-2.2zM-2046.5-83.6c0-.6.5-1.1 1.1-1.1.6 0 1.1.5 1.1 1.1 0 .6-.5 1.1-1.1 1.1-.6-.1-1.1-.6-1.1-1.1zm.3 16.1v-13h1.4v13h-1.4zM-2040.3-64.2l.8-1.1c1.1 1.3 2.4 1.8 4.3 1.8 2.3 0 4.4-1.2 4.4-4.1v-2.1c-.9 1.3-2.6 2.5-4.5 2.5-3.5 0-5.8-2.6-5.8-6.8 0-4.1 2.3-6.8 5.8-6.8 1.9 0 3.5.9 4.5 2.4v-2.1h1.4v12.9c0 4-2.7 5.4-5.9 5.4-2.1 0-3.5-.4-5-2zm9.5-6.7v-6.3c-.8-1.3-2.5-2.4-4.3-2.4-2.9 0-4.6 2.4-4.6 5.6 0 3.2 1.7 5.5 4.6 5.5 1.9 0 3.6-1.1 4.3-2.4zM-2016.2-67.5v-8.8c0-2.5-1.3-3.3-3.2-3.3-1.7 0-3.4 1.1-4.2 2.2v9.9h-1.4v-13h1.4v2c.9-1.1 2.8-2.3 4.7-2.3 2.6 0 4.1 1.3 4.1 4.2v9.1h-1.4zM-2004.1-74c0-3.8 2.4-6.8 6.2-6.8 3.9 0 6.3 3 6.3 6.8s-2.4 6.9-6.3 6.9c-3.8-.1-6.2-3.1-6.2-6.9zm11 0c0-2.9-1.7-5.6-4.8-5.6-3 0-4.8 2.7-4.8 5.6 0 2.9 1.7 5.6 4.8 5.6 3.1 0 4.8-2.7 4.8-5.6zM-1979.2-67.5v-8.8c0-2.5-1.3-3.3-3.2-3.3-1.7 0-3.4 1.1-4.2 2.2v9.9h-1.4v-13h1.4v2c.9-1.1 2.8-2.3 4.7-2.3 2.6 0 4.1 1.3 4.1 4.2v9.1h-1.4zM-1966.4-67.5v-18h1.4v18h-1.4zM-1952.4-67.5V-69c-1.2 1.3-2.6 1.9-4.4 1.9-2.2 0-4.6-1.5-4.6-4.3s2.3-4.3 4.6-4.3c1.8 0 3.3.6 4.4 1.9v-2.6c0-1.9-1.6-3-3.5-3-1.6 0-2.9.6-4.1 1.9l-.8-1c1.3-1.5 2.9-2.2 5-2.2 2.6 0 4.8 1.3 4.8 4.2v9.2h-1.4zm0-2.5v-2.9c-.9-1.2-2.4-1.8-3.9-1.8-2.1 0-3.6 1.4-3.6 3.2 0 1.8 1.4 3.2 3.6 3.2 1.6 0 3-.6 3.9-1.7zM-1945.2-69.6v7.1h-1.4v-18h1.4v2.1c.9-1.3 2.6-2.4 4.5-2.4 3.5 0 5.8 2.6 5.8 6.8 0 4.2-2.3 6.9-5.8 6.9-1.8-.1-3.4-1-4.5-2.5zm8.9-4.4c0-3.2-1.6-5.6-4.6-5.6-1.8 0-3.5 1.1-4.3 2.3v6.5c.8 1.2 2.5 2.4 4.3 2.4 2.9 0 4.6-2.5 4.6-5.6zM-1931-70v-9.3h-2.2v-1.2h2.2v-3.6h1.4v3.6h2.6v1.2h-2.6v9.1c0 1.1.4 1.8 1.3 1.8.6 0 1.2-.3 1.5-.6l.5 1.1c-.5.5-1.1.8-2.2.8-1.7-.1-2.5-1.1-2.5-2.9zM-1924.6-74c0-3.8 2.4-6.8 6.2-6.8 3.9 0 6.3 3 6.3 6.8s-2.4 6.9-6.3 6.9c-3.7-.1-6.2-3.1-6.2-6.9zm11 0c0-2.9-1.7-5.6-4.8-5.6-3 0-4.8 2.7-4.8 5.6 0 2.9 1.7 5.6 4.8 5.6 3.1 0 4.8-2.7 4.8-5.6zM-1907-69.6v7.1h-1.4v-18h1.4v2.1c.9-1.3 2.6-2.4 4.5-2.4 3.5 0 5.8 2.6 5.8 6.8 0 4.2-2.3 6.9-5.8 6.9-1.8-.1-3.5-1-4.5-2.5zm8.8-4.4c0-3.2-1.6-5.6-4.6-5.6-1.8 0-3.5 1.1-4.3 2.3v6.5c.8 1.2 2.5 2.4 4.3 2.4 3 0 4.6-2.5 4.6-5.6z"/></g><path fill="#34495E" d="M-1921.1-179.8c0 2.4-.9 4.8-2.8 6.7-1.9 1.9-4.3 2.8-6.7 2.8H-2197c-2.4 0-4.8-.9-6.7-2.8-1.8-1.8-2.8-4.3-2.8-6.7V-350c0-2.4.9-4.8 2.8-6.7 1.9-1.8 4.3-2.8 6.7-2.8h266.4c2.4 0 4.8.9 6.7 2.8 1.8 1.8 2.8 4.3 2.8 6.7v170.2z"/><path fill="#283A4D" d="M-2060.6-352.1c0 1.8-1.4 3.2-3.2 3.2-1.8 0-3.2-1.4-3.2-3.2 0-1.8 1.4-3.2 3.2-3.2 1.8 0 3.2 1.4 3.2 3.2z"/><path fill="#5D6D7E" d="M-2062.5-352.1c0 .7-.6 1.3-1.3 1.3-.7 0-1.3-.6-1.3-1.3 0-.7.6-1.3 1.3-1.3.7 0 1.3.6 1.3 1.3z"/><path fill="#CDD3DA" d="M-1888.8-164.9c-5.1 5.9-12.6 9.6-21 9.6h-308c-8.4 0-15.9-3.7-21-9.6h350z"/><path fill="#fff" d="M-1888.8-164.8h-350v-4c0-.4.2-.8.5-1.1.3-.3.7-.5 1.1-.5h346.8c.4 0 .8.2 1.1.5.3.3.5.7.5 1.1v4z"/><path fill="#AAB5BD" d="M-2031.3-169.5c0 .5-.2 1-.6 1.3-.4.4-.8.5-1.3.5h-61.3c-.5 0-1-.2-1.3-.5-.4-.4-.6-.9-.6-1.3v-.9h65v.9z"/><path fill="#fff" d="M-2191.6-345h255.6v159.7h-255.6z"/><path fill="#E6625C" d="M-2181-336h70.7v21.2h-70.7z"/><path fill="#E8E8E8" d="M-2099.1-336h154.2v21.2h-154.2zM-2182.6-216.4h237.7v7h-237.7zM-2182.6-201.2h237.7v7h-237.7z"/><path fill="#B3E9FF" d="M-2182.6-265.1h70.7v40.3h-70.7zM-2099.1-265.1h70.7v40.3h-70.7zM-2015.6-265.1h70.7v40.3h-70.7z"/><path fill="#D4D6D8" d="M-2182.6-306.6h237.7v33.2h-237.7z"/><g fill="#fff"><path d="M-1717-53.5l-5-7.5h-4v7.5h-1.5v-18h6.7c3.1 0 5.5 2 5.5 5.3s-2.3 5.1-5 5.2l5.2 7.6h-1.9zm0-12.8c0-2.3-1.6-3.9-4-3.9h-5v7.7h5c2.4.1 4-1.5 4-3.8zM-1713.1-60.1c0-3.8 2.6-6.8 6.3-6.8 4 0 6.2 3.1 6.2 6.9v.4h-10.9c.1 2.8 2 5.2 5.1 5.2 1.6 0 3.2-.6 4.3-1.8l.7.9c-1.3 1.4-2.9 2.1-5.1 2.1-3.9 0-6.6-2.9-6.6-6.9zm6.2-5.6c-3.1 0-4.6 2.7-4.7 5h9.5c0-2.2-1.5-5-4.8-5zM-1698.2-55.3l.8-1c.8 1.1 2.4 1.9 4.2 1.9 2.2 0 3.5-1.1 3.5-2.6 0-3.6-8.2-1.5-8.2-6.2 0-2 1.7-3.6 4.6-3.6 2.2 0 3.7.9 4.7 1.9l-.8 1c-.8-1-2.2-1.7-3.9-1.7-2 0-3.2 1-3.2 2.4 0 3.3 8.2 1.3 8.2 6.3 0 2.1-1.6 3.8-4.9 3.8-2.1-.1-3.7-.7-5-2.2zM-1683.3-55.6v7.1h-1.4v-18h1.4v2.1c.9-1.3 2.6-2.4 4.5-2.4 3.5 0 5.8 2.6 5.8 6.8 0 4.2-2.3 6.9-5.8 6.9-1.8-.1-3.4-1.1-4.5-2.5zm8.9-4.5c0-3.2-1.6-5.6-4.6-5.6-1.8 0-3.5 1.1-4.3 2.3v6.5c.8 1.2 2.5 2.4 4.3 2.4 2.9 0 4.6-2.4 4.6-5.6zM-1670.1-60.1c0-3.8 2.4-6.8 6.2-6.8 3.9 0 6.3 3 6.3 6.8s-2.4 6.9-6.3 6.9c-3.8 0-6.2-3.1-6.2-6.9zm11 0c0-2.9-1.7-5.6-4.8-5.6-3 0-4.8 2.7-4.8 5.6 0 2.9 1.7 5.6 4.8 5.6 3.1 0 4.8-2.7 4.8-5.6zM-1645.2-53.5v-8.8c0-2.5-1.3-3.3-3.2-3.3-1.7 0-3.4 1.1-4.2 2.2v9.9h-1.4v-13h1.4v2c.9-1.1 2.8-2.3 4.7-2.3 2.6 0 4.1 1.3 4.1 4.2v9.1h-1.4zM-1640.5-55.3l.8-1c.8 1.1 2.4 1.9 4.2 1.9 2.2 0 3.5-1.1 3.5-2.6 0-3.6-8.2-1.5-8.2-6.2 0-2 1.7-3.6 4.6-3.6 2.2 0 3.7.9 4.7 1.9l-.8 1c-.8-1-2.2-1.7-3.9-1.7-2 0-3.2 1-3.2 2.4 0 3.3 8.2 1.3 8.2 6.3 0 2.1-1.6 3.8-4.9 3.8-2.1-.1-3.7-.7-5-2.2zM-1627.4-69.7c0-.6.5-1.1 1.1-1.1.6 0 1.1.5 1.1 1.1 0 .6-.5 1.1-1.1 1.1-.5 0-1.1-.5-1.1-1.1zm.4 16.2v-13h1.4v13h-1.4zM-1617.7-53.5l-5.5-13h1.6l4.8 11.4 4.7-11.4h1.6l-5.5 13h-1.7zM-1608.9-60.1c0-3.8 2.6-6.8 6.3-6.8 4 0 6.2 3.1 6.2 6.9v.4h-10.9c.1 2.8 2 5.2 5.1 5.2 1.6 0 3.2-.6 4.3-1.8l.7.9c-1.3 1.4-2.9 2.1-5.1 2.1-3.9 0-6.6-2.9-6.6-6.9zm6.2-5.6c-3.1 0-4.6 2.7-4.7 5h9.5c-.1-2.2-1.5-5-4.8-5zM-1576.3-53.5v-2.1c-.9 1.3-2.6 2.4-4.5 2.4-3.5 0-5.8-2.6-5.8-6.8 0-4.1 2.3-6.9 5.8-6.9 1.9 0 3.5.9 4.5 2.4v-7.1h1.4v18h-1.4zm0-3.3v-6.5c-.8-1.3-2.5-2.4-4.3-2.4-2.9 0-4.6 2.4-4.6 5.6s1.7 5.6 4.6 5.6c1.8 0 3.5-1.1 4.3-2.3zM-1571.2-60.1c0-3.8 2.6-6.8 6.3-6.8 4 0 6.2 3.1 6.2 6.9v.4h-10.9c.1 2.8 2 5.2 5.1 5.2 1.6 0 3.2-.6 4.3-1.8l.7.9c-1.3 1.4-2.9 2.1-5.1 2.1-3.9 0-6.6-2.9-6.6-6.9zm6.2-5.6c-3.1 0-4.6 2.7-4.7 5h9.5c-.1-2.2-1.5-5-4.8-5zM-1556.3-55.3l.8-1c.8 1.1 2.4 1.9 4.2 1.9 2.2 0 3.5-1.1 3.5-2.6 0-3.6-8.2-1.5-8.2-6.2 0-2 1.7-3.6 4.6-3.6 2.2 0 3.7.9 4.7 1.9l-.8 1c-.8-1-2.2-1.7-3.9-1.7-2 0-3.2 1-3.2 2.4 0 3.3 8.2 1.3 8.2 6.3 0 2.1-1.6 3.8-4.9 3.8-2.1-.1-3.7-.7-5-2.2zM-1543.2-69.7c0-.6.5-1.1 1.1-1.1.6 0 1.1.5 1.1 1.1 0 .6-.5 1.1-1.1 1.1-.6 0-1.1-.5-1.1-1.1zm.4 16.2v-13h1.4v13h-1.4zM-1537-50.2l.8-1.1c1.1 1.3 2.4 1.8 4.3 1.8 2.3 0 4.4-1.2 4.4-4.1v-2.1c-.9 1.3-2.6 2.5-4.5 2.5-3.5 0-5.8-2.6-5.8-6.8 0-4.1 2.3-6.8 5.8-6.8 1.9 0 3.5.9 4.5 2.4v-2.1h1.4v12.9c0 4-2.7 5.4-5.9 5.4-2-.1-3.4-.5-5-2zm9.6-6.7v-6.3c-.8-1.3-2.5-2.4-4.3-2.4-2.9 0-4.6 2.4-4.6 5.6s1.7 5.5 4.6 5.5c1.8 0 3.5-1.1 4.3-2.4zM-1512.8-53.5v-8.8c0-2.5-1.3-3.3-3.2-3.3-1.7 0-3.4 1.1-4.2 2.2v9.9h-1.4v-13h1.4v2c.9-1.1 2.8-2.3 4.7-2.3 2.6 0 4.1 1.3 4.1 4.2v9.1h-1.4zM-1500.8-60.1c0-3.8 2.4-6.8 6.2-6.8 3.9 0 6.3 3 6.3 6.8s-2.4 6.9-6.3 6.9c-3.8 0-6.2-3.1-6.2-6.9zm11 0c0-2.9-1.7-5.6-4.8-5.6-3 0-4.8 2.7-4.8 5.6 0 2.9 1.7 5.6 4.8 5.6 3.1 0 4.8-2.7 4.8-5.6zM-1475.8-53.5v-8.8c0-2.5-1.3-3.3-3.2-3.3-1.7 0-3.4 1.1-4.2 2.2v9.9h-1.4v-13h1.4v2c.9-1.1 2.8-2.3 4.7-2.3 2.6 0 4.1 1.3 4.1 4.2v9.1h-1.4zM-1462.8-56.1v-9.3h-2.2v-1.2h2.2v-3.6h1.4v3.6h2.6v1.2h-2.6v9.1c0 1.1.4 1.8 1.3 1.8.6 0 1.2-.3 1.5-.6l.5 1.1c-.5.5-1.1.8-2.2.8-1.7 0-2.5-1.1-2.5-2.9zM-1447.4-53.5V-55c-1.2 1.3-2.6 1.9-4.4 1.9-2.2 0-4.6-1.5-4.6-4.3s2.3-4.3 4.6-4.3c1.8 0 3.3.6 4.4 1.9v-2.6c0-1.9-1.6-3-3.5-3-1.6 0-2.9.6-4.1 1.9l-.8-1c1.3-1.5 2.9-2.2 5-2.2 2.6 0 4.8 1.3 4.8 4.2v9.2h-1.4zm0-2.6V-59c-.9-1.2-2.4-1.8-3.9-1.8-2.1 0-3.6 1.4-3.6 3.2 0 1.8 1.4 3.2 3.6 3.2 1.6.1 3-.5 3.9-1.7zM-1441.6-53.5v-18h1.4v7.1c1.1-1.5 2.7-2.4 4.5-2.4 3.5 0 5.8 2.7 5.8 6.9s-2.4 6.8-5.8 6.8c-1.9 0-3.6-1.1-4.5-2.4v2.1h-1.4zm5.7-1c2.9 0 4.6-2.4 4.6-5.6s-1.6-5.6-4.6-5.6c-1.8 0-3.5 1.1-4.3 2.4v6.5c.8 1.2 2.5 2.3 4.3 2.3zM-1426.2-53.5v-18h1.4v18h-1.4zM-1421.1-60.1c0-3.8 2.6-6.8 6.3-6.8 4 0 6.2 3.1 6.2 6.9v.4h-10.9c.1 2.8 2 5.2 5.1 5.2 1.6 0 3.2-.6 4.3-1.8l.7.9c-1.3 1.4-2.9 2.1-5.1 2.1-3.9 0-6.6-2.9-6.6-6.9zm6.2-5.6c-3.1 0-4.6 2.7-4.7 5h9.5c0-2.2-1.5-5-4.8-5zM-1404.8-56.1v-9.3h-2.2v-1.2h2.2v-3.6h1.4v3.6h2.6v1.2h-2.6v9.1c0 1.1.4 1.8 1.3 1.8.6 0 1.2-.3 1.5-.6l.5 1.1c-.5.5-1.1.8-2.2.8-1.7 0-2.5-1.1-2.5-2.9z"/></g><path fill="#34495E" d="M-1653.4-377.6c0-5.4 4.4-9.8 9.7-9.8h159.7c5.4 0 9.7 4.4 9.7 9.8v240.5c0 5.4-4.4 9.7-9.7 9.7h-159.7c-5.4 0-9.7-4.4-9.7-9.7v-240.5z"/><path fill="#283A4D" d="M-1573.7-138.3c-2.4 0-4.3-1.9-4.3-4.3v-1.1c0-2.4 2-4.3 4.3-4.3h19.8c2.4 0 4.3 2 4.3 4.3v1.1c0 2.4-1.9 4.3-4.3 4.3h-19.8zM-1563.8-370.2c-2.5 0-4.4-2-4.4-4.5 0-2.4 2-4.5 4.4-4.5 2.5 0 4.5 2 4.5 4.5s-2 4.5-4.5 4.5z"/><path fill="#5D6D7E" d="M-1563.8-372.8c-1 0-1.9-.8-1.9-1.9 0-1 .8-1.9 1.9-1.9s1.9.8 1.9 1.9c0 1-.9 1.9-1.9 1.9z"/><path fill="#fff" d="M-1643.2-362h158.9v203.1h-158.9z"/><path fill="#E6625C" d="M-1631.6-350.4h62.2v24.1h-62.2z"/><path fill="#E8E8E8" d="M-1558.2-350.4h62.2v24.1h-62.2zM-1631.6-195.8h135.6v7.9h-135.6zM-1631.6-178.4h135.6v7.9h-135.6z"/><path fill="#B3E9FF" d="M-1631.6-263.3h62.2v58.2h-62.2zM-1558.2-263.3h62.2v58.2h-62.2z"/><path fill="#D4D6D8" d="M-1631.6-316.9h135.6v44.1h-135.6z"/><path fill="#2D2D2D" d="M-957.4-237.3c0 2.4-.9 4.8-2.8 6.7-1.9 1.9-4.3 2.8-6.7 2.8h-266.4c-2.4 0-4.8-.9-6.7-2.8-1.8-1.8-2.8-4.3-2.8-6.7v-170.2c0-2.4.9-4.8 2.8-6.7 1.9-1.8 4.3-2.8 6.7-2.8h266.4c2.4 0 4.8.9 6.7 2.8 1.8 1.8 2.8 4.3 2.8 6.7v170.2z"/><path fill="#191919" d="M-1096.8-409.6c0 1.8-1.4 3.2-3.2 3.2-1.8 0-3.2-1.4-3.2-3.2 0-1.8 1.4-3.2 3.2-3.2 1.8 0 3.2 1.5 3.2 3.2z"/><path fill="#7F7F7F" d="M-1098.7-409.6c0 .7-.6 1.3-1.3 1.3-.7 0-1.3-.6-1.3-1.3 0-.7.6-1.3 1.3-1.3.7.1 1.3.6 1.3 1.3z"/><path fill="#CDD3DA" d="M-925-222.3c-5.1 5.9-12.6 9.6-21 9.6h-308c-8.4 0-15.9-3.7-21-9.6h350z"/><path fill="#fff" d="M-925-222.3h-350v-4c0-.4.2-.8.5-1.1.3-.3.7-.5 1.1-.5h346.8c.4 0 .8.2 1.1.5.3.3.5.7.5 1.1v4z"/><path fill="#AAB5BD" d="M-1067.5-226.9c0 .5-.2 1-.6 1.3-.4.4-.8.5-1.3.5h-61.3c-.5 0-1-.2-1.3-.5-.4-.4-.6-.9-.6-1.3v-.9h65v.9z"/><path fill="#fff" d="M-1227.8-402.4h255.6v159.7h-255.6z"/><path fill="#E6625C" d="M-1217.2-393.5h70.7v21.2h-70.7z"/><path fill="#E8E8E8" d="M-1135.4-393.5h154.2v21.2h-154.2zM-1218.9-273.9h237.7v7h-237.7zM-1218.9-258.6h237.7v7h-237.7z"/><path fill="#B3E9FF" d="M-1218.9-322.5h70.7v40.3h-70.7zM-1135.4-322.5h70.7v40.3h-70.7zM-1051.9-322.5h70.7v40.3h-70.7z"/><path fill="#D4D6D8" d="M-1218.9-364h237.7v33.2h-237.7z"/><path fill="#2D2D2D" d="M-813.4-410.2c0-5.4 4.4-9.8 9.7-9.8H-644c5.4 0 9.7 4.4 9.7 9.8v240.5c0 5.4-4.4 9.7-9.7 9.7h-159.7c-5.4 0-9.7-4.4-9.7-9.7v-240.5z"/><path fill="#191919" d="M-733.7-170.8c-2.4 0-4.3-1.9-4.3-4.3v-1.1c0-2.4 2-4.3 4.3-4.3h19.8c2.4 0 4.3 2 4.3 4.3v1.1c0 2.4-1.9 4.3-4.3 4.3h-19.8zM-723.8-402.8c-2.5 0-4.4-2-4.4-4.5 0-2.4 2-4.5 4.4-4.5 2.5 0 4.5 2 4.5 4.5-.1 2.5-2.1 4.5-4.5 4.5z"/><path fill="#7F7F7F" d="M-723.8-405.4c-1 0-1.9-.8-1.9-1.9 0-1 .8-1.9 1.9-1.9 1 0 1.9.8 1.9 1.9 0 1.1-.9 1.9-1.9 1.9z"/><path fill="#fff" d="M-803.3-394.6h158.9v203.1h-158.9z"/><path fill="#E6625C" d="M-791.6-382.9h62.2v24.1h-62.2z"/><path fill="#E8E8E8" d="M-718.2-382.9h62.2v24.1h-62.2zM-791.6-228.3H-656v7.9h-135.6zM-791.6-211H-656v7.9h-135.6z"/><path fill="#B3E9FF" d="M-791.6-295.9h62.2v58.2h-62.2zM-718.2-295.9h62.2v58.2h-62.2z"/><path fill="#D4D6D8" d="M-791.6-349.4H-656v44.1h-135.6z"/><path fill="#E6EAEE" d="M-1059.5 152.5c-1-.8-1.5-1.9-1.8-3l-5.1-26.8h-67.4l-5.1 26.8c-.2 1.1-.8 2.2-1.8 3-1 .8-2.1 1.2-3.3 1.2h87.6c-.9 0-2.1-.4-3.1-1.2z"/><path fill="#fff" d="M-1043 153.9c-.1-.1-.3-.2-.4-.2h-113.2c-.2 0-.3.1-.4.2-.1.1-.2.3-.2.4v.4c0 1.2 2.5 3.1 4.9 3.1h104.5c2.4 0 4.9-1.9 4.9-3.1v-.4c.1-.1 0-.3-.1-.4z"/><path fill="#E6EAEE" d="M-1056.2 153.7c-1.1 0-2.3-.4-3.3-1.2-1-.8-1.5-1.9-1.8-3l-5.1-26.8h-67.4l31 31h46.6z"/><path fill="#2D2D2D" d="M-950-97.2c0-2.2-.8-4.4-2.5-6.1-1.7-1.7-3.9-2.5-6.1-2.5h-282.8c-2.2 0-4.4.8-6.1 2.5-1.7 1.7-2.5 3.9-2.5 6.1V93.1h300V-97.2z"/><path fill="#fff" d="M-950 114.1c0 2.2-.8 4.4-2.5 6.1-1.7 1.7-3.9 2.5-6.1 2.5h-282.8c-2.2 0-4.4-.8-6.1-2.5-1.7-1.7-2.5-3.9-2.5-6.1v-21h300v21z"/><path fill="#2D2D2D" d="M-993.8 108.3c0 1.4 1.2 2.6 2.6 2.6h13.2c1.4 0 2.6-1.2 2.6-2.6v-.8c0-1.4-1.2-2.6-2.6-2.6h-13.2c-1.4 0-2.6 1.2-2.6 2.6v.8z"/><path fill="#fff" d="M-1234.8-90.6h269.7V77.9h-269.7z"/><path fill="#E6625C" d="M-1223.6-81.2h74.6v22.4h-74.6z"/><path fill="#E8E8E8" d="M-1137.3-81.2h162.7v22.4h-162.7zM-1225.4 45h250.8v7.4h-250.8zM-1225.4 61.1h250.8v7.4h-250.8z"/><path fill="#B3E9FF" d="M-1225.4-6.3h74.6v42.6h-74.6zM-1137.3-6.3h74.6v42.6h-74.6zM-1049.2-6.3h74.6v42.6h-74.6z"/><path fill="#D4D6D8" d="M-1225.4-50h250.8v35h-250.8z"/><path fill="#2D2D2D" d="M-782.1 175.2c-10 0-18.1-8.2-18.1-18.1V-66.7c0-10 8.2-18.1 18.1-18.1h105.2c10 0 18.1 8.2 18.1 18.1V157c0 10-8.2 18.1-18.1 18.1h-105.2z"/><path fill="#191919" d="M-713.8 156.4c0 2.4-1.9 4.3-4.3 4.3h-22.7c-2.4 0-4.3-1.9-4.3-4.3v-1.8c0-2.4 2-4.3 4.3-4.3h22.7c2.4 0 4.3 1.9 4.3 4.3v1.8zM-724.2-65.2c0 2.9-2.3 5.2-5.2 5.2-2.9 0-5.2-2.3-5.2-5.2 0-2.9 2.4-5.2 5.2-5.2 2.9 0 5.2 2.3 5.2 5.2z"/><path fill="#7F7F7F" d="M-727-65.2c0 1.4-1.1 2.5-2.5 2.5s-2.5-1.1-2.5-2.5 1.1-2.5 2.5-2.5c1.4.1 2.5 1.2 2.5 2.5z"/><path fill="#fff" d="M-789.9-45.5H-669v181.4h-120.9z"/><path fill="#E6625C" d="M-780.6-36.2h102.3v15.6h-102.3z"/><path fill="#E8E8E8" d="M-780.6 110.2h102.3v5.1h-102.3zM-780.6 121.4h102.3v5.1h-102.3z"/><path fill="#B3E9FF" d="M-780.6 23.9h102.3v80.2h-102.3z"/><path fill="#D4D6D8" d="M-780.6-14.5h102.3v32.2h-102.3z"/><path fill="#E6EAEE" d="M156.4 212c-.8-.6-1.3-1.5-1.4-2.4l-4.2-22H95.4l-4.2 22c-.2.9-.7 1.8-1.4 2.4-.8.6-1.7 1-2.7 1H159c-.9-.1-1.8-.4-2.6-1z"/><path fill="#fff" d="M169.9 213.1c-.1-.1-.2-.1-.4-.1H76.7c-.1 0-.3 0-.4.1-.1.1-.1.2-.1.4v.3c0 1 2.1 2.5 4 2.5H166c2 0 4-1.5 4-2.5v-.3c0-.2 0-.3-.1-.4z"/><path fill="#E6EAEE" d="M159 212.9c-.9 0-1.9-.3-2.7-1-.8-.6-1.3-1.5-1.4-2.4l-4.2-22H95.4l25.4 25.4H159z"/><path fill="#2D2D2D" d="M246.2 7.1c0-1.8-.7-3.6-2.1-5-1.4-1.4-3.2-2.1-5-2.1H7.1c-1.8 0-3.6.7-5 2.1C.7 3.4 0 5.3 0 7.1v156.1h246.2V7.1z"/><path fill="#fff" d="M246.2 180.4c0 1.8-.7 3.6-2.1 5-1.4 1.4-3.2 2.1-5 2.1H7.1c-1.8 0-3.6-.7-5-2.1-1.4-1.4-2.1-3.2-2.1-5v-17.2h246.2v17.2z"/><path fill="#2D2D2D" d="M210.2 175.7c0 1.2 1 2.1 2.1 2.1h10.8c1.2 0 2.1-1 2.1-2.1v-.7c0-1.2-1-2.1-2.1-2.1h-10.8c-1.2 0-2.1 1-2.1 2.1v.7z"/><path fill="#fff" d="M12.4 12.5h221.3v138.3H12.4z"/><path fill="#E6625C" d="M21.6 20.2h61.2v18.4H21.6z"/><path fill="#E8E8E8" d="M92.5 20.2H226v18.4H92.5zM20.2 123.7H226v6H20.2zM20.2 137H226v6H20.2z"/><path fill="#B3E9FF" d="M20.2 81.6h61.2v34.9H20.2zM92.5 81.6h61.2v34.9H92.5zM164.8 81.6H226v34.9h-61.2z"/><path fill="#D4D6D8" d="M20.2 45.7H226v28.7H20.2z"/></svg>