<svg width="120" viewBox="0 0 120 34"><path d="M62.743 6.361H57.11l.01 10.44c0 3.05-1.322 5.518-4.399 5.518-3.076 0-4.413-2.462-4.413-5.519V6.37h-5.623V16.8c0 6.028 3.914 10.914 10 10.914S62.743 22.828 62.743 16.8V6.361zM113.535 0h5.606v27.175h-5.606V0zM38.103 6.134c-4.831-1.104-7.88 3.65-8.005 3.905-.063.125-.065.19-.28.19-.175 0-.19-.19-.19-.19l-.6-3.636H24v20.755h5.63V15.923c0-.918 2.496-5.32 7.332-4.187 2.446.568 3.482 1.6 3.482 1.6V7.015a8.982 8.982 0 0 0-2.34-.88zm32.278 27.86V23.73s.01-.224.213-.226c.202-.002.221.118.265.226.429 1.053 2.775 5.06 7.983 3.803 5.514-1.544 8.932-6.994 7.887-12.574-1.046-5.58-6.21-9.453-11.916-8.935-5.706.518-10.074 5.256-10.078 10.931V34l5.646-.006zm5.455-22.6a5.619 5.619 0 0 1 5.192 3.433c.87 2.08.39 4.473-1.217 6.065a5.657 5.657 0 0 1-6.123 1.206 5.564 5.564 0 0 1-3.467-5.143c0-3.071 2.514-5.562 5.615-5.562zm29.536 15.994H111v-10.29c-.004-5.72-4.36-10.494-10.051-11.016a11.062 11.062 0 0 0-11.885 9.003 11.068 11.068 0 0 0 7.866 12.671c5.195 1.268 7.535-2.77 7.962-3.832.044-.108.084-.229.265-.227.181.002.211.227.211.227l.004 3.464zm.159-10.29a5.603 5.603 0 0 1-5.601 5.605 5.603 5.603 0 0 1-5.601-5.605 5.603 5.603 0 0 1 5.6-5.605 5.605 5.605 0 0 1 5.602 5.605zM6.385 27.344H0V0h6.85c8.298 0 14.591 1.527 14.591 13.672 0 12.033-6.665 13.672-15.056 13.672zM7.91 4.741H5.653V22.6l2.317.059c4.754 0 7.818-.431 7.818-8.987-.001-8.202-2.698-8.931-7.88-8.931h.002z" fill="#2AA9E0"/></svg>