<svg xmlns="http://www.w3.org/2000/svg" viewBox="0 0 350 204.3" enable-background="new 0 0 350 204.3"><g fill="#fff"><path d="M-2056.1 557.7l-4.5-6.6h-3.5v6.6h-1.4v-16h6c2.8 0 4.9 1.8 4.9 4.7 0 2.9-2 4.5-4.4 4.6l4.6 6.7h-1.7zm0-11.3c0-2-1.4-3.4-3.6-3.4h-4.5v6.9h4.5c2.2 0 3.6-1.5 3.6-3.5zM-2052.6 551.9c0-3.4 2.4-6.1 5.6-6.1 3.5 0 5.5 2.8 5.5 6.1v.3h-9.7c.1 2.5 1.8 4.6 4.5 4.6 1.5 0 2.8-.6 3.8-1.6l.6.8c-1.2 1.2-2.6 1.9-4.5 1.9-3.4.1-5.8-2.4-5.8-6zm5.5-5c-2.7 0-4.1 2.4-4.2 4.4h8.4c0-1.9-1.3-4.4-4.2-4.4zM-2039.4 556.2l.7-.9c.7.9 2.1 1.7 3.7 1.7 1.9 0 3.1-1 3.1-2.4 0-3.2-7.3-1.4-7.3-5.5 0-1.8 1.5-3.2 4.1-3.2 2 0 3.3.8 4.2 1.7l-.7.9c-.7-.9-1.9-1.5-3.5-1.5-1.8 0-2.9.9-2.9 2.1 0 2.9 7.3 1.1 7.3 5.6 0 1.9-1.4 3.4-4.3 3.4-1.8-.1-3.2-.6-4.4-1.9zM-2026.1 555.9v6.3h-1.2v-16h1.2v1.8c.8-1.2 2.3-2.1 4-2.1 3.1 0 5.2 2.4 5.2 6.1 0 3.7-2.1 6.1-5.2 6.1-1.6-.1-3.1-.9-4-2.2zm7.9-4c0-2.8-1.5-4.9-4.1-4.9-1.6 0-3.1 1-3.8 2.1v5.7c.7 1.1 2.2 2.1 3.8 2.1 2.6 0 4.1-2.2 4.1-5zM-2014.4 551.9c0-3.4 2.2-6.1 5.5-6.1 3.4 0 5.6 2.7 5.6 6.1 0 3.4-2.2 6.1-5.6 6.1-3.3 0-5.5-2.7-5.5-6.1zm9.8 0c0-2.6-1.5-4.9-4.2-4.9s-4.2 2.4-4.2 4.9c0 2.6 1.5 5 4.2 5s4.2-2.4 4.2-5zM-1992.2 557.7v-7.8c0-2.2-1.1-2.9-2.8-2.9-1.5 0-3 .9-3.8 2v8.8h-1.2v-11.6h1.2v1.8c.8-1 2.5-2 4.2-2 2.4 0 3.6 1.2 3.6 3.8v8.1h-1.2zM-1988.1 556.2l.7-.9c.7.9 2.1 1.7 3.7 1.7 1.9 0 3.1-1 3.1-2.4 0-3.2-7.3-1.4-7.3-5.5 0-1.8 1.5-3.2 4.1-3.2 2 0 3.3.8 4.2 1.7l-.7.9c-.7-.9-1.9-1.5-3.5-1.5-1.8 0-2.9.9-2.9 2.1 0 2.9 7.3 1.1 7.3 5.6 0 1.9-1.4 3.4-4.3 3.4-1.8-.1-3.3-.6-4.4-1.9zM-1976.4 543.4c0-.5.5-.9 1-.9s1 .4 1 .9-.4 1-1 1c-.6-.1-1-.5-1-1zm.3 14.3v-11.6h1.2v11.6h-1.2zM-1967.8 557.7l-4.9-11.6h1.4l4.2 10.1 4.2-10.1h1.4l-4.9 11.6h-1.4zM-1960 551.9c0-3.4 2.4-6.1 5.6-6.1 3.5 0 5.5 2.8 5.5 6.1v.3h-9.7c.1 2.5 1.8 4.6 4.5 4.6 1.5 0 2.8-.6 3.8-1.6l.6.8c-1.2 1.2-2.6 1.9-4.5 1.9-3.4.1-5.8-2.4-5.8-6zm5.5-5c-2.7 0-4.1 2.4-4.2 4.4h8.4c0-1.9-1.3-4.4-4.2-4.4zM-1931 557.7v-1.8c-.8 1.2-2.3 2.1-4 2.1-3.1 0-5.2-2.4-5.2-6.1 0-3.7 2.1-6.1 5.2-6.1 1.7 0 3.1.8 4 2.2v-6.3h1.3v16h-1.3zm0-2.9v-5.7c-.7-1.1-2.2-2.1-3.8-2.1-2.6 0-4.1 2.2-4.1 5s1.5 4.9 4.1 4.9c1.6 0 3.1-1 3.8-2.1zM-1926.5 551.9c0-3.4 2.4-6.1 5.6-6.1 3.5 0 5.5 2.8 5.5 6.1v.3h-9.7c.1 2.5 1.8 4.6 4.5 4.6 1.5 0 2.8-.6 3.8-1.6l.6.8c-1.2 1.2-2.6 1.9-4.5 1.9-3.4.1-5.8-2.4-5.8-6zm5.5-5c-2.7 0-4.1 2.4-4.2 4.4h8.4c0-1.9-1.3-4.4-4.2-4.4zM-1913.3 556.2l.7-.9c.7.9 2.1 1.7 3.7 1.7 1.9 0 3.1-1 3.1-2.4 0-3.2-7.3-1.4-7.3-5.5 0-1.8 1.5-3.2 4.1-3.2 2 0 3.3.8 4.2 1.7l-.7.9c-.7-.9-1.9-1.5-3.5-1.5-1.8 0-2.9.9-2.9 2.1 0 2.9 7.3 1.1 7.3 5.6 0 1.9-1.4 3.4-4.3 3.4-1.8-.1-3.2-.6-4.4-1.9zM-1901.6 543.4c0-.5.5-.9 1-.9s1 .4 1 .9-.4 1-1 1c-.5-.1-1-.5-1-1zm.4 14.3v-11.6h1.2v11.6h-1.2zM-1896.1 560.7l.7-1c1 1.2 2.1 1.6 3.9 1.6 2.1 0 3.9-1.1 3.9-3.7v-1.8c-.8 1.2-2.3 2.2-4 2.2-3.1 0-5.2-2.3-5.2-6s2.1-6.1 5.2-6.1c1.7 0 3.1.8 4 2.2v-1.9h1.3v11.5c0 3.5-2.4 4.8-5.2 4.8-2-.1-3.2-.4-4.6-1.8zm8.5-6v-5.6c-.7-1.1-2.2-2.1-3.8-2.1-2.6 0-4.1 2.1-4.1 4.9 0 2.8 1.5 4.9 4.1 4.9 1.6 0 3.2-.9 3.8-2.1zM-1874.6 557.7v-7.8c0-2.2-1.1-2.9-2.8-2.9-1.5 0-3 .9-3.8 2v8.8h-1.2v-11.6h1.2v1.8c.8-1 2.5-2 4.2-2 2.4 0 3.6 1.2 3.6 3.8v8.1h-1.2zM-1863.9 551.9c0-3.4 2.2-6.1 5.5-6.1 3.4 0 5.6 2.7 5.6 6.1 0 3.4-2.2 6.1-5.6 6.1-3.3 0-5.5-2.7-5.5-6.1zm9.8 0c0-2.6-1.5-4.9-4.2-4.9s-4.2 2.4-4.2 4.9c0 2.6 1.5 5 4.2 5s4.2-2.4 4.2-5zM-1841.7 557.7v-7.8c0-2.2-1.1-2.9-2.8-2.9-1.5 0-3 .9-3.8 2v8.8h-1.2v-11.6h1.2v1.8c.8-1 2.5-2 4.2-2 2.4 0 3.6 1.2 3.6 3.8v8.1h-1.2zM-1831.4 556.2l.7-.9c.7.9 2.1 1.7 3.7 1.7 1.9 0 3.1-1 3.1-2.4 0-3.2-7.3-1.4-7.3-5.5 0-1.8 1.5-3.2 4.1-3.2 2 0 3.3.8 4.2 1.7l-.7.9c-.7-.9-1.9-1.5-3.5-1.5-1.8 0-2.9.9-2.9 2.1 0 2.9 7.3 1.1 7.3 5.6 0 1.9-1.4 3.4-4.3 3.4-1.8-.1-3.2-.6-4.4-1.9zM-1805.6 557.7v-8.1c0-1.6-.7-2.6-2.3-2.6-1.2 0-2.7.9-3.3 2v8.8h-1.3v-8.1c0-1.6-.7-2.6-2.3-2.6-1.2 0-2.6.9-3.3 2v8.8h-1.2v-11.6h1.2v1.8c.5-.7 2.1-2 3.7-2 1.8 0 2.8 1.1 3 2.2.6-1.1 2.2-2.2 3.8-2.2 2.1 0 3.2 1.2 3.2 3.5v8.4h-1.2zM-1793.1 557.7v-1.4c-1 1.1-2.3 1.7-3.9 1.7-2 0-4.1-1.4-4.1-3.9s2-3.8 4.1-3.8c1.6 0 2.9.5 3.9 1.7v-2.4c0-1.7-1.4-2.7-3.1-2.7-1.5 0-2.6.5-3.6 1.7l-.7-.9c1.2-1.3 2.5-1.9 4.5-1.9 2.4 0 4.2 1.1 4.2 3.7v8.2h-1.3zm0-2.3v-2.5c-.8-1.1-2.1-1.6-3.5-1.6-1.9 0-3.2 1.2-3.2 2.9 0 1.6 1.3 2.9 3.2 2.9 1.4-.1 2.7-.6 3.5-1.7zM-1787.9 557.7v-11.6h1.2v2c1-1.3 2.3-2.2 3.9-2.2v1.4h-.6c-1.2 0-2.8 1.1-3.3 2.1v8.4h-1.2zM-1780.1 555.5v-8.3h-1.9v-1.1h1.9V543h1.3v3.2h2.4v1.1h-2.4v8.1c0 .9.4 1.6 1.2 1.6.6 0 1-.3 1.3-.6l.5 1c-.5.4-1 .7-2 .7-1.5-.1-2.3-1-2.3-2.6zM-1772.5 555.9v6.3h-1.2v-16h1.2v1.8c.8-1.2 2.3-2.1 4-2.1 3.1 0 5.2 2.4 5.2 6.1 0 3.7-2.1 6.1-5.2 6.1-1.6-.1-3-.9-4-2.2zm7.9-4c0-2.8-1.5-4.9-4.1-4.9-1.6 0-3.1 1-3.8 2.1v5.7c.7 1.1 2.2 2.1 3.8 2.1 2.6 0 4.1-2.2 4.1-5zM-1752.3 557.7v-7.9c0-2.2-1.1-2.9-2.8-2.9-1.5 0-3 .9-3.8 2v8.8h-1.2v-16h1.2v6.2c.8-1 2.5-2 4.2-2 2.4 0 3.6 1.1 3.6 3.7v8.2h-1.2zM-1747.8 551.9c0-3.4 2.2-6.1 5.5-6.1 3.4 0 5.6 2.7 5.6 6.1 0 3.4-2.2 6.1-5.6 6.1-3.3 0-5.5-2.7-5.5-6.1zm9.8 0c0-2.6-1.5-4.9-4.2-4.9s-4.2 2.4-4.2 4.9c0 2.6 1.5 5 4.2 5s4.2-2.4 4.2-5zM-1725.6 557.7v-7.8c0-2.2-1.1-2.9-2.8-2.9-1.5 0-3 .9-3.8 2v8.8h-1.2v-11.6h1.2v1.8c.8-1 2.5-2 4.2-2 2.4 0 3.6 1.2 3.6 3.8v8.1h-1.2zM-1721.1 551.9c0-3.4 2.4-6.1 5.6-6.1 3.5 0 5.5 2.8 5.5 6.1v.3h-9.7c.1 2.5 1.8 4.6 4.5 4.6 1.5 0 2.8-.6 3.8-1.6l.6.8c-1.2 1.2-2.6 1.9-4.5 1.9-3.4.1-5.8-2.4-5.8-6zm5.5-5c-2.7 0-4.1 2.4-4.2 4.4h8.4c0-1.9-1.3-4.4-4.2-4.4z"/></g><path fill="#34495E" d="M-1940.4 484.6c-10 0-18.1-8.2-18.1-18.1V242.7c0-10 8.2-18.1 18.1-18.1h105.2c10 0 18.1 8.2 18.1 18.1v223.7c0 10-8.2 18.1-18.1 18.1h-105.2z"/><path fill="#283A4D" d="M-1872.1 465.8c0 2.4-1.9 4.3-4.3 4.3h-22.7c-2.4 0-4.3-1.9-4.3-4.3V464c0-2.4 2-4.3 4.3-4.3h22.7c2.4 0 4.3 1.9 4.3 4.3v1.8zM-1882.5 244.2c0 2.9-2.3 5.2-5.2 5.2-2.9 0-5.2-2.3-5.2-5.2 0-2.9 2.4-5.2 5.2-5.2 2.8 0 5.2 2.3 5.2 5.2z"/><path fill="#5D6D7E" d="M-1885.3 244.2c0 1.4-1.1 2.5-2.5 2.5s-2.5-1.1-2.5-2.5 1.1-2.5 2.5-2.5 2.5 1.2 2.5 2.5z"/><path fill="#fff" d="M-1948.3 263.9h120.9v181.4h-120.9z"/><path fill="#E6625C" d="M-1939 273.2h102.3v15.6H-1939z"/><path fill="#E8E8E8" d="M-1939 419.6h102.3v5.1H-1939zM-1939 430.8h102.3v5.1H-1939z"/><path fill="#B3E9FF" d="M-1939 333.3h102.3v80.2H-1939z"/><path fill="#D4D6D8" d="M-1939 294.9h102.3v32.2H-1939z"/><g fill="#fff"><path d="M-1536.6 558.6l-4.5-6.6h-3.5v6.6h-1.4v-16h6c2.8 0 4.9 1.8 4.9 4.7 0 2.9-2 4.5-4.4 4.6l4.6 6.7h-1.7zm.1-11.3c0-2-1.4-3.4-3.6-3.4h-4.5v6.9h4.5c2.1-.1 3.6-1.5 3.6-3.5zM-1533.1 552.8c0-3.4 2.4-6.1 5.6-6.1 3.5 0 5.5 2.8 5.5 6.1v.3h-9.7c.1 2.5 1.8 4.6 4.5 4.6 1.5 0 2.8-.6 3.8-1.6l.6.8c-1.2 1.2-2.6 1.9-4.5 1.9-3.4.1-5.8-2.4-5.8-6zm5.5-5c-2.7 0-4.1 2.4-4.2 4.4h8.4c0-1.9-1.3-4.4-4.2-4.4zM-1519.9 557.1l.7-.9c.7.9 2.1 1.7 3.7 1.7 1.9 0 3.1-1 3.1-2.4 0-3.2-7.3-1.4-7.3-5.5 0-1.8 1.5-3.2 4.1-3.2 2 0 3.3.8 4.2 1.7l-.7.9c-.7-.9-1.9-1.5-3.5-1.5-1.8 0-2.9.9-2.9 2.1 0 2.9 7.3 1.1 7.3 5.6 0 1.9-1.4 3.4-4.3 3.4-1.8-.1-3.2-.6-4.4-1.9zM-1506.6 556.7v6.3h-1.2v-16h1.2v1.8c.8-1.2 2.3-2.1 4-2.1 3.1 0 5.2 2.4 5.2 6.1 0 3.7-2.1 6.1-5.2 6.1-1.6 0-3-.8-4-2.2zm7.9-3.9c0-2.8-1.5-4.9-4.1-4.9-1.6 0-3.1 1-3.8 2.1v5.7c.7 1.1 2.2 2.1 3.8 2.1 2.6 0 4.1-2.2 4.1-5zM-1494.9 552.8c0-3.4 2.2-6.1 5.5-6.1 3.4 0 5.6 2.7 5.6 6.1 0 3.4-2.2 6.1-5.6 6.1-3.3 0-5.5-2.7-5.5-6.1zm9.8 0c0-2.6-1.5-4.9-4.2-4.9s-4.2 2.4-4.2 4.9c0 2.6 1.5 5 4.2 5s4.2-2.4 4.2-5zM-1472.7 558.6v-7.8c0-2.2-1.1-2.9-2.8-2.9-1.5 0-3 .9-3.8 2v8.8h-1.2V547h1.2v1.8c.8-1 2.5-2 4.2-2 2.4 0 3.6 1.2 3.6 3.8v8.1h-1.2zM-1468.6 557.1l.7-.9c.7.9 2.1 1.7 3.7 1.7 1.9 0 3.1-1 3.1-2.4 0-3.2-7.3-1.4-7.3-5.5 0-1.8 1.5-3.2 4.1-3.2 2 0 3.3.8 4.2 1.7l-.7.9c-.7-.9-1.9-1.5-3.5-1.5-1.8 0-2.9.9-2.9 2.1 0 2.9 7.3 1.1 7.3 5.6 0 1.9-1.4 3.4-4.3 3.4-1.8-.1-3.2-.6-4.4-1.9zM-1456.9 544.2c0-.5.5-.9 1-.9s1 .4 1 .9-.4 1-1 1c-.5 0-1-.4-1-1zm.4 14.4V547h1.2v11.6h-1.2zM-1448.3 558.6l-4.9-11.6h1.4l4.2 10.1 4.2-10.1h1.4l-4.9 11.6h-1.4zM-1440.5 552.8c0-3.4 2.4-6.1 5.6-6.1 3.5 0 5.5 2.8 5.5 6.1v.3h-9.7c.1 2.5 1.8 4.6 4.5 4.6 1.5 0 2.8-.6 3.8-1.6l.6.8c-1.2 1.2-2.6 1.9-4.5 1.9-3.4.1-5.8-2.4-5.8-6zm5.5-5c-2.7 0-4.1 2.4-4.2 4.4h8.4c0-1.9-1.3-4.4-4.2-4.4zM-1411.5 558.6v-1.8c-.8 1.2-2.3 2.1-4 2.1-3.1 0-5.2-2.4-5.2-6.1 0-3.7 2.1-6.1 5.2-6.1 1.7 0 3.1.8 4 2.2v-6.3h1.3v16h-1.3zm0-2.9V550c-.7-1.1-2.2-2.1-3.8-2.1-2.6 0-4.1 2.2-4.1 5s1.5 4.9 4.1 4.9c1.6 0 3.1-1 3.8-2.1zM-1407 552.8c0-3.4 2.4-6.1 5.6-6.1 3.5 0 5.5 2.8 5.5 6.1v.3h-9.7c.1 2.5 1.8 4.6 4.5 4.6 1.5 0 2.8-.6 3.8-1.6l.6.8c-1.2 1.2-2.6 1.9-4.5 1.9-3.4.1-5.8-2.4-5.8-6zm5.6-5c-2.7 0-4.1 2.4-4.2 4.4h8.4c0-1.9-1.3-4.4-4.2-4.4zM-1393.7 557.1l.7-.9c.7.9 2.1 1.7 3.7 1.7 1.9 0 3.1-1 3.1-2.4 0-3.2-7.3-1.4-7.3-5.5 0-1.8 1.5-3.2 4.1-3.2 2 0 3.3.8 4.2 1.7l-.7.9c-.7-.9-1.9-1.5-3.5-1.5-1.8 0-2.9.9-2.9 2.1 0 2.9 7.3 1.1 7.3 5.6 0 1.9-1.4 3.4-4.3 3.4-1.8-.1-3.3-.6-4.4-1.9zM-1382.1 544.2c0-.5.5-.9 1-.9s1 .4 1 .9-.4 1-1 1c-.5 0-1-.4-1-1zm.4 14.4V547h1.2v11.6h-1.2zM-1376.6 561.6l.7-1c1 1.2 2.1 1.6 3.9 1.6 2.1 0 3.9-1.1 3.9-3.7v-1.8c-.8 1.2-2.3 2.2-4 2.2-3.1 0-5.2-2.3-5.2-6s2.1-6.1 5.2-6.1c1.7 0 3.1.8 4 2.2v-2h1.3v11.5c0 3.5-2.4 4.8-5.2 4.8-1.9 0-3.2-.3-4.6-1.7zm8.6-6V550c-.7-1.1-2.2-2.1-3.8-2.1-2.6 0-4.1 2.1-4.1 4.9 0 2.8 1.5 4.9 4.1 4.9 1.6 0 3.1-1 3.8-2.1zM-1355.1 558.6v-7.8c0-2.2-1.1-2.9-2.8-2.9-1.5 0-3 .9-3.8 2v8.8h-1.2V547h1.2v1.8c.8-1 2.5-2 4.2-2 2.4 0 3.6 1.2 3.6 3.8v8.1h-1.2zM-1344.4 552.8c0-3.4 2.2-6.1 5.5-6.1 3.4 0 5.6 2.7 5.6 6.1 0 3.4-2.2 6.1-5.6 6.1-3.3 0-5.5-2.7-5.5-6.1zm9.8 0c0-2.6-1.5-4.9-4.2-4.9s-4.2 2.4-4.2 4.9c0 2.6 1.5 5 4.2 5s4.2-2.4 4.2-5zM-1322.2 558.6v-7.8c0-2.2-1.1-2.9-2.8-2.9-1.5 0-3 .9-3.8 2v8.8h-1.2V547h1.2v1.8c.8-1 2.5-2 4.2-2 2.4 0 3.6 1.2 3.6 3.8v8.1h-1.2zM-1302.3 558.6v-1.8c-.8 1.2-2.3 2.1-4 2.1-3.1 0-5.2-2.4-5.2-6.1 0-3.7 2.1-6.1 5.2-6.1 1.7 0 3.1.8 4 2.2v-6.3h1.3v16h-1.3zm0-2.9V550c-.7-1.1-2.2-2.1-3.8-2.1-2.6 0-4.1 2.2-4.1 5s1.5 4.9 4.1 4.9c1.6 0 3.1-1 3.8-2.1zM-1297.8 552.8c0-3.4 2.4-6.1 5.6-6.1 3.5 0 5.5 2.8 5.5 6.1v.3h-9.7c.1 2.5 1.8 4.6 4.5 4.6 1.5 0 2.8-.6 3.8-1.6l.6.8c-1.2 1.2-2.6 1.9-4.5 1.9-3.4.1-5.8-2.4-5.8-6zm5.6-5c-2.7 0-4.1 2.4-4.2 4.4h8.4c0-1.9-1.3-4.4-4.2-4.4zM-1284.5 557.1l.7-.9c.7.9 2.1 1.7 3.7 1.7 1.9 0 3.1-1 3.1-2.4 0-3.2-7.3-1.4-7.3-5.5 0-1.8 1.5-3.2 4.1-3.2 2 0 3.3.8 4.2 1.7l-.7.9c-.7-.9-1.9-1.5-3.5-1.5-1.8 0-2.9.9-2.9 2.1 0 2.9 7.3 1.1 7.3 5.6 0 1.9-1.4 3.4-4.3 3.4-1.8-.1-3.3-.6-4.4-1.9zM-1264.5 558.6l-4.6-5.5-2.2 2v3.5h-1.2v-16h1.2v11l6.8-6.6h1.7l-5.4 5.2 5.4 6.4h-1.7zM-1260.2 556.4v-8.3h-1.9V547h1.9v-3.2h1.3v3.2h2.4v1.1h-2.4v8.1c0 .9.4 1.6 1.2 1.6.6 0 1-.3 1.3-.6l.5 1c-.5.4-1 .7-2 .7-1.5 0-2.3-.9-2.3-2.5zM-1254.4 552.8c0-3.4 2.2-6.1 5.5-6.1 3.4 0 5.6 2.7 5.6 6.1 0 3.4-2.2 6.1-5.6 6.1-3.4 0-5.5-2.7-5.5-6.1zm9.7 0c0-2.6-1.5-4.9-4.2-4.9s-4.2 2.4-4.2 4.9c0 2.6 1.5 5 4.2 5s4.2-2.4 4.2-5zM-1238.8 556.7v6.3h-1.2v-16h1.2v1.8c.8-1.2 2.3-2.1 4-2.1 3.1 0 5.2 2.4 5.2 6.1 0 3.7-2.1 6.1-5.2 6.1-1.6 0-3.1-.8-4-2.2zm7.8-3.9c0-2.8-1.5-4.9-4.1-4.9-1.6 0-3.1 1-3.8 2.1v5.7c.7 1.1 2.2 2.1 3.8 2.1 2.7 0 4.1-2.2 4.1-5z"/></g><path fill="#E6EAEE" d="M-1347.2 481.1c-1-.8-1.5-1.9-1.8-3l-5.1-26.8h-67.4l-5.1 26.8c-.2 1.1-.8 2.2-1.8 3-1 .8-2.1 1.2-3.3 1.2h87.6c-1 0-2.2-.4-3.1-1.2z"/><path fill="#fff" d="M-1330.8 482.5c-.1-.1-.3-.2-.4-.2h-113.2c-.2 0-.3.1-.4.2-.1.1-.2.3-.2.4v.4c0 1.2 2.5 3.1 4.9 3.1h104.5c2.4 0 4.9-1.9 4.9-3.1v-.4c.1-.2 0-.3-.1-.4z"/><path fill="#E6EAEE" d="M-1344 482.3c-1.1 0-2.3-.4-3.3-1.2-1-.8-1.5-1.9-1.8-3l-5.1-26.8h-67.4l31 31h46.6z"/><path fill="#425A73" d="M-1237.8 231.4c0-2.2-.8-4.4-2.5-6.1-1.7-1.7-3.9-2.5-6.1-2.5h-282.8c-2.2 0-4.4.8-6.1 2.5-1.7 1.7-2.5 3.9-2.5 6.1v190.3h300V231.4z"/><path fill="#fff" d="M-1237.8 442.7c0 2.2-.8 4.4-2.5 6.1-1.7 1.7-3.9 2.5-6.1 2.5h-282.8c-2.2 0-4.4-.8-6.1-2.5-1.7-1.7-2.5-3.9-2.5-6.1v-21h300v21z"/><path fill="#425A73" d="M-1281.6 436.9c0 1.4 1.2 2.6 2.6 2.6h13.2c1.4 0 2.6-1.2 2.6-2.6v-.8c0-1.4-1.2-2.6-2.6-2.6h-13.2c-1.4 0-2.6 1.2-2.6 2.6v.8z"/><path fill="#fff" d="M-1522.6 238h269.7v168.5h-269.7z"/><path fill="#E6625C" d="M-1511.4 247.4h74.6v22.4h-74.6z"/><path fill="#E8E8E8" d="M-1425.1 247.4h162.7v22.4h-162.7zM-1513.2 373.6h250.8v7.4h-250.8zM-1513.2 389.7h250.8v7.4h-250.8z"/><path fill="#B3E9FF" d="M-1513.2 322.3h74.6v42.6h-74.6zM-1425.1 322.3h74.6v42.6h-74.6zM-1337 322.3h74.6v42.6h-74.6z"/><path fill="#D4D6D8" d="M-1513.2 278.5h250.8v35h-250.8z"/><g fill="#fff"><path d="M-2044.4 44.5l-5-7.5h-4v7.5h-1.5v-18h6.7c3.1 0 5.5 2 5.5 5.3s-2.3 5.1-5 5.2l5.2 7.6h-1.9zm.1-12.7c0-2.3-1.6-3.9-4-3.9h-5v7.7h5c2.4 0 4-1.6 4-3.8zM-2040.5 38c0-3.8 2.6-6.8 6.3-6.8 4 0 6.2 3.1 6.2 6.9v.4h-10.9c.1 2.8 2 5.2 5.1 5.2 1.6 0 3.2-.6 4.3-1.8l.7.9c-1.3 1.4-2.9 2.1-5.1 2.1-3.9-.1-6.6-2.9-6.6-6.9zm6.3-5.7c-3.1 0-4.6 2.7-4.7 5h9.5c-.1-2.2-1.6-5-4.8-5zM-2025.6 42.7l.8-1c.8 1.1 2.4 1.9 4.2 1.9 2.2 0 3.5-1.1 3.5-2.6 0-3.6-8.2-1.5-8.2-6.2 0-2 1.7-3.6 4.6-3.6 2.2 0 3.7.9 4.7 1.9l-.8 1c-.8-1-2.2-1.7-3.9-1.7-2 0-3.2 1-3.2 2.4 0 3.3 8.2 1.3 8.2 6.3 0 2.1-1.6 3.8-4.9 3.8-2.1-.1-3.7-.7-5-2.2zM-2010.6 42.4v7.1h-1.4v-18h1.4v2.1c.9-1.3 2.6-2.4 4.5-2.4 3.5 0 5.8 2.6 5.8 6.8 0 4.2-2.3 6.9-5.8 6.9-1.8-.1-3.5-1-4.5-2.5zm8.8-4.4c0-3.2-1.6-5.6-4.6-5.6-1.8 0-3.5 1.1-4.3 2.3v6.5c.8 1.2 2.5 2.4 4.3 2.4 3 0 4.6-2.5 4.6-5.6zM-1997.5 38c0-3.8 2.4-6.8 6.2-6.8 3.9 0 6.3 3 6.3 6.8s-2.4 6.9-6.3 6.9c-3.7-.1-6.2-3.1-6.2-6.9zm11.1 0c0-2.9-1.7-5.6-4.8-5.6-3 0-4.8 2.7-4.8 5.6 0 2.9 1.7 5.6 4.8 5.6 3.1 0 4.8-2.7 4.8-5.6zM-1972.5 44.5v-8.8c0-2.5-1.3-3.3-3.2-3.3-1.7 0-3.4 1.1-4.2 2.2v9.9h-1.4v-13h1.4v2c.9-1.1 2.8-2.3 4.7-2.3 2.6 0 4.1 1.3 4.1 4.2v9.1h-1.4zM-1967.9 42.7l.8-1c.8 1.1 2.4 1.9 4.2 1.9 2.2 0 3.5-1.1 3.5-2.6 0-3.6-8.2-1.5-8.2-6.2 0-2 1.7-3.6 4.6-3.6 2.2 0 3.7.9 4.7 1.9l-.8 1c-.8-1-2.2-1.7-3.9-1.7-2 0-3.2 1-3.2 2.4 0 3.3 8.2 1.3 8.2 6.3 0 2.1-1.6 3.8-4.9 3.8-2.1-.1-3.7-.7-5-2.2zM-1954.7 28.3c0-.6.5-1.1 1.1-1.1.6 0 1.1.5 1.1 1.1 0 .6-.5 1.1-1.1 1.1-.6 0-1.1-.5-1.1-1.1zm.4 16.2v-13h1.4v13h-1.4zM-1945.1 44.5l-5.5-13h1.6l4.8 11.4 4.7-11.4h1.6l-5.5 13h-1.7zM-1936.3 38c0-3.8 2.6-6.8 6.3-6.8 4 0 6.2 3.1 6.2 6.9v.4h-10.9c.1 2.8 2 5.2 5.1 5.2 1.6 0 3.2-.6 4.3-1.8l.7.9c-1.3 1.4-2.9 2.1-5.1 2.1-3.9-.1-6.6-2.9-6.6-6.9zm6.2-5.7c-3.1 0-4.6 2.7-4.7 5h9.5c0-2.2-1.5-5-4.8-5zM-1903.7 44.5v-2.1c-.9 1.3-2.6 2.4-4.5 2.4-3.5 0-5.8-2.6-5.8-6.8 0-4.1 2.3-6.9 5.8-6.9 1.9 0 3.5.9 4.5 2.4v-7.1h1.4v18h-1.4zm0-3.3v-6.5c-.8-1.3-2.5-2.4-4.3-2.4-2.9 0-4.6 2.4-4.6 5.6 0 3.2 1.7 5.6 4.6 5.6 1.9.1 3.6-1 4.3-2.3zM-1898.6 38c0-3.8 2.6-6.8 6.3-6.8 4 0 6.2 3.1 6.2 6.9v.4h-10.9c.1 2.8 2 5.2 5.1 5.2 1.6 0 3.2-.6 4.3-1.8l.7.9c-1.3 1.4-2.9 2.1-5.1 2.1-3.9-.1-6.6-2.9-6.6-6.9zm6.2-5.7c-3.1 0-4.6 2.7-4.7 5h9.5c0-2.2-1.5-5-4.8-5zM-1883.7 42.7l.8-1c.8 1.1 2.4 1.9 4.2 1.9 2.2 0 3.5-1.1 3.5-2.6 0-3.6-8.2-1.5-8.2-6.2 0-2 1.7-3.6 4.6-3.6 2.2 0 3.7.9 4.7 1.9l-.8 1c-.8-1-2.2-1.7-3.9-1.7-2 0-3.2 1-3.2 2.4 0 3.3 8.2 1.3 8.2 6.3 0 2.1-1.6 3.8-4.9 3.8-2.1-.1-3.7-.7-5-2.2zM-1870.5 28.3c0-.6.5-1.1 1.1-1.1.6 0 1.1.5 1.1 1.1 0 .6-.5 1.1-1.1 1.1-.6 0-1.1-.5-1.1-1.1zm.3 16.2v-13h1.4v13h-1.4zM-1864.4 47.8l.8-1.1c1.1 1.3 2.4 1.8 4.3 1.8 2.3 0 4.4-1.2 4.4-4.1v-2.1c-.9 1.3-2.6 2.5-4.5 2.5-3.5 0-5.8-2.6-5.8-6.8 0-4.1 2.3-6.8 5.8-6.8 1.9 0 3.5.9 4.5 2.4v-2.1h1.4v12.9c0 4-2.7 5.4-5.9 5.4-2 0-3.4-.4-5-2zm9.6-6.7v-6.3c-.8-1.3-2.5-2.4-4.3-2.4-2.9 0-4.6 2.4-4.6 5.6 0 3.2 1.7 5.5 4.6 5.5 1.8 0 3.6-1.1 4.3-2.4zM-1840.2 44.5v-8.8c0-2.5-1.3-3.3-3.2-3.3-1.7 0-3.4 1.1-4.2 2.2v9.9h-1.4v-13h1.4v2c.9-1.1 2.8-2.3 4.7-2.3 2.6 0 4.1 1.3 4.1 4.2v9.1h-1.4zM-1828.1 38c0-3.8 2.4-6.8 6.2-6.8 3.9 0 6.3 3 6.3 6.8s-2.4 6.9-6.3 6.9c-3.8-.1-6.2-3.1-6.2-6.9zm11 0c0-2.9-1.7-5.6-4.8-5.6-3 0-4.8 2.7-4.8 5.6 0 2.9 1.7 5.6 4.8 5.6 3.1 0 4.8-2.7 4.8-5.6zM-1803.2 44.5v-8.8c0-2.5-1.3-3.3-3.2-3.3-1.7 0-3.4 1.1-4.2 2.2v9.9h-1.4v-13h1.4v2c.9-1.1 2.8-2.3 4.7-2.3 2.6 0 4.1 1.3 4.1 4.2v9.1h-1.4zM-1790.4 44.5v-18h1.4v18h-1.4zM-1776.4 44.5V43c-1.2 1.3-2.6 1.9-4.4 1.9-2.2 0-4.6-1.5-4.6-4.3s2.3-4.3 4.6-4.3c1.8 0 3.3.6 4.4 1.9v-2.6c0-1.9-1.6-3-3.5-3-1.6 0-2.9.6-4.1 1.9l-.8-1c1.3-1.5 2.9-2.2 5-2.2 2.6 0 4.8 1.3 4.8 4.2v9.2h-1.4zm0-2.6V39c-.9-1.2-2.4-1.8-3.9-1.8-2.1 0-3.6 1.4-3.6 3.2 0 1.8 1.4 3.2 3.6 3.2 1.6.1 3-.5 3.9-1.7zM-1769.2 42.4v7.1h-1.4v-18h1.4v2.1c.9-1.3 2.6-2.4 4.5-2.4 3.5 0 5.8 2.6 5.8 6.8 0 4.2-2.3 6.9-5.8 6.9-1.8-.1-3.4-1-4.5-2.5zm8.9-4.4c0-3.2-1.6-5.6-4.6-5.6-1.8 0-3.5 1.1-4.3 2.3v6.5c.8 1.2 2.5 2.4 4.3 2.4 2.9 0 4.6-2.5 4.6-5.6zM-1755 42v-9.3h-2.2v-1.2h2.2v-3.6h1.4v3.6h2.6v1.2h-2.6v9.1c0 1.1.4 1.8 1.3 1.8.6 0 1.2-.3 1.5-.6l.5 1.1c-.5.5-1.1.8-2.2.8-1.7-.1-2.5-1.1-2.5-2.9zM-1748.6 38c0-3.8 2.4-6.8 6.2-6.8 3.9 0 6.3 3 6.3 6.8s-2.4 6.9-6.3 6.9c-3.8-.1-6.2-3.1-6.2-6.9zm11 0c0-2.9-1.7-5.6-4.8-5.6-3 0-4.8 2.7-4.8 5.6 0 2.9 1.7 5.6 4.8 5.6 3.1 0 4.8-2.7 4.8-5.6zM-1731 42.4v7.1h-1.4v-18h1.4v2.1c.9-1.3 2.6-2.4 4.5-2.4 3.5 0 5.8 2.6 5.8 6.8 0 4.2-2.3 6.9-5.8 6.9-1.8-.1-3.5-1-4.5-2.5zm8.8-4.4c0-3.2-1.6-5.6-4.6-5.6-1.8 0-3.5 1.1-4.3 2.3v6.5c.8 1.2 2.5 2.4 4.3 2.4 3 0 4.6-2.5 4.6-5.6z"/></g><path fill="#34495E" d="M-1745.2-67.9c0 2.4-.9 4.8-2.8 6.7-1.9 1.9-4.3 2.8-6.7 2.8H-2021c-2.4 0-4.8-.9-6.7-2.8-1.8-1.8-2.8-4.3-2.8-6.7v-170.2c0-2.4.9-4.8 2.8-6.7 1.9-1.8 4.3-2.8 6.7-2.8h266.4c2.4 0 4.8.9 6.7 2.8 1.8 1.8 2.8 4.3 2.8 6.7v170.2z"/><path fill="#283A4D" d="M-1884.6-240.1c0 1.8-1.4 3.2-3.2 3.2-1.8 0-3.2-1.4-3.2-3.2 0-1.8 1.4-3.2 3.2-3.2 1.8 0 3.2 1.4 3.2 3.2z"/><path fill="#5D6D7E" d="M-1886.5-240.1c0 .7-.6 1.3-1.3 1.3-.7 0-1.3-.6-1.3-1.3 0-.7.6-1.3 1.3-1.3.7 0 1.3.5 1.3 1.3z"/><path fill="#CDD3DA" d="M-1712.8-52.9c-5.1 5.9-12.6 9.6-21 9.6h-308c-8.4 0-15.9-3.7-21-9.6h350z"/><path fill="#fff" d="M-1712.8-52.9h-350v-4c0-.4.2-.8.5-1.1.3-.3.7-.5 1.1-.5h346.8c.4 0 .8.2 1.1.5.3.3.5.7.5 1.1v4z"/><path fill="#AAB5BD" d="M-1855.3-57.5c0 .5-.2 1-.6 1.3-.4.4-.8.5-1.3.5h-61.3c-.5 0-1-.2-1.3-.5-.4-.4-.6-.9-.6-1.3v-.9h65v.9z"/><path fill="#fff" d="M-2015.6-233h255.6v159.7h-255.6z"/><path fill="#E6625C" d="M-2005-224.1h70.7v21.2h-70.7z"/><path fill="#E8E8E8" d="M-1923.2-224.1h154.2v21.2h-154.2zM-2006.7-104.5h237.7v7h-237.7zM-2006.7-89.2h237.7v7h-237.7z"/><path fill="#B3E9FF" d="M-2006.7-153.1h70.7v40.3h-70.7zM-1923.2-153.1h70.7v40.3h-70.7zM-1839.7-153.1h70.7v40.3h-70.7z"/><path fill="#D4D6D8" d="M-2006.7-194.6h237.7v33.2h-237.7z"/><g fill="#fff"><path d="M-1541 58.4l-5-7.5h-4v7.5h-1.5v-18h6.7c3.1 0 5.5 2 5.5 5.3s-2.3 5.1-5 5.2l5.2 7.6h-1.9zm0-12.7c0-2.3-1.6-3.9-4-3.9h-5v7.7h5c2.4.1 4-1.5 4-3.8zM-1537.1 51.9c0-3.8 2.6-6.8 6.3-6.8 4 0 6.2 3.1 6.2 6.9v.4h-10.9c.1 2.8 2 5.2 5.1 5.2 1.6 0 3.2-.6 4.3-1.8l.7.9c-1.3 1.4-2.9 2.1-5.1 2.1-3.9 0-6.6-2.9-6.6-6.9zm6.2-5.6c-3.1 0-4.6 2.7-4.7 5h9.5c-.1-2.3-1.5-5-4.8-5zM-1522.2 56.7l.8-1c.8 1.1 2.4 1.9 4.2 1.9 2.2 0 3.5-1.1 3.5-2.6 0-3.6-8.2-1.5-8.2-6.2 0-2 1.7-3.6 4.6-3.6 2.2 0 3.7.9 4.7 1.9l-.8 1c-.8-1-2.2-1.7-3.9-1.7-2 0-3.2 1-3.2 2.4 0 3.3 8.2 1.3 8.2 6.3 0 2.1-1.6 3.8-4.9 3.8-2.1-.1-3.7-.8-5-2.2zM-1507.3 56.3v7.1h-1.4v-18h1.4v2.1c.9-1.3 2.6-2.4 4.5-2.4 3.5 0 5.8 2.6 5.8 6.8 0 4.2-2.3 6.9-5.8 6.9-1.8 0-3.4-1-4.5-2.5zm8.9-4.4c0-3.2-1.6-5.6-4.6-5.6-1.8 0-3.5 1.1-4.3 2.3v6.5c.8 1.2 2.5 2.4 4.3 2.4 2.9 0 4.6-2.4 4.6-5.6zM-1494.1 51.9c0-3.8 2.4-6.8 6.2-6.8 3.9 0 6.3 3 6.3 6.8s-2.4 6.9-6.3 6.9c-3.8 0-6.2-3.1-6.2-6.9zm11 0c0-2.9-1.7-5.6-4.8-5.6-3 0-4.8 2.7-4.8 5.6 0 2.9 1.7 5.6 4.8 5.6 3.1 0 4.8-2.7 4.8-5.6zM-1469.2 58.4v-8.8c0-2.5-1.3-3.3-3.2-3.3-1.7 0-3.4 1.1-4.2 2.2v9.9h-1.4v-13h1.4v2c.9-1.1 2.8-2.3 4.7-2.3 2.6 0 4.1 1.3 4.1 4.2v9.1h-1.4zM-1464.5 56.7l.8-1c.8 1.1 2.4 1.9 4.2 1.9 2.2 0 3.5-1.1 3.5-2.6 0-3.6-8.2-1.5-8.2-6.2 0-2 1.7-3.6 4.6-3.6 2.2 0 3.7.9 4.7 1.9l-.8 1c-.8-1-2.2-1.7-3.9-1.7-2 0-3.2 1-3.2 2.4 0 3.3 8.2 1.3 8.2 6.3 0 2.1-1.6 3.8-4.9 3.8-2.1-.1-3.7-.8-5-2.2zM-1451.4 42.3c0-.6.5-1.1 1.1-1.1.6 0 1.1.5 1.1 1.1 0 .6-.5 1.1-1.1 1.1-.5-.1-1.1-.5-1.1-1.1zm.4 16.1v-13h1.4v13h-1.4zM-1441.7 58.4l-5.5-13h1.6l4.8 11.4 4.7-11.4h1.6l-5.5 13h-1.7zM-1432.9 51.9c0-3.8 2.6-6.8 6.3-6.8 4 0 6.2 3.1 6.2 6.9v.4h-10.9c.1 2.8 2 5.2 5.1 5.2 1.6 0 3.2-.6 4.3-1.8l.7.9c-1.3 1.4-2.9 2.1-5.1 2.1-3.9 0-6.6-2.9-6.6-6.9zm6.2-5.6c-3.1 0-4.6 2.7-4.7 5h9.5c-.1-2.3-1.5-5-4.8-5zM-1400.3 58.4v-2.1c-.9 1.3-2.6 2.4-4.5 2.4-3.5 0-5.8-2.6-5.8-6.8 0-4.1 2.3-6.9 5.8-6.9 1.9 0 3.5.9 4.5 2.4v-7.1h1.4v18h-1.4zm0-3.2v-6.5c-.8-1.3-2.5-2.4-4.3-2.4-2.9 0-4.6 2.4-4.6 5.6s1.7 5.6 4.6 5.6c1.8 0 3.5-1.1 4.3-2.3zM-1395.2 51.9c0-3.8 2.6-6.8 6.3-6.8 4 0 6.2 3.1 6.2 6.9v.4h-10.9c.1 2.8 2 5.2 5.1 5.2 1.6 0 3.2-.6 4.3-1.8l.7.9c-1.3 1.4-2.9 2.1-5.1 2.1-3.9 0-6.6-2.9-6.6-6.9zm6.2-5.6c-3.1 0-4.6 2.7-4.7 5h9.5c-.1-2.3-1.5-5-4.8-5zM-1380.3 56.7l.8-1c.8 1.1 2.4 1.9 4.2 1.9 2.2 0 3.5-1.1 3.5-2.6 0-3.6-8.2-1.5-8.2-6.2 0-2 1.7-3.6 4.6-3.6 2.2 0 3.7.9 4.7 1.9l-.8 1c-.8-1-2.2-1.7-3.9-1.7-2 0-3.2 1-3.2 2.4 0 3.3 8.2 1.3 8.2 6.3 0 2.1-1.6 3.8-4.9 3.8-2.1-.1-3.7-.8-5-2.2zM-1367.2 42.3c0-.6.5-1.1 1.1-1.1.6 0 1.1.5 1.1 1.1 0 .6-.5 1.1-1.1 1.1-.6-.1-1.1-.5-1.1-1.1zm.4 16.1v-13h1.4v13h-1.4zM-1361 61.8l.8-1.1c1.1 1.3 2.4 1.8 4.3 1.8 2.3 0 4.4-1.2 4.4-4.1v-2.1c-.9 1.3-2.6 2.5-4.5 2.5-3.5 0-5.8-2.6-5.8-6.8 0-4.1 2.3-6.8 5.8-6.8 1.9 0 3.5.9 4.5 2.4v-2.1h1.4v12.9c0 4-2.7 5.4-5.9 5.4-2.1-.1-3.5-.5-5-2zm9.6-6.7v-6.3c-.8-1.3-2.5-2.4-4.3-2.4-2.9 0-4.6 2.4-4.6 5.6s1.7 5.5 4.6 5.5c1.8-.1 3.5-1.2 4.3-2.4zM-1336.8 58.4v-8.8c0-2.5-1.3-3.3-3.2-3.3-1.7 0-3.4 1.1-4.2 2.2v9.9h-1.4v-13h1.4v2c.9-1.1 2.8-2.3 4.7-2.3 2.6 0 4.1 1.3 4.1 4.2v9.1h-1.4zM-1324.8 51.9c0-3.8 2.4-6.8 6.2-6.8 3.9 0 6.3 3 6.3 6.8s-2.4 6.9-6.3 6.9c-3.8 0-6.2-3.1-6.2-6.9zm11 0c0-2.9-1.7-5.6-4.8-5.6-3 0-4.8 2.7-4.8 5.6 0 2.9 1.7 5.6 4.8 5.6 3.1 0 4.8-2.7 4.8-5.6zM-1299.8 58.4v-8.8c0-2.5-1.3-3.3-3.2-3.3-1.7 0-3.4 1.1-4.2 2.2v9.9h-1.4v-13h1.4v2c.9-1.1 2.8-2.3 4.7-2.3 2.6 0 4.1 1.3 4.1 4.2v9.1h-1.4zM-1286.8 55.9v-9.3h-2.2v-1.2h2.2v-3.6h1.4v3.6h2.6v1.2h-2.6v9.1c0 1.1.4 1.8 1.3 1.8.6 0 1.2-.3 1.5-.6l.5 1.1c-.5.5-1.1.8-2.2.8-1.7 0-2.5-1.1-2.5-2.9zM-1271.4 58.4v-1.5c-1.2 1.3-2.6 1.9-4.4 1.9-2.2 0-4.6-1.5-4.6-4.3s2.3-4.3 4.6-4.3c1.8 0 3.3.6 4.4 1.9v-2.6c0-1.9-1.6-3-3.5-3-1.6 0-2.9.6-4.1 1.9l-.8-1c1.3-1.5 2.9-2.2 5-2.2 2.6 0 4.8 1.3 4.8 4.2v9.2h-1.4zm0-2.5V53c-.9-1.2-2.4-1.8-3.9-1.8-2.1 0-3.6 1.4-3.6 3.2 0 1.8 1.4 3.2 3.6 3.2 1.6 0 3-.5 3.9-1.7zM-1265.6 58.4v-18h1.4v7.1c1.1-1.5 2.7-2.4 4.5-2.4 3.5 0 5.8 2.7 5.8 6.9s-2.4 6.8-5.8 6.8c-1.9 0-3.6-1.1-4.5-2.4v2.1h-1.4zm5.7-.9c2.9 0 4.6-2.4 4.6-5.6s-1.6-5.6-4.6-5.6c-1.8 0-3.5 1.1-4.3 2.4v6.5c.8 1.2 2.5 2.3 4.3 2.3zM-1250.2 58.4v-18h1.4v18h-1.4zM-1245.1 51.9c0-3.8 2.6-6.8 6.3-6.8 4 0 6.2 3.1 6.2 6.9v.4h-10.9c.1 2.8 2 5.2 5.1 5.2 1.6 0 3.2-.6 4.3-1.8l.7.9c-1.3 1.4-2.9 2.1-5.1 2.1-3.9 0-6.6-2.9-6.6-6.9zm6.2-5.6c-3.1 0-4.6 2.7-4.7 5h9.5c-.1-2.3-1.5-5-4.8-5zM-1228.8 55.9v-9.3h-2.2v-1.2h2.2v-3.6h1.4v3.6h2.6v1.2h-2.6v9.1c0 1.1.4 1.8 1.3 1.8.6 0 1.2-.3 1.5-.6l.5 1.1c-.5.5-1.1.8-2.2.8-1.7 0-2.5-1.1-2.5-2.9z"/></g><path fill="#34495E" d="M-1477.4-265.7c0-5.4 4.4-9.8 9.7-9.8h159.7c5.4 0 9.7 4.4 9.7 9.8v240.5c0 5.4-4.4 9.7-9.7 9.7h-159.7c-5.4 0-9.7-4.4-9.7-9.7v-240.5z"/><path fill="#283A4D" d="M-1397.7-26.3c-2.4 0-4.3-1.9-4.3-4.3v-1.1c0-2.4 2-4.3 4.3-4.3h19.8c2.4 0 4.3 2 4.3 4.3v1.1c0 2.4-1.9 4.3-4.3 4.3h-19.8zM-1387.8-258.3c-2.5 0-4.4-2-4.4-4.5 0-2.4 2-4.5 4.4-4.5 2.5 0 4.5 2 4.5 4.5s-2 4.5-4.5 4.5z"/><path fill="#5D6D7E" d="M-1387.8-260.9c-1 0-1.9-.8-1.9-1.9 0-1 .8-1.9 1.9-1.9 1 0 1.9.8 1.9 1.9 0 1.1-.9 1.9-1.9 1.9z"/><path fill="#fff" d="M-1467.2-250h158.9v203.1h-158.9z"/><path fill="#E6625C" d="M-1455.6-238.4h62.2v24.1h-62.2z"/><path fill="#E8E8E8" d="M-1382.2-238.4h62.2v24.1h-62.2zM-1455.6-83.8h135.6v7.9h-135.6zM-1455.6-66.5h135.6v7.9h-135.6z"/><path fill="#B3E9FF" d="M-1455.6-151.4h62.2v58.2h-62.2zM-1382.2-151.4h62.2v58.2h-62.2z"/><path fill="#D4D6D8" d="M-1455.6-204.9h135.6v44.1h-135.6z"/><path fill="#2D2D2D" d="M-781.4-125.3c0 2.4-.9 4.8-2.8 6.7-1.9 1.9-4.3 2.8-6.7 2.8h-266.4c-2.4 0-4.8-.9-6.7-2.8-1.8-1.8-2.8-4.3-2.8-6.7v-170.2c0-2.4.9-4.8 2.8-6.7 1.9-1.8 4.3-2.8 6.7-2.8h266.4c2.4 0 4.8.9 6.7 2.8 1.8 1.8 2.8 4.3 2.8 6.7v170.2z"/><path fill="#191919" d="M-920.8-297.6c0 1.8-1.4 3.2-3.2 3.2-1.8 0-3.2-1.4-3.2-3.2 0-1.8 1.4-3.2 3.2-3.2 1.8 0 3.2 1.4 3.2 3.2z"/><path fill="#7F7F7F" d="M-922.7-297.6c0 .7-.6 1.3-1.3 1.3-.7 0-1.3-.6-1.3-1.3 0-.7.6-1.3 1.3-1.3.7 0 1.3.6 1.3 1.3z"/><path fill="#CDD3DA" d="M-749-110.3c-5.1 5.9-12.6 9.6-21 9.6h-308c-8.4 0-15.9-3.7-21-9.6h350z"/><path fill="#fff" d="M-749-110.3h-350v-4c0-.4.2-.8.5-1.1.3-.3.7-.5 1.1-.5h346.8c.4 0 .8.2 1.1.5.3.3.5.7.5 1.1v4z"/><path fill="#AAB5BD" d="M-891.5-114.9c0 .5-.2 1-.6 1.3-.4.4-.8.5-1.3.5h-61.3c-.5 0-1-.2-1.3-.5-.4-.4-.6-.9-.6-1.3v-.9h65v.9z"/><path fill="#fff" d="M-1051.8-290.5h255.6v159.7h-255.6z"/><path fill="#E6625C" d="M-1041.2-281.5h70.7v21.2h-70.7z"/><path fill="#E8E8E8" d="M-959.4-281.5h154.2v21.2h-154.2zM-1042.9-161.9h237.7v7h-237.7zM-1042.9-146.6h237.7v7h-237.7z"/><path fill="#B3E9FF" d="M-1042.9-210.5h70.7v40.3h-70.7zM-959.4-210.5h70.7v40.3h-70.7zM-875.9-210.5h70.7v40.3h-70.7z"/><path fill="#D4D6D8" d="M-1042.9-252h237.7v33.2h-237.7z"/><path fill="#2D2D2D" d="M-637.4-298.2c0-5.4 4.4-9.8 9.7-9.8H-468c5.4 0 9.7 4.4 9.7 9.8v240.5c0 5.4-4.4 9.7-9.7 9.7h-159.7c-5.4 0-9.7-4.4-9.7-9.7v-240.5z"/><path fill="#191919" d="M-557.7-58.9c-2.4 0-4.3-1.9-4.3-4.3v-1.1c0-2.4 2-4.3 4.3-4.3h19.8c2.4 0 4.3 2 4.3 4.3v1.1c0 2.4-1.9 4.3-4.3 4.3h-19.8zM-547.8-290.8c-2.5 0-4.4-2-4.4-4.5 0-2.4 2-4.5 4.4-4.5 2.5 0 4.5 2 4.5 4.5-.1 2.5-2.1 4.5-4.5 4.5z"/><path fill="#7F7F7F" d="M-547.8-293.4c-1 0-1.9-.8-1.9-1.9 0-1 .8-1.9 1.9-1.9s1.9.8 1.9 1.9c-.1 1.1-.9 1.9-1.9 1.9z"/><path fill="#fff" d="M-627.3-282.6h158.9v203.1h-158.9z"/><path fill="#E6625C" d="M-615.6-271h62.2v24.1h-62.2z"/><path fill="#E8E8E8" d="M-542.2-271h62.2v24.1h-62.2zM-615.6-116.4H-480v7.9h-135.6zM-615.6-99H-480v7.9h-135.6z"/><path fill="#B3E9FF" d="M-615.6-183.9h62.2v58.2h-62.2zM-542.2-183.9h62.2v58.2h-62.2z"/><path fill="#D4D6D8" d="M-615.6-237.5H-480v44.1h-135.6z"/><path fill="#E6EAEE" d="M-883.5 264.5c-1-.8-1.5-1.9-1.8-3l-5.1-26.8h-67.4l-5.1 26.8c-.2 1.1-.8 2.2-1.8 3-1 .8-2.1 1.2-3.3 1.2h87.6c-1 0-2.1-.4-3.1-1.2z"/><path fill="#fff" d="M-867 265.9c-.1-.1-.3-.2-.4-.2h-113.2c-.2 0-.3.1-.4.2-.1.1-.2.3-.2.4v.4c0 1.2 2.5 3.1 4.9 3.1h104.5c2.4 0 4.9-1.9 4.9-3.1v-.4c.1-.2 0-.3-.1-.4z"/><path fill="#E6EAEE" d="M-880.2 265.7c-1.1 0-2.3-.4-3.3-1.2-1-.8-1.5-1.9-1.8-3l-5.1-26.8h-67.4l31 31h46.6z"/><path fill="#2D2D2D" d="M-774 14.8c0-2.2-.8-4.4-2.5-6.1-1.7-1.7-3.9-2.5-6.1-2.5h-282.8c-2.2 0-4.4.8-6.1 2.5-1.7 1.7-2.5 3.9-2.5 6.1v190.3h300V14.8z"/><path fill="#fff" d="M-774 226.1c0 2.2-.8 4.4-2.5 6.1-1.7 1.7-3.9 2.5-6.1 2.5h-282.8c-2.2 0-4.4-.8-6.1-2.5-1.7-1.7-2.5-3.9-2.5-6.1v-21h300v21z"/><path fill="#2D2D2D" d="M-817.8 220.3c0 1.4 1.2 2.6 2.6 2.6h13.2c1.4 0 2.6-1.2 2.6-2.6v-.8c0-1.4-1.2-2.6-2.6-2.6h-13.2c-1.4 0-2.6 1.2-2.6 2.6v.8z"/><path fill="#fff" d="M-1058.8 21.4h269.7v168.5h-269.7z"/><path fill="#E6625C" d="M-1047.6 30.8h74.6v22.4h-74.6z"/><path fill="#E8E8E8" d="M-961.3 30.8h162.7v22.4h-162.7zM-1049.4 157h250.8v7.4h-250.8zM-1049.4 173.1h250.8v7.4h-250.8z"/><path fill="#B3E9FF" d="M-1049.4 105.7h74.6v42.6h-74.6zM-961.3 105.7h74.6v42.6h-74.6zM-873.2 105.7h74.6v42.6h-74.6z"/><path fill="#D4D6D8" d="M-1049.4 61.9h250.8v35h-250.8z"/><path fill="#2D2D2D" d="M-606.1 287.2c-10 0-18.1-8.2-18.1-18.1V45.3c0-10 8.2-18.1 18.1-18.1h105.2c10 0 18.1 8.2 18.1 18.1V269c0 10-8.2 18.1-18.1 18.1h-105.2z"/><path fill="#191919" d="M-537.8 268.4c0 2.4-1.9 4.3-4.3 4.3h-22.7c-2.4 0-4.3-1.9-4.3-4.3v-1.8c0-2.4 2-4.3 4.3-4.3h22.7c2.4 0 4.3 1.9 4.3 4.3v1.8zM-548.2 46.8c0 2.9-2.3 5.2-5.2 5.2-2.9 0-5.2-2.3-5.2-5.2 0-2.9 2.4-5.2 5.2-5.2 2.9 0 5.2 2.3 5.2 5.2z"/><path fill="#7F7F7F" d="M-551 46.8c0 1.4-1.1 2.5-2.5 2.5s-2.5-1.1-2.5-2.5 1.1-2.5 2.5-2.5 2.5 1.1 2.5 2.5z"/><path fill="#fff" d="M-613.9 66.5H-493v181.4h-120.9z"/><path fill="#E6625C" d="M-604.6 75.8h102.3v15.6h-102.3z"/><path fill="#E8E8E8" d="M-604.6 222.2h102.3v5.1h-102.3zM-604.6 233.4h102.3v5.1h-102.3z"/><path fill="#B3E9FF" d="M-604.6 135.9h102.3v80.2h-102.3z"/><path fill="#D4D6D8" d="M-604.6 97.5h102.3v32.2h-102.3z"/><path fill="#2D2D2D" d="M317.6 179.7c0 2.4-.9 4.8-2.8 6.7-1.9 1.9-4.3 2.8-6.7 2.8H41.8c-2.4 0-4.8-.9-6.7-2.8-1.8-1.8-2.8-4.3-2.8-6.7V9.4c0-2.4.9-4.8 2.8-6.7C37 .9 39.4 0 41.8 0h266.4c2.4 0 4.8.9 6.7 2.8 1.8 1.8 2.8 4.3 2.8 6.7v170.2z"/><path fill="#191919" d="M178.2 7.4c0 1.8-1.4 3.2-3.2 3.2-1.8 0-3.2-1.4-3.2-3.2 0-1.8 1.4-3.2 3.2-3.2 1.8 0 3.2 1.4 3.2 3.2z"/><path fill="#7F7F7F" d="M176.3 7.4c0 .7-.6 1.3-1.3 1.3-.7 0-1.3-.6-1.3-1.3 0-.7.6-1.3 1.3-1.3.7 0 1.3.6 1.3 1.3z"/><path fill="#CDD3DA" d="M350 194.7c-5.1 5.9-12.6 9.6-21 9.6H21c-8.4 0-15.9-3.7-21-9.6h350z"/><path fill="#fff" d="M350 194.7H0v-4c0-.4.2-.8.5-1.1.3-.3.7-.5 1.1-.5h346.8c.4 0 .8.2 1.1.5.3.3.5.7.5 1.1v4z"/><path fill="#AAB5BD" d="M207.5 190.1c0 .5-.2 1-.6 1.3-.4.4-.8.5-1.3.5h-61.3c-.5 0-1-.2-1.3-.5-.4-.4-.6-.9-.6-1.3v-.9h65v.9z"/><path fill="#fff" d="M47.2 14.5h255.6v159.7H47.2z"/><path fill="#E6625C" d="M57.8 23.5h70.7v21.2H57.8z"/><path fill="#E8E8E8" d="M139.6 23.5h154.2v21.2H139.6zM56.1 143.1h237.7v7H56.1zM56.1 158.4h237.7v7H56.1z"/><path fill="#B3E9FF" d="M56.1 94.5h70.7v40.3H56.1zM139.6 94.5h70.7v40.3h-70.7zM223.1 94.5h70.7v40.3h-70.7z"/><path fill="#D4D6D8" d="M56.1 53h237.7v33.2H56.1z"/></svg>