<svg xmlns="http://www.w3.org/2000/svg" viewBox="0 0 339.1 557.7" enable-background="new 0 0 339.1 557.7"><radialGradient cx="-682.266" cy="64.714" r="1118.541" gradientUnits="userSpaceOnUse"><stop offset="0" stop-color="#FFF8B5"/><stop offset="1" stop-color="#DEA140"/></radialGradient><g fill="#590D0B"><path d="M-607.5 387.5c0 8.6-7 15.6-15.7 15.6h-158c-8.6 0-15.6-7-15.6-15.6v-7.2c0-8.6 7-15.6 15.6-15.6h158c8.6 0 15.7 7 15.7 15.6v7.2zM-607.5 428.7c0 8.6-7 15.7-15.7 15.7h-158c-8.6 0-15.6-7-15.6-15.7v-7.2c0-8.6 7-15.7 15.6-15.7h158c8.6 0 15.7 7 15.7 15.7v7.2zM-616.5 469.8c0 8.6-7 15.7-15.7 15.7h-140.1c-8.6 0-15.6-7-15.6-15.7v-7.2c0-8.6 7-15.7 15.6-15.7h140.1c8.6 0 15.7 7 15.7 15.7v7.2zM-652.3 510.1c0 8.6-7 15.7-15.7 15.7h-68.6c-8.6 0-15.7-7-15.7-15.7v-7.2c0-8.6 7-15.7 15.7-15.7h68.6c8.6 0 15.7 7 15.7 15.7v7.2z"/></g><g fill="#A32B26"><path d="M-606.6 163l5.8 1.1c.4-1.2.7-2.4 1-3.6l-5.5-2.1c.2-.9.4-1.8.5-2.7h5.9c.2-1.2.3-2.5.4-3.7l-5.8-1.1v-2.7l5.8-1c-.1-1.2-.2-2.5-.3-3.7h-5.9c-.1-.9-.3-1.8-.5-2.7l5.5-2c-.3-1.2-.6-2.4-1-3.6l-5.8 1c-.3-.9-.6-1.7-.9-2.6l5.1-3c-.5-1.1-1-2.3-1.6-3.3l-5.5 2c-.4-.8-.9-1.6-1.4-2.3l4.5-3.8c-.7-1-1.4-2-2.2-3l-5.1 3-1.8-2.1 3.7-4.6c-.9-.9-1.7-1.8-2.7-2.6l-4.5 3.9c-.7-.6-1.4-1.2-2.1-1.7l2.8-5.2c-1-.7-2-1.4-3.1-2.1l-3.7 4.6c-.8-.5-1.6-.9-2.4-1.3l1.9-5.6c-1.1-.5-2.2-1-3.4-1.5l-2.8 5.2c-.5-.2-1-.4-1.6-.5-.3-.1-.7-.2-1-.3l.8-5.8-3.6-.9-1.9 5.6c-.9-.2-1.8-.3-2.7-.4l-.2-5.9c-1.2-.1-2.5-.2-3.7-.2l-.8 5.8c-.9 0-1.8 0-2.7.1l-1.3-5.8c-1.2.1-2.5.3-3.7.5l.2 5.9c-.9.2-1.8.4-2.6.6l-2.3-5.4c-1.2.3-2.4.7-3.5 1.1l1.3 5.8c-.8.3-1.7.7-2.5 1l-3.2-5c-1.1.5-2.2 1.1-3.3 1.7l2.3 5.4c-.8.5-1.5 1-2.3 1.5l-4-4.3c-1 .7-2 1.5-2.9 2.3l3.2 4.9c-.7.6-1.3 1.2-2 1.9l-4.7-3.5c-.9.9-1.7 1.8-2.5 2.8l4.1 4.3c-.6.7-1.1 1.4-1.6 2.2l-5.3-2.6c-.7 1-1.3 2.1-1.9 3.2l4.7 3.5c-.4.8-.8 1.6-1.2 2.5l-5.7-1.6c-.5 1.1-.9 2.3-1.3 3.5l5.3 2.6c-.3.9-.5 1.8-.8 2.6l-5.9-.6c-.3 1.2-.5 2.4-.7 3.6l5.7 1.6-.3 2.7-5.9.5c-.1 1.2-.1 2.5 0 3.7l5.9.6c0 .9.1 1.8.2 2.8l-5.7 1.5.6 3.6 5.9-.5c.2.9.4 1.8.7 2.7l-5.3 2.5c.4 1.2.8 2.3 1.3 3.5l5.7-1.5c.4.8.8 1.7 1.2 2.5l-4.8 3.4c.6 1.1 1.2 2.1 1.9 3.2l5.3-2.5c.5.8 1 1.5 1.6 2.3l-4.1 4.2c.8 1 1.6 1.9 2.4 2.8l4.8-3.4c.6.7 1.3 1.3 2 1.9l-3.3 4.9c.9.8 1.9 1.6 2.9 2.3l4.1-4.2c.8.5 1.5 1.1 2.3 1.6l-2.4 5.4c1 .6 2.1 1.2 3.2 1.8l3.3-4.9c.8.4 1.7.8 2.6 1.1l-1.4 5.7c.7.3 1.4.5 2.1.7.5.1.9.3 1.4.4l2.4-5.4c.9.2 1.8.5 2.7.6l-.3 5.9c1.2.2 2.4.4 3.6.5l1.4-5.7c.9.1 1.9.1 2.8.1l.7 5.9c1.2 0 2.5 0 3.7-.1l.3-5.9c.9-.1 1.9-.2 2.8-.4l1.8 5.6c1.2-.2 2.4-.5 3.6-.8l-.8-5.9c.9-.3 1.8-.5 2.7-.8l2.8 5.2c1.1-.4 2.3-.9 3.4-1.4l-1.8-5.6c.8-.4 1.7-.8 2.5-1.3l3.6 4.6c1.1-.6 2.1-1.3 3.1-2l-2.8-5.2c.7-.5 1.5-1.1 2.2-1.7l4.4 3.9c.9-.8 1.8-1.6 2.7-2.5l-3.7-4.6 1.8-2.1 5 3.1c.8-1 1.5-1.9 2.2-3l-4.4-3.9c.5-.8 1-1.6 1.4-2.4l5.5 2.1c.6-1.1 1.1-2.2 1.6-3.3l-5-3.1c.2-.9.5-1.8.8-2.6zm-2.5-3.6l-18-6c.8-3.9.4-7.8-1-11.3l17-8.5c3.4 7.9 4.4 16.9 2 25.8zm-40.3.1c-5.6-1.8-8.6-7.8-6.8-13.4 1.8-5.6 7.8-8.6 13.4-6.8 5.6 1.8 8.6 7.8 6.8 13.4-1.8 5.6-7.8 8.6-13.4 6.8zm36.5-29.1l-17 8.5c-2-3.1-4.9-5.7-8.5-7.2l6-18c8.6 3.2 15.3 9.3 19.5 16.7zm-22.9-17.9l-6 18c-3.8-.9-7.7-.6-11.1.7l-8.5-17c7.8-3.3 16.8-4.1 25.6-1.7zm-28.9 3.4l8.5 16.9c-3.2 2-5.9 4.8-7.5 8.4l-18-6c3.3-8.4 9.5-15.1 17-19.3zm-18.2 22.8l18 6c-1 3.9-.7 7.9.6 11.5l-17 8.5c-3.4-7.9-4.2-17-1.6-26zm3.3 29.3l16.9-8.5c2 3.3 5 6.1 8.8 7.7l-6 18c-8.7-3.4-15.5-9.6-19.7-17.2zm23.2 18.3l6-18c4 .9 8 .5 11.6-.9l8.5 17c-8 3.5-17.2 4.4-26.1 1.9zm29.3-3.6l-8.5-17c3.2-2.1 5.8-5.1 7.4-8.8l18 6c-3.3 8.6-9.4 15.5-16.9 19.8zM-602.2-109.6l5.4-3.5c-.6-1.2-1.2-2.4-1.9-3.5l-5.9 2.5c-.5-.9-1.1-1.7-1.6-2.5l4.7-4.4c-.8-1.1-1.6-2.1-2.5-3.1l-5.4 3.5c-.7-.7-1.3-1.5-2-2.2l3.8-5.1-3-2.7-4.7 4.4-2.4-1.8 2.8-5.7c-1.1-.7-2.3-1.4-3.4-2.1l-3.8 5.1c-.9-.5-1.8-.9-2.7-1.3l1.8-6.1c-1.2-.5-2.5-1-3.8-1.4l-2.8 5.7c-.9-.3-1.9-.6-2.8-.8l.6-6.4c-1.3-.3-2.6-.6-4-.7l-1.8 6.2c-1-.1-2-.2-2.9-.3l-.5-6.4c-1.3-.1-2.7-.1-4 0l-.6 6.4c-1 0-2 .1-2.9.2l-1.6-6.2c-1.3.2-2.6.4-4 .7l.5 6.4c-1 .2-1.9.5-2.8.8l-2.7-5.8c-1.3.4-2.5.9-3.8 1.4l1.7 6.2c-.5.2-1.1.5-1.6.7-.3.2-.7.3-1 .5l-3.7-5.2c-1.2.6-2.4 1.3-3.5 2l2.7 5.8c-.8.5-1.6 1.1-2.4 1.7l-4.6-4.5c-1.1.8-2.1 1.7-3.1 2.6l3.7 5.2c-.7.7-1.4 1.4-2 2.1l-5.3-3.6c-.9 1-1.7 2.1-2.5 3.1l4.6 4.5c-.6.8-1.1 1.6-1.6 2.4l-5.9-2.6c-.7 1.2-1.3 2.3-1.9 3.5l5.3 3.6-1.2 2.7-6.2-1.5c-.5 1.3-.9 2.5-1.3 3.8l5.9 2.6c-.3.9-.5 1.9-.7 2.9l-6.4-.3c-.2 1.3-.4 2.6-.6 4l6.2 1.5c-.1 1-.1 2-.2 2.9l-6.3.8c0 1.3 0 2.7.1 4l6.4.3c.1 1 .2 2 .4 2.9l-6.1 1.9c.2 1.3.5 2.6.9 3.9l6.3-.8c.3.9.6 1.9.9 2.8l-5.7 3c.5 1.2 1 2.5 1.5 3.7l6.1-1.9c.4.9.9 1.8 1.4 2.6l-5 3.9c.7 1.2 1.4 2.3 2.2 3.4l5.7-3 1.8 2.4-4.3 4.8c.9 1 1.8 2 2.7 2.9l5-3.9c.7.7 1.5 1.4 2.2 2l-3.3 5.5c1 .8 2.1 1.6 3.2 2.4l4.2-4.8c.8.5 1.7 1.1 2.6 1.6l-2.3 6 3.6 1.8 3.3-5.5c.9.4 1.9.8 2.8 1.1l-1.2 6.3c1.3.4 2.5.8 3.8 1.1l2.3-6 3 .6-.1 6.4c1.3.2 2.6.3 4 .4l1.2-6.3c1 0 2 .1 3 0l1.1 6.3c1.3-.1 2.6-.2 4-.3v-6.4c1-.1 2-.3 3-.5l2.2 6c1.3-.3 2.6-.6 3.8-1l-1.1-6.3c1-.3 1.9-.7 2.8-1l3.2 5.5c.7-.3 1.5-.6 2.2-1 .5-.2.9-.5 1.4-.7l-2.2-6c.9-.5 1.8-1 2.6-1.5l4.2 4.9c1.1-.7 2.2-1.5 3.2-2.3l-3.2-5.5c.8-.6 1.6-1.3 2.3-2l5 4c1-.9 1.9-1.9 2.8-2.9l-4.2-4.9c.7-.8 1.3-1.5 1.9-2.4l5.6 3.1c.8-1.1 1.5-2.2 2.2-3.3l-5-4c.5-.9 1-1.8 1.4-2.7l6.1 2c.6-1.2 1.1-2.4 1.6-3.7l-5.6-3.1c.3-.9.7-1.9 1-2.9l6.3.9c.4-1.3.7-2.6.9-3.9l-6.1-2c.2-1 .3-2 .4-3l6.4-.2c.1-1.3.2-2.7.2-4l-6.3-.9c0-1 0-2-.1-3l6.2-1.4c-.1-1.3-.3-2.6-.5-4l-6.4.2c-.2-1-.4-2-.7-2.9l5.9-2.5c-.4-1.3-.8-2.5-1.2-3.8l-6.3 1.4c-.2-.6-.6-1.5-1-2.5zm-4.6-.9l-18.6 8.8c-2.3-3.7-5.5-6.4-9.2-8.1l6.9-19.4c8.6 3.6 16.1 10 20.9 18.7zm-31.5 30.3c-5.7 2.8-12.6.3-15.4-5.4-2.8-5.7-.3-12.6 5.4-15.4 5.7-2.8 12.6-.3 15.4 5.4 2.8 5.7.3 12.6-5.4 15.4zm6.9-50.2l-6.9 19.4c-3.9-.9-8.1-.8-12.1.7l-8.8-18.6c9.1-3.9 18.9-4.2 27.8-1.5zm-31.4 3.1l8.8 18.6c-3.7 2.2-6.4 5.3-8.2 8.9l-19.4-6.9c3.6-8.5 10.1-15.9 18.8-20.6zm-20.1 24.3l19.4 6.9c-1.1 3.9-1 8.2.4 12.3l-18.6 8.8c-3.8-9.2-4-19.1-1.2-28zm2.8 31.5l18.6-8.8c2.2 3.8 5.4 6.7 9.1 8.5l-6.9 19.4c-8.7-3.6-16.2-10.1-20.8-19.1zm24.4 20.5l6.9-19.4c4.1 1.1 8.5 1 12.7-.5l8.8 18.6c-9.3 3.9-19.4 4.1-28.4 1.3zm31.9-3l-8.8-18.6c3.8-2.3 6.7-5.6 8.4-9.4l19.4 6.9c-3.5 8.8-10.1 16.4-19 21.1zm20.3-24.8l-19.4-6.9c1-4 .8-8.4-.8-12.5l18.6-8.8c3.9 9.3 4.3 19.2 1.6 28.2zM-759.4 272.9l2.6.8c.2-.5.5-1 .6-1.6l-2.4-1.3c.1-.4.3-.8.4-1.2l2.7.3c.1-.5.3-1.1.4-1.7l-2.6-.8c.1-.4.1-.8.2-1.2l2.7-.1c0-.6.1-1.1.1-1.7l-2.7-.3c0-.4 0-.8-.1-1.2l2.6-.6c-.1-.6-.1-1.1-.2-1.7l-2.7.2-.3-1.2 2.5-1.1c-.2-.5-.3-1.1-.5-1.6l-2.6.6c-.2-.4-.3-.8-.5-1.1l2.2-1.5c-.3-.5-.5-1-.8-1.5l-2.5 1.1c-.2-.3-.5-.7-.7-1l1.9-1.9c-.3-.4-.7-.9-1.1-1.3l-2.2 1.5-.9-.9 1.6-2.2c-.4-.4-.8-.7-1.3-1.1l-1.9 1.9c-.3-.2-.7-.5-1-.7l1.1-2.4-1.5-.9-1.6 2.2c-.2-.1-.4-.2-.7-.3-.1-.1-.3-.1-.4-.2l.7-2.6c-.5-.2-1.1-.4-1.6-.6l-1.1 2.4-1.2-.3.2-2.7c-.6-.1-1.1-.2-1.7-.3l-.7 2.6c-.4 0-.8-.1-1.2-.1l-.3-2.7h-1.7l-.2 2.7c-.4 0-.8.1-1.2.1l-.7-2.6c-.6.1-1.1.2-1.7.3l.3 2.7-1.2.3-1.2-2.4c-.5.2-1.1.4-1.6.6l.7 2.6c-.4.2-.7.4-1.1.5l-1.6-2.2c-.5.3-1 .6-1.4.9l1.2 2.4c-.3.2-.7.5-1 .7l-2-1.8c-.4.4-.9.7-1.3 1.1l1.6 2.2-.9.9-2.3-1.5c-.4.4-.7.9-1 1.3l2 1.8c-.2.3-.5.7-.7 1.1l-2.5-1c-.3.5-.5 1-.8 1.5l2.3 1.5c-.2.4-.3.8-.5 1.2l-2.6-.6c-.2.5-.4 1.1-.5 1.6l2.5 1-.3 1.2-2.7-.1c-.1.6-.2 1.1-.2 1.7l2.6.6v1.3l-2.7.4c0 .6 0 1.1.1 1.7l2.7.1c0 .4.1.8.2 1.3l-2.6.9c.1.6.2 1.1.4 1.6l2.7-.4c.1.4.3.8.4 1.2l-2.4 1.3c.2.5.4 1 .7 1.5l2.6-.9c.2.4.4.7.6 1.1l-2.1 1.7c.3.5.6.9.9 1.4l2.4-1.3c.3.3.5.7.8 1l-1.8 2 1.2 1.2 2.1-1.7c.3.3.6.6 1 .8l-1.4 2.3c.4.3.9.7 1.4 1l1.8-2.1c.4.2.7.4 1.1.6l-.9 2.5c.3.2.6.3.9.4l.6.3 1.4-2.3c.4.2.8.3 1.2.4l-.5 2.7c.5.2 1.1.3 1.6.4l.9-2.5c.4.1.8.2 1.3.2v2.7c.6.1 1.1.1 1.7.1l.5-2.7h1.3l.5 2.6c.6 0 1.1-.1 1.7-.2v-2.7c.4-.1.8-.1 1.2-.2l1 2.5c.5-.1 1.1-.3 1.6-.5l-.5-2.6c.4-.1.8-.3 1.2-.5l1.4 2.3c.5-.2 1-.5 1.5-.7l-1-2.5c.4-.2.7-.4 1.1-.7l1.8 2c.5-.3.9-.7 1.4-1l-1.4-2.3c.3-.3.6-.6.9-.8l2.1 1.7c.4-.4.8-.8 1.1-1.2l-1.8-2c.3-.3.5-.7.8-1l2.4 1.3c.3-.5.6-.9.9-1.4l-2.1-1.7c-.1-.1.1-.5.3-.9zm-1-1.8l-7.9-3.7c.6-1.7.6-3.5.1-5.2l8.1-3c1.3 3.9 1.3 8-.3 11.9zm-18.3-2c-2.4-1.1-3.5-4-2.4-6.4 1.1-2.4 4-3.5 6.4-2.4 2.4 1.1 3.5 4 2.4 6.4-1 2.4-3.9 3.5-6.4 2.4zm18.2-11.3l-8.2 3c-.7-1.5-1.9-2.8-3.5-3.7l3.7-7.9c3.7 1.9 6.4 5 8 8.6zm-9.5-9.3l-3.7 7.9c-1.7-.6-3.5-.7-5.1-.3l-3-8.2c3.8-1.1 8-1 11.8.6zm-13.3 0l3 8.1c-1.6.7-2.9 1.9-3.9 3.4l-7.9-3.7c2-3.6 5.2-6.3 8.8-7.8zm-9.5 9.4l7.9 3.7c-.7 1.7-.7 3.6-.3 5.3l-8.2 3c-1.1-3.9-1-8.1.6-12zm0 13.4l8.1-3c.7 1.6 2 3 3.6 4l-3.7 7.9c-3.7-2-6.5-5.2-8-8.9zm9.5 9.5l3.7-7.9c1.8.6 3.6.7 5.3.2l3 8.1c-3.8 1.3-8 1.3-12-.4zm13.5 0l-3-8.2c1.6-.8 2.9-2 3.8-3.6l7.9 3.7c-1.9 3.7-5 6.5-8.7 8.1zM-875 116.3l1.6-.2v-1l-1.6-.1c0-.2-.1-.5-.1-.7l1.5-.5c-.1-.3-.1-.6-.2-1l-1.6.2c-.1-.2-.1-.5-.2-.7l1.4-.7c-.1-.3-.2-.6-.4-.9l-1.5.5-.3-.6 1.2-1c-.2-.3-.4-.6-.5-.8l-1.4.7c-.1-.2-.3-.4-.5-.6l1-1.2c-.2-.2-.4-.5-.7-.7l-1.2 1c-.2-.2-.4-.3-.5-.5l.8-1.4c-.3-.2-.5-.4-.8-.6l-1 1.2c-.2-.1-.4-.3-.6-.4l.6-1.5c-.3-.2-.6-.3-.9-.4l-.8 1.4c-.2-.1-.5-.2-.7-.3l.3-1.6c-.3-.1-.6-.2-1-.3l-.6 1.5c-.2-.1-.5-.1-.7-.1v-1.6c-.3 0-.7-.1-1-.1l-.3 1.6h-.7l-.3-1.6c-.3 0-.7 0-1 .1v1.6c-.2 0-.5.1-.7.1l-.6-1.5c-.3.1-.6.2-1 .3l.3 1.6c-.2.1-.5.2-.7.3l-.8-1.4c-.3.1-.6.3-.9.4l.6 1.5c-.2.1-.4.2-.6.4l-1-1.2c-.3.2-.5.4-.8.6l.8 1.4c-.2.2-.4.3-.5.5l-1.2-1-.7.7 1 1.2c-.2.2-.3.4-.5.6l-1.4-.8c-.2.3-.4.5-.6.8l1.2 1-.3.6-1.5-.5c-.1.3-.3.6-.4.9l1.4.8c-.1.2-.2.5-.2.7l-1.6-.2c-.1.3-.2.6-.2 1l1.5.5c0 .2-.1.5-.1.7l-1.6.1v1l1.6.2v.7l-1.5.3c0 .3.1.7.1 1l1.6-.1c0 .2.1.5.2.7l-1.5.6.3.9 1.5-.3c.1.2.2.5.3.7l-1.3.9c.1.3.3.6.5.9l1.5-.6c.1.2.3.4.4.6l-1.1 1.1c.2.3.4.5.6.8l1.3-.9c.2.2.3.4.5.5l-.9 1.3c.2.2.5.4.7.7l1.1-1.1c.2.2.4.3.6.4l-.7 1.4c.3.2.6.3.8.5l.9-1.3c.2.1.4.2.7.3l-.4 1.5.9.3.7-1.4c.2.1.5.1.7.2l-.1 1.6c.3.1.6.1 1 .2l.4-1.5c.2 0 .5.1.7.1l.1 1.6h1l.1-1.6c.3 0 .5 0 .7-.1l.4 1.5c.3 0 .7-.1 1-.2l-.1-1.6c.2-.1.5-.1.7-.2l.7 1.4.9-.3-.4-1.5c.2-.1.5-.2.7-.3l.9 1.3c.3-.2.6-.3.8-.5l-.7-1.4c.2-.1.4-.3.6-.4l1.1 1.1c.3-.2.5-.4.7-.6l-.9-1.3c.2-.2.3-.4.5-.5l1.3.9c.2-.2.4-.5.6-.8l-1.1-1.1c.1-.2.3-.4.4-.6l1.5.6c.2-.3.3-.6.5-.9l-1.3-.9c.1-.2.2-.5.3-.7l1.5.4.3-.9-1.5-.6c.1-.2.1-.5.2-.7l1.6.1c.1-.3.1-.6.1-1l-1.5-.4v-.8zm-.9-.7h-5.1c-.1-1.1-.6-2-1.2-2.8l3.6-3.6c1.5 1.7 2.5 3.9 2.7 6.4zm-10.3 3.4c-1.6 0-2.9-1.3-2.9-2.8 0-1.6 1.3-2.9 2.8-2.9 1.6 0 2.9 1.3 2.9 2.8.1 1.6-1.2 2.9-2.8 2.9zm6.9-10.5l-3.6 3.6c-.8-.6-1.7-1-2.8-1.1v-5.1c2.4.1 4.7 1.1 6.4 2.6zm-7.4-2.6v5.1c-1 .1-2 .5-2.8 1.1l-3.6-3.6c1.8-1.5 4-2.5 6.4-2.6zm-7 3.3l3.6 3.6c-.7.8-1.1 1.7-1.2 2.8h-5.1c.1-2.5 1.1-4.7 2.7-6.4zm-2.7 7.3h5.1c.1 1.1.5 2.1 1.1 2.9l-3.6 3.6c-1.6-1.7-2.5-4-2.6-6.5zm3.3 7.2l3.6-3.6c.8.7 1.8 1.1 2.9 1.2v5.1c-2.6-.1-4.8-1.1-6.5-2.7zm7.4 2.7v-5.1c1.1-.1 2.1-.5 2.9-1.2l3.6 3.6c-1.7 1.6-4 2.6-6.5 2.7zm7.2-3.4l-3.6-3.6c.6-.8 1.1-1.8 1.1-2.9h5.1c-.1 2.5-1.1 4.8-2.6 6.5zM-554.4 42.7l1.7.2c.1-.4.2-.7.3-1.1l-1.7-.6c0-.3.1-.5.1-.8l1.8-.1c0-.4.1-.7.1-1.1l-1.7-.2v-.8l1.7-.4c0-.4-.1-.7-.1-1.1l-1.8.1c-.1-.3-.1-.5-.2-.8l1.6-.7c-.1-.4-.2-.7-.3-1.1l-1.7.4c-.1-.3-.2-.5-.3-.8l1.5-1c-.2-.3-.3-.7-.5-1l-1.6.7c-.1-.2-.3-.5-.4-.7l1.3-1.2c-.2-.3-.4-.6-.7-.9l-1.5 1-.6-.6 1-1.4c-.3-.3-.5-.5-.8-.7l-1.3 1.2c-.2-.2-.4-.3-.7-.5l.8-1.6-.9-.6-1 1.4c-.2-.1-.5-.2-.7-.4l.5-1.7c-.3-.1-.7-.3-1-.4l-.8 1.6c-.2 0-.3-.1-.5-.1-.1 0-.2-.1-.3-.1l.2-1.8c-.4-.1-.7-.2-1.1-.2l-.5 1.7c-.3 0-.5-.1-.8-.1l-.1-1.8h-1.1l-.2 1.8c-.3 0-.5 0-.8.1l-.5-1.7c-.4 0-.7.1-1.1.2l.1 1.8c-.3.1-.5.1-.8.2l-.8-1.6c-.4.1-.7.2-1 .4l.5 1.7c-.2.1-.5.2-.7.3l-1-1.4c-.3.2-.6.4-1 .6l.8 1.6c-.2.1-.4.3-.7.5l-1.3-1.2c-.3.2-.6.5-.8.7l1 1.4-.6.6-1.5-1c-.2.3-.5.6-.7.9l1.3 1.2c-.2.2-.3.4-.5.7l-1.6-.7c-.2.3-.4.6-.5 1l1.5 1c-.1.2-.2.5-.3.7l-1.7-.4c-.1.3-.2.7-.4 1l1.6.7c-.1.3-.1.5-.2.8l-1.8-.1c-.1.4-.1.7-.2 1.1l1.7.4v.8l-1.7.2V40l1.8.1c0 .3.1.5.1.8l-1.7.5c.1.4.1.7.2 1.1l1.7-.2c.1.3.2.5.2.8l-1.6.8c.1.3.3.7.4 1l1.7-.5c.1.2.2.5.4.7l-1.4 1.1.6.9 1.6-.8c.2.2.3.4.5.7l-1.2 1.3c.2.3.5.5.8.8l1.4-1.1.6.6-.9 1.5c.3.2.6.4.9.7l1.2-1.3c.2.2.5.3.7.4l-.6 1.6c.3.2.6.3 1 .5l.9-1.5c.3.1.5.2.8.3l-.3 1.7c.2.1.4.1.6.2.1 0 .3.1.4.1l.6-1.6c.3.1.5.1.8.2v1.8c.4.1.7.1 1.1.1l.3-1.7h.8l.3 1.7c.4 0 .7 0 1.1-.1v-1.8c.3 0 .5-.1.8-.1l.6 1.7c.4-.1.7-.2 1.1-.3l-.3-1.7c.3-.1.5-.2.8-.3l.9 1.5c.3-.1.7-.3 1-.5l-.6-1.7c.2-.1.5-.3.7-.4l1.1 1.3.9-.6-.9-1.5c.2-.2.4-.4.6-.5l1.4 1.1.8-.8-1.2-1.3c.2-.2.4-.4.5-.6l1.5.8.6-.9-1.4-1.1c.1-.2.3-.5.4-.7l1.7.6c.2-.3.3-.7.4-1l-1.5-.8c.1-.4.2-.6.3-.9zm-.8-1l-5.5-1.5c.2-1.2 0-2.3-.5-3.3l4.9-2.8c1.3 2.2 1.7 4.9 1.1 7.6zm-12 .5c-1.7-.5-2.7-2.2-2.2-3.9.5-1.7 2.2-2.7 3.9-2.2 1.7.5 2.7 2.2 2.2 3.9-.5 1.7-2.2 2.7-3.9 2.2zm10.5-9.1l-4.9 2.8c-.6-.9-1.5-1.6-2.6-2l1.5-5.5c2.5.8 4.6 2.5 6 4.7zm-7.1-5.1l-1.5 5.5c-1.2-.2-2.3-.1-3.3.4l-2.8-4.9c2.3-1.2 5-1.6 7.6-1zm-8.6 1.4l2.8 4.9c-.9.6-1.7 1.5-2.1 2.6l-5.5-1.5c.9-2.5 2.7-4.6 4.8-6zm-5.1 7.1l5.5 1.5c-.2 1.2-.1 2.4.3 3.4l-4.9 2.8c-1.2-2.3-1.5-5-.9-7.7zm1.4 8.7l4.9-2.8c.6 1 1.6 1.7 2.7 2.2L-570 50c-2.6-.8-4.7-2.6-6.1-4.8zm7.2 5.1l1.5-5.5c1.2.2 2.4 0 3.5-.4l2.8 4.9c-2.4 1.3-5.1 1.7-7.8 1zm8.7-1.5l-2.8-4.9c.9-.7 1.7-1.6 2.1-2.7l5.4 1.5c-.8 2.6-2.5 4.8-4.7 6.1zM-591 31.7l7.7-1c0-1.6-.1-3.3-.2-4.9l-7.8-.4c-.1-1.2-.3-2.4-.5-3.6l7.4-2.3c-.3-1.6-.6-3.2-1.1-4.8l-7.7 1c-.3-1.2-.7-2.3-1.1-3.5l6.9-3.6c-.6-1.5-1.2-3-1.9-4.5l-7.4 2.4c-.5-1.1-1.1-2.2-1.7-3.2l6.1-4.8c-.8-1.4-1.7-2.8-2.7-4.1l-6.9 3.6c-.7-1-1.5-1.9-2.2-2.8l5.2-5.8c-1.1-1.2-2.2-2.4-3.4-3.6l-6.1 4.8-2.7-2.4 4-6.6c-1.3-1-2.6-2-3.9-2.9l-5.2 5.8c-1-.7-2-1.3-3.1-1.9l2.8-7.3c-1.4-.8-2.9-1.5-4.4-2.2l-4 6.7c-1.1-.5-2.2-.9-3.4-1.3l1.5-7.7c-1.5-.5-3.1-.9-4.7-1.3l-2.8 7.3c-1.2-.3-2.3-.5-3.5-.7l.1-7.8c-1.6-.2-3.2-.4-4.9-.5l-1.4 7.7h-3.6l-1.3-7.7c-1.6.1-3.3.2-4.9.4l-.1 7.8c-1.2.2-2.4.4-3.5.6l-2.7-7.3c-1.6.4-3.2.8-4.7 1.3l1.3 7.7c-1.1.4-2.3.8-3.4 1.2l-3.9-6.7c-1.5.6-3 1.3-4.4 2.1l2.7 7.3c-1.1.6-2.1 1.2-3.1 1.8l-5.1-5.9c-1.4.9-2.7 1.8-4 2.9l3.9 6.7c-.9.7-1.8 1.5-2.7 2.3l-6.1-4.9c-1.2 1.1-2.3 2.3-3.4 3.5l5.1 5.9c-.8.9-1.5 1.8-2.3 2.8l-6.8-3.8c-1 1.3-1.9 2.7-2.7 4.1l6.1 4.9c-.6 1-1.2 2.1-1.7 3.1l-7.4-2.5c-.7 1.5-1.4 3-2 4.5l6.8 3.7c-.4 1.1-.8 2.3-1.1 3.4l-7.7-1.1c-.4 1.6-.8 3.1-1.1 4.8l7.4 2.5c-.2 1.2-.4 2.4-.5 3.6l-7.8.3c-.1 1.6-.2 3.2-.3 4.9l7.7 1.1c0 1.2 0 2.4.1 3.6l-7.6 1.7c.1 1.6.3 3.2.6 4.8l7.8-.3c.2 1.2.5 2.4.8 3.6l-7.2 3c.4 1.6.9 3.1 1.5 4.7l7.6-1.7c.4 1.1.9 2.3 1.4 3.4l-6.5 4.2c.7 1.5 1.5 2.9 2.3 4.3l7.2-3c.6 1 1.3 2.1 2 3.1l-5.7 5.3c1 1.3 2 2.6 3 3.8l6.5-4.2c.8.9 1.6 1.8 2.5 2.7l-4.6 6.3c1.2 1.1 2.4 2.2 3.6 3.2l5.7-5.3c1 .8 1.9 1.5 2.9 2.2l-3.4 7c1.3.9 2.7 1.7 4.1 2.5l4.6-6.3c1.1.6 2.2 1.1 3.3 1.6l-2.1 7.5c1.5.6 3 1.2 4.5 1.7l3.4-7c1.2.4 2.3.7 3.5 1l-.8 7.8c1.6.4 3.2.7 4.8.9l2.1-7.5c1.2.2 2.4.3 3.7.4l.6 7.8c1 0 2 .1 2.9.1h1.9l.8-7.8c1.2-.1 2.5-.2 3.7-.3l2 7.5c1.6-.2 3.2-.5 4.8-.8l-.6-7.8c1.2-.3 2.4-.6 3.6-1l3.3 7c1.5-.5 3.1-1.1 4.6-1.7l-2-7.5c1.1-.5 2.2-1 3.3-1.6l4.5 6.3c1.4-.8 2.8-1.6 4.2-2.5l-3.3-7 3-2.1 5.6 5.4c1.3-1 2.5-2.1 3.7-3.2l-4.5-6.3 2.6-2.6 6.5 4.3c1.1-1.2 2.1-2.5 3.1-3.8l-5.6-5.4c.7-1 1.4-2 2-3.1l7.1 3.1c.8-1.4 1.6-2.8 2.3-4.3l-6.5-4.3c.5-1.1 1-2.2 1.5-3.4l7.6 1.8c.6-1.5 1.1-3.1 1.5-4.6l-7.1-3.1c.3-1.2.6-2.4.8-3.6l7.8.4c.3-1.6.5-3.2.7-4.8l-7.6-1.8c-.2-1-.1-2.2-.1-3.4zm-88.1 14.7c-8.6 0-15.7-7-15.7-15.7 0-8.6 7-15.7 15.7-15.7 8.6 0 15.7 7 15.7 15.7s-7 15.7-15.7 15.7zm33 33c-8.6 0-15.7-7-15.7-15.7 0-8.6 7-15.7 15.7-15.7 8.6 0 15.7 7 15.7 15.7-.1 8.7-7.1 15.7-15.7 15.7zm-6.9-48.6c0-3.8 3.1-6.8 6.8-6.8 3.8 0 6.8 3.1 6.8 6.8 0 3.8-3.1 6.8-6.8 6.8-3.7 0-6.8-3-6.8-6.8zm6.9-17.3c-8.6 0-15.7-7-15.7-15.7 0-8.6 7-15.7 15.7-15.7 8.6 0 15.7 7 15.7 15.7-.1 8.7-7.1 15.7-15.7 15.7zm32.9 32.9c-8.6 0-15.7-7-15.7-15.7 0-8.6 7-15.7 15.7-15.7 8.6 0 15.7 7 15.7 15.7s-7 15.7-15.7 15.7zM-817.9 131.8l3.5-2.7-1.5-2.4-4 2c-.4-.6-.8-1.1-1.3-1.6l3-3.3c-.6-.7-1.2-1.4-1.9-2.1l-3.5 2.7c-.5-.5-1-.9-1.5-1.4l2.4-3.7c-.7-.6-1.5-1.2-2.2-1.7l-3 3.3c-.6-.4-1.2-.8-1.7-1.1l1.7-4.1c-.8-.5-1.6-.9-2.5-1.3l-2.4 3.7c-.6-.3-1.3-.5-1.9-.8l.9-4.3c-.9-.3-1.8-.6-2.7-.8l-1.7 4.1c-.7-.2-1.3-.3-2-.4l.1-4.4c-.9-.1-1.8-.2-2.8-.3l-.9 4.3c-.7 0-1.4-.1-2-.1l-.7-4.4c-.9 0-1.9.1-2.8.2l-.1 4.4c-.7.1-1.3.2-2 .3l-1.4-4.2c-.9.2-1.8.4-2.7.7l.7 4.4c-.6.2-1.3.4-1.9.7l-2.2-3.9c-.9.3-1.7.7-2.5 1.2l1.5 4.2c-.4.2-.7.4-1.1.6-.2.1-.5.3-.7.4l-2.8-3.4c-.8.5-1.6 1-2.3 1.6l2.2 3.9c-.5.4-1.1.8-1.6 1.3l-3.4-2.9c-.7.6-1.4 1.3-2 2l2.8 3.4c-.5.5-.9 1-1.3 1.6l-3.8-2.2c-.6.7-1.1 1.5-1.6 2.3l3.4 2.8c-.4.6-.7 1.2-1 1.8l-4.2-1.5c-.4.8-.8 1.7-1.2 2.5l3.8 2.2c-.2.6-.5 1.3-.7 1.9l-4.4-.7c-.3.9-.5 1.8-.7 2.7l4.2 1.5c-.1.7-.2 1.3-.3 2l-4.4.1c-.1.9-.2 1.8-.2 2.8l4.4.7v2l-4.3.9c.1.9.2 1.8.3 2.8l4.4-.1c.1.7.2 1.3.4 2l-4.1 1.6c.2.9.5 1.8.8 2.7l4.3-.9c.2.6.5 1.3.8 1.9l-3.8 2.3c.4.8.8 1.7 1.3 2.5l4.1-1.6c.3.6.7 1.2 1.1 1.8l-3.3 3c.5.8 1.1 1.5 1.7 2.2l3.8-2.3c.4.5.9 1 1.4 1.5l-2.7 3.5c.7.7 1.3 1.3 2 1.9l3.3-3c.5.4 1.1.9 1.6 1.3l-2 3.9c.8.5 1.5 1 2.3 1.5l2.7-3.5c.6.3 1.2.7 1.8 1l-1.3 4.2c.8.4 1.7.7 2.6 1l2-3.9c.7.2 1.3.4 2 .6l-.5 4.4 2.7.6 1.3-4.2c.7.1 1.4.2 2.1.2l.3 4.4c.9.1 1.8.1 2.8.1l.5-4.4c.7 0 1.4-.1 2.1-.1l1.1 4.3c.9-.1 1.8-.2 2.7-.4l-.3-4.4c.7-.1 1.4-.3 2-.5l1.8 4c.9-.3 1.7-.6 2.6-.9l-1.1-4.3c.6-.3 1.3-.6 1.9-.9l2.5 3.7c.5-.3 1-.5 1.5-.8l.9-.6-1.8-4c.6-.4 1.2-.8 1.7-1.2l3.1 3.1c.7-.6 1.4-1.1 2.1-1.8l-2.5-3.6 1.5-1.5 3.6 2.5 1.8-2.1-3.1-3.1c.4-.6.8-1.1 1.2-1.7l4 1.8c.5-.8.9-1.6 1.4-2.4l-3.6-2.5c.3-.6.6-1.3.9-1.9l4.3 1.1c.3-.9.6-1.7.9-2.6l-4-1.8c.2-.7.4-1.3.5-2l4.4.3c.2-.9.3-1.8.4-2.7l-4.3-1.1c.1-.7.1-1.4.1-2.1l4.4-.5c0-.9 0-1.8-.1-2.8l-4.4-.3c-.1-.7-.1-1.4-.2-2.1l4.2-1.3c-.1-.9-.3-1.8-.6-2.7l-4.4.5c-.2-.7-.4-1.3-.6-2l4-2c-.3-.9-.7-1.7-1-2.6l-4.3 1.3c-.1-.6-.4-1.2-.8-1.8zm-39.3 32.2c-4.3 2.4-9.7 1-12.2-3.3-2.4-4.3-1-9.7 3.3-12.2 4.3-2.4 9.7-1 12.2 3.3s1 9.7-3.3 12.2zm25.6 6.9c-4.3 2.4-9.7 1-12.2-3.3-2.4-4.3-1-9.7 3.3-12.2 4.3-2.4 9.7-1 12.2 3.3s1 9.8-3.3 12.2zm-17.1-22c-1.1-1.9-.4-4.2 1.4-5.3 1.9-1.1 4.2-.4 5.3 1.4 1.1 1.9.4 4.2-1.4 5.3-1.9 1.1-4.2.4-5.3-1.4zm-1.5-10.5c-4.3 2.4-9.7 1-12.2-3.3-2.4-4.3-1-9.7 3.3-12.2 4.3-2.4 9.7-1 12.2 3.3 2.4 4.3.9 9.7-3.3 12.2zm25.5 6.9c-4.3 2.4-9.7 1-12.2-3.3-2.4-4.3-1-9.7 3.3-12.2 4.3-2.4 9.7-1 12.2 3.3s1 9.8-3.3 12.2zM-683.8 196.1l.9-6.8c-1.4-.4-2.8-.7-4.2-1l-2.1 6.5c-1.1-.2-2.1-.3-3.2-.4l-.3-6.9c-1.4-.1-2.9-.2-4.3-.2l-.9 6.8c-1.1 0-2.1.1-3.2.1l-1.5-6.7c-1.4.1-2.9.3-4.3.6l.3 6.9c-1 .2-2.1.4-3.1.7l-2.7-6.3c-1.4.4-2.8.8-4.1 1.3l1.5 6.7c-1 .4-2 .8-2.9 1.2l-3.8-5.7c-1.3.6-2.6 1.3-3.8 2l2.7 6.3c-.9.6-1.8 1.1-2.6 1.7l-4.7-5c-1.2.9-2.3 1.7-3.4 2.7l3.8 5.7c-.8.7-1.5 1.4-2.3 2.2l-5.5-4.1c-1 1-1.9 2.1-2.8 3.2l4.7 5c-.6.8-1.3 1.7-1.9 2.6l-6.2-3c-.8 1.2-1.5 2.4-2.2 3.7l5.5 4c-.5.9-.9 1.9-1.4 2.8l-6.6-1.9c-.6 1.3-1.1 2.7-1.5 4l6.2 3c-.2.6-.4 1.2-.5 1.8l-.3 1.2-6.8-.6c-.3 1.4-.6 2.8-.8 4.3l6.6 1.8c-.1 1-.2 2.1-.3 3.1l-6.8.6c-.1 1.4-.1 2.9 0 4.3l6.8.6c.1 1.1.1 2.1.3 3.1l-6.6 1.8c.2 1.4.5 2.9.8 4.3l6.8-.6c.2 1 .5 2 .8 3l-6.2 3c.5 1.4 1 2.7 1.5 4l6.6-1.8c.4 1 .9 1.9 1.4 2.9l-5.6 4c.7 1.3 1.4 2.5 2.2 3.7l6.2-3c.6.9 1.2 1.7 1.8 2.6l-4.8 4.9c.9 1.1 1.8 2.2 2.8 3.3l5.6-4c.7.8 1.5 1.5 2.3 2.2l-3.8 5.7c1.1.9 2.2 1.8 3.4 2.7l4.8-4.9c.9.6 1.7 1.2 2.6 1.8l-2.7 6.3c1.2.7 2.5 1.4 3.8 2.1l3.8-5.7c1 .5 1.9.9 2.9 1.3l-1.6 6.7c1.3.5 2.7.9 4.1 1.3l2.7-6.3c1 .3 2.1.5 3.1.7l-.3 6.9c1.4.3 2.8.5 4.3.6l1.5-6.7c1.1.1 2.1.1 3.2.2l.9 6.8c1.4 0 2.9-.1 4.3-.2l.3-6.9c1.1-.1 2.1-.2 3.2-.4l2.1 6.5 4.2-.9-.9-6.8c1-.3 2.1-.6 3.1-1l3.2 6.1c1.3-.5 2.7-1.1 4-1.7l-2.1-6.5c1-.5 1.9-1 2.8-1.5l4.3 5.4c1.2-.7 2.4-1.5 3.6-2.3l-3.2-6c.9-.6 1.7-1.3 2.5-2l5.2 4.5c1.1-.9 2.1-1.9 3.1-2.9l-4.3-5.4c.7-.8 1.5-1.6 2.1-2.4l5.9 3.5c.9-1.1 1.7-2.3 2.5-3.4l-5.2-4.5c.6-.9 1.1-1.8 1.7-2.8l6.4 2.4c.7-1.2 1.3-2.5 1.9-3.8l-5.9-3.5c.4-1 .8-2 1.1-3l6.7 1.3c.3-.8.5-1.6.7-2.5.1-.5.3-1.1.4-1.6l-6.4-2.4c.2-1.1.4-2.1.6-3.2h6.9c.2-1.4.3-2.8.4-4.3l-6.7-1.2v-3.2l6.8-1.2c-.1-1.4-.2-2.8-.4-4.3h-6.9c-.2-1.1-.3-2.1-.6-3.2l6.4-2.4c-.3-1.4-.7-2.8-1.1-4.1l-6.8 1.2c-.3-1-.7-2-1.1-3l5.9-3.5c-.6-1.3-1.2-2.6-1.9-3.9l-6.4 2.4c-.5-.9-1.1-1.9-1.7-2.8l5.2-4.5c-.8-1.2-1.6-2.3-2.5-3.5l-5.9 3.5-2.1-2.4 4.3-5.3c-1-1-2-2-3.1-3l-5.2 4.5c-.8-.7-1.7-1.4-2.5-2l3.3-6c-1.2-.8-2.3-1.6-3.6-2.4l-4.3 5.4c-.9-.5-1.9-1-2.8-1.5l2.1-6.5c-1.3-.6-2.6-1.2-3.9-1.7l-3.3 6c-.9-.3-2-.6-3-.9zm-7.8 78.3c-2 7.3-9.6 11.7-16.9 9.7-7.3-2-11.7-9.6-9.7-16.9 2-7.3 9.6-11.7 16.9-9.7 7.4 2 11.7 9.5 9.7 16.9zm35.7-20.4c-2 7.3-9.6 11.7-16.9 9.7-7.4-2-11.7-9.6-9.7-16.9 2-7.3 9.6-11.7 16.9-9.7 7.3 1.9 11.6 9.5 9.7 16.9zm-42.9-5.4c-3.2-.9-5.1-4.2-4.2-7.4.9-3.2 4.2-5.1 7.4-4.2 3.2.9 5.1 4.2 4.2 7.4-.9 3.1-4.2 5-7.4 4.2zm-13.2-9.8c-2 7.3-9.6 11.7-16.9 9.7-7.3-2-11.7-9.6-9.7-16.9 2-7.3 9.6-11.7 16.9-9.7 7.4 1.9 11.7 9.5 9.7 16.9zm35.6-20.5c-2 7.4-9.6 11.7-16.9 9.7-7.3-2-11.7-9.6-9.7-16.9 2-7.3 9.6-11.7 16.9-9.7 7.4 2 11.7 9.6 9.7 16.9zM-698.6 169.5v-1c0-.5 0-1-.1-1.5l4.1-2.5c-.4-1.7-1.1-3.2-2.1-4.7l-4.6 1.3c-.6-.7-1.2-1.2-1.9-1.8l1.1-4.7c-1.5-.9-3.1-1.5-4.7-1.8l-2.3 4.2h-1c-.5 0-1 0-1.5.1l-2.5-4.1c-1.7.4-3.2 1.1-4.7 2.1l1.3 4.6c-.7.6-1.2 1.2-1.8 1.9l-4.7-1.1c-.8 1.5-1.5 3-1.8 4.7l4.2 2.3v1c0 .5 0 1 .1 1.5l-4.1 2.5c.4 1.7 1.1 3.2 2.1 4.7l4.6-1.3c.5.7 1.2 1.3 1.9 1.8l-1.1 4.7c1.5.9 3 1.5 4.7 1.8l2.3-4.2h1c.5 0 1 0 1.5-.1l2.5 4.1c1.7-.4 3.2-1.1 4.7-2.1l-1.3-4.6c.7-.6 1.2-1.2 1.8-1.9l4.7 1.1c.9-1.5 1.5-3.1 1.8-4.8l-4.2-2.2zm-11.5 4.3c-2.9 0-5.3-2.4-5.3-5.3s2.4-5.3 5.3-5.3 5.3 2.4 5.3 5.3-2.4 5.3-5.3 5.3zM-689.2 314.6v-.9c0-.5 0-.9-.1-1.4l3.7-2.3c-.4-1.5-1-2.9-1.9-4.2l-4.1 1.2c-.5-.6-1.1-1.1-1.7-1.6l1-4.2c-1.3-.8-2.8-1.3-4.3-1.7l-2.1 3.8h-.9c-.5 0-.9 0-1.4.1l-2.3-3.7c-1.5.4-2.9 1-4.2 1.9l1.2 4.1c-.6.5-1.1 1.1-1.6 1.7l-4.2-1c-.8 1.3-1.3 2.8-1.7 4.3l3.8 2.1v.9c0 .5 0 .9.1 1.4l-3.7 2.3c.4 1.5 1 2.9 1.9 4.2l4.1-1.2c.5.6 1.1 1.1 1.7 1.6l-1 4.2c1.3.8 2.8 1.3 4.3 1.7l2.1-3.8h.9c.5 0 .9 0 1.4-.1l2.3 3.7c1.5-.4 2.9-1 4.2-1.9l-1.2-4.1c.6-.5 1.1-1.1 1.6-1.7l4.2 1c.8-1.3 1.3-2.8 1.7-4.3l-3.8-2.1zm-10.4 3.8c-2.6 0-4.8-2.1-4.8-4.8 0-2.6 2.1-4.8 4.8-4.8 2.6 0 4.8 2.1 4.8 4.8 0 2.7-2.1 4.8-4.8 4.8zM-520.9-36.7v-.3c0-1.9-.1-3.8-.4-5.6l-6.1-.3c-.2-.9-.3-1.8-.6-2.7l5.5-2.8c-.5-1.9-1.2-3.7-2-5.5l-6 1.4c-.4-.8-.8-1.6-1.3-2.4l4.5-4.2c-1.1-1.7-2.2-3.2-3.5-4.7l-5.3 3.1c-.6-.7-1.3-1.3-1.9-2l3.1-5.3c-1.5-1.3-3-2.5-4.7-3.6l-4.3 4.4c-.8-.5-1.6-.9-2.4-1.3l1.5-6c-1.8-.8-3.6-1.5-5.5-2.1l-2.8 5.5-2.7-.6-.2-6.1c-1.9-.3-3.9-.4-5.9-.5l-1.2 6c-.9 0-1.9.1-2.8.2l-2-5.8c-2 .3-3.9.7-5.7 1.2l.6 6.1c-.9.3-1.8.6-2.6 1l-3.5-5c-1.8.8-3.5 1.7-5.2 2.8l2.3 5.7c-.8.5-1.5 1.1-2.2 1.6l-4.8-3.8c-1.5 1.3-2.9 2.7-4.2 4.1l3.8 4.9c-.6.7-1.1 1.4-1.7 2.2l-5.7-2.3c-1.1 1.6-2 3.3-2.9 5.1l5 3.6c-.4.8-.7 1.7-1 2.6l-6.1-.6c-.6 1.9-1 3.8-1.3 5.7l5.8 2c-.1.9-.2 1.8-.2 2.8l-6.1 1.1v.3c0 1.9.1 3.8.4 5.6l6.1.3c.2.9.3 1.8.6 2.7l-5.5 2.8c.5 1.9 1.2 3.7 2 5.5l6-1.4c.4.8.8 1.6 1.3 2.4l-4.5 4.2c1.1 1.7 2.2 3.2 3.5 4.7l5.3-3.1c.6.7 1.3 1.3 1.9 2l-3.1 5.3c1.5 1.3 3 2.5 4.7 3.6l4.3-4.4c.8.5 1.6.9 2.4 1.3l-1.5 6c1.8.8 3.6 1.5 5.5 2.1l2.8-5.5 2.7.6.2 6.1c1.9.3 3.9.4 5.9.5l1.2-6c.9 0 1.9-.1 2.8-.2l2 5.8c2-.3 3.9-.7 5.7-1.2l-.6-6.1c.9-.3 1.8-.6 2.6-1l3.5 5c1.8-.8 3.5-1.7 5.2-2.8l-2.3-5.7c.8-.5 1.5-1.1 2.2-1.6l4.8 3.8c1.5-1.3 2.9-2.7 4.2-4.1l-3.8-4.9c.6-.7 1.1-1.4 1.7-2.2l5.7 2.3c1.1-1.6 2-3.3 2.9-5.1l-5-3.6c.4-.8.7-1.7 1-2.6l6.1.6c.6-1.9 1-3.8 1.3-5.7l-5.8-2c.1-.9.2-1.8.2-2.8l6.1-1.1zm-41.4 30.2c-16.9 0-30.5-13.7-30.5-30.5 0-16.9 13.7-30.5 30.5-30.5 16.9 0 30.5 13.7 30.5 30.5 0 16.9-13.6 30.5-30.5 30.5zM-562.3-66.4c-16.2 0-29.4 13.2-29.4 29.4s13.2 29.4 29.4 29.4 29.4-13.2 29.4-29.4-13.2-29.4-29.4-29.4zm0 54.3c-13.7 0-24.9-11.1-24.9-24.9 0-13.7 11.1-24.9 24.9-24.9 13.7 0 24.9 11.1 24.9 24.9 0 13.8-11.1 24.9-24.9 24.9zM-716 322.5v-.2c0-1.7-.1-3.4-.3-5.1l-5.6-.3c-.1-.8-.3-1.7-.5-2.5l5-2.5c-.5-1.7-1.1-3.4-1.8-5l-5.5 1.3c-.4-.8-.8-1.5-1.2-2.2l4.1-3.8c-1-1.5-2-3-3.2-4.3l-4.9 2.8-1.8-1.8 2.9-4.8c-1.3-1.2-2.8-2.3-4.3-3.2l-3.9 4.1c-.7-.4-1.5-.8-2.2-1.2l1.4-5.5c-1.6-.7-3.3-1.4-5-1.9l-2.6 5c-.8-.2-1.6-.4-2.5-.6l-.2-5.6c-1.7-.3-3.5-.4-5.4-.4l-1.1 5.5c-.9 0-1.7.1-2.5.2l-1.8-5.3c-1.8.2-3.5.6-5.3 1.1l.5 5.6-2.4.9-3.2-4.6c-1.6.7-3.2 1.6-4.7 2.5l2.1 5.2c-.7.5-1.4 1-2 1.5l-4.4-3.5c-1.4 1.2-2.6 2.4-3.8 3.8l3.5 4.4c-.5.7-1 1.3-1.5 2l-5.2-2.1c-1 1.5-1.8 3.1-2.6 4.7l4.6 3.3-.9 2.4-5.6-.6c-.5 1.7-.9 3.4-1.2 5.2l5.3 1.9c-.1.8-.2 1.7-.2 2.5l-5.5 1v.2c0 1.7.1 3.4.3 5.1l5.6.3c.1.8.3 1.7.5 2.5l-5 2.5c.5 1.7 1.1 3.4 1.8 5l5.5-1.3c.4.8.8 1.5 1.2 2.2l-4.1 3.8c1 1.5 2 3 3.2 4.3l4.9-2.8 1.8 1.8-2.9 4.8c1.3 1.2 2.8 2.3 4.3 3.2l3.9-4.1c.7.4 1.5.8 2.2 1.2l-1.4 5.5c1.6.8 3.3 1.4 5 1.9l2.6-5c.8.2 1.6.4 2.5.6l.2 5.6c1.7.3 3.5.4 5.4.4l1.1-5.5c.9 0 1.7-.1 2.5-.2l1.8 5.3c1.8-.2 3.5-.6 5.3-1.1l-.5-5.6c.8-.3 1.6-.5 2.4-.9l3.2 4.6c1.6-.7 3.2-1.6 4.7-2.5l-2.1-5.2c.7-.5 1.4-1 2-1.5l4.4 3.5c1.4-1.2 2.6-2.4 3.8-3.8l-3.5-4.4c.5-.7 1-1.3 1.5-2l5.2 2.1c1-1.5 1.8-3.1 2.6-4.7l-4.6-3.3.9-2.4 5.6.6c.5-1.7.9-3.4 1.2-5.2l-5.3-1.9c.1-.8.2-1.7.2-2.5l5.5-1zm-37.8 27.7c-15.4 0-27.9-12.5-27.9-27.9s12.5-27.9 27.9-27.9c15.4 0 27.9 12.5 27.9 27.9s-12.5 27.9-27.9 27.9zM-753.8 295.5c-14.8 0-26.9 12-26.9 26.9 0 14.8 12 26.9 26.9 26.9 14.8 0 26.9-12 26.9-26.9-.1-14.9-12.1-26.9-26.9-26.9zm0 49.5c-12.6 0-22.7-10.2-22.7-22.7s10.2-22.7 22.7-22.7c12.6 0 22.7 10.2 22.7 22.7s-10.2 22.7-22.7 22.7zM-855.9-17.7v-.1c-.2-.9-.4-1.8-.7-2.6l-2.9.4c-.2-.4-.3-.8-.5-1.2l2.3-1.8c-.4-.8-.9-1.7-1.5-2.4l-2.7 1.3c-.3-.4-.6-.7-.9-1l1.7-2.4c-.7-.7-1.4-1.3-2.1-1.9l-2.2 2c-.4-.3-.7-.5-1.1-.7l1-2.8c-.8-.5-1.7-.9-2.6-1.2l-1.6 2.5c-.4-.2-.8-.3-1.3-.4l.1-3c-.9-.2-1.9-.4-2.8-.5l-.8 2.9h-1.3l-.7-2.9c-.9.1-1.9.2-2.8.4v3c-.4.1-.9.2-1.3.4l-1.5-2.6c-.9.3-1.8.7-2.6 1.1l.9 2.9c-.4.2-.8.5-1.1.7l-2.2-2.1c-.8.6-1.5 1.2-2.2 1.8l1.6 2.5c-.3.3-.6.7-.9 1l-2.7-1.4c-.6.8-1.1 1.5-1.6 2.4l2.3 1.9-.6 1.2-2.9-.6-.9 2.7 2.7 1.2c-.1.4-.2.9-.2 1.3l-3 .3c-.1.9-.1 1.9-.1 2.8l3 .4c0 .4.1.9.2 1.3l-2.8 1.1v.1c.2.9.4 1.8.7 2.6l2.9-.4c.2.4.3.8.5 1.2l-2.3 1.8c.4.9.9 1.7 1.5 2.4l2.7-1.3c.3.4.6.7.9 1L-890 0c.7.7 1.4 1.3 2.1 1.9l2.2-2c.4.3.7.5 1.1.7l-1 2.8c.8.5 1.7.9 2.6 1.2l1.6-2.5c.4.2.8.3 1.3.4l-.1 3c.9.2 1.9.4 2.8.5l.8-2.9h1.3l.7 2.9c.9-.1 1.9-.2 2.8-.4v-3c.4-.1.9-.2 1.3-.4l1.5 2.6c.9-.3 1.8-.7 2.6-1.1l-.9-2.9c.4-.2.8-.5 1.1-.7l2.2 2.1c.8-.6 1.5-1.2 2.2-1.8l-1.6-2.5c.3-.3.6-.7.9-1l2.7 1.4c.6-.8 1.1-1.5 1.6-2.4l-2.3-1.9.6-1.2 2.9.6.9-2.7-2.7-1.2c.1-.4.2-.9.2-1.3l3-.3c.1-.9.1-1.9.1-2.8l-3-.4c0-.4-.1-.9-.2-1.3l2.8-1.1zM-872.6.7c-8 1.6-15.8-3.5-17.4-11.5-1.6-8 3.5-15.8 11.5-17.4 8-1.6 15.8 3.5 17.4 11.5 1.7 7.9-3.5 15.7-11.5 17.4zM-878.4-27.8c-7.7 1.6-12.7 9.1-11.1 16.8 1.6 7.7 9.1 12.7 16.8 11.1C-865-1.5-860-9-861.6-16.7c-1.6-7.7-9.1-12.6-16.8-11.1zm5.2 25.8c-6.5 1.3-12.9-2.9-14.2-9.4-1.3-6.5 2.9-12.9 9.4-14.2 6.5-1.3 12.9 2.9 14.2 9.4 1.4 6.5-2.8 12.9-9.4 14.2zM-693.5 102.6v-.4c0-2.8-.2-5.5-.6-8.2l-9-.5c-.2-1.3-.5-2.7-.8-4l8-4c-.8-2.8-1.8-5.5-2.9-8l-8.7 2.1c-.6-1.2-1.2-2.4-1.9-3.6l6.6-6.1c-1.5-2.4-3.2-4.7-5.1-6.9l-7.8 4.5c-.9-1-1.9-2-2.8-2.9l4.6-7.7c-2.1-1.9-4.4-3.6-6.8-5.2l-6.2 6.5c-1.1-.7-2.3-1.4-3.5-2l2.2-8.7c-2.6-1.2-5.3-2.2-8-3l-4.2 8-3.9-.9-.3-9c-2.8-.4-5.6-.6-8.5-.7l-1.7 8.8c-1.4 0-2.7.1-4 .3l-2.9-8.5c-2.9.4-5.7 1-8.4 1.8l.8 9c-1.3.4-2.6.9-3.8 1.4l-5.1-7.4c-2.6 1.2-5.1 2.5-7.5 4.1l3.3 8.4c-1.1.8-2.2 1.6-3.2 2.4l-7-5.6c-2.2 1.9-4.2 3.9-6.1 6l5.5 7.1c-.9 1-1.7 2.1-2.4 3.2l-8.3-3.4c-1.6 2.4-3 4.9-4.2 7.5l7.3 5.2c-.5 1.2-1 2.5-1.4 3.8l-8.9-.9c-.8 2.7-1.4 5.5-1.9 8.4l8.5 3c-.2 1.3-.3 2.7-.3 4l-8.8 1.6v.4c0 2.8.2 5.5.6 8.2l9 .5c.2 1.3.5 2.7.8 4l-8 4c.8 2.8 1.8 5.5 2.9 8l8.7-2.1c.6 1.2 1.2 2.4 1.9 3.6l-6.6 6.1c1.5 2.4 3.2 4.7 5.1 6.9l7.8-4.5c.9 1 1.9 2 2.8 2.9l-4.6 7.7c2.1 1.9 4.4 3.6 6.8 5.2l6.2-6.5c1.2.7 2.3 1.4 3.5 2l-2.2 8.7c2.6 1.2 5.3 2.2 8 3l4.2-8 3.9.9.3 9c2.8.4 5.6.6 8.5.7l1.7-8.8c1.4 0 2.7-.1 4-.3l2.9 8.5c2.9-.4 5.7-1 8.4-1.8l-.8-9c1.3-.4 2.6-.9 3.8-1.4l5.1 7.4c2.6-1.2 5.1-2.5 7.5-4.1l-3.3-8.4c1.1-.8 2.2-1.6 3.2-2.4l7 5.6c2.2-1.9 4.2-3.9 6.1-6l-5.5-7.1c.9-1 1.7-2.1 2.4-3.2l8.3 3.4c1.6-2.4 2.9-4.9 4.2-7.5l-7.3-5.2c.5-1.2 1-2.5 1.4-3.8l8.9.9c.8-2.7 1.4-5.5 1.9-8.4l-8.5-3c.2-1.3.3-2.7.3-4l8.8-1.6zm-60.3 44.2c-24.6 0-44.5-19.9-44.5-44.5s19.9-44.5 44.5-44.5 44.5 19.9 44.5 44.5c0 24.5-19.9 44.5-44.5 44.5zM-753.8 59.3c-23.7 0-42.9 19.2-42.9 42.9s19.2 42.9 42.9 42.9 42.9-19.2 42.9-42.9-19.2-42.9-42.9-42.9zm0 79.2c-20.1 0-36.3-16.3-36.3-36.3 0-20.1 16.3-36.3 36.3-36.3 20.1 0 36.3 16.3 36.3 36.3 0 20.1-16.3 36.3-36.3 36.3zM-544.2 181v-.2c0-1.1-.1-2.3-.2-3.4l-3.7-.2c-.1-.5-.2-1.1-.3-1.6l3.3-1.7c-.3-1.1-.7-2.2-1.2-3.3l-3.6.9c-.2-.5-.5-1-.8-1.5l2.7-2.5c-.6-1-1.3-1.9-2.1-2.8l-3.2 1.8-1.2-1.2 1.9-3.2c-.9-.8-1.8-1.5-2.8-2.1l-2.6 2.7c-.5-.3-1-.6-1.5-.8l.9-3.6c-1.1-.5-2.2-.9-3.3-1.3l-1.7 3.3c-.5-.1-1.1-.3-1.6-.4l-.1-3.7c-1.1-.2-2.3-.3-3.5-.3l-.7 3.6c-.6 0-1.1 0-1.7.1l-1.2-3.5c-1.2.2-2.3.4-3.4.7l.3 3.7c-.5.2-1 .4-1.6.6l-2.1-3c-1.1.5-2.1 1-3.1 1.7l1.4 3.4c-.5.3-.9.6-1.3 1l-2.9-2.3c-.9.8-1.7 1.6-2.5 2.5l2.3 2.9c-.4.4-.7.9-1 1.3l-3.4-1.4c-.6 1-1.2 2-1.7 3.1l3 2.1c-.2.5-.4 1-.6 1.6l-3.7-.4c-.3 1.1-.6 2.3-.8 3.4l3.5 1.2c-.1.5-.1 1.1-.1 1.7l-3.6.7v.2c0 1.1.1 2.3.2 3.4l3.7.2c.1.5.2 1.1.3 1.6l-3.3 1.7c.3 1.1.7 2.2 1.2 3.3l3.6-.9c.2.5.5 1 .8 1.5l-2.7 2.5c.6 1 1.3 1.9 2.1 2.8l3.2-1.8 1.2 1.2-1.9 3.2c.9.8 1.8 1.5 2.8 2.1l2.6-2.7c.5.3 1 .6 1.4.8l-.9 3.6c1.1.5 2.2.9 3.3 1.2l1.7-3.3c.5.1 1.1.3 1.6.4l.1 3.7c1.1.2 2.3.3 3.5.3l.7-3.6c.6 0 1.1 0 1.7-.1l1.2 3.5c1.2-.2 2.3-.4 3.4-.7l-.3-3.7c.5-.2 1-.4 1.6-.6l2.1 3c1.1-.5 2.1-1 3.1-1.7l-1.4-3.4c.5-.3.9-.6 1.3-1l2.9 2.3c.9-.8 1.7-1.6 2.5-2.5l-2.3-2.9c.4-.4.7-.9 1-1.3l3.4 1.4c.6-1 1.2-2 1.7-3.1l-3-2.1.6-1.5 3.7.4c.3-1.1.6-2.3.8-3.4l-3.5-1.2c.1-.5.1-1.1.1-1.7l3.7-.7zm-24.8 18.2c-10.1 0-18.3-8.2-18.3-18.3 0-10.1 8.2-18.3 18.3-18.3s18.3 8.2 18.3 18.3c0 10.1-8.2 18.3-18.3 18.3zM-569 163.3c-9.7 0-17.6 7.9-17.6 17.6 0 9.7 7.9 17.6 17.6 17.6 9.7 0 17.6-7.9 17.6-17.6 0-9.7-7.9-17.6-17.6-17.6zm0 32.5c-8.2 0-14.9-6.7-14.9-14.9s6.7-14.9 14.9-14.9 14.9 6.7 14.9 14.9-6.7 14.9-14.9 14.9zM-516 107.6c.1-1 .1-2.1.1-3.2 0-1.7-.1-3.3-.3-4.9l12.8-7.9c-1.4-5.3-3.6-10.2-6.5-14.6l-14.4 4.1c-1.7-2.1-3.7-3.9-5.8-5.6l3.4-14.6c-4.6-2.7-9.6-4.6-14.9-5.8l-7.3 13.1c-1-.1-2.1-.1-3.2-.1-1.7 0-3.3.1-4.9.3l-7.9-12.8c-5.3 1.4-10.2 3.6-14.6 6.5l4.1 14.4c-2.1 1.7-3.9 3.7-5.6 5.8l-14.6-3.4c-2.7 4.6-4.7 9.6-5.8 14.9l13.1 7.3c-.1 1-.1 2.1-.1 3.2 0 1.7.1 3.3.3 4.9l-12.8 7.9c1.4 5.3 3.6 10.2 6.5 14.6l14.4-4.1c1.7 2.1 3.7 3.9 5.8 5.6l-3.4 14.6c4.6 2.7 9.6 4.7 14.9 5.8l7.3-13.1c1.1.1 2.1.1 3.2.1 1.6 0 3.3-.1 4.9-.3l7.9 12.8c5.3-1.4 10.2-3.6 14.6-6.5l-4.1-14.4c2.1-1.7 3.9-3.7 5.6-5.8l14.6 3.4c2.7-4.6 4.6-9.6 5.8-14.9l-13.1-7.3zm-36.1 13.6c-9.2 0-16.7-7.5-16.7-16.7s7.5-16.7 16.7-16.7 16.7 7.5 16.7 16.7-7.5 16.7-16.7 16.7zM-697.5-122.9c.2-.4.4-.8.6-1.3.3-.7.5-1.4.7-2.1l6.6-1.2c.3-2.4.2-4.8-.3-7.1l-6.7-.7c-.4-1.1-.9-2.2-1.5-3.3l3.9-5.5c-1.4-1.9-3.2-3.5-5.2-4.9l-5.2 4.2c-.4-.2-.8-.4-1.3-.6-.7-.3-1.4-.5-2.1-.7l-1.2-6.6c-2.4-.3-4.8-.2-7.1.3l-.7 6.7c-1.1.4-2.2.9-3.3 1.5l-5.5-3.9c-1.9 1.4-3.5 3.2-4.9 5.2l4.2 5.2c-.2.4-.4.8-.6 1.3-.3.7-.5 1.4-.7 2.1l-6.6 1.2c-.3 2.4-.2 4.8.3 7.1l6.7.7c.4 1.1.9 2.2 1.5 3.3l-3.9 5.5c1.4 1.9 3.2 3.5 5.2 4.9l5.2-4.2c.4.2.8.4 1.3.6.7.3 1.4.5 2.1.7l1.2 6.6c2.4.3 4.8.2 7.1-.3l.7-6.7c1.1-.4 2.2-.9 3.3-1.5l5.5 3.9c1.9-1.4 3.5-3.2 4.9-5.2l-4.2-5.2zm-17.3-.4c-3.8-1.5-5.7-5.9-4.2-9.7 1.5-3.8 5.9-5.7 9.7-4.2 3.8 1.5 5.7 5.9 4.2 9.7-1.5 3.9-5.8 5.7-9.7 4.2zM-611.1 274.2c.2-.4.3-.8.4-1.2.2-.6.3-1.3.4-1.9l5.9-1.5c.1-2.2-.2-4.4-.8-6.4l-6.1-.1c-.4-1-1-2-1.6-2.8l3.1-5.2c-1.4-1.6-3.1-2.9-5.1-4l-4.4 4.2c-.4-.2-.8-.3-1.2-.4-.6-.2-1.3-.3-1.9-.4l-1.5-5.9c-2.2-.1-4.4.2-6.4.8l-.1 6.1c-1 .4-2 1-2.8 1.6l-5.2-3.1c-1.6 1.4-2.9 3.1-4 5.1l4.2 4.4c-.2.4-.3.8-.4 1.2-.2.6-.3 1.3-.4 1.9l-5.9 1.5c-.1 2.2.2 4.4.8 6.4l6.1.1c.4 1 1 2 1.6 2.8l-3.1 5.2c1.4 1.6 3.1 2.9 5.1 4l4.4-4.2c.4.2.8.3 1.2.4.6.2 1.3.3 1.9.4l1.5 5.9c2.2.1 4.4-.2 6.4-.8l.1-6.1c1-.4 2-1 2.8-1.6l5.2 3.1c1.6-1.4 2.9-3.1 4-5.1l-4.2-4.4zm-15.6 1c-3.6-1.1-5.6-4.9-4.5-8.4 1.1-3.6 4.9-5.6 8.4-4.5 3.6 1.1 5.6 4.9 4.5 8.4-1 3.5-4.8 5.6-8.4 4.5zM-707-47.2l9.7-1.2c0-2.1-.1-4.1-.2-6.1l-9.8-.5c-.1-1.5-.3-3-.6-4.5l9.4-3c-.4-2-.8-4-1.3-6l-9.7 1.2c-.4-1.5-.9-2.9-1.4-4.3l8.7-4.6c-.7-1.9-1.5-3.8-2.4-5.7l-9.4 3c-.7-1.4-1.4-2.7-2.1-4l7.7-6c-1.1-1.8-2.2-3.5-3.4-5.2l-8.7 4.6c-.9-1.2-1.8-2.4-2.8-3.6l6.5-7.3-4.2-4.5-7.7 6.1c-1.1-1-2.2-2-3.4-3l5.1-8.4c-1.6-1.3-3.3-2.5-5-3.7l-6.5 7.3c-1.3-.8-2.5-1.6-3.9-2.3l3.5-9.2c-1.8-1-3.7-1.9-5.5-2.7l-5.1 8.4c-1.4-.6-2.8-1.1-4.2-1.6l1.8-9.6c-1.9-.6-3.9-1.2-5.9-1.7l-3.5 9.2c-1.5-.3-2.9-.6-4.4-.8l.1-9.8c-2-.3-4.1-.5-6.1-.6l-1.8 9.6c-.9 0-1.8-.1-2.7-.1h-1.8l-1.7-9.7c-2.1.1-4.1.3-6.2.5l-.1 9.8c-1.5.2-3 .5-4.4.8l-3.4-9.2c-2 .5-4 1-6 1.6l1.7 9.7c-1.4.5-2.8 1-4.2 1.6l-5-8.5c-1.9.8-3.8 1.7-5.6 2.6l3.4 9.2c-1.3.7-2.6 1.5-3.9 2.3l-6.4-7.4c-1.7 1.1-3.4 2.3-5 3.6l5 8.5c-1.2.9-2.3 1.9-3.4 2.9l-7.6-6.2c-1.5 1.4-2.9 2.9-4.3 4.4l6.4 7.4c-1 1.1-1.9 2.3-2.8 3.5l-8.6-4.7c-1.2 1.7-2.4 3.4-3.4 5.1l7.6 6.2c-.8 1.3-1.5 2.6-2.2 4l-9.3-3.1c-.9 1.8-1.7 3.7-2.5 5.6l8.6 4.7c-.5 1.4-1 2.8-1.4 4.3l-9.7-1.4c-.5 2-1 4-1.4 6l9.3 3.1c-.3 1.5-.5 3-.6 4.5l-9.8.4c-.2 2-.3 4.1-.3 6.1l9.7 1.4c0 1.5.1 3 .2 4.6l-9.6 2.1c.2 2.1.4 4.1.8 6.1l9.8-.4c.3 1.5.6 3 1 4.5l-9.1 3.8c.5 2 1.1 3.9 1.8 5.9l9.6-2.1c.5 1.4 1.1 2.8 1.8 4.2l-8.2 5.3c.9 1.8 1.8 3.7 2.9 5.4l9-3.8c.8 1.3 1.6 2.6 2.5 3.9l-7.1 6.7c1.2 1.7 2.5 3.3 3.8 4.8l8.2-5.3c1 1.2 2.1 2.3 3.1 3.4l-5.8 7.9c1.5 1.4 3 2.8 4.6 4.1l7.1-6.7c1.2 1 2.4 1.9 3.7 2.8l-4.3 8.8c1.7 1.1 3.4 2.2 5.2 3.2l5.8-7.9c1.4.7 2.7 1.4 4.1 2.1l-2.7 9.4c1.9.8 3.8 1.5 5.7 2.2l4.3-8.8c1.5.5 3 .9 4.5 1.3l-1 9.8c2 .5 4 .8 6 1.1l2.7-9.4c1.5.2 3.1.3 4.6.4l.8 9.8c1.2.1 2.5.1 3.7.1h2.4l.9-9.8c1.6-.1 3.1-.2 4.6-.4l2.5 9.5c2-.3 4-.6 6-1l-.8-9.8 4.5-1.2 4.2 8.9c1.9-.6 3.9-1.3 5.7-2.1l-2.5-9.5c1.4-.6 2.8-1.3 4.2-2l5.7 8c1.8-1 3.6-2 5.3-3.1l-4.2-8.9c1.3-.9 2.5-1.8 3.8-2.7l7 6.8c1.6-1.3 3.1-2.6 4.6-4l-5.7-8c1.1-1.1 2.2-2.2 3.2-3.3l8.1 5.5c1.3-1.5 2.6-3.1 3.8-4.8l-7-6.8c.9-1.2 1.8-2.5 2.6-3.8l9 3.9c1-1.7 2-3.5 2.9-5.4l-8.1-5.5c.7-1.4 1.3-2.8 1.8-4.2l9.5 2.3c.7-1.9 1.4-3.8 1.9-5.8l-9-3.9c.4-1.5.7-3 1-4.5l9.8.5c.4-2 .6-4 .8-6.1l-9.5-2.3c-.1-1.7-.1-3.2 0-4.8zm-6.1-2h-51.3c-.1-1.6-.5-3-1.2-4.4l44.4-25.7c5 9 7.9 19.2 8.1 30.1zm-63.3 6.9c-3.3 0-5.9-2.7-5.9-5.9 0-3.3 2.7-5.9 5.9-5.9 3.3 0 5.9 2.7 5.9 5.9s-2.6 5.9-5.9 5.9zm54.4-38.4L-766.5-55c-.9-1.3-1.9-2.4-3.2-3.2l25.7-44.4c9 5.3 16.6 12.9 22 21.9zm-23.5-22.8l-25.7 44.4c-1.3-.7-2.8-1.1-4.4-1.2v-51.3c10.9.2 21.2 3.1 30.1 8.1zm-31.8-8.1v51.3c-1.6.1-3 .5-4.4 1.2l-25.7-44.4c9-5 19.2-7.9 30.1-8.1zm-31.5 8.9l25.7 44.4c-1.3.9-2.3 1.9-3.2 3.2l-44.4-25.7c5.3-8.9 12.8-16.5 21.9-21.9zm-22.9 23.5l44.4 25.7c-.7 1.3-1.1 2.8-1.2 4.4h-51.3c.2-11 3.1-21.2 8.1-30.1zm-8 31.8h51.3c.1 1.6.5 3 1.2 4.4l-44.4 25.7c-5.1-9-8-19.2-8.1-30.1zm8.9 31.5l44.4-25.7c.9 1.3 1.9 2.4 3.2 3.2L-808.9 6c-9-5.3-16.5-12.9-21.9-21.9zM-807.3 7l25.7-44.4c1.3.7 2.8 1.1 4.4 1.2V15c-11-.1-21.2-3-30.1-8zm31.7 8v-51.3c1.6-.1 3-.5 4.4-1.2L-745.5 7c-8.9 5-19.2 7.9-30.1 8zm31.6-8.9l-25.7-44.4c1.3-.9 2.3-1.9 3.2-3.2l44.4 25.7C-727.4-6.9-735 .7-744 6.1zm22.8-23.5L-765.6-43c.7-1.3 1.1-2.8 1.2-4.4h51.3c-.2 10.9-3.1 21.1-8.1 30zM-614.8 325.1l4.5-.6c0-1 0-1.9-.1-2.9l-4.6-.2-.3-2.1 4.4-1.4c-.2-.9-.4-1.9-.6-2.8l-4.5.6c-.2-.7-.4-1.4-.6-2l4-2.1c-.3-.9-.7-1.8-1.1-2.6l-4.4 1.4c-.3-.6-.6-1.3-1-1.9l3.6-2.8c-.5-.8-1-1.6-1.6-2.4l-4 2.1c-.4-.6-.9-1.1-1.3-1.7l3-3.4c-.6-.7-1.3-1.4-2-2.1l-3.6 2.8c-.5-.5-1-.9-1.6-1.4l2.4-3.9c-.7-.6-1.5-1.2-2.3-1.7l-3 3.4c-.6-.4-1.2-.7-1.8-1.1l1.6-4.3c-.8-.5-1.7-.9-2.6-1.3l-2.4 3.9c-.6-.3-1.3-.5-2-.8l.9-4.5c-.9-.3-1.8-.6-2.8-.8l-1.6 4.3c-.7-.2-1.4-.3-2.1-.4v-4.6c-.9-.1-1.9-.2-2.9-.3l-.8 4.5h-2.1l-.8-4.5c-1 0-1.9.1-2.9.2v4.6c-.7.1-1.4.2-2.1.4l-1.6-4.3c-.9.2-1.9.5-2.8.7l.8 4.5c-.7.2-1.3.5-2 .7l-2.3-3.9c-.9.4-1.8.8-2.6 1.2l1.6 4.3c-.6.3-1.2.7-1.8 1.1l-3-3.5c-.8.5-1.6 1.1-2.3 1.7l2.3 3.9c-.5.4-1.1.9-1.6 1.4l-3.6-2.9c-.7.7-1.4 1.3-2 2.1l3 3.5c-.5.5-.9 1.1-1.3 1.6l-4-2.2c-.6.8-1.1 1.6-1.6 2.4l3.6 2.9c-.4.6-.7 1.2-1 1.8l-4.3-1.4c-.4.9-.8 1.7-1.2 2.6l4 2.2c-.2.7-.5 1.3-.7 2l-4.5-.7c-.3.9-.5 1.8-.7 2.8l4.3 1.4-.3 2.1-4.6.2c-.1.9-.1 1.9-.2 2.9l4.5.6c0 .7 0 1.4.1 2.1l-4.5 1c.1 1 .2 1.9.4 2.8l4.6-.2c.1.7.3 1.4.5 2.1l-4.2 1.8c.2.9.5 1.8.9 2.7l4.5-1c.3.7.5 1.3.8 2l-3.8 2.5c.4.9.9 1.7 1.3 2.5l4.2-1.8 1.2 1.8-3.3 3.1c.6.8 1.1 1.5 1.8 2.3l3.8-2.5c.5.5 1 1.1 1.5 1.6l-2.7 3.7c.7.7 1.4 1.3 2.1 1.9l3.3-3.1c.6.4 1.1.9 1.7 1.3l-2 4.1 2.4 1.5 2.7-3.7c.6.3 1.3.7 1.9 1l-1.3 4.4c.9.4 1.8.7 2.7 1l2-4.1 2.1.6-.4 4.6c.9.2 1.9.4 2.8.5l1.2-4.4c.7.1 1.4.2 2.2.2l.4 4.6h2.8l.4-4.6c.7 0 1.4-.1 2.2-.2l1.2 4.4c.9-.1 1.9-.3 2.8-.5l-.4-4.6 2.1-.6 2 4.1c.9-.3 1.8-.6 2.7-1l-1.2-4.4c.7-.3 1.3-.6 2-.9l2.7 3.7c.8-.5 1.7-.9 2.5-1.4l-2-4.1c.6-.4 1.2-.8 1.8-1.3l3.3 3.2c.7-.6 1.5-1.2 2.2-1.9l-2.7-3.7 1.5-1.5 3.8 2.6c.6-.7 1.2-1.5 1.8-2.2l-3.3-3.2 1.2-1.8 4.2 1.8c.5-.8.9-1.7 1.4-2.5l-3.8-2.5c.3-.6.6-1.3.9-2l4.4 1.1.9-2.7-4.2-1.8c.2-.7.3-1.4.5-2.1l4.6.2c.2-.9.3-1.9.4-2.8l-4.5-1.1c-.1-.5-.1-1.2-.1-1.9zm-2.8-1h-23.9c-.1-.7-.2-1.4-.5-2l20.7-12c2.3 4.2 3.6 9 3.7 14zm-29.5 3.2c-1.5 0-2.8-1.2-2.8-2.8 0-1.5 1.2-2.8 2.8-2.8 1.5 0 2.8 1.2 2.8 2.8-.1 1.6-1.3 2.8-2.8 2.8zm25.3-17.9l-20.7 12c-.4-.6-.9-1.1-1.5-1.5l12-20.7c4.2 2.5 7.7 6 10.2 10.2zm-10.9-10.6l-12 20.7c-.6-.3-1.3-.5-2-.5v-24c5.1.1 9.8 1.4 14 3.8zm-14.8-3.8v24c-.7.1-1.4.2-2 .5l-12-20.7c4.1-2.4 8.9-3.7 14-3.8zm-14.7 4.2l12 20.7c-.6.4-1.1.9-1.5 1.5l-20.7-12c2.4-4.2 6-7.7 10.2-10.2zm-10.7 10.9l20.7 12c-.3.6-.5 1.3-.5 2h-23.9c0-5 1.4-9.8 3.7-14zm-3.7 14.8h23.9c.1.7.2 1.4.5 2l-20.7 12c-2.3-4.1-3.7-8.9-3.7-14zm4.1 14.8l20.7-12c.4.6.9 1.1 1.5 1.5l-12 20.7c-4.1-2.5-7.7-6-10.2-10.2zm11 10.6l12-20.7c.6.3 1.3.5 2 .5V354c-5.1 0-9.9-1.4-14-3.7zm14.8 3.8v-23.9c.7-.1 1.4-.2 2-.5l12 20.7c-4.2 2.2-8.9 3.6-14 3.7zm14.7-4.2l-12-20.7c.6-.4 1.1-.9 1.5-1.5l20.7 12c-2.5 4.2-6 7.7-10.2 10.2zm10.7-10.9l-20.7-12c.3-.6.5-1.3.5-2h23.9c-.1 5-1.4 9.8-3.7 14zM-753 192.6l4.7-2c-.3-1-.6-2-1-3l-5 1.1c-.3-.7-.6-1.5-.9-2.2l4.3-2.8c-.5-1-1-1.9-1.5-2.8l-4.7 2c-.4-.7-.9-1.3-1.3-2l3.7-3.5c-.6-.9-1.3-1.7-2-2.5l-4.3 2.8c-.5-.6-1.1-1.2-1.6-1.7l3-4.1-2.4-2.1-3.7 3.5c-.6-.5-1.3-.9-1.9-1.4l2.2-4.6c-.9-.6-1.8-1.1-2.7-1.6l-3 4.1c-.7-.4-1.4-.7-2.1-1l1.4-4.9c-1-.4-2-.8-3-1.1l-2.2 4.6c-.7-.2-1.5-.4-2.3-.6l.5-5.1c-1-.2-2.1-.4-3.1-.6l-1.4 4.9c-.8-.1-1.6-.2-2.3-.2l-.4-5.1h-3.2l-.5 5.1c-.8 0-1.6.1-2.3.2l-1.3-4.9c-1.1.1-2.1.3-3.2.6l.4 5.1c-.5.1-.9.2-1.4.4l-.9.3-2.2-4.6c-1 .3-2 .7-3 1.1l1.3 4.9c-.7.3-1.4.6-2.1 1l-3-4.1c-.9.5-1.9 1.1-2.8 1.6l2.2 4.6c-.6.4-1.3.9-1.9 1.4l-3.7-3.5-2.4 2.1 3 4.1c-.6.5-1.1 1.1-1.6 1.7l-4.2-2.8c-.7.8-1.4 1.6-2 2.5l3.7 3.5c-.5.6-.9 1.3-1.3 1.9l-4.7-2c-.5.9-1.1 1.9-1.5 2.8l4.2 2.8c-.3.7-.6 1.4-.9 2.2l-5-1.2c-.4 1-.7 2-1 3l4.7 2c-.2.8-.4 1.5-.5 2.3l-5.1-.2c-.2 1-.3 2.1-.4 3.2l5 1.1c-.1.8-.1 1.6-.1 2.4l-5.1.7c0 1.1 0 2.1.1 3.2l5.1.2c.1.8.2 1.6.3 2.3l-4.8 1.6c.2 1 .4 2.1.7 3.1l5-.7c.2.8.5 1.5.7 2.3l-4.5 2.4c.4 1 .8 2 1.2 2.9l4.8-1.6c.3.7.7 1.4 1.1 2.1l-4 3.2c.5.9 1.1 1.8 1.7 2.7l4.5-2.4c.5.6 1 1.3 1.5 1.9l-3.4 3.8c.7.8 1.4 1.6 2.2 2.3l4-3.2c.6.5 1.2 1.1 1.8 1.6l-2.6 4.4c.8.7 1.7 1.3 2.6 1.9l3.4-3.8c.7.4 1.3.8 2 1.2l-1.8 4.8c.9.5 1.9 1 2.9 1.4l2.6-4.4c.7.3 1.5.6 2.2.9l-.9 5c1 .3 2 .6 3.1.9l1.8-4.8c.8.2 1.6.3 2.4.4v5.1c1 .1 2.1.2 3.2.3l.9-5h2.4l.9 5c1 0 2.1-.1 3.2-.3v-5.1c.8-.1 1.6-.3 2.4-.4l1.8 4.8c.6-.1 1.2-.3 1.9-.5.4-.1.8-.2 1.2-.4l-.9-5c.8-.3 1.5-.5 2.3-.8l2.6 4.4c1-.4 1.9-.9 2.9-1.4l-1.8-4.8 2.1-1.2 3.3 3.8c.9-.6 1.7-1.2 2.6-1.9l-2.6-4.4c.6-.5 1.2-1 1.8-1.6l4 3.2c.8-.7 1.5-1.5 2.2-2.3l-3.3-3.8c.5-.6 1-1.2 1.5-1.9l4.5 2.4c.6-.9 1.2-1.7 1.8-2.6l-4-3.2c.4-.7.8-1.4 1.1-2.1l4.8 1.6c.5-1 .9-1.9 1.3-2.9l-4.5-2.4c.3-.8.5-1.5.7-2.3l5 .7c.3-1 .5-2.1.7-3.1l-4.8-1.6.3-2.4 5.1-.2c.1-1.1.1-2.1.1-3.2l-5-.7c0-.8 0-1.6-.1-2.4l5-1.1c-.1-1-.2-2.1-.4-3.2l-5.1.2c-.6-.8-.8-1.6-1-2.3zm-3.3-.2l-25.7 7.2c-.3-.8-.7-1.4-1.2-2l18.6-19.1c3.8 3.8 6.7 8.5 8.3 13.9zm-30.7 12.3c-1.6.5-3.3-.5-3.8-2.1s.5-3.3 2.1-3.8 3.3.5 3.8 2.1-.4 3.3-2.1 3.8zm21.8-26.8l-18.6 19.1c-.6-.5-1.3-.9-2.1-1.2l6.6-25.8c5.3 1.4 10.2 4.1 14.1 7.9zm-14.9-8.1l-6.6 25.8c-.8-.1-1.6-.1-2.4 0l-7.2-25.7c5.5-1.4 11-1.4 16.2-.1zm-17 .4l7.2 25.7c-.8.3-1.4.7-2 1.2l-19.1-18.6c3.7-3.8 8.5-6.7 13.9-8.3zm-14.5 8.9l19.1 18.6c-.5.6-.9 1.3-1.2 2.1l-25.8-6.6c1.4-5.3 4.1-10.2 7.9-14.1zm-8.2 14.9l25.8 6.6c-.1.8-.1 1.6 0 2.4l-25.7 7.2c-1.3-5.5-1.3-11-.1-16.2zm.5 17l25.7-7.2c.3.8.7 1.4 1.2 2l-18.6 19.1c-3.9-3.7-6.7-8.4-8.3-13.9zm8.8 14.6l18.6-19.1c.6.5 1.3.9 2.1 1.2l-6.6 25.8c-5.3-1.5-10.1-4.2-14.1-7.9zm15 8.1l6.6-25.8c.8.1 1.6.1 2.4 0l7.2 25.7c-5.5 1.3-11.1 1.3-16.2.1zm17-.4l-7.2-25.7c.8-.3 1.4-.7 2-1.2l19.1 18.6c-3.8 3.8-8.5 6.6-13.9 8.3zm14.5-8.9l-19.1-18.6c.5-.6.9-1.3 1.2-2.1l25.8 6.6c-1.4 5.3-4.1 10.1-7.9 14.1zm8.2-15l-25.8-6.6c.1-.8.1-1.6 0-2.4l25.7-7.2c1.3 5.5 1.3 11.1.1 16.2zM-807 60.7v-7.9l-11.3-4c-.3-1.6-.8-3.3-1.3-4.8l7.8-9.1-4-6.9-11.8 2.2c-1.1-1.2-2.3-2.4-3.5-3.5l2.2-11.8-6.9-4-9.1 7.8c-1.5-.5-3.2-1-4.8-1.3l-4-11.4h-7.9l-4 11.4c-1.6.3-3.2.8-4.8 1.3l-9.1-7.8-6.9 4 2.2 11.8c-1.2 1.1-2.4 2.2-3.5 3.5l-11.8-2.2-4 6.9 7.8 9.1c-.5 1.6-1 3.2-1.3 4.8l-11.3 4v7.9l11.2 3.9c.3 1.7.8 3.3 1.3 4.9l-7.7 9 4 6.9 11.7-2.2c1.1 1.3 2.3 2.5 3.6 3.7l-2.2 11.6 6.9 4 8.9-7.7c1.6.5 3.3 1 5 1.3l3.9 11.2h7.9l3.9-11.2c1.7-.3 3.4-.8 5-1.3l8.9 7.7 6.9-4-2.2-11.6c1.3-1.1 2.5-2.3 3.6-3.6l11.7 2.2 4-6.9-7.8-9c.5-1.6 1-3.2 1.3-4.9l11.5-4zm-50.5 16.2c-11.1 0-20.1-9-20.1-20.1 0-11.1 9-20.1 20.1-20.1 11.1 0 20.1 9 20.1 20.1 0 11.1-9 20.1-20.1 20.1zM-684.2 346.3v-2.6l-3.7-1.3c-.1-.5-.3-1.1-.4-1.6l2.5-2.9-1.3-2.2-3.8.7c-.4-.4-.7-.8-1.1-1.1l.7-3.8-2.2-1.3-3 2.5c-.5-.2-1-.3-1.6-.4l-1.3-3.7h-2.6l-1.3 3.7c-.5.1-1 .2-1.5.4l-3-2.5-2.2 1.3.7 3.8c-.4.3-.8.7-1.1 1.1l-3.8-.7-1.3 2.2 2.5 2.9c-.2.5-.3 1-.4 1.6l-3.7 1.3v2.6l3.6 1.3c.1.5.2 1.1.4 1.6l-2.5 2.9 1.3 2.2 3.8-.7 1.2 1.2-.7 3.8 2.2 1.3 2.9-2.5c.5.2 1.1.3 1.6.4l1.3 3.6h2.6l1.3-3.6c.6-.1 1.1-.3 1.6-.4l2.9 2.5 2.2-1.3-.7-3.8 1.2-1.2 3.8.7 1.3-2.2-2.5-2.9c.2-.5.3-1 .4-1.6l3.7-1.3zm-16.4 5.3c-3.6 0-6.5-2.9-6.5-6.5s2.9-6.5 6.5-6.5 6.5 2.9 6.5 6.5-2.9 6.5-6.5 6.5zM-495.5 29v-4.4l-6.2-2.2c-.2-.9-.4-1.8-.7-2.6l4.3-5-2.2-3.8-6.5 1.2c-.6-.7-1.2-1.3-1.9-1.9l1.2-6.5-3.8-2.2-5 4.3c-.8-.3-1.7-.5-2.6-.7l-2.2-6.2h-4.4l-2.2 6.2c-.9.2-1.8.4-2.6.7l-5-4.3-3.8 2.2 1.2 6.5c-.7.6-1.3 1.2-1.9 1.9l-6.5-1.2-2.2 3.8 4.3 5c-.3.9-.5 1.7-.7 2.6l-6.2 2.2V29l6.2 2.2c.2.9.4 1.8.7 2.7l-4.2 4.9 2.2 3.8 6.4-1.2c.6.7 1.3 1.4 2 2l-1.2 6.4 3.8 2.2 4.9-4.2c.9.3 1.8.5 2.7.7l2.1 6.1h4.4l2.1-6.1c.9-.2 1.8-.4 2.7-.7l4.9 4.2 3.8-2.2-1.2-6.4c.7-.6 1.4-1.3 2-2l6.4 1.2 2.2-3.8-4.3-4.9c.3-.9.5-1.8.7-2.7l6.3-2.2zm-27.7 8.9c-6.1 0-11-4.9-11-11s4.9-11 11-11 11 4.9 11 11-4.9 11-11 11zM-585.2 231.1l1.4-4.3-5.4-4.1c.1-.9.1-1.9.1-2.8l5.8-3.5-.9-4.4-6.7-.8c-.4-.8-.8-1.7-1.3-2.5l3.2-6-3-3.3-6.2 2.6c-.7-.5-1.5-1.1-2.3-1.5l-.2-6.8-4.3-1.4-4.1 5.4c-.9-.1-1.9-.1-2.8-.1l-3.5-5.8-4.4.9-.8 6.7c-.8.4-1.7.8-2.5 1.3l-5.9-3.3-3.3 3 2.6 6.2c-.6.7-1.1 1.5-1.5 2.4l-6.7.2-1.4 4.3 5.4 4.1c-.1 1-.2 1.9-.2 2.9l-5.7 3.5.9 4.4 6.6.8c.4.9.8 1.8 1.3 2.6l-3.2 5.9 3 3.3 6.1-2.6c.8.6 1.6 1.1 2.5 1.6l.2 6.7 4.3 1.4 4-5.3c1 .1 1.9.2 2.9.2l3.5 5.7 4.4-.9.8-6.6c.9-.4 1.7-.8 2.6-1.3l5.9 3.2 3.3-3-2.6-6.2c.6-.8 1.1-1.6 1.5-2.4l6.6-.4zm-29.9-.1c-6-1.9-9.2-8.3-7.3-14.3 1.9-6 8.3-9.2 14.3-7.3 6 1.9 9.2 8.3 7.3 14.3-1.9 6-8.3 9.3-14.3 7.3z"/></g><g fill="#590D0B"><path d="M247 444.1c0 7.1-5.8 12.9-12.9 12.9H104.2c-7.1 0-12.9-5.8-12.9-12.9v-5.9c0-7.1 5.8-12.9 12.9-12.9h129.9c7.1 0 12.9 5.8 12.9 12.9v5.9zM247 478c0 7.1-5.8 12.9-12.9 12.9H104.2c-7.1 0-12.9-5.8-12.9-12.9v-6c0-7.1 5.8-12.9 12.9-12.9h129.9c7.1 0 12.9 5.8 12.9 12.9v6zM239.6 511.8c0 7.1-5.8 12.9-12.9 12.9H111.6c-7.1 0-12.9-5.8-12.9-12.9v-5.9c0-7.1 5.8-12.9 12.9-12.9h115.2c7.1 0 12.9 5.8 12.9 12.9v5.9zM210.2 544.9c0 7.1-5.8 12.9-12.9 12.9H141c-7.1 0-12.9-5.8-12.9-12.9V539c0-7.1 5.8-12.9 12.9-12.9h56.4c7.1 0 12.9 5.8 12.9 12.9v5.9z"/></g><g fill="#A32B26"><path d="M247.8 259.5l4.8.9c.3-1 .6-1.9.8-2.9l-4.5-1.7c.2-.7.3-1.5.4-2.2h4.9l.3-3-4.8-.9v-2.3l4.8-.8c0-1-.1-2-.3-3h-4.9c-.1-.7-.2-1.5-.4-2.2l4.6-1.7c-.2-1-.5-2-.8-2.9l-4.8.8c-.2-.7-.5-1.4-.8-2.1l4.2-2.5c-.4-.9-.8-1.9-1.3-2.8l-4.6 1.7c-.4-.7-.7-1.3-1.1-1.9l3.7-3.2c-.6-.8-1.1-1.7-1.8-2.5l-4.2 2.5c-.5-.6-1-1.1-1.5-1.7l3.1-3.8c-.7-.7-1.4-1.4-2.2-2.1l-3.7 3.2c-.6-.5-1.1-1-1.7-1.4l2.3-4.3c-.8-.6-1.7-1.2-2.5-1.7l-3.1 3.8c-.6-.4-1.3-.7-2-1.1l1.5-4.6c-.9-.4-1.8-.8-2.8-1.2l-2.3 4.3c-.4-.2-.8-.3-1.3-.4-.3-.1-.6-.2-.8-.3l.7-4.8c-1-.3-2-.5-3-.7l-1.5 4.6c-.7-.1-1.5-.2-2.2-.3l-.2-4.8c-1-.1-2-.2-3-.2l-.7 4.8c-.7 0-1.5 0-2.2.1l-1-4.7c-1 .1-2 .2-3 .4l.2 4.8c-.7.1-1.5.3-2.2.5l-1.9-4.5c-1 .3-2 .6-2.9.9l1 4.7-2.1.9-2.6-4.1c-.9.4-1.8.9-2.7 1.4l1.9 4.5c-.6.4-1.3.8-1.9 1.2l-3.3-3.5c-.8.6-1.6 1.2-2.4 1.9l2.6 4.1c-.6.5-1.1 1-1.6 1.5l-3.9-2.9c-.7.7-1.4 1.5-2 2.3l3.3 3.5c-.5.6-.9 1.2-1.3 1.8l-4.4-2.1c-.6.8-1.1 1.7-1.6 2.6l3.9 2.9c-.4.7-.7 1.3-1 2l-4.7-1.3c-.4.9-.8 1.9-1.1 2.8l4.4 2.1c-.2.7-.4 1.4-.6 2.2l-4.8-.5-.6 3 4.7 1.3c-.1.8-.2 1.5-.2 2.3l-4.8.4c0 1-.1 2 0 3l4.8.5c0 .8.1 1.5.2 2.3l-4.7 1.3c.1 1 .3 2 .5 3l4.8-.4c.2.7.4 1.5.6 2.2l-4.4 2.1c.3 1 .7 1.9 1 2.8l4.7-1.3c.3.7.6 1.4 1 2.1l-3.9 2.8c.5.9 1 1.8 1.5 2.6l4.4-2.1c.4.6.9 1.3 1.3 1.9l-3.4 3.5c.6.8 1.3 1.6 2 2.3l3.9-2.8 1.6 1.6-2.7 4c.8.7 1.5 1.3 2.3 1.9l3.4-3.5c.6.4 1.3.9 1.9 1.3l-1.9 4.4c.9.5 1.7 1 2.7 1.5l2.7-4 2.1.9-1.1 4.7c.6.2 1.1.4 1.7.6.4.1.8.2 1.1.3l1.9-4.4c.7.2 1.5.4 2.2.5l-.3 4.8c1 .2 2 .3 3 .4l1.1-4.7c.8.1 1.5.1 2.3.1l.6 4.8c1 0 2 0 3-.1l.3-4.8c.8-.1 1.5-.2 2.3-.3l1.5 4.6c1-.2 2-.4 3-.7l-.6-4.8c.7-.2 1.5-.4 2.2-.7l2.3 4.3c.9-.4 1.9-.7 2.8-1.2l-1.5-4.6c.7-.3 1.4-.7 2-1.1l3 3.8c.9-.5 1.7-1.1 2.5-1.6l-2.3-4.3c.6-.5 1.2-.9 1.8-1.4l3.6 3.2c.8-.7 1.5-1.4 2.2-2.1l-3-3.8c.5-.6 1-1.1 1.5-1.7l4.1 2.5 1.8-2.4-3.6-3.2c.4-.6.8-1.3 1.2-1.9l4.5 1.7c.5-.9.9-1.8 1.3-2.7l-4.1-2.5c.3-.9.5-1.6.8-2.3zm-2.1-2.9l-14.8-4.9c.7-3.2.3-6.4-.8-9.3l13.9-7c2.9 6.4 3.7 13.9 1.7 21.2zm-33.1.1c-4.6-1.5-7.1-6.4-5.6-11s6.4-7.1 11-5.6 7.1 6.4 5.6 11-6.4 7.1-11 5.6zm30-24l-14 7c-1.6-2.6-4-4.7-7-6l4.9-14.8c7.1 2.8 12.6 7.7 16.1 13.8zm-18.8-14.6l-4.9 14.8c-3.1-.7-6.3-.5-9.2.6l-7-14c6.4-2.8 13.8-3.5 21.1-1.4zm-23.8 2.7l7 13.9c-2.6 1.6-4.8 4-6.2 6.9l-14.8-4.9c2.8-6.9 7.8-12.4 14-15.9zm-14.9 18.8l14.8 4.9c-.8 3.2-.6 6.5.5 9.5l-14 7c-2.8-6.6-3.5-14.1-1.3-21.4zm2.6 24l13.9-7c1.7 2.7 4.1 5 7.2 6.3l-4.9 14.8c-7.1-2.7-12.7-7.8-16.2-14.1zm19.1 15.1l4.9-14.8c3.3.8 6.6.4 9.6-.8l7 13.9c-6.5 3-14.1 3.8-21.5 1.7zm24.1-3l-7-14c2.6-1.7 4.8-4.2 6.1-7.3l14.8 4.9c-2.7 7.2-7.7 12.9-13.9 16.4zM251.4 35.5l4.4-2.9c-.5-1-1-2-1.5-2.9l-4.9 2c-.4-.7-.9-1.4-1.3-2.1l3.8-3.6c-.6-.9-1.3-1.8-2-2.6l-4.4 2.9c-.5-.6-1.1-1.2-1.7-1.8l3.1-4.2c-.8-.8-1.6-1.5-2.5-2.2l-3.8 3.6c-.6-.5-1.3-1-2-1.4l2.3-4.7c-.9-.6-1.9-1.2-2.8-1.7l-3.1 4.2c-.7-.4-1.4-.7-2.2-1.1l1.4-5.1c-1-.4-2-.8-3.1-1.2l-2.3 4.7c-.8-.2-1.6-.5-2.3-.7l.5-5.2c-1.1-.2-2.2-.5-3.2-.6l-1.4 5.1c-.8-.1-1.6-.2-2.4-.2l-.4-5.2c-1.1-.1-2.2-.1-3.3 0l-.5 5.2c-.8 0-1.6.1-2.4.2L212 9c-1.1.1-2.2.3-3.3.6l.4 5.2c-.8.2-1.6.4-2.3.6l-2.2-4.8c-1 .3-2.1.7-3.1 1.1l1.4 5.1c-.4.2-.9.4-1.3.6-.3.1-.6.3-.8.4l-3-4.3c-1 .5-1.9 1.1-2.9 1.7L197 20c-.7.4-1.3.9-2 1.4l-3.8-3.7c-.9.7-1.7 1.4-2.5 2.2l3.1 4.3-1.7 1.7-4.4-2.9c-.7.8-1.4 1.7-2.1 2.6l3.8 3.7c-.5.7-.9 1.3-1.3 2l-4.8-2.1c-.6.9-1.1 1.9-1.6 2.9L184 35c-.3.7-.7 1.5-1 2.2l-5.1-1.2c-.4 1-.7 2.1-1.1 3.1l4.8 2.1-.6 2.4-5.3-.3c-.2 1.1-.4 2.2-.5 3.3l5.1 1.2c-.1.8-.1 1.6-.1 2.4l-5.2.7c0 1.1 0 2.2.1 3.3l5.3.3.3 2.4-5 1.6c.2 1.1.4 2.2.7 3.2l5.2-.7c.2.8.5 1.6.7 2.3l-4.7 2.4c.4 1 .8 2 1.3 3l5-1.6c.4.7.7 1.5 1.1 2.2l-4.1 3.2c.6 1 1.2 1.9 1.8 2.8l4.6-2.5c.5.7 1 1.3 1.5 1.9l-3.5 3.9c.7.8 1.5 1.6 2.2 2.4l4.1-3.2c.6.6 1.2 1.1 1.8 1.6l-2.7 4.5c.9.7 1.7 1.3 2.6 2l3.5-3.9c.7.5 1.4.9 2.1 1.3l-1.9 4.9c1 .5 1.9 1 2.9 1.5l2.7-4.5c.8.3 1.5.6 2.3.9l-1 5.2c1 .3 2.1.6 3.2.9l1.9-4.9c.8.2 1.6.3 2.4.5v5.3c1.1.2 2.2.3 3.3.3l1-5.2h2.5l.9 5.2c1.1 0 2.2-.1 3.3-.3v-5.3c.8-.1 1.6-.3 2.5-.4l1.8 4.9c1.1-.2 2.1-.5 3.2-.8l-.9-5.2c.8-.3 1.6-.5 2.3-.9l2.7 4.5c.6-.3 1.2-.5 1.8-.8l1.2-.6-1.8-4.9c.7-.4 1.4-.8 2.1-1.3l3.4 4c.9-.6 1.8-1.2 2.7-1.9l-2.7-4.5c.6-.5 1.3-1.1 1.9-1.6l4.1 3.3c.8-.8 1.6-1.5 2.3-2.3l-3.4-4c.5-.6 1.1-1.3 1.6-1.9l4.6 2.5c.6-.9 1.3-1.8 1.8-2.7l-4.1-3.3c.4-.7.8-1.4 1.2-2.2l5 1.7c.5-1 .9-2 1.3-3l-4.6-2.5c.3-.8.5-1.6.8-2.4l5.2.8c.3-1.1.5-2.1.8-3.2l-5-1.7c.1-.8.3-1.6.4-2.5l5.3-.2c.1-1.1.2-2.2.2-3.3l-5.2-.7c0-.8 0-1.6-.1-2.5l5.1-1.1c-.1-1.1-.2-2.2-.4-3.3l-5.3.2c-.2-.8-.3-1.6-.5-2.4l4.9-2c-.3-1.1-.6-2.1-1-3.1l-5.1 1.1c-.4-.6-.7-1.4-1.1-2.1zm-3.8-.8L232.3 42c-1.9-3-4.5-5.3-7.6-6.6l5.7-15.9c7.1 2.8 13.3 8 17.2 15.2zm-25.9 24.9c-4.7 2.3-10.4.3-12.6-4.4-2.3-4.7-.3-10.4 4.4-12.6 4.7-2.3 10.4-.3 12.6 4.4 2.3 4.7.3 10.3-4.4 12.6zm5.7-41.3l-5.7 15.9c-3.2-.8-6.7-.6-9.9.6l-7.2-15.3c7.4-3.1 15.4-3.3 22.8-1.2zm-25.8 2.6l7.2 15.3c-3 1.8-5.3 4.4-6.7 7.3l-15.9-5.7c2.9-7 8.2-13.1 15.4-16.9zm-16.6 20l15.9 5.7c-.9 3.2-.8 6.7.3 10.1L186 63.9c-3.1-7.6-3.3-15.7-1-23zm2.3 25.9l15.3-7.2c1.8 3.1 4.4 5.5 7.5 7l-5.7 15.9c-7.1-3-13.3-8.4-17.1-15.7zm20.1 16.8l5.7-15.9c3.3.9 7 .8 10.4-.4l7.2 15.3c-7.6 3.1-15.9 3.3-23.3 1zm26.2-2.4l-7.2-15.3c3.1-1.9 5.5-4.6 6.9-7.8l15.9 5.7c-2.8 7.2-8.2 13.5-15.6 17.4zm16.7-20.4l-15.9-5.7c.8-3.3.6-6.9-.7-10.3l15.3-7.2c3.2 7.6 3.5 15.8 1.3 23.2zM122.1 349.9l2.1.7c.2-.4.4-.9.5-1.3l-2-1c.1-.3.2-.7.3-1l2.2.3c.1-.5.2-.9.3-1.4l-2.1-.7c.1-.3.1-.7.1-1l2.2-.1V343l-2.2-.3c0-.3 0-.7-.1-1l2.2-.5c-.1-.5-.1-.9-.2-1.4l-2.2.1c-.1-.3-.2-.7-.2-1l2-.9c-.1-.4-.3-.9-.4-1.3l-2.2.5c-.1-.3-.3-.6-.4-.9l1.8-1.2c-.2-.4-.4-.8-.7-1.2l-2 .9c-.2-.3-.4-.6-.6-.8l1.6-1.5c-.3-.4-.6-.7-.9-1.1l-1.8 1.2c-.2-.3-.5-.5-.7-.7l1.3-1.8c-.3-.3-.7-.6-1.1-.9l-1.6 1.6c-.3-.2-.5-.4-.8-.6l.9-2c-.4-.2-.8-.5-1.2-.7l-1.3 1.8-.6-.3c-.1-.1-.2-.1-.4-.2l.6-2.1c-.4-.2-.9-.3-1.3-.5l-.9 2c-.3-.1-.7-.2-1-.3l.2-2.2c-.5-.1-.9-.2-1.4-.2l-.6 2.1c-.3 0-.7-.1-1-.1l-.2-2.2h-1.4l-.2 2.2c-.3 0-.7.1-1 .1l-.6-2.1c-.5.1-.9.2-1.4.3l.2 2.2c-.3.1-.7.2-1 .3l-1-2c-.4.2-.9.3-1.3.5l.6 2.1c-.3.1-.6.3-.9.5l-1.3-1.8c-.4.2-.8.5-1.2.7l1 2c-.3.2-.6.4-.8.6l-1.6-1.5c-.4.3-.7.6-1 .9l1.3 1.8-.7.7-1.9-1.2c-.3.4-.6.7-.9 1.1l1.6 1.5-.6.9-2-.9-.6 1.2 1.9 1.2c-.1.3-.3.6-.4 1l-2.2-.5c-.2.4-.3.9-.4 1.3l2 .8c-.1.3-.2.7-.2 1l-2.2-.1c-.1.5-.1.9-.2 1.4l2.2.5v1l-2.2.3c0 .5 0 .9.1 1.4l2.2.1c0 .3.1.7.1 1l-2.1.7c.1.5.2.9.3 1.3l2.2-.3c.1.3.2.7.3 1l-1.9 1.1c.2.4.4.9.6 1.3l2.1-.7c.2.3.3.6.5.9l-1.7 1.4c.2.4.5.8.8 1.1l1.9-1.1c.2.3.4.5.7.8l-1.4 1.7c.3.3.6.7 1 1l1.7-1.4c.3.2.5.5.8.7l-1.1 1.9c.4.3.7.5 1.1.8l1.4-1.7c.3.2.6.4.9.5l-.8 2.1c.2.1.5.2.8.4.2.1.3.1.5.2l1.1-1.9c.3.1.7.3 1 .4l-.4 2.2c.4.1.9.3 1.3.4l.8-2.1c.3.1.7.1 1 .2v2.2c.5.1.9.1 1.4.1l.4-2.2h1l.4 2.2c.5 0 .9-.1 1.4-.1v-2.2c.3-.1.7-.1 1-.2l.8 2.1c.4-.1.9-.2 1.3-.4l-.4-2.2c.3-.1.7-.2 1-.4l1.2 1.9 1.2-.6-.8-2.1c.3-.2.6-.4.9-.5l1.5 1.7c.4-.3.8-.5 1.1-.8l-1.2-1.9c.3-.2.5-.5.8-.7l1.7 1.4c.3-.3.6-.7.9-1l-1.5-1.7c.2-.3.4-.5.6-.8l2 1c.3-.4.5-.8.7-1.2l-1.7-1.4c.4-.4.6-.7.7-1zm-.7-1.5l-6.5-3c.5-1.4.5-2.9.1-4.3l6.7-2.4c1 3.1.9 6.5-.3 9.7zm-15.1-1.7c-2-.9-2.9-3.3-2-5.3s3.3-2.9 5.3-2c2 .9 2.9 3.3 2 5.3-.9 2.1-3.3 3-5.3 2zm14.9-9.2l-6.7 2.4c-.6-1.3-1.6-2.3-2.9-3.1l3-6.5c3.1 1.7 5.4 4.2 6.6 7.2zm-7.7-7.7l-3 6.5c-1.4-.5-2.8-.5-4.2-.2l-2.4-6.7c3-1 6.4-.9 9.6.4zm-11 0l2.4 6.7c-1.3.6-2.4 1.5-3.2 2.8l-6.5-3c1.8-3 4.3-5.3 7.3-6.5zm-7.8 7.7l6.5 3c-.5 1.4-.6 2.9-.3 4.3l-6.7 2.4c-.9-3-.8-6.5.5-9.7zm0 11.1l6.7-2.4c.6 1.3 1.6 2.5 2.9 3.3l-3 6.5c-3.1-1.8-5.4-4.4-6.6-7.4zm7.8 7.8l3-6.5c1.5.5 3 .5 4.4.2l2.4 6.7c-3.1 1-6.5.9-9.8-.4zm11.1-.1l-2.4-6.7c1.3-.6 2.4-1.6 3.1-3l6.5 3c-1.6 3.2-4.2 5.5-7.2 6.7zM27.1 221.1l1.3-.2v-.8l-1.3-.1c0-.2 0-.4-.1-.6l1.2-.4c-.1-.3-.1-.5-.2-.8l-1.3.2c-.1-.2-.1-.4-.2-.6l1.1-.6c-.1-.3-.2-.5-.3-.7l-1.2.4c-.1-.2-.2-.4-.3-.5l1-.8c-.1-.2-.3-.5-.4-.7l-1.1.6c-.1-.2-.2-.3-.4-.5l.9-1-.6-.6-1 .8c-.1-.1-.3-.3-.5-.4l.7-1.1c-.2-.2-.4-.3-.7-.5l-.9 1c-.2-.1-.3-.2-.5-.3l.5-1.2c-.2-.1-.5-.2-.7-.4l-.7 1.1c-.2-.1-.4-.1-.6-.2l.2-1.3c-.3-.1-.5-.2-.8-.2l-.5 1.2c-.2 0-.4-.1-.6-.1v-1.3c-.3 0-.5-.1-.8-.1l-.2 1.3H17.5l-.2-1.3c-.3 0-.5 0-.8.1v1.3c-.2 0-.4.1-.6.1l-.5-1.2c-.3.1-.5.1-.8.2l.2 1.3c-.2.1-.4.1-.6.2l-.7-1.1c-.3.1-.5.2-.7.4l.5 1.2c-.2.1-.3.2-.5.3l-.9-1c-.2.2-.4.3-.7.5l.7 1.1c-.2.1-.3.3-.5.4l-1-.8-.6.6.9 1c-.1.2-.3.3-.4.5l-1.1-.6c-.2.2-.3.4-.5.7l1 .8c-.1.2-.2.3-.3.5l-1.2-.4c-.1.2-.2.5-.3.7l1.1.6c-.1.2-.1.4-.2.6l-1.3-.2c-.1.3-.1.5-.2.8l1.2.4c0 .2-.1.4-.1.6l-1.3.1v.8l1.3.2v.6l-.9.3c0 .3.1.5.1.8l1.3-.1c0 .2.1.4.1.6l-1.2.5c.1.3.2.5.2.8l1.3-.3c.1.2.2.4.2.6l-1.1.7c.1.2.2.5.4.7l1.2-.5c.1.2.2.3.3.5l-.9.9c.2.2.3.4.5.6l1.1-.7c.1.2.3.3.4.4l-.8 1c.2.2.4.4.6.5l.9-.9c.2.1.3.2.5.4l-.6 1.2c.2.1.5.3.7.4l.8-1.1.6.3-.3 1.3c.2.1.5.2.8.3l.6-1.2c.2.1.4.1.6.2l-.1 1.3c.3.1.5.1.8.1l.3-1.3c.2 0 .4 0 .6.1l.1 1.3h.8l.1-1.3c.2 0 .4 0 .6-.1l.3 1.3c.3 0 .5-.1.8-.1l-.1-1.3c.2 0 .4-.1.6-.2l.6 1.2c.3-.1.5-.2.8-.3l-.3-1.3.6-.3.8 1.1c.2-.1.5-.3.7-.4l-.6-1.2c.2-.1.3-.2.5-.4l.9.9c.2-.2.4-.3.6-.5l-.8-1.1.4-.4 1.1.7c.2-.2.3-.4.5-.6l-.9-.9c.1-.2.2-.3.3-.5l1.2.5c.1-.2.3-.5.4-.7l-1.1-.7c.1-.2.2-.4.2-.6l1.3.3c.1-.3.2-.5.3-.8l-1.2-.5c.1-.2.1-.4.1-.6l1.3.1c0-.3.1-.5.1-.8l-1.3-.3v-.5zm-.7-.5h-4.2c-.1-.9-.5-1.7-1-2.3l3-3c1.2 1.4 2 3.2 2.2 5.3zm-8.4 2.8c-1.3 0-2.3-1-2.4-2.3 0-1.3 1-2.3 2.3-2.4 1.3 0 2.3 1 2.4 2.3 0 1.3-1.1 2.4-2.3 2.4zm5.6-8.6l-3 3c-.6-.5-1.4-.8-2.3-.9v-4.2c2 0 3.9.8 5.3 2.1zm-6.1-2.2v4.2c-.9.1-1.6.4-2.3.9l-3-3c1.5-1.2 3.3-2 5.3-2.1zm-5.8 2.7l3 3c-.5.6-.9 1.4-1 2.3H9.5c.1-2.1 1-3.9 2.2-5.3zm-2.2 6h4.2c.1.9.4 1.7.9 2.4l-3 3c-1.2-1.5-2-3.3-2.1-5.4zm2.7 5.9l3-3c.7.6 1.5.9 2.4 1v4.2c-2.1 0-4-.9-5.4-2.2zm6.1 2.3v-4.2c.9-.1 1.7-.4 2.4-1l3 3c-1.5 1.2-3.3 2.1-5.4 2.2zm5.9-2.8l-3-3c.5-.7.9-1.5.9-2.4h4.2c0 2.1-.8 3.9-2.1 5.4zM290.7 160.6l1.4.2c.1-.3.1-.6.2-.9l-1.4-.5c0-.2.1-.4.1-.7l1.4-.1v-.9l-1.4-.2v-.7l1.4-.3c0-.3-.1-.6-.1-.9l-1.4.1c0-.2-.1-.4-.1-.7l1.3-.6-.3-.9-1.4.3-.3-.6 1.2-.8c-.1-.3-.3-.5-.4-.8l-1.3.6c-.1-.2-.2-.4-.4-.6l1.1-1c-.2-.2-.4-.5-.6-.7l-1.2.8c-.1-.2-.3-.3-.5-.5l.9-1.2c-.2-.2-.4-.4-.7-.6l-1.1 1c-.2-.1-.4-.3-.5-.4l.6-1.3c-.3-.2-.5-.3-.8-.5l-.9 1.2-.6-.3.4-1.4-.9-.3-.4 1.6c-.1 0-.3-.1-.4-.1-.1 0-.2 0-.3-.1l.1-1.4c-.3-.1-.6-.1-.9-.2l-.4 1.4c-.2 0-.4-.1-.7-.1l-.1-1.4h-.9l-.1 1.4c-.2 0-.4 0-.7.1l-.4-1.4c-.3 0-.6.1-.9.2l.1 1.4c-.2.1-.4.1-.6.2l-.6-1.3-.9.3.4 1.4-.6.3-.8-1.2c-.3.1-.5.3-.8.5l.6 1.3c-.2.1-.4.3-.5.4l-1-1c-.2.2-.5.4-.7.6l.8 1.2-.5.5-1.2-.8c-.2.2-.4.5-.6.7l1 1c-.1.2-.3.4-.4.6l-1.3-.6c-.2.3-.3.5-.4.8l1.2.8-.3.6-1.4-.3-.3.9 1.3.6c-.1.2-.1.4-.2.7l-1.4-.1c-.1.3-.1.6-.1.9l1.4.3v.7l-1.4.2v.9l1.4.1c0 .2 0 .5.1.7l-1.4.4c.1.3.1.6.2.9l1.4-.2c.1.2.1.4.2.6l-1.3.7c.1.3.2.6.3.8l1.4-.4.3.6-1.1.9c.2.3.3.5.5.8l1.3-.7c.1.2.3.4.4.5l-1 1.1c.2.2.4.4.6.7l1.1-.9.5.5-.8 1.2c.2.2.5.4.7.5l1-1.1c.2.1.4.2.6.4l-.5 1.4c.3.1.5.3.8.4l.7-1.2c.2.1.4.2.6.2l-.3 1.4c.2.1.3.1.5.2.1 0 .2.1.3.1l.5-1.4c.2.1.4.1.7.1v1.4c.3 0 .6.1.9.1l.3-1.4h.7l.2 1.4c.3 0 .6 0 .9-.1v-1.4c.2 0 .5-.1.7-.1l.5 1.4c.3-.1.6-.1.9-.2l-.3-1.4c.2-.1.4-.2.6-.2l.7 1.2c.3-.1.5-.2.8-.4l-.5-1.4.6-.3.9 1.1c.3-.2.5-.3.7-.5l-.7-1.2c.2-.1.3-.3.5-.4l1.1.9.6-.6-.9-1.1c.1-.2.3-.3.4-.5l1.3.7c.2-.2.3-.5.5-.8l-1.1-.9.3-.6 1.4.5c.1-.3.2-.5.4-.8l-1.3-.7c.7-.8.7-1 .8-1.3zm-.7-.8l-4.5-1.3c.2-1 0-1.9-.4-2.8l4.1-2.3c1 2 1.3 4.2.8 6.4zm-9.8.5c-1.4-.4-2.2-1.8-1.8-3.2.4-1.4 1.8-2.2 3.2-1.8 1.4.4 2.2 1.8 1.8 3.2-.4 1.3-1.8 2.2-3.2 1.8zm8.6-7.6l-4.1 2.3c-.5-.7-1.3-1.3-2.2-1.7l1.3-4.5c2.1.7 3.9 2.1 5 3.9zm-5.8-4.1l-1.3 4.5c-.9-.2-1.9-.1-2.7.3l-2.3-4.1c1.9-.9 4.1-1.2 6.3-.7zm-7.1 1.2l2.3 4.1c-.8.5-1.4 1.3-1.8 2.2l-4.5-1.3c.8-2.2 2.2-3.9 4-5zm-4.2 5.8l4.5 1.3c-.2 1-.1 2 .3 2.8l-4.1 2.3c-.9-2-1.2-4.2-.7-6.4zm1.1 7.1l4.1-2.3c.5.8 1.3 1.4 2.2 1.8l-1.3 4.5c-2.1-.7-3.8-2.2-5-4zm5.9 4.2l1.3-4.5c1 .2 2 0 2.8-.4l2.3 4.1c-1.9 1-4.1 1.3-6.4.8zm7.2-1.2l-2.3-4.1c.8-.5 1.4-1.3 1.7-2.3l4.5 1.3c-.7 2.2-2.1 4-3.9 5.1zM260.6 151.6l6.4-.8c0-1.3-.1-2.7-.2-4l-6.4-.3c-.1-1-.2-2-.4-3l6.1-1.9c-.2-1.3-.5-2.6-.9-3.9l-6.4.8c-.3-1-.6-1.9-.9-2.8l5.7-3c-.5-1.3-1-2.5-1.6-3.7l-6.1 1.9c-.4-.9-.9-1.8-1.4-2.6l5-3.9c-.7-1.2-1.4-2.3-2.2-3.4l-5.7 3c-.6-.8-1.2-1.6-1.8-2.3l4.3-4.8c-.9-1-1.8-2-2.8-2.9l-5 4c-.7-.7-1.5-1.3-2.2-2l3.3-5.5c-1-.8-2.1-1.6-3.2-2.4l-4.2 4.8c-.8-.5-1.7-1-2.5-1.5l2.3-6-3.6-1.8-3.3 5.5c-.9-.4-1.8-.7-2.8-1.1l1.2-6.3c-1.3-.4-2.6-.8-3.9-1.1l-2.3 6c-1-.2-1.9-.4-2.9-.5l.1-6.4c-1.3-.2-2.7-.3-4-.4l-1.2 6.3H214.2l-1.1-6.3c-1.4.1-2.7.2-4 .3v6.4c-1 .1-1.9.3-2.9.5l-2.2-6c-1.3.3-2.6.6-3.9 1l1.1 6.3c-.9.3-1.9.6-2.8 1l-3.2-5.5c-1.2.5-2.5 1.1-3.6 1.7l2.2 6c-.9.5-1.7 1-2.5 1.5l-4.2-4.9c-1.1.7-2.2 1.5-3.3 2.3l3.2 5.5c-.8.6-1.5 1.3-2.2 1.9l-5-4c-1 .9-1.9 1.9-2.8 2.9l4.2 4.8c-.6.7-1.3 1.5-1.9 2.3l-5.6-3.1c-.8 1.1-1.5 2.2-2.3 3.3l5 4c-.5.8-1 1.7-1.4 2.6l-6.1-2c-.6 1.2-1.1 2.4-1.6 3.7l5.6 3.1c-.3.9-.7 1.9-.9 2.8l-6.3-.9c-.4 1.3-.7 2.6-.9 3.9l6.1 2c-.2 1-.3 2-.4 2.9l-6.4.2c-.1 1.3-.2 2.7-.2 4l6.3.9c0 1 0 2 .1 3l-6.3 1.4c.1 1.3.3 2.7.5 4l6.4-.2c.2 1 .4 2 .6 2.9l-5.9 2.5c.4 1.3.8 2.6 1.2 3.8l6.3-1.4c.4.9.7 1.9 1.1 2.8l-5.4 3.5c.6 1.2 1.2 2.4 1.9 3.5l5.9-2.5c.5.9 1.1 1.7 1.6 2.5l-4.7 4.4c.8 1.1 1.6 2.1 2.5 3.2l5.4-3.5c.7.8 1.3 1.5 2.1 2.2l-3.8 5.1 3 2.7 4.7-4.4 2.4 1.8-2.8 5.7c1.1.7 2.2 1.4 3.4 2.1l3.8-5.2c.9.5 1.8.9 2.7 1.3l-1.8 6.2c1.2.5 2.5 1 3.7 1.4l2.8-5.8c1 .3 1.9.6 2.9.8l-.6 6.4c1.3.3 2.6.5 3.9.7l1.7-6.2 3 .3.5 6.4c.8 0 1.6.1 2.4.1h1.6l.6-6.4c1 0 2-.1 3-.2l1.7 6.2c1.3-.2 2.6-.4 3.9-.7l-.5-6.4c1-.2 2-.5 2.9-.8l2.7 5.8c1.3-.4 2.5-.9 3.7-1.4l-1.7-6.2c.9-.4 1.8-.8 2.7-1.3l3.7 5.2c1.2-.6 2.3-1.3 3.4-2l-2.7-5.8c.8-.6 1.7-1.2 2.5-1.8l4.6 4.5c1-.8 2.1-1.7 3-2.6l-3.7-5.2c.7-.7 1.4-1.4 2.1-2.2l5.3 3.6c.9-1 1.7-2 2.5-3.1l-4.6-4.5c.6-.8 1.1-1.7 1.7-2.5l5.9 2.6c.7-1.1 1.3-2.3 1.9-3.5l-5.3-3.6c.4-.9.8-1.8 1.2-2.8l6.2 1.5c.5-1.2.9-2.5 1.3-3.8l-5.9-2.6c.3-1 .5-1.9.7-2.9l6.4.3c.2-1.3.4-2.6.6-4l-6.2-1.5c-.1-.5 0-1.5 0-2.5zm-72.4 12.1c-7.1 0-12.9-5.8-12.9-12.9 0-7.1 5.8-12.9 12.9-12.9 7.1 0 12.9 5.8 12.9 12.9 0 7.2-5.8 12.9-12.9 12.9zm27.1 27.1c-7.1 0-12.9-5.8-12.9-12.9 0-7.1 5.8-12.9 12.9-12.9 7.1 0 12.9 5.8 12.9 12.9-.1 7.1-5.8 12.9-12.9 12.9zm-5.6-40c0-3.1 2.5-5.6 5.6-5.6s5.6 2.5 5.6 5.6c0 3.1-2.5 5.6-5.6 5.6s-5.6-2.4-5.6-5.6zm5.6-14.2c-7.1 0-12.9-5.8-12.9-12.9 0-7.1 5.8-12.9 12.9-12.9 7.1 0 12.9 5.8 12.9 12.9-.1 7.2-5.8 12.9-12.9 12.9zm27.1 27.1c-7.1 0-12.9-5.8-12.9-12.9 0-7.1 5.8-12.9 12.9-12.9 7.1 0 12.9 5.8 12.9 12.9-.1 7.2-5.8 12.9-12.9 12.9zM74.1 233.9l2.9-2.2c-.4-.7-.8-1.3-1.2-1.9l-3.3 1.6c-.3-.5-.7-.9-1-1.4l2.5-2.7c-.5-.6-1-1.1-1.5-1.7l-2.9 2.2c-.4-.4-.8-.8-1.3-1.1l1.9-3.1c-.6-.5-1.2-.9-1.8-1.4l-2.5 2.7c-.5-.3-.9-.6-1.4-.9l1.4-3.4c-.7-.4-1.3-.7-2-1l-1.9 3.1c-.5-.2-1-.4-1.6-.6l.7-3.6c-.7-.2-1.5-.5-2.2-.7l-1.4 3.4c-.5-.1-1.1-.2-1.6-.3l.1-3.6c-.8-.1-1.5-.2-2.3-.3l-.7 3.6h-1.7l-.6-3.6c-.8 0-1.5.1-2.3.1l-.1 3.6c-.6.1-1.1.2-1.7.3l-1.2-3.4c-.7.2-1.5.3-2.2.6l.6 3.6c-.5.2-1.1.3-1.6.6l-1.8-3.2-2.1.9 1.2 3.4c-.3.2-.6.3-.9.5l-.6.3-2.3-2.8c-.7.4-1.3.8-1.9 1.3l1.8 3.2c-.4.3-.9.7-1.3 1.1l-2.8-2.3c-.6.5-1.1 1.1-1.6 1.6l2.3 2.8c-.4.4-.7.8-1.1 1.3l-3.2-1.8c-.5.6-.9 1.2-1.3 1.9l2.8 2.3c-.3.5-.6 1-.8 1.5l-3.4-1.2c-.3.7-.7 1.4-1 2.1l3.2 1.8c-.2.5-.4 1-.6 1.6l-3.6-.6c-.2.7-.4 1.5-.6 2.2l3.4 1.2c-.1.5-.2 1.1-.3 1.7l-3.6.1c-.1.8-.1 1.5-.2 2.3l3.6.6v1.7l-3.6.7c.1.8.1 1.5.2 2.3l3.6-.1c.1.6.2 1.1.3 1.7l-3.4 1.3c.2.7.4 1.5.6 2.2l3.6-.7c.2.5.4 1.1.6 1.6l-3.1 1.9c.3.7.7 1.4 1 2l3.4-1.3c.3.5.6 1 .9 1.4l-2.7 2.4c.4.6.9 1.2 1.4 1.8l3.1-1.9c.4.4.7.9 1.1 1.3l-2.2 2.9c.5.5 1.1 1.1 1.7 1.5l2.7-2.5c.4.4.9.7 1.3 1l-1.7 3.2c.6.4 1.3.8 1.9 1.2l2.2-2.9c.5.3 1 .5 1.5.8l-1.1 3.5 2.1.9 1.7-3.2c.5.2 1.1.4 1.6.5l-.4 3.6c.7.2 1.5.3 2.2.5l1.1-3.5c.6.1 1.1.2 1.7.2l.2 3.6c.8.1 1.5.1 2.3.1l.4-3.6c.6 0 1.1-.1 1.7-.1l.9 3.5c.7-.1 1.5-.2 2.2-.3l-.2-3.6c.6-.1 1.1-.3 1.7-.4l1.5 3.3c.7-.2 1.4-.5 2.1-.7l-.9-3.5c.5-.2 1.1-.5 1.6-.7l2.1 3c.4-.2.8-.4 1.2-.7.3-.1.5-.3.8-.5l-1.5-3.3c.5-.3 1-.6 1.4-1l2.6 2.6c.6-.5 1.2-.9 1.7-1.4l-2.1-3 1.2-1.2 3 2.1c.5-.6 1-1.1 1.5-1.7l-2.6-2.6c.3-.5.7-.9 1-1.4l3.3 1.5c.4-.6.8-1.3 1.1-2l-3-2.1c.3-.5.5-1 .7-1.6l3.5.9c.3-.7.5-1.4.8-2.1l-3.3-1.5c.2-.6.3-1.1.4-1.7l3.6.3c.1-.7.3-1.5.4-2.2l-3.5-.9c.1-.6.1-1.1.1-1.7l3.6-.4v-2.3l-3.6-.3c0-.6-.1-1.1-.2-1.7l3.5-1c-.1-.7-.3-1.5-.5-2.2l-3.6.4c-.1-.5-.3-1.1-.5-1.6l3.3-1.6c-.3-.7-.5-1.4-.8-2.1l-3.5 1c.2-.9 0-1.4-.3-1.9zm-32.3 26.4c-3.5 2-8 .8-10-2.7s-.8-8 2.7-10 8-.8 10 2.7c2 3.6.8 8-2.7 10zm21 5.7c-3.5 2-8 .8-10-2.7s-.8-8 2.7-10 8-.8 10 2.7c2 3.6.8 8-2.7 10zm-14.1-18.1c-.9-1.5-.3-3.5 1.2-4.4 1.5-.9 3.5-.3 4.4 1.2.9 1.5.3 3.5-1.2 4.4-1.5.9-3.5.3-4.4-1.2zm-1.2-8.6c-3.5 2-8 .8-10-2.7s-.8-8 2.7-10 8-.8 10 2.7.8 8-2.7 10zm21 5.7c-3.5 2-8 .8-10-2.7s-.8-8 2.7-10 8-.8 10 2.7.8 8-2.7 10zM184.3 286.7l.8-5.6c-1.1-.3-2.3-.6-3.4-.8l-1.8 5.4c-.9-.1-1.7-.3-2.6-.4l-.2-5.6c-1.2-.1-2.4-.2-3.5-.2l-.8 5.6c-.9 0-1.8.1-2.6.1l-1.2-5.5c-1.2.1-2.3.3-3.5.5l.2 5.6c-.9.2-1.7.4-2.6.6l-2.2-5.2c-1.1.3-2.3.7-3.4 1.1l1.2 5.5c-.8.3-1.6.7-2.4 1l-3.1-4.7c-1.1.5-2.1 1.1-3.1 1.7l2.2 5.2c-.7.5-1.5.9-2.2 1.4l-3.9-4.1c-1 .7-1.9 1.4-2.8 2.2l3.1 4.7c-.6.6-1.3 1.2-1.9 1.8l-4.6-3.3c-.8.9-1.6 1.7-2.3 2.7l3.9 4.1-1.5 2.1-5.1-2.5c-.6 1-1.3 2-1.8 3l4.6 3.3c-.4.8-.8 1.5-1.1 2.3l-5.4-1.5c-.5 1.1-.9 2.2-1.3 3.3l5.1 2.5c-.2.5-.3 1-.4 1.5-.1.3-.2.7-.3 1l-5.6-.5c-.3 1.2-.5 2.3-.6 3.5l5.4 1.5c-.1.9-.2 1.7-.2 2.6l-5.6.5c-.1 1.2-.1 2.4 0 3.6l5.6.5c0 .9.1 1.7.2 2.6l-5.4 1.5c.2 1.2.4 2.3.6 3.5l5.6-.5c.2.8.4 1.7.7 2.5l-5.1 2.4 1.2 3.3 5.4-1.5c.3.8.7 1.6 1.1 2.3l-4.6 3.3c.6 1 1.2 2.1 1.8 3.1l5.1-2.4 1.5 2.1-3.9 4.1c.7.9 1.5 1.8 2.3 2.7l4.6-3.3c.6.6 1.2 1.2 1.9 1.8l-3.1 4.7c.9.8 1.8 1.5 2.8 2.2l3.9-4.1c.7.5 1.4 1 2.2 1.4l-2.2 5.2c1 .6 2 1.2 3.1 1.7l3.1-4.7c.8.4 1.6.7 2.4 1l-1.3 5.5c1.1.4 2.2.8 3.4 1.1l2.2-5.2c.8.2 1.7.4 2.6.6l-.3 5.6c1.2.2 2.3.4 3.5.5l1.3-5.5c.9.1 1.8.1 2.6.1l.7 5.6c1.2 0 2.4 0 3.5-.1l.3-5.6c.9-.1 1.8-.2 2.6-.3l1.7 5.4c1.2-.2 2.3-.5 3.4-.8l-.7-5.6c.9-.2 1.7-.5 2.5-.8l2.7 5c1.1-.4 2.2-.9 3.2-1.4l-1.7-5.4c.8-.4 1.6-.8 2.3-1.2l3.5 4.4c1-.6 2-1.2 2.9-1.9l-2.7-5c.7-.5 1.4-1.1 2.1-1.6l4.2 3.7c.9-.8 1.7-1.6 2.6-2.4l-3.5-4.4c.6-.6 1.2-1.3 1.8-2l4.8 2.9c.7-.9 1.4-1.9 2.1-2.8l-4.2-3.7c.5-.7.9-1.5 1.4-2.3l5.3 2c.5-1 1.1-2.1 1.5-3.2l-4.8-2.9c.3-.8.7-1.6.9-2.5l5.5 1c.2-.7.4-1.4.6-2 .1-.4.2-.9.3-1.3l-5.3-2c.2-.9.4-1.8.5-2.6h5.6c.2-1.2.3-2.3.3-3.5l-5.5-1v-2.7l5.6-1c-.1-1.2-.2-2.3-.3-3.5h-5.6c-.1-.9-.3-1.8-.5-2.6l5.3-2c-.3-1.1-.6-2.3-.9-3.4l-5.6 1c-.3-.8-.6-1.7-.9-2.5l4.9-2.9c-.5-1.1-1-2.1-1.5-3.2l-5.3 2c-.4-.8-.9-1.5-1.4-2.3l4.3-3.7c-.7-1-1.3-1.9-2.1-2.9l-4.9 2.9c-.6-.7-1.1-1.4-1.7-2l3.5-4.4c-.8-.8-1.7-1.7-2.5-2.4l-4.3 3.7c-.7-.6-1.4-1.1-2.1-1.7l2.7-5c-1-.7-1.9-1.3-2.9-1.9l-3.5 4.4c-.8-.4-1.5-.9-2.3-1.3l1.8-5.4c-1.1-.5-2.1-1-3.2-1.4l-2.7 5c-.9 0-1.7-.3-2.6-.6zm-6.4 64.4c-1.6 6-7.9 9.6-13.9 8-6-1.6-9.6-7.9-8-13.9 1.6-6 7.9-9.6 13.9-8 6.1 1.6 9.7 7.9 8 13.9zm29.3-16.8c-1.6 6-7.9 9.6-13.9 8-6-1.6-9.6-7.9-8-13.9 1.6-6 7.9-9.6 13.9-8 6.1 1.6 9.6 7.9 8 13.9zm-35.3-4.4c-2.6-.7-4.2-3.4-3.5-6.1.7-2.6 3.4-4.2 6.1-3.5 2.6.7 4.2 3.4 3.5 6.1-.7 2.6-3.4 4.2-6.1 3.5zm-10.7-8.1c-1.6 6-7.9 9.6-13.9 8-6-1.6-9.6-7.9-8-13.9 1.6-6 7.9-9.6 13.9-8 6 1.7 9.6 7.9 8 13.9zm29.2-16.8c-1.6 6-7.9 9.6-13.9 8-6-1.6-9.6-7.9-8-13.9 1.6-6 7.9-9.6 13.9-8 6.1 1.7 9.7 7.9 8 13.9zM172.1 264.9v-.8c0-.4 0-.9-.1-1.3l3.3-2.1c-.4-1.4-.9-2.7-1.7-3.8L170 258l-1.5-1.5.9-3.8c-1.2-.7-2.5-1.2-3.9-1.5l-1.9 3.4h-.8c-.4 0-.9 0-1.3.1l-2.1-3.3c-1.4.4-2.7.9-3.8 1.7l1.1 3.8-1.5 1.5-3.8-.9c-.7 1.2-1.2 2.5-1.5 3.9l3.4 1.9v.8c0 .4 0 .9.1 1.3l-3.3 2.1c.4 1.4.9 2.7 1.7 3.8l3.8-1.1 1.5 1.5-.9 3.8c1.2.7 2.5 1.2 3.9 1.5l1.9-3.4h.8c.4 0 .9 0 1.3-.1l2.1 3.3c1.4-.4 2.7-.9 3.8-1.7l-1.1-3.8 1.5-1.5 3.8.9c.7-1.2 1.2-2.5 1.5-3.9l-3.6-1.9zm-9.4 3.5c-2.4 0-4.4-2-4.4-4.4 0-2.4 2-4.4 4.4-4.4 2.4 0 4.4 2 4.4 4.4 0 2.5-2 4.4-4.4 4.4zM179.9 384.1v-.7c0-.4 0-.8-.1-1.1l3-1.9c-.3-1.2-.8-2.4-1.5-3.5l-3.4 1c-.4-.5-.9-.9-1.4-1.3l.8-3.5c-1.1-.6-2.3-1.1-3.5-1.4l-1.7 3.1h-.8c-.4 0-.8 0-1.1.1l-1.9-3c-1.2.3-2.4.8-3.5 1.5l1 3.4c-.5.4-.9.9-1.3 1.4l-3.5-.8c-.6 1.1-1.1 2.3-1.4 3.5l3.1 1.7v.8c0 .4 0 .8.1 1.1l-3 1.9c.3 1.2.8 2.4 1.5 3.5l3.4-1c.4.5.9.9 1.4 1.3l-.8 3.5c1.1.6 2.3 1.1 3.5 1.4l1.7-3.1h.8c.4 0 .8 0 1.1-.1l1.9 3c1.2-.3 2.4-.8 3.5-1.5l-1-3.4c.5-.4.9-.9 1.3-1.4l3.5.8c.6-1.1 1.1-2.3 1.4-3.5l-3.1-1.8zm-8.6 3.2c-2.2 0-3.9-1.8-3.9-3.9 0-2.2 1.8-3.9 3.9-3.9s3.9 1.8 3.9 3.9c.1 2.2-1.7 3.9-3.9 3.9zM318.2 95.4v-.2c0-1.6-.1-3.1-.3-4.6l-5.1-.3c-.1-.8-.3-1.5-.5-2.2l4.5-2.3c-.4-1.6-1-3.1-1.7-4.5l-4.9 1.2c-.3-.7-.7-1.4-1.1-2l3.7-3.5c-.9-1.4-1.8-2.7-2.9-3.9l-4.4 2.5c-.5-.6-1-1.1-1.6-1.6l2.6-4.4c-1.2-1.1-2.5-2-3.8-2.9l-3.5 3.6c-.6-.4-1.3-.8-2-1.1l1.2-4.9c-1.5-.7-3-1.2-4.5-1.7l-2.3 4.5c-.7-.2-1.5-.4-2.2-.5l-.2-5.1c-1.6-.2-3.2-.4-4.8-.4l-1 5c-.8 0-1.5.1-2.3.1l-1.6-4.8c-1.6.2-3.2.6-4.7 1l.5 5c-.7.2-1.4.5-2.1.8l-2.9-4.2c-1.5.7-2.9 1.4-4.2 2.3L268 71c-.6.4-1.2.9-1.8 1.4l-3.9-3.2c-1.2 1-2.4 2.2-3.4 3.4l3.1 4c-.5.6-.9 1.2-1.4 1.8l-4.7-1.9c-.9 1.3-1.7 2.8-2.3 4.2l4.1 3c-.3.7-.6 1.4-.8 2.1l-5-.5c-.5 1.5-.8 3.1-1.1 4.7l4.8 1.7c-.1.7-.1 1.5-.2 2.3l-5 .9v.2c0 1.6.1 3.1.3 4.6l5.1.3c.1.8.3 1.5.5 2.2l-4.5 2.3c.4 1.6 1 3.1 1.7 4.5l4.9-1.2c.3.7.7 1.4 1.1 2l-3.7 3.5c.9 1.4 1.8 2.7 2.9 3.9l4.4-2.5c.5.6 1 1.1 1.6 1.6l-2.6 4.4c1.2 1.1 2.5 2 3.8 2.9l3.5-3.6c.6.4 1.3.8 2 1.1l-1.2 4.9c1.5.7 3 1.2 4.5 1.7l2.3-4.5c.7.2 1.5.4 2.2.5l.2 5.1c1.6.2 3.2.4 4.8.4l1-5c.8 0 1.5-.1 2.3-.1l1.6 4.8c1.6-.2 3.2-.6 4.7-1l-.5-5c.7-.2 1.4-.5 2.1-.8l2.9 4.2c1.5-.7 2.9-1.4 4.2-2.3l-1.9-4.7c.6-.4 1.2-.9 1.8-1.4l3.9 3.2c1.2-1 2.4-2.2 3.4-3.4l-3.1-4c.5-.6.9-1.2 1.4-1.8l4.7 1.9c.9-1.3 1.7-2.8 2.3-4.2l-4.1-3c.3-.7.6-1.4.8-2.1l5 .5c.5-1.5.8-3.1 1.1-4.7l-4.8-1.7c.1-.7.1-1.5.2-2.3l5-.9zm-34 24.8c-13.9 0-25.1-11.2-25.1-25.1 0-13.9 11.2-25.1 25.1-25.1 13.9 0 25.1 11.2 25.1 25.1 0 13.9-11.2 25.1-25.1 25.1zM284.2 71C270.9 71 260 81.8 260 95.2c0 13.3 10.8 24.2 24.2 24.2 13.3 0 24.2-10.8 24.2-24.2 0-13.4-10.9-24.2-24.2-24.2zm0 44.6c-11.3 0-20.4-9.2-20.4-20.4 0-11.3 9.2-20.4 20.4-20.4 11.3 0 20.4 9.2 20.4 20.4.1 11.2-9.1 20.4-20.4 20.4zM157.8 390.7v-.2c0-1.4-.1-2.8-.3-4.2l-4.6-.2c-.1-.7-.3-1.4-.4-2l4.1-2.1c-.4-1.4-.9-2.8-1.5-4.1l-4.5 1.1c-.3-.6-.6-1.2-1-1.8l3.4-3.2c-.8-1.2-1.7-2.4-2.6-3.5l-4 2.3-1.5-1.5 2.3-4c-1.1-1-2.3-1.9-3.5-2.7l-3.2 3.3c-.6-.4-1.2-.7-1.8-1l1.1-4.5c-1.3-.6-2.7-1.1-4.1-1.6l-2.1 4.1c-.7-.2-1.3-.3-2-.5l-.2-4.6c-1.4-.2-2.9-.3-4.4-.3l-.9 4.5c-.7 0-1.4.1-2.1.1l-1.5-4.4c-1.5.2-2.9.5-4.3.9l.4 4.6c-.7.2-1.3.5-2 .7l-2.7-3.8c-1.3.6-2.6 1.3-3.9 2.1l1.7 4.3c-.6.4-1.1.8-1.7 1.2l-3.6-2.9c-1.1 1-2.2 2-3.1 3.1l2.8 3.6c-.4.5-.9 1.1-1.3 1.7l-4.3-1.8c-.8 1.2-1.5 2.5-2.1 3.9l3.8 2.7c-.3.6-.5 1.3-.7 1.9l-4.6-.5c-.4 1.4-.7 2.8-1 4.3l4.4 1.5c-.1.7-.1 1.4-.2 2.1l-4.5.8v.2c0 1.4.1 2.8.3 4.2l4.6.2c.1.7.3 1.4.4 2l-4.1 2.1c.4 1.4.9 2.8 1.5 4.1l4.5-1.1c.3.6.6 1.2 1 1.8l-3.4 3.2c.8 1.2 1.7 2.4 2.6 3.5l4-2.3 1.5 1.5-2.3 4c1.1 1 2.3 1.9 3.5 2.7l3.2-3.3c.6.4 1.2.7 1.8 1l-1.1 4.5c1.3.6 2.7 1.1 4.1 1.6l2.1-4.1c.7.2 1.3.3 2 .5l.2 4.6c1.4.2 2.9.3 4.4.3l.9-4.5c.7 0 1.4-.1 2.1-.1l1.5 4.4c1.5-.2 2.9-.5 4.3-.9l-.4-4.6c.7-.2 1.3-.5 2-.7l2.7 3.8c1.3-.6 2.6-1.3 3.9-2.1l-1.7-4.3c.6-.4 1.1-.8 1.7-1.2l3.6 2.9c1.1-1 2.2-2 3.1-3.1l-2.8-3.6c.4-.5.9-1.1 1.3-1.7l4.3 1.8c.8-1.2 1.5-2.5 2.1-3.9l-3.8-2.7c.3-.6.5-1.3.7-1.9l4.6.5c.4-1.4.7-2.8 1-4.3l-4.4-1.5c.1-.7.1-1.4.2-2.1l4.5-.8zm-31 22.7c-12.7 0-22.9-10.3-22.9-22.9 0-12.7 10.3-22.9 22.9-22.9 12.7 0 22.9 10.3 22.9 22.9 0 12.7-10.3 22.9-22.9 22.9zM126.8 368.4c-12.2 0-22.1 9.9-22.1 22.1 0 12.2 9.9 22.1 22.1 22.1 12.2 0 22.1-9.9 22.1-22.1-.1-12.2-10-22.1-22.1-22.1zm0 40.8c-10.3 0-18.7-8.4-18.7-18.7 0-10.3 8.4-18.7 18.7-18.7 10.3 0 18.7 8.4 18.7 18.7-.1 10.3-8.4 18.7-18.7 18.7zM42.8 111s0-.1 0 0c-.2-.8-.4-1.6-.6-2.3l-2.4.4c-.1-.3-.3-.7-.4-1l1.9-1.5c-.4-.7-.8-1.4-1.2-2l-2.2 1c-.2-.3-.5-.6-.7-.8l1.4-2c-.5-.6-1.1-1.1-1.7-1.6l-1.8 1.6-.9-.6.8-2.3c-.7-.4-1.4-.7-2.1-1l-1.3 2.1c-.3-.1-.7-.2-1.1-.3l.1-2.4c-.8-.2-1.5-.3-2.3-.4l-.7 2.4h-1.1l-.6-2.4c-.8 0-1.5.1-2.3.3v2.4c-.4.1-.7.2-1.1.3l-1.2-2.1c-.7.3-1.5.6-2.1.9l.7 2.3-.9.6-1.8-1.7-1.8 1.5 1.3 2.1c-.3.3-.5.5-.7.8l-2.2-1.1c-.5.6-.9 1.3-1.3 1.9l1.9 1.6c-.2.3-.3.7-.5 1l-2.4-.5c-.3.7-.5 1.5-.7 2.2l2.2 1c-.1.4-.1.7-.2 1.1l-2.4.2c-.1.8-.1 1.6 0 2.3l2.4.3c0 .4.1.7.1 1.1l-2.3.9v.1c.2.7.3 1.5.6 2.2l2.4-.4c.1.3.3.7.4 1l-1.9 1.5c.4.7.8 1.4 1.2 2l2.2-1c.2.3.5.6.7.8l-1.4 2c.5.6 1.1 1.1 1.7 1.6l1.8-1.6.9.6-.8 2.3c.7.4 1.4.7 2.1 1l1.3-2.1c.3.1.7.2 1.1.3l-.1 2.4c.8.2 1.5.3 2.3.4l.7-2.4h1.1l.6 2.4c.8 0 1.5-.1 2.3-.3v-2.5c.4-.1.7-.2 1.1-.3l1.2 2.1c.7-.3 1.5-.6 2.1-.9l-.7-2.3.9-.6 1.8 1.7 1.8-1.5-1.3-2.1c.3-.3.5-.5.7-.8l2.2 1.1c.5-.6.9-1.3 1.3-1.9l-1.9-1.6c.2-.3.3-.7.5-1l2.4.5c.3-.7.5-1.5.7-2.2l-2.2-1c.1-.4.1-.7.2-1.1l2.4-.2c.1-.8.1-1.6 0-2.3l-2.4-.3c0-.4-.1-.7-.1-1.1l2.3-.8zm-13.7 15.1c-6.6 1.3-13-2.9-14.3-9.5-1.3-6.6 2.9-13 9.5-14.3 6.6-1.3 13 2.9 14.3 9.5 1.3 6.5-2.9 13-9.5 14.3zM24.3 102.7c-6.3 1.3-10.4 7.5-9.1 13.8 1.3 6.3 7.5 10.4 13.8 9.1 6.3-1.3 10.4-7.5 9.1-13.8-1.3-6.3-7.4-10.4-13.8-9.1zm4.3 21.2c-5.4 1.1-10.6-2.4-11.7-7.7-1.1-5.4 2.4-10.6 7.7-11.7 5.4-1.1 10.6 2.4 11.7 7.7 1.2 5.4-2.3 10.6-7.7 11.7zM176.4 209.9v-.3c0-2.3-.2-4.5-.5-6.7l-7.4-.4c-.2-1.1-.4-2.2-.7-3.3l6.6-3.3c-.7-2.3-1.5-4.5-2.4-6.6l-7.2 1.7c-.5-1-1-2-1.6-2.9l5.4-5.1c-1.3-2-2.7-3.9-4.2-5.7L158 181c-.7-.8-1.5-1.6-2.3-2.4l3.8-6.4c-1.8-1.5-3.6-3-5.6-4.3l-5.1 5.3c-.9-.6-1.9-1.1-2.9-1.6l1.8-7.2c-2.1-1-4.3-1.8-6.6-2.5l-3.4 6.6c-1.1-.3-2.1-.5-3.2-.7l-.3-7.4c-2.3-.3-4.6-.5-7-.5l-1.4 7.2c-1.1 0-2.2.1-3.3.2l-2.4-7c-2.4.3-4.7.8-6.9 1.4l.7 7.4c-1.1.3-2.1.7-3.1 1.1l-4.2-6.1c-2.2 1-4.2 2.1-6.2 3.3l2.7 6.9c-.9.6-1.8 1.3-2.7 2l-5.8-4.6c-1.8 1.5-3.5 3.2-5 5l4.5 5.8c-.7.9-1.4 1.7-2 2.6l-6.8-2.8c-1.3 2-2.4 4-3.4 6.2l6 4.3c-.4 1-.8 2.1-1.2 3.1l-7.3-.8c-.7 2.2-1.2 4.5-1.5 6.9l7 2.4-.3 3.3-7.3 1.3v.3c0 2.3.2 4.5.5 6.7l7.4.4c.2 1.1.4 2.2.7 3.3l-6.6 3.3c.7 2.3 1.5 4.5 2.4 6.6l7.2-1.7c.5 1 1 2 1.6 2.9l-5.4 5.1c1.3 2 2.7 3.9 4.2 5.7l6.4-3.7c.7.8 1.5 1.6 2.3 2.4l-3.8 6.4c1.8 1.5 3.6 3 5.6 4.3l5.1-5.3c.9.6 1.9 1.1 2.9 1.6l-1.8 7.2c2.1 1 4.3 1.8 6.6 2.5l3.4-6.6c1.1.3 2.1.5 3.2.7l.3 7.4c2.3.3 4.6.5 7 .5l1.4-7.2c1.1 0 2.2-.1 3.3-.2l2.4 7c2.4-.3 4.7-.8 6.9-1.4l-.7-7.4c1.1-.3 2.1-.7 3.1-1.1l4.2 6.1c2.2-1 4.2-2.1 6.2-3.3l-2.7-6.9c.9-.6 1.8-1.3 2.7-2l5.8 4.6c1.8-1.5 3.5-3.2 5-5l-4.5-5.8c.7-.9 1.4-1.7 2-2.6l6.8 2.8c1.3-2 2.4-4 3.4-6.2l-6-4.3c.4-1 .8-2.1 1.2-3.1l7.3.8c.7-2.2 1.2-4.5 1.5-6.9l-7-2.4.3-3.3 7.3-1.3zm-49.6 36.3c-20.2 0-36.6-16.4-36.6-36.6 0-20.2 16.4-36.6 36.6-36.6s36.6 16.4 36.6 36.6c0 20.2-16.4 36.6-36.6 36.6zM126.8 174.3c-19.5 0-35.3 15.8-35.3 35.3 0 19.5 15.8 35.3 35.3 35.3 19.5 0 35.3-15.8 35.3-35.3-.1-19.5-15.9-35.3-35.3-35.3zm0 65.1c-16.5 0-29.9-13.4-29.9-29.9s13.4-29.9 29.9-29.9 29.9 13.4 29.9 29.9c-.1 16.5-13.5 29.9-29.9 29.9zM299 274.4v-.1c0-.9-.1-1.9-.2-2.8l-3-.2c-.1-.5-.2-.9-.3-1.3l2.7-1.4c-.3-.9-.6-1.8-1-2.7l-2.9.7-.6-1.2 2.2-2.1c-.5-.8-1.1-1.6-1.7-2.3l-2.6 1.5c-.3-.3-.6-.7-1-1l1.5-2.6c-.7-.6-1.5-1.2-2.3-1.7l-2.1 2.2c-.4-.2-.8-.5-1.2-.7l.7-2.9c-.9-.4-1.8-.7-2.7-1l-1.4 2.7c-.4-.1-.9-.2-1.3-.3l-.1-3c-.9-.1-1.9-.2-2.9-.2l-.6 3c-.5 0-.9 0-1.4.1l-1-2.9c-1 .1-1.9.3-2.8.6l.3 3c-.4.1-.9.3-1.3.5l-1.7-2.5c-.9.4-1.7.9-2.5 1.4l1.1 2.8c-.4.3-.7.5-1.1.8l-2.4-1.9c-.7.6-1.4 1.3-2.1 2l1.9 2.4c-.3.4-.6.7-.8 1.1l-2.8-1.2c-.5.8-1 1.6-1.4 2.5l2.5 1.8c-.2.4-.3.8-.5 1.3l-3-.3c-.3.9-.5 1.9-.6 2.8l2.9 1c-.1.4-.1.9-.1 1.4l-3 .5v.1c0 .9.1 1.9.2 2.8l3 .2c.1.5.2.9.3 1.3l-2.7 1.4c.3.9.6 1.8 1 2.7l2.9-.7.6 1.2-2.2 2.1c.5.8 1.1 1.6 1.7 2.3l2.6-1.5c.3.3.6.7 1 1l-1.5 2.6c.7.6 1.5 1.2 2.3 1.7l2.1-2.2c.4.2.8.5 1.2.7l-.7 2.9c.9.4 1.8.7 2.7 1l1.4-2.7c.4.1.9.2 1.3.3l.1 3c.9.1 1.9.2 2.9.2l.6-3c.5 0 .9 0 1.4-.1l1 2.9c1-.1 1.9-.3 2.8-.6l-.3-3c.4-.1.9-.3 1.3-.5l1.7 2.5c.9-.4 1.7-.9 2.5-1.4l-1.1-2.8c.4-.3.7-.5 1.1-.8l2.4 1.9c.7-.6 1.4-1.3 2.1-2l-1.9-2.4c.3-.4.6-.7.8-1.1l2.8 1.2c.5-.8 1-1.6 1.4-2.5l-2.5-1.8c.2-.4.3-.8.5-1.3l3 .3c.3-.9.5-1.9.6-2.8l-2.9-1c.1-.4.1-.9.1-1.4l3-.5zm-20.3 14.9c-8.3 0-15-6.7-15-15s6.7-15 15-15 15 6.7 15 15c0 8.2-6.7 15-15 15zM278.7 259.8c-8 0-14.5 6.5-14.5 14.5s6.5 14.5 14.5 14.5 14.5-6.5 14.5-14.5-6.5-14.5-14.5-14.5zm0 26.7c-6.8 0-12.2-5.5-12.2-12.2 0-6.8 5.5-12.2 12.2-12.2 6.8 0 12.2 5.5 12.2 12.2 0 6.7-5.4 12.2-12.2 12.2zM322.2 214c.1-.9.1-1.7.1-2.6 0-1.4-.1-2.7-.3-4l10.5-6.5c-1.1-4.3-3-8.4-5.3-12l-11.9 3.4c-1.4-1.7-3-3.2-4.8-4.6l2.8-12c-3.8-2.2-7.9-3.8-12.3-4.8l-6 10.8c-.9-.1-1.7-.1-2.6-.1-1.4 0-2.7.1-4 .3l-6.5-10.5c-4.3 1.1-8.4 3-12 5.3l3.4 11.9c-1.7 1.4-3.2 3-4.6 4.8l-12-2.8c-2.2 3.8-3.8 7.9-4.8 12.3l10.8 6c-.1.9-.1 1.7-.1 2.6 0 1.4.1 2.7.3 4l-10.5 6.5c1.1 4.3 3 8.4 5.3 12l11.9-3.4c1.4 1.7 3 3.2 4.8 4.6l-2.8 12c3.8 2.2 7.9 3.8 12.3 4.8l6-10.8c.9.1 1.7.1 2.6.1 1.4 0 2.7-.1 4-.3l6.5 10.5c4.3-1.1 8.4-3 12-5.3l-3.4-11.9c1.7-1.4 3.2-3 4.6-4.8l12 2.8c2.2-3.8 3.8-7.9 4.8-12.3l-10.8-6zm-29.7 11.1c-7.6 0-13.7-6.2-13.7-13.7s6.1-13.7 13.7-13.7 13.7 6.1 13.7 13.7-6.1 13.7-13.7 13.7zM173 24.5c.2-.3.3-.7.5-1.1.2-.6.4-1.1.5-1.7l5.4-1c.3-2 .2-4-.2-5.9l-5.5-.6c-.3-.9-.7-1.8-1.2-2.7l3.2-4.5c-1.2-1.5-2.6-2.9-4.3-4l-4.3 3.5c-.3-.2-.7-.3-1.1-.5-.6-.2-1.1-.4-1.7-.5l-1-5.4c-2-.2-4-.2-5.9.2l-.4 5.5c-.9.3-1.8.7-2.7 1.2l-4.5-3.2c-1.5 1.2-2.9 2.6-4 4.3l3.5 4.3c-.2.3-.3.7-.5 1.1-.2.6-.4 1.1-.5 1.7l-5.4 1c-.2 2-.2 4 .2 5.9l5.5.6c.3.9.7 1.8 1.2 2.7l-3.2 4.5c1.2 1.5 2.6 2.9 4.3 4l4.3-3.5c.3.2.7.3 1.1.5.6.2 1.1.4 1.7.5l1 5.4c2 .2 4 .2 5.9-.2l.6-5.5c.9-.3 1.8-.7 2.7-1.2l4.5 3.2c1.5-1.2 2.9-2.6 4-4.3l-3.7-4.3zm-14.1-.3c-3.1-1.3-4.7-4.8-3.4-8 1.3-3.1 4.8-4.7 8-3.4 3.1 1.3 4.7 4.8 3.4 8-1.3 3.1-4.9 4.6-8 3.4zM244.1 351c.1-.3.3-.7.4-1 .2-.5.3-1.1.4-1.6l4.8-1.3c.1-1.8-.1-3.6-.6-5.3l-5-.1c-.3-.8-.8-1.6-1.3-2.3l2.5-4.3c-1.2-1.3-2.6-2.4-4.2-3.3l-3.6 3.5c-.3-.1-.7-.3-1-.4-.5-.2-1-.3-1.6-.4l-1.3-4.8c-1.8-.1-3.6.1-5.3.6l-.1 5c-.8.3-1.6.8-2.3 1.3l-4.3-2.5c-1.3 1.2-2.4 2.6-3.3 4.2l3.5 3.6c-.1.3-.3.7-.4 1-.2.5-.3 1-.4 1.6l-4.8 1.3c-.1 1.8.1 3.6.6 5.3l5 .1c.3.8.8 1.6 1.3 2.3l-2.5 4.3c1.2 1.3 2.6 2.4 4.2 3.3l3.6-3.5c.3.1.7.3 1 .4.5.2 1 .3 1.6.4l1.3 4.8c1.8.1 3.6-.1 5.3-.6l.1-5c.8-.3 1.6-.8 2.3-1.3l4.3 2.5c1.3-1.2 2.4-2.6 3.3-4.2l-3.5-3.6zm-12.8.7c-2.9-.9-4.6-4-3.7-6.9.9-2.9 4-4.6 6.9-3.7 2.9.9 4.6 4 3.7 6.9-.9 3-4 4.6-6.9 3.7zM165.2 86.8l8-1c0-1.7-.1-3.4-.2-5l-8.1-.4c-.1-1.3-.3-2.5-.5-3.7l7.7-2.4c-.3-1.7-.7-3.3-1.1-4.9l-8 1c-.3-1.2-.7-2.4-1.1-3.6L169 63c-.6-1.6-1.3-3.1-2-4.7l-7.7 2.4c-.6-1.1-1.1-2.2-1.8-3.3l6.3-5c-.9-1.4-1.8-2.9-2.8-4.2l-7.1 3.8c-.7-1-1.5-2-2.3-2.9l5.4-6c-1.1-1.3-2.3-2.5-3.5-3.7l-6.3 5c-.9-.9-1.8-1.7-2.8-2.5l4.2-6.9c-1.3-1.1-2.7-2.1-4.1-3l-5.3 6c-1-.7-2.1-1.3-3.2-1.9l2.9-7.5c-1.5-.8-3-1.5-4.6-2.2l-4.2 6.9c-1.1-.5-2.3-.9-3.5-1.3l1.5-7.9c-1.6-.5-3.2-1-4.9-1.4l-2.9 7.5c-1.2-.3-2.4-.5-3.6-.7l.1-8.1c-1.7-.2-3.4-.4-5.1-.5l-1.5 7.9H106.5l-1.4-7.9c-1.7.1-3.4.2-5.1.4l-.1 8.1-3.6.6-2.8-7.6c-1.7.4-3.3.8-4.9 1.3l1.4 7.9c-1.2.4-2.3.8-3.5 1.3l-4.1-7c-1.6.7-3.1 1.4-4.6 2.2l2.8 7.6c-1.1.6-2.2 1.2-3.2 1.9l-5.3-6.1c-1.4.9-2.8 1.9-4.1 2.9l4.1 6.9c-1 .8-1.9 1.6-2.8 2.4L63 38.6c-1.2 1.2-2.4 2.4-3.5 3.6l5.3 6.1c-.8.9-1.6 1.9-2.3 2.9l-7.1-3.9c-1 1.4-1.9 2.8-2.8 4.2l6.3 5.1c-.6 1.1-1.2 2.1-1.8 3.3l-7.6-2.6c-.7 1.5-1.4 3.1-2 4.6l7.1 3.9c-.4 1.2-.8 2.3-1.2 3.5l-8-1.1c-.5 1.6-.8 3.3-1.2 4.9l7.6 2.5c-.2 1.2-.4 2.5-.5 3.7l-8.1.3c-.2 1.7-.2 3.4-.3 5l8 1.1c0 1.3 0 2.5.1 3.7l-7.9 1.7c.1 1.7.4 3.4.6 5l8-.3c.2 1.2.5 2.5.8 3.7l-7.4 3.1c.4 1.6.9 3.2 1.5 4.8l7.9-1.7c.4 1.2.9 2.3 1.4 3.5l-6.8 4.4c.7 1.5 1.5 3 2.3 4.5l7.4-3.1c.6 1.1 1.3 2.1 2.1 3.2l-5.9 5.5c1 1.4 2 2.7 3.1 4l6.8-4.4c.8.9 1.7 1.9 2.6 2.8l-4.8 6.5c1.2 1.2 2.5 2.3 3.8 3.4l5.9-5.5c1 .8 2 1.5 3 2.3l-3.6 7.2c1.4.9 2.8 1.8 4.3 2.6l4.8-6.5c1.1.6 2.3 1.2 3.4 1.7l-2.2 7.8c1.5.7 3.1 1.3 4.7 1.8l3.5-7.2c1.2.4 2.4.7 3.7 1l-.8 8c1.6.4 3.3.7 4.9.9l2.2-7.8c1.3.2 2.5.3 3.8.4l.7 8c1 0 2 .1 3 .1h2l.8-8c1.3-.1 2.5-.2 3.8-.3l2.1 7.8c1.7-.2 3.3-.5 4.9-.9l-.7-8c1.2-.3 2.5-.6 3.7-1l3.4 7.3c1.6-.5 3.2-1.1 4.7-1.7l-2.1-7.8c1.2-.5 2.3-1.1 3.4-1.6l4.7 6.6c1.5-.8 2.9-1.6 4.3-2.5l-3.4-7.3c1.1-.7 2.1-1.4 3.1-2.2l5.8 5.6c1.3-1 2.6-2.1 3.8-3.3l-4.7-6.6c.9-.9 1.8-1.8 2.6-2.7l6.7 4.5c1.1-1.3 2.2-2.6 3.2-3.9l-5.8-5.6c.7-1 1.4-2.1 2.1-3.2l7.4 3.2c.9-1.4 1.7-2.9 2.4-4.4l-6.7-4.5c.5-1.1 1-2.3 1.5-3.5l7.8 1.9c.6-1.6 1.1-3.2 1.6-4.8l-7.4-3.2c.3-1.2.6-2.4.9-3.7l8 .4c.3-1.6.5-3.3.7-5l-7.9-1.9c.6-1.2.7-2.5.7-3.7zm-5-1.7H118c-.1-1.3-.4-2.5-1-3.6l36.5-21.1c4.2 7.4 6.6 15.8 6.7 24.7zm-52 5.6c-2.7 0-4.9-2.2-4.9-4.9s2.2-4.9 4.9-4.9 4.9 2.2 4.9 4.9-2.2 4.9-4.9 4.9zm44.7-31.5l-36.5 21.1c-.7-1-1.6-1.9-2.6-2.6l21.1-36.5c7.3 4.4 13.5 10.6 18 18zm-19.3-18.8l-21.1 36.5c-1.1-.5-2.3-.9-3.6-1V33.8c8.9.1 17.3 2.5 24.7 6.6zm-26.1-6.6V76c-1.3.1-2.5.4-3.6 1L82.8 40.4c7.3-4.1 15.7-6.5 24.7-6.6zm-26 7.3l21.1 36.5c-1 .7-1.9 1.6-2.6 2.6l-36.5-21c4.4-7.4 10.6-13.6 18-18.1zM62.7 60.4l36.5 21.1c-.5 1.1-.9 2.3-1 3.6H56.1c.2-8.9 2.5-17.3 6.6-24.7zm-6.6 26.2h42.2c.1 1.3.4 2.5 1 3.6l-36.5 21.1c-4.2-7.4-6.5-15.8-6.7-24.7zm7.4 25.9L100 91.4c.7 1 1.6 1.9 2.6 2.6l-21.1 36.5c-7.4-4.4-13.6-10.6-18-18zm19.3 18.8l21.1-36.5c1.1.5 2.3.9 3.6 1V138c-9-.2-17.4-2.6-24.7-6.7zm26.1 6.6V95.7c1.3-.1 2.5-.4 3.6-1l21.1 36.5c-7.4 4.2-15.8 6.6-24.7 6.7zm25.9-7.3L113.7 94c1-.7 1.9-1.6 2.6-2.6l36.5 21.1c-4.4 7.4-10.6 13.6-18 18.1zm18.8-19.4l-36.5-21.1c.5-1.1.9-2.3 1-3.6h42.2c-.2 9-2.6 17.4-6.7 24.7zM241.1 392.8l3.7-.5c0-.8 0-1.6-.1-2.4l-3.8-.2c-.1-.6-.1-1.2-.2-1.7l3.6-1.1c-.1-.8-.3-1.5-.5-2.3l-3.7.5c-.2-.6-.3-1.1-.5-1.7l3.3-1.8c-.3-.7-.6-1.5-.9-2.2l-3.6 1.1c-.3-.5-.5-1-.8-1.5l3-2.3c-.4-.7-.8-1.3-1.3-2l-3.3 1.8c-.3-.5-.7-.9-1.1-1.4l2.5-2.8c-.5-.6-1.1-1.2-1.6-1.7l-3 2.3c-.4-.4-.9-.8-1.3-1.1l2-3.2c-.6-.5-1.3-1-1.9-1.4L229 370l-1.5-.9 1.4-3.5c-.7-.4-1.4-.7-2.1-1l-1.9 3.2c-.5-.2-1.1-.4-1.6-.6l.7-3.7c-.7-.2-1.5-.5-2.3-.6l-1.3 3.5c-.6-.1-1.1-.2-1.7-.3v-3.8c-.8-.1-1.6-.2-2.4-.2l-.7 3.7h-1.7l-.6-3.7c-.8 0-1.6.1-2.4.2v3.8c-.6.1-1.1.2-1.7.3l-1.3-3.5c-.8.2-1.5.4-2.3.6l.6 3.7c-.5.2-1.1.4-1.6.6l-1.9-3.2c-.7.3-1.4.6-2.1 1l1.3 3.5-1.5.9-2.4-2.9c-.7.4-1.3.9-1.9 1.4l1.9 3.2c-.4.4-.9.7-1.3 1.1l-2.9-2.4c-.6.5-1.1 1.1-1.6 1.7l2.5 2.8c-.4.4-.7.9-1.1 1.3l-3.3-1.8c-.5.6-.9 1.3-1.3 2l2.9 2.4c-.3.5-.6 1-.8 1.5l-3.6-1.2c-.3.7-.7 1.4-1 2.2l3.3 1.8c-.2.5-.4 1.1-.6 1.6l-3.7-.5c-.2.8-.4 1.5-.5 2.3l3.6 1.2c-.1.6-.2 1.1-.2 1.7l-3.8.1c-.1.8-.1 1.6-.1 2.4l3.7.5c0 .6 0 1.2.1 1.7l-3.7.8c.1.8.2 1.6.3 2.3l3.8-.1c.1.6.2 1.1.4 1.7l-3.5 1.4c.2.8.4 1.5.7 2.2l3.7-.8c.2.6.4 1.1.7 1.6l-3.2 2c.3.7.7 1.4 1.1 2.1l3.5-1.5c.3.5.6 1 1 1.5l-2.7 2.6c.5.6.9 1.3 1.4 1.9l3.1-2c.4.4.8.9 1.2 1.3l-2.2 3c.6.5 1.1 1.1 1.8 1.6l2.7-2.6c.5.4.9.7 1.4 1.1l-1.7 3.4c.6.4 1.3.8 2 1.2l2.2-3c.5.3 1.1.5 1.6.8l-1 3.6c.7.3 1.4.6 2.2.8l1.7-3.4c.6.2 1.1.3 1.7.5l-.4 3.7c.8.2 1.5.3 2.3.4l1-3.6c.6.1 1.2.1 1.8.2l.3 3.7h2.3l.4-3.7c.6 0 1.2-.1 1.8-.1l1 3.6c.8-.1 1.5-.2 2.3-.4l-.3-3.7c.6-.1 1.2-.3 1.7-.5l1.6 3.4c.7-.2 1.5-.5 2.2-.8l-1-3.6c.5-.2 1.1-.5 1.6-.8l2.2 3.1c.7-.4 1.4-.8 2-1.2l-1.6-3.4c.5-.3 1-.7 1.4-1l2.7 2.6 1.8-1.5-2.2-3.1c.4-.4.8-.8 1.2-1.3l3.1 2.1 1.5-1.8-2.7-2.6c.3-.5.7-1 1-1.5l3.4 1.5c.4-.7.8-1.4 1.1-2.1l-3.1-2.1c.3-.5.5-1.1.7-1.6l3.7.9c.3-.7.5-1.5.7-2.2l-3.4-1.5c.2-.6.3-1.1.4-1.7l3.8.2c.1-.8.2-1.5.3-2.3l-3.7-.9c-.4-.6-.3-1.1-.3-1.7zm-2.4-.8H219c0-.6-.2-1.2-.4-1.7l17-9.8c2 3.4 3.1 7.3 3.1 11.5zm-24.2 2.6c-1.3 0-2.3-1-2.3-2.3 0-1.3 1-2.3 2.3-2.3 1.3 0 2.3 1 2.3 2.3-.1 1.3-1.1 2.3-2.3 2.3zm20.8-14.7l-17 9.8c-.3-.5-.7-.9-1.2-1.2l9.8-17c3.4 2.1 6.4 5 8.4 8.4zm-9-8.7l-9.8 17c-.5-.2-1.1-.4-1.7-.4v-19.7c4.2 0 8.1 1.1 11.5 3.1zm-12.2-3.1v19.7c-.6 0-1.2.2-1.7.4l-9.8-17c3.4-2 7.4-3.1 11.5-3.1zm-12.1 3.4l9.8 17c-.5.3-.9.7-1.2 1.2l-17-9.8c2.1-3.4 5-6.3 8.4-8.4zm-8.7 9l17 9.8c-.2.5-.4 1.1-.4 1.7h-19.7c0-4.2 1.2-8.1 3.1-11.5zm-3.1 12.2h19.7c0 .6.2 1.2.4 1.7l-17 9.8c-1.9-3.4-3.1-7.3-3.1-11.5zm3.4 12.1l17-9.8c.3.5.7.9 1.2 1.2l-9.8 17c-3.4-2.1-6.3-5-8.4-8.4zm9 8.7l9.8-17c.5.2 1.1.4 1.7.4v19.7c-4.1 0-8.1-1.2-11.5-3.1zm12.2 3.1v-19.7c.6 0 1.2-.2 1.7-.4l9.8 17c-3.4 1.9-7.3 3.1-11.5 3.1zm12.1-3.4l-9.8-17c.5-.3.9-.7 1.2-1.2l17 9.8c-2 3.4-5 6.3-8.4 8.4zm8.8-9l-17-9.8c.2-.5.4-1.1.4-1.7h19.7c-.1 4.2-1.2 8.1-3.1 11.5zM127.5 283.8l3.9-1.6c-.2-.8-.5-1.7-.8-2.5l-4.1.9c-.2-.6-.5-1.2-.8-1.8l3.5-2.3c-.4-.8-.8-1.6-1.2-2.3l-3.9 1.6c-.3-.6-.7-1.1-1.1-1.6l3-2.9c-.5-.7-1.1-1.4-1.6-2.1l-3.5 2.3c-.4-.5-.9-1-1.3-1.4l2.5-3.4c-.6-.6-1.3-1.2-2-1.7l-3 2.9c-.5-.4-1-.8-1.6-1.1l1.8-3.8c-.7-.5-1.5-.9-2.3-1.4l-2.5 3.4c-.6-.3-1.2-.6-1.7-.8l1.1-4c-.8-.3-1.6-.7-2.5-.9l-1.8 3.8c-.6-.2-1.2-.4-1.9-.5l.4-4.2c-.9-.2-1.7-.4-2.6-.5l-1.1 4c-.6-.1-1.3-.1-1.9-.2l-.4-4.2h-2.6l-.4 4.2c-.6 0-1.3.1-1.9.2l-1.1-4c-.9.1-1.7.3-2.6.5l.4 4.2c-.4.1-.8.2-1.1.3-.2.1-.5.1-.7.2l-1.8-3.8c-.8.3-1.7.6-2.5.9l1.1 4c-.6.3-1.2.5-1.7.8l-2.4-3.4c-.8.4-1.5.9-2.3 1.3l1.8 3.8c-.5.4-1.1.7-1.6 1.1l-3-2.9c-.7.6-1.3 1.1-2 1.7l2.4 3.4c-.5.4-.9.9-1.3 1.4l-3.5-2.3c-.6.7-1.1 1.4-1.7 2.1l3 2.9c-.4.5-.7 1.1-1.1 1.6l-3.8-1.7c-.4.8-.9 1.5-1.3 2.3l3.5 2.3c-.3.6-.5 1.2-.8 1.8l-4.1-.9c-.3.8-.6 1.7-.8 2.5l3.8 1.7c-.2.6-.3 1.2-.4 1.9l-4.2-.2c-.2.9-.3 1.7-.4 2.6l4.1.9c-.1.6-.1 1.3-.1 1.9l-4.2.5c0 .9 0 1.7.1 2.6l4.2.2c.1.6.1 1.3.3 1.9l-4 1.3c.2.9.3 1.7.6 2.6l4.1-.6c.2.6.4 1.2.6 1.9l-3.7 2c.3.8.6 1.6 1 2.4l4-1.3c.3.6.6 1.2.9 1.7l-3.3 2.6c.4.8.9 1.5 1.4 2.2l3.7-2 1.2 1.5-2.8 3.1c.6.7 1.2 1.3 1.8 1.9l3.3-2.6c.5.4 1 .9 1.5 1.3l-2.2 3.6c.7.5 1.4 1.1 2.1 1.5l2.8-3.1c.5.4 1.1.7 1.7 1l-1.5 3.9c.8.4 1.6.8 2.3 1.1l2.2-3.6c.6.3 1.2.5 1.8.7l-.8 4.1c.8.3 1.7.5 2.5.7l1.5-3.9c.6.1 1.3.3 1.9.4v4.2c.9.1 1.7.2 2.6.2l.8-4.1h2l.7 4.1c.9 0 1.7-.1 2.6-.2v-4.2c.6-.1 1.3-.2 1.9-.3l1.5 3.9c.5-.1 1-.2 1.5-.4.3-.1.7-.2 1-.3l-.7-4.1c.6-.2 1.2-.4 1.9-.7l2.1 3.6c.8-.3 1.6-.7 2.4-1.1l-1.5-3.9c.6-.3 1.2-.7 1.7-1l2.7 3.2 2.1-1.5-2.1-3.6c.5-.4 1-.8 1.5-1.3l3.3 2.6c.6-.6 1.2-1.2 1.8-1.9l-2.7-3.2 1.2-1.5 3.7 2c.5-.7 1-1.4 1.4-2.2l-3.3-2.6c.3-.6.6-1.1.9-1.7l4 1.3c.4-.8.7-1.6 1-2.4l-3.7-2c.2-.6.4-1.2.6-1.9l4.1.6c.2-.8.4-1.7.6-2.5l-4-1.3c.1-.6.2-1.3.3-2l4.2-.2c.1-.9.1-1.7.1-2.6l-4.1-.6c0-.7 0-1.3-.1-2l4.1-.9c-.1-.9-.2-1.7-.4-2.6l-4.2.2c.3-.4.1-1 0-1.7zm-2.8-.1l-21.1 5.9c-.2-.6-.6-1.2-1-1.7l15.3-15.7c3.1 3.2 5.5 7.1 6.8 11.5zm-25.2 10.1c-1.3.4-2.8-.4-3.1-1.8-.4-1.4.4-2.8 1.8-3.1 1.3-.4 2.7.4 3.1 1.8.3 1.3-.5 2.7-1.8 3.1zm17.9-22l-15.3 15.7c-.5-.4-1.1-.7-1.7-.9l5.4-21.2c4.4 1.1 8.4 3.3 11.6 6.4zm-12.3-6.7l-5.4 21.2c-.6-.1-1.3-.1-1.9 0l-5.9-21.1c4.5-1.1 9-1.1 13.2-.1zm-13.9.4l5.9 21.1c-.6.2-1.2.6-1.7 1l-15.7-15.3c3.1-3.2 7-5.5 11.5-6.8zm-12 7.2L94.9 288c-.4.5-.7 1.1-.9 1.7l-21.2-5.4c1.1-4.3 3.3-8.3 6.4-11.6zM72.5 285l21.2 5.4c-.1.6-.1 1.3 0 1.9l-21.1 5.9c-1.1-4.4-1.1-8.9-.1-13.2zm.4 14l21.1-5.9c.2.6.6 1.2 1 1.7l-15.3 15.7c-3.1-3.1-5.5-7-6.8-11.5zm7.3 12l15.3-15.7c.5.4 1.1.7 1.7.9l-5.4 21.2c-4.4-1.1-8.4-3.3-11.6-6.4zm12.3 6.6l5.4-21.2c.6.1 1.3.1 1.9 0l5.9 21.1c-4.4 1.2-9 1.2-13.2.1zm14-.3l-5.9-21.1c.6-.2 1.2-.6 1.7-1l15.7 15.3c-3.2 3.1-7.1 5.5-11.5 6.8zm11.9-7.3l-15.7-15.3c.4-.5.7-1.1.9-1.7l21.2 5.4c-1.1 4.4-3.3 8.3-6.4 11.6zm6.7-12.3l-21.2-5.4c.1-.6.1-1.3 0-1.9l21.1-5.9c1.1 4.4 1.1 9 .1 13.2zM83.1 175.4v-6.5l-9.3-3.2c-.3-1.4-.6-2.7-1.1-4l6.4-7.5-3.3-5.7-9.7 1.8c-.9-1-1.9-2-2.9-2.9l1.8-9.7-5.7-3.3L52 141c-1.3-.4-2.6-.8-3.9-1l-3.3-9.3h-6.5L35 140c-1.3.3-2.7.6-3.9 1l-7.5-6.5-5.7 3.3 1.8 9.7c-1 .9-2 1.8-2.9 2.9l-9.7-1.8-3.3 5.7 6.4 7.5c-.4 1.3-.8 2.6-1.1 4L0 168.9v6.5l9.2 3.2c.3 1.4.6 2.7 1.1 4L3.9 190l3.3 5.7 9.6-1.8c.9 1.1 1.9 2.1 3 3l-1.8 9.6 5.7 3.3 7.4-6.3c1.3.5 2.7.8 4.1 1.1l3.2 9.2h6.5l3.2-9.2c1.4-.3 2.8-.6 4.1-1.1l7.4 6.3 5.7-3.3-1.8-9.6c1.1-.9 2-1.9 3-3l9.6 1.8 3.3-5.7-6.4-7.4c.4-1.3.8-2.7 1.1-4l9-3.2zm-41.6 13.4c-9.1 0-16.5-7.4-16.5-16.5s7.4-16.5 16.5-16.5S58 163.2 58 172.3c.1 9.1-7.3 16.5-16.5 16.5zM183.9 410.3v-2.1l-3-1.1c-.1-.4-.2-.9-.3-1.3l2.1-2.4-1.1-1.8-3.1.6-.9-.9.6-3.1-1.8-1.1-2.4 2.1c-.4-.1-.8-.3-1.3-.3l-1.1-3h-2.1l-1.1 3c-.4.1-.9.2-1.3.3l-2.4-2.1-1.8 1.1.6 3.1-.9.9-3.1-.6-1.1 1.8 2.1 2.4c-.1.4-.3.8-.3 1.3l-3 1.1v2.1l3 1c.1.4.2.9.3 1.3l-2.1 2.4 1.1 1.8 3.1-.6c.3.3.6.7 1 1l-.6 3.1 1.8 1.1 2.4-2.1c.4.1.9.3 1.3.4l1 3h2.1l1-3c.5-.1.9-.2 1.3-.4l2.4 2.1 1.8-1.1-.6-3.1c.3-.3.7-.6 1-1l3.1.6 1.1-1.8-2.1-2.4c.1-.4.3-.9.3-1.3l3-1zm-13.4 4.3c-3 0-5.4-2.4-5.4-5.4 0-3 2.4-5.4 5.4-5.4 3 0 5.4 2.4 5.4 5.4-.1 3-2.5 5.4-5.4 5.4zM339.1 149.4v-3.6L334 144c-.2-.7-.4-1.5-.6-2.2l3.5-4.1-1.8-3.1-5.3 1c-.5-.6-1-1.1-1.6-1.6l1-5.3-3.1-1.8-4.1 3.5c-.7-.2-1.4-.4-2.2-.6l-1.8-5.1h-3.6l-1.8 5.1c-.7.1-1.5.3-2.2.6l-4.1-3.5-3.1 1.8 1 5.3c-.6.5-1.1 1-1.6 1.6l-5.3-1-1.8 3.1 3.5 4.1c-.2.7-.4 1.4-.6 2.2l-5.1 1.8v3.6l5.1 1.8c.1.7.3 1.5.6 2.2l-3.5 4.1 1.8 3.1 5.3-1c.5.6 1.1 1.1 1.6 1.6l-1 5.2 3.1 1.8 4-3.5c.7.2 1.5.4 2.3.6l1.8 5h3.6l1.8-5c.8-.2 1.5-.4 2.3-.6l4 3.5 3.1-1.8-1-5.2c.6-.5 1.1-1.1 1.6-1.6l5.3 1 1.8-3.1-3.5-4.1c.2-.7.4-1.5.6-2.2l5.1-1.8zm-22.8 7.3c-5 0-9.1-4.1-9.1-9.1s4.1-9.1 9.1-9.1 9.1 4.1 9.1 9.1-4.1 9.1-9.1 9.1zM265.4 315.5l1.1-3.5-4.4-3.4c.1-.8.1-1.5.1-2.3l4.7-2.9-.8-3.6-5.5-.7c-.3-.7-.7-1.4-1.1-2l2.7-4.9-2.5-2.7-5.1 2.2c-.6-.4-1.3-.9-1.9-1.2l-.1-5.6-3.5-1.1-3.4 4.4c-.8-.1-1.5-.1-2.3-.1l-2.9-4.8-3.5.7-.7 5.5c-.7.3-1.4.6-2 1l-4.9-2.7-2.7 2.5 2.1 5.1c-.5.6-.9 1.3-1.3 1.9l-5.5.1-1.1 3.5 4.4 3.3c-.1.8-.1 1.6-.1 2.4l-4.7 2.9.8 3.6 5.5.7c.3.7.7 1.4 1.1 2.1l-2.6 4.8 2.5 2.7 5-2.1c.6.5 1.3.9 2 1.3l.1 5.5 3.5 1.1 3.3-4.4c.8.1 1.6.1 2.4.1l2.8 4.7 3.6-.8.7-5.4c.7-.3 1.4-.7 2.1-1.1l4.8 2.6 2.7-2.5-2.1-5.1c.5-.6.9-1.3 1.3-2l5.4.2zm-24.6 0c-4.9-1.6-7.6-6.8-6-11.7 1.6-4.9 6.8-7.6 11.7-6 4.9 1.6 7.6 6.8 6 11.7-1.5 4.9-6.8 7.6-11.7 6z"/></g></svg>