<svg xmlns="http://www.w3.org/2000/svg" width="42" height="42" viewBox="0 0 80.4 80.4"><path d="M57.9 70.8c-.1-.6-.5-.6-1.1-.2-.9.7-2.2 1.2-3.9 1.7s-3.6.8-5.8.8c-3.8 0-6.7-.7-8.6-2.2-.1-.1-.3-.2-.6-.2s-.7.2-1.2.5c-.2.2-.3.4-.3.7 0 .3.1.6.3.9 1 .9 2.3 1.6 3.9 2 1.6.4 3.1.6 4.6.6 1.5 0 2.9-.1 4.4-.2 1.2-.1 2.5-.4 3.8-.9s2.3-.9 2.9-1.3 1.1-.7 1.3-.9c.4-.3.5-.8.3-1.3zm-1.7-5.1c-.6-1.4-1.1-2.3-1.7-2.7-.7-.4-1.8-.7-3.4-.7-1.4 0-2.4.1-3.2.4-.9.4-2 1.2-3.5 2.5-.8.7-.9 1.4-.5 2 .3.2.5.3.8.2s.7-.5 1.4-1c.1-.1.2-.2.5-.4.2-.2.4-.3.5-.4.1-.1.2-.2.4-.3.2-.1.4-.3.5-.3.1-.1.3-.1.6-.2.2-.1.5-.2.7-.2.2 0 .5-.1.7-.1h.9c.8 0 1.5.1 2 .3.5.2.9.4 1 .6.2.2.4.5.6 1 .3.5.5.8.6.9.1.1.3.1.6 0 .5-.4.7-.9.5-1.6zm15.7-12.5c0-.7-.1-1.3-.2-2s-.4-1.3-.7-2-.8-1.2-1.5-1.6c-.7-.4-1.5-.6-2.4-.6-1 0-2.4.6-4.3 1.8-1.9 1.2-3.8 2.5-5.7 3.7-1.9 1.2-3.4 1.9-4.5 1.9-.8 0-1.7-.3-2.8-.8-1.1-.6-2.2-1.3-3.4-2.2s-2.4-1.7-3.7-2.6-2.8-1.6-4.4-2.2c-1.7-.6-3.3-.9-4.9-.8-3.4 0-6.3 1.2-8.8 3.5s-3.7 4.9-3.7 7.9c-.1 3.3 1 5.7 3.3 7.3.9.6 1.8 1 2.8 1.3s2.5.4 4.6.4c1.7 0 3.6-.5 5.9-1.4 2.2-1 4.2-2 6-3.2s3.5-2.2 5.3-3.1 3.2-1.4 4.1-1.4c.8 0 1.7.5 2.9 1.4 1.2.9 2.2 1.9 3.2 3s2 2.1 3 3c1.1.9 1.9 1.4 2.5 1.4 1 .1 1.9-.1 2.6-.6.7-.5 1.5-1.4 2.5-2.8.8-1.2 1.5-2.7 1.9-4.5s.4-3.4.4-4.8zm2.4-7.1c0 4.9-.9 9.4-2.8 13.5-1.8 4.2-4.3 7.7-7.4 10.5s-6.7 5-10.8 6.6-8.4 2.4-12.9 2.4-8.8-.9-13-2.6c-4.2-1.7-7.8-4-11-7S10.7 63 8.8 58.8 6 50.1 6 45.4c0-2.6.3-5.2.9-7.7s1.3-4.6 2.2-6.5c.9-1.8 1.9-3.6 3.1-5.3 1.2-1.7 2.4-3.1 3.5-4.2s2.3-2.1 3.5-3.1c1.2-.9 2.2-1.6 2.9-2.1.7-.4 1.3-.8 1.9-1.1.4-.2 1.2-.6 2.3-1.2 1.1-.5 1.9-1 2.4-1.3.5-.3 1.2-.7 2.1-1.3.9-.6 1.8-1.2 2.7-2 1.1-.8 1.9-1.9 2.6-3.2s1.1-3.2 1.3-5.6c3.8 4.6 6.6 7.4 8.3 8.6 1.3.9 3.2 1.9 5.8 3s4.5 2.1 5.7 2.9c.6.4 1.2.8 1.7 1.1.5.4 1.4 1 2.7 2.1S64 21 64.9 22c1 1.1 2.1 2.5 3.3 4.2 1.2 1.7 2.3 3.6 3.1 5.4s1.5 4.1 2.1 6.6.9 5.2.9 7.9z"/></svg>