<svg xmlns="http://www.w3.org/2000/svg" viewBox="0 0 141.5 260" enable-background="new 0 0 141.5 260"><g fill="#fff"><path d="M-2733.2 701.6l-4.5-6.6h-3.5v6.6h-1.4v-16h6c2.8 0 4.9 1.8 4.9 4.7 0 2.9-2 4.5-4.4 4.6l4.6 6.7h-1.7zm0-11.4c0-2-1.4-3.4-3.6-3.4h-4.5v6.9h4.5c2.2 0 3.6-1.4 3.6-3.5zM-2729.8 695.8c0-3.4 2.4-6.1 5.6-6.1 3.5 0 5.5 2.8 5.5 6.1v.3h-9.7c.1 2.5 1.8 4.6 4.5 4.6 1.5 0 2.8-.6 3.8-1.6l.6.8c-1.2 1.2-2.6 1.9-4.5 1.9-3.4.1-5.8-2.5-5.8-6zm5.6-5c-2.7 0-4.1 2.4-4.2 4.4h8.4c0-2-1.3-4.4-4.2-4.4zM-2716.5 700l.7-.9c.7.9 2.1 1.7 3.7 1.7 1.9 0 3.1-1 3.1-2.4 0-3.2-7.3-1.4-7.3-5.5 0-1.8 1.5-3.2 4.1-3.2 2 0 3.3.8 4.2 1.7l-.7.9c-.7-.9-1.9-1.5-3.5-1.5-1.8 0-2.9.9-2.9 2.1 0 2.9 7.3 1.1 7.3 5.6 0 1.9-1.4 3.4-4.3 3.4-1.8 0-3.3-.6-4.4-1.9zM-2703.3 699.7v6.3h-1.2v-16h1.2v1.8c.8-1.2 2.3-2.1 4-2.1 3.1 0 5.2 2.4 5.2 6.1 0 3.7-2.1 6.1-5.2 6.1-1.6 0-3-.9-4-2.2zm7.9-3.9c0-2.8-1.5-4.9-4.1-4.9-1.6 0-3.1 1-3.8 2.1v5.7c.7 1.1 2.2 2.1 3.8 2.1 2.6-.1 4.1-2.2 4.1-5zM-2691.5 695.8c0-3.4 2.2-6.1 5.5-6.1 3.4 0 5.6 2.7 5.6 6.1 0 3.4-2.2 6.1-5.6 6.1-3.4 0-5.5-2.8-5.5-6.1zm9.7 0c0-2.6-1.5-4.9-4.2-4.9s-4.2 2.4-4.2 4.9c0 2.6 1.5 5 4.2 5 2.7-.1 4.2-2.5 4.2-5zM-2669.4 701.6v-7.8c0-2.2-1.1-2.9-2.8-2.9-1.5 0-3 .9-3.8 2v8.8h-1.2V690h1.2v1.8c.8-1 2.5-2 4.2-2 2.4 0 3.6 1.2 3.6 3.8v8.1h-1.2zM-2665.2 700l.7-.9c.7.9 2.1 1.7 3.7 1.7 1.9 0 3.1-1 3.1-2.4 0-3.2-7.3-1.4-7.3-5.5 0-1.8 1.5-3.2 4.1-3.2 2 0 3.3.8 4.2 1.7l-.7.9c-.7-.9-1.9-1.5-3.5-1.5-1.8 0-2.9.9-2.9 2.1 0 2.9 7.3 1.1 7.3 5.6 0 1.9-1.4 3.4-4.3 3.4-1.9 0-3.3-.6-4.4-1.9zM-2653.6 687.2c0-.5.5-.9 1-.9s1 .4 1 .9-.4 1-1 1c-.5-.1-1-.5-1-1zm.4 14.4V690h1.2v11.6h-1.2zM-2645 701.6l-4.9-11.6h1.4l4.2 10.1 4.2-10.1h1.4l-4.9 11.6h-1.4zM-2637.2 695.8c0-3.4 2.4-6.1 5.6-6.1 3.5 0 5.5 2.8 5.5 6.1v.3h-9.7c.1 2.5 1.8 4.6 4.5 4.6 1.5 0 2.8-.6 3.8-1.6l.6.8c-1.2 1.2-2.6 1.9-4.5 1.9-3.4.1-5.8-2.5-5.8-6zm5.6-5c-2.7 0-4.1 2.4-4.2 4.4h8.4c0-2-1.3-4.4-4.2-4.4zM-2608.2 701.6v-1.8c-.8 1.2-2.3 2.1-4 2.1-3.1 0-5.2-2.4-5.2-6.1 0-3.7 2.1-6.1 5.2-6.1 1.7 0 3.1.8 4 2.2v-6.3h1.3v16h-1.3zm0-2.9V693c-.7-1.1-2.2-2.1-3.8-2.1-2.6 0-4.1 2.2-4.1 5s1.5 4.9 4.1 4.9c1.6-.1 3.2-1 3.8-2.1zM-2603.7 695.8c0-3.4 2.4-6.1 5.6-6.1 3.5 0 5.5 2.8 5.5 6.1v.3h-9.7c.1 2.5 1.8 4.6 4.5 4.6 1.5 0 2.8-.6 3.8-1.6l.6.8c-1.2 1.2-2.6 1.9-4.5 1.9-3.4.1-5.8-2.5-5.8-6zm5.6-5c-2.7 0-4.1 2.4-4.2 4.4h8.4c0-2-1.3-4.4-4.2-4.4zM-2590.4 700l.7-.9c.7.9 2.1 1.7 3.7 1.7 1.9 0 3.1-1 3.1-2.4 0-3.2-7.3-1.4-7.3-5.5 0-1.8 1.5-3.2 4.1-3.2 2 0 3.3.8 4.2 1.7l-.7.9c-.7-.9-1.9-1.5-3.5-1.5-1.8 0-2.9.9-2.9 2.1 0 2.9 7.3 1.1 7.3 5.6 0 1.9-1.4 3.4-4.3 3.4-1.8 0-3.3-.6-4.4-1.9zM-2578.7 687.2c0-.5.5-.9 1-.9s1 .4 1 .9-.4 1-1 1c-.6-.1-1-.5-1-1zm.3 14.4V690h1.2v11.6h-1.2zM-2573.2 704.5l.7-1c1 1.2 2.1 1.6 3.9 1.6 2.1 0 3.9-1.1 3.9-3.7v-1.8c-.8 1.2-2.3 2.2-4 2.2-3.1 0-5.2-2.3-5.2-6s2.1-6.1 5.2-6.1c1.7 0 3.1.8 4 2.2V690h1.3v11.5c0 3.5-2.4 4.8-5.2 4.8-2 0-3.3-.4-4.6-1.8zm8.5-5.9V693c-.7-1.1-2.2-2.1-3.8-2.1-2.6 0-4.1 2.1-4.1 4.9 0 2.8 1.5 4.9 4.1 4.9 1.6 0 3.1-1 3.8-2.1zM-2551.7 701.6v-7.8c0-2.2-1.1-2.9-2.8-2.9-1.5 0-3 .9-3.8 2v8.8h-1.2V690h1.2v1.8c.8-1 2.5-2 4.2-2 2.4 0 3.6 1.2 3.6 3.8v8.1h-1.2zM-2541 695.8c0-3.4 2.2-6.1 5.5-6.1 3.4 0 5.6 2.7 5.6 6.1 0 3.4-2.2 6.1-5.6 6.1-3.4 0-5.5-2.8-5.5-6.1zm9.7 0c0-2.6-1.5-4.9-4.2-4.9s-4.2 2.4-4.2 4.9c0 2.6 1.5 5 4.2 5 2.7-.1 4.2-2.5 4.2-5zM-2518.9 701.6v-7.8c0-2.2-1.1-2.9-2.8-2.9-1.5 0-3 .9-3.8 2v8.8h-1.2V690h1.2v1.8c.8-1 2.5-2 4.2-2 2.4 0 3.6 1.2 3.6 3.8v8.1h-1.2zM-2508.5 700l.7-.9c.7.9 2.1 1.7 3.7 1.7 1.9 0 3.1-1 3.1-2.4 0-3.2-7.3-1.4-7.3-5.5 0-1.8 1.5-3.2 4.1-3.2 2 0 3.3.8 4.2 1.7l-.7.9c-.7-.9-1.9-1.5-3.5-1.5-1.8 0-2.9.9-2.9 2.1 0 2.9 7.3 1.1 7.3 5.6 0 1.9-1.4 3.4-4.3 3.4-1.8 0-3.3-.6-4.4-1.9zM-2482.7 701.6v-8.1c0-1.6-.7-2.6-2.3-2.6-1.2 0-2.7.9-3.3 2v8.8h-1.3v-8.1c0-1.6-.7-2.6-2.3-2.6-1.2 0-2.6.9-3.3 2v8.8h-1.2V690h1.2v1.8c.5-.7 2.1-2 3.7-2 1.8 0 2.8 1.1 3 2.2.6-1.1 2.2-2.2 3.8-2.2 2.1 0 3.2 1.2 3.2 3.5v8.4h-1.2zM-2470.2 701.6v-1.4c-1 1.1-2.3 1.7-3.9 1.7-2 0-4.1-1.4-4.1-3.9s2-3.8 4.1-3.8c1.6 0 2.9.5 3.9 1.7v-2.4c0-1.7-1.4-2.7-3.1-2.7-1.5 0-2.6.5-3.6 1.7l-.7-.9c1.2-1.3 2.5-1.9 4.5-1.9 2.4 0 4.2 1.1 4.2 3.7v8.2h-1.3zm0-2.3v-2.5c-.8-1.1-2.1-1.6-3.5-1.6-1.9 0-3.2 1.2-3.2 2.9 0 1.6 1.3 2.9 3.2 2.9 1.4-.1 2.7-.7 3.5-1.7zM-2465.1 701.6V690h1.2v2c1-1.3 2.3-2.2 3.9-2.2v1.4h-.6c-1.2 0-2.8 1.1-3.3 2.1v8.4h-1.2zM-2457.2 699.3V691h-1.9v-1h1.9v-3.2h1.3v3.2h2.4v1.1h-2.4v8.1c0 .9.4 1.6 1.2 1.6.6 0 1-.3 1.3-.6l.5 1c-.5.4-1 .7-2 .7-1.6 0-2.3-1-2.3-2.6zM-2449.6 699.7v6.3h-1.2v-16h1.2v1.8c.8-1.2 2.3-2.1 4-2.1 3.1 0 5.2 2.4 5.2 6.1 0 3.7-2.1 6.1-5.2 6.1-1.6 0-3.1-.9-4-2.2zm7.9-3.9c0-2.8-1.5-4.9-4.1-4.9-1.6 0-3.1 1-3.8 2.1v5.7c.7 1.1 2.2 2.1 3.8 2.1 2.6-.1 4.1-2.2 4.1-5zM-2429.4 701.6v-7.9c0-2.2-1.1-2.9-2.8-2.9-1.5 0-3 .9-3.8 2v8.8h-1.2v-16h1.2v6.2c.8-1 2.5-2 4.2-2 2.4 0 3.6 1.1 3.6 3.7v8.2h-1.2zM-2424.9 695.8c0-3.4 2.2-6.1 5.5-6.1 3.4 0 5.6 2.7 5.6 6.1 0 3.4-2.2 6.1-5.6 6.1-3.4 0-5.5-2.8-5.5-6.1zm9.8 0c0-2.6-1.5-4.9-4.2-4.9s-4.2 2.4-4.2 4.9c0 2.6 1.5 5 4.2 5 2.6-.1 4.2-2.5 4.2-5zM-2402.8 701.6v-7.8c0-2.2-1.1-2.9-2.8-2.9-1.5 0-3 .9-3.8 2v8.8h-1.2V690h1.2v1.8c.8-1 2.5-2 4.2-2 2.4 0 3.6 1.2 3.6 3.8v8.1h-1.2zM-2398.3 695.8c0-3.4 2.4-6.1 5.6-6.1 3.5 0 5.5 2.8 5.5 6.1v.3h-9.7c.1 2.5 1.8 4.6 4.5 4.6 1.5 0 2.8-.6 3.8-1.6l.6.8c-1.2 1.2-2.6 1.9-4.5 1.9-3.4.1-5.8-2.5-5.8-6zm5.6-5c-2.7 0-4.1 2.4-4.2 4.4h8.4c0-2-1.3-4.4-4.2-4.4z"/></g><path fill="#34495E" d="M-2617.5 628.4c-10 0-18.1-8.2-18.1-18.1V386.5c0-10 8.2-18.1 18.1-18.1h105.2c10 0 18.1 8.2 18.1 18.1v223.7c0 10-8.2 18.1-18.1 18.1h-105.2z"/><path fill="#283A4D" d="M-2549.2 609.7c0 2.4-1.9 4.3-4.3 4.3h-22.7c-2.4 0-4.3-1.9-4.3-4.3v-1.8c0-2.4 2-4.3 4.3-4.3h22.7c2.4 0 4.3 1.9 4.3 4.3v1.8zM-2559.7 388c0 2.9-2.3 5.2-5.2 5.2-2.9 0-5.2-2.3-5.2-5.2 0-2.9 2.4-5.2 5.2-5.2 2.9 0 5.2 2.4 5.2 5.2z"/><path fill="#5D6D7E" d="M-2562.5 388c0 1.4-1.1 2.5-2.5 2.5s-2.5-1.1-2.5-2.5 1.1-2.5 2.5-2.5c1.4.1 2.5 1.2 2.5 2.5z"/><path fill="#fff" d="M-2625.4 407.7h120.9v181.4h-120.9z"/><path fill="#E6625C" d="M-2616.1 417h102.3v15.6h-102.3z"/><path fill="#E8E8E8" d="M-2616.1 563.4h102.3v5.1h-102.3zM-2616.1 574.7h102.3v5.1h-102.3z"/><path fill="#B3E9FF" d="M-2616.1 477.1h102.3v80.2h-102.3z"/><path fill="#D4D6D8" d="M-2616.1 438.8h102.3V471h-102.3z"/><g fill="#fff"><path d="M-2213.7 702.5l-4.5-6.6h-3.5v6.6h-1.4v-16h6c2.8 0 4.9 1.8 4.9 4.7 0 2.9-2 4.5-4.4 4.6l4.6 6.7h-1.7zm0-11.4c0-2-1.4-3.4-3.6-3.4h-4.5v6.9h4.5c2.2 0 3.6-1.5 3.6-3.5zM-2210.2 696.6c0-3.4 2.4-6.1 5.6-6.1 3.5 0 5.5 2.8 5.5 6.1v.3h-9.7c.1 2.5 1.8 4.6 4.5 4.6 1.5 0 2.8-.6 3.8-1.6l.6.8c-1.2 1.2-2.6 1.9-4.5 1.9-3.4.1-5.8-2.4-5.8-6zm5.5-4.9c-2.7 0-4.1 2.4-4.2 4.4h8.4c0-2-1.3-4.4-4.2-4.4zM-2197 700.9l.7-.9c.7.9 2.1 1.7 3.7 1.7 1.9 0 3.1-1 3.1-2.4 0-3.2-7.3-1.4-7.3-5.5 0-1.8 1.5-3.2 4.1-3.2 2 0 3.3.8 4.2 1.7l-.7.9c-.7-.9-1.9-1.5-3.5-1.5-1.8 0-2.9.9-2.9 2.1 0 2.9 7.3 1.1 7.3 5.6 0 1.9-1.4 3.4-4.3 3.4-1.8-.1-3.2-.6-4.4-1.9zM-2183.7 700.6v6.3h-1.2v-16h1.2v1.8c.8-1.2 2.3-2.1 4-2.1 3.1 0 5.2 2.4 5.2 6.1 0 3.7-2.1 6.1-5.2 6.1-1.6-.1-3.1-.9-4-2.2zm7.8-4c0-2.8-1.5-4.9-4.1-4.9-1.6 0-3.1 1-3.8 2.1v5.7c.7 1.1 2.2 2.1 3.8 2.1 2.7 0 4.1-2.1 4.1-5zM-2172 696.6c0-3.4 2.2-6.1 5.5-6.1 3.4 0 5.6 2.7 5.6 6.1 0 3.4-2.2 6.1-5.6 6.1-3.4 0-5.5-2.7-5.5-6.1zm9.8 0c0-2.6-1.5-4.9-4.2-4.9s-4.2 2.4-4.2 4.9c0 2.6 1.5 5 4.2 5s4.2-2.4 4.2-5zM-2149.8 702.5v-7.8c0-2.2-1.1-2.9-2.8-2.9-1.5 0-3 .9-3.8 2v8.8h-1.2V691h1.2v1.8c.8-1 2.5-2 4.2-2 2.4 0 3.6 1.2 3.6 3.8v8.1h-1.2zM-2145.7 700.9l.7-.9c.7.9 2.1 1.7 3.7 1.7 1.9 0 3.1-1 3.1-2.4 0-3.2-7.3-1.4-7.3-5.5 0-1.8 1.5-3.2 4.1-3.2 2 0 3.3.8 4.2 1.7l-.7.9c-.7-.9-1.9-1.5-3.5-1.5-1.8 0-2.9.9-2.9 2.1 0 2.9 7.3 1.1 7.3 5.6 0 1.9-1.4 3.4-4.3 3.4-1.8-.1-3.3-.6-4.4-1.9zM-2134 688.1c0-.5.5-.9 1-.9s1 .4 1 .9-.4 1-1 1c-.6-.1-1-.5-1-1zm.3 14.4v-11.6h1.2v11.6h-1.2zM-2125.4 702.5l-4.9-11.6h1.4l4.2 10.1 4.2-10.1h1.4l-4.9 11.6h-1.4zM-2117.7 696.6c0-3.4 2.4-6.1 5.6-6.1 3.5 0 5.5 2.8 5.5 6.1v.3h-9.7c.1 2.5 1.8 4.6 4.5 4.6 1.5 0 2.8-.6 3.8-1.6l.6.8c-1.2 1.2-2.6 1.9-4.5 1.9-3.4.1-5.8-2.4-5.8-6zm5.6-4.9c-2.7 0-4.1 2.4-4.2 4.4h8.4c0-2-1.3-4.4-4.2-4.4zM-2088.6 702.5v-1.8c-.8 1.2-2.3 2.1-4 2.1-3.1 0-5.2-2.4-5.2-6.1 0-3.7 2.1-6.1 5.2-6.1 1.7 0 3.1.8 4 2.2v-6.3h1.3v16h-1.3zm0-2.9v-5.7c-.7-1.1-2.2-2.1-3.8-2.1-2.6 0-4.1 2.2-4.1 5s1.5 4.9 4.1 4.9c1.6-.1 3.1-1 3.8-2.1zM-2084.1 696.6c0-3.4 2.4-6.1 5.6-6.1 3.5 0 5.5 2.8 5.5 6.1v.3h-9.7c.1 2.5 1.8 4.6 4.5 4.6 1.5 0 2.8-.6 3.8-1.6l.6.8c-1.2 1.2-2.6 1.9-4.5 1.9-3.4.1-5.8-2.4-5.8-6zm5.5-4.9c-2.7 0-4.1 2.4-4.2 4.4h8.4c0-2-1.3-4.4-4.2-4.4zM-2070.9 700.9l.7-.9c.7.9 2.1 1.7 3.7 1.7 1.9 0 3.1-1 3.1-2.4 0-3.2-7.3-1.4-7.3-5.5 0-1.8 1.5-3.2 4.1-3.2 2 0 3.3.8 4.2 1.7l-.7.9c-.7-.9-1.9-1.5-3.5-1.5-1.8 0-2.9.9-2.9 2.1 0 2.9 7.3 1.1 7.3 5.6 0 1.9-1.4 3.4-4.3 3.4-1.8-.1-3.2-.6-4.4-1.9zM-2059.2 688.1c0-.5.5-.9 1-.9s1 .4 1 .9-.4 1-1 1c-.5-.1-1-.5-1-1zm.3 14.4v-11.6h1.2v11.6h-1.2zM-2053.7 705.4l.7-1c1 1.2 2.1 1.6 3.9 1.6 2.1 0 3.9-1.1 3.9-3.7v-1.8c-.8 1.2-2.3 2.2-4 2.2-3.1 0-5.2-2.3-5.2-6s2.1-6.1 5.2-6.1c1.7 0 3.1.8 4 2.2v-1.9h1.3v11.5c0 3.5-2.4 4.8-5.2 4.8-2 0-3.2-.4-4.6-1.8zm8.5-5.9v-5.6c-.7-1.1-2.2-2.1-3.8-2.1-2.6 0-4.1 2.1-4.1 4.9 0 2.8 1.5 4.9 4.1 4.9 1.6 0 3.2-1 3.8-2.1zM-2032.2 702.5v-7.8c0-2.2-1.1-2.9-2.8-2.9-1.5 0-3 .9-3.8 2v8.8h-1.2V691h1.2v1.8c.8-1 2.5-2 4.2-2 2.4 0 3.6 1.2 3.6 3.8v8.1h-1.2zM-2021.5 696.6c0-3.4 2.2-6.1 5.5-6.1 3.4 0 5.6 2.7 5.6 6.1 0 3.4-2.2 6.1-5.6 6.1-3.4 0-5.5-2.7-5.5-6.1zm9.8 0c0-2.6-1.5-4.9-4.2-4.9s-4.2 2.4-4.2 4.9c0 2.6 1.5 5 4.2 5s4.2-2.4 4.2-5zM-1999.3 702.5v-7.8c0-2.2-1.1-2.9-2.8-2.9-1.5 0-3 .9-3.8 2v8.8h-1.2V691h1.2v1.8c.8-1 2.5-2 4.2-2 2.4 0 3.6 1.2 3.6 3.8v8.1h-1.2zM-1979.4 702.5v-1.8c-.8 1.2-2.3 2.1-4 2.1-3.1 0-5.2-2.4-5.2-6.1 0-3.7 2.1-6.1 5.2-6.1 1.7 0 3.1.8 4 2.2v-6.3h1.3v16h-1.3zm0-2.9v-5.7c-.7-1.1-2.2-2.1-3.8-2.1-2.6 0-4.1 2.2-4.1 5s1.5 4.9 4.1 4.9c1.6-.1 3.1-1 3.8-2.1zM-1974.9 696.6c0-3.4 2.4-6.1 5.6-6.1 3.5 0 5.5 2.8 5.5 6.1v.3h-9.7c.1 2.5 1.8 4.6 4.5 4.6 1.5 0 2.8-.6 3.8-1.6l.6.8c-1.2 1.2-2.6 1.9-4.5 1.9-3.4.1-5.8-2.4-5.8-6zm5.5-4.9c-2.7 0-4.1 2.4-4.2 4.4h8.4c0-2-1.3-4.4-4.2-4.4zM-1961.7 700.9l.7-.9c.7.9 2.1 1.7 3.7 1.7 1.9 0 3.1-1 3.1-2.4 0-3.2-7.3-1.4-7.3-5.5 0-1.8 1.5-3.2 4.1-3.2 2 0 3.3.8 4.2 1.7l-.7.9c-.7-.9-1.9-1.5-3.5-1.5-1.8 0-2.9.9-2.9 2.1 0 2.9 7.3 1.1 7.3 5.6 0 1.9-1.4 3.4-4.3 3.4-1.8-.1-3.2-.6-4.4-1.9zM-1941.6 702.5l-4.6-5.5-2.2 2v3.5h-1.2v-16h1.2v11l6.8-6.6h1.7l-5.4 5.2 5.4 6.4h-1.7zM-1937.3 700.2V692h-1.9v-1.1h1.9v-3.2h1.3v3.2h2.4v1.1h-2.4v8.1c0 .9.4 1.6 1.2 1.6.6 0 1-.3 1.3-.6l.5 1c-.5.4-1 .7-2 .7-1.6-.1-2.3-1-2.3-2.6zM-1931.6 696.6c0-3.4 2.2-6.1 5.5-6.1 3.4 0 5.6 2.7 5.6 6.1 0 3.4-2.2 6.1-5.6 6.1-3.3 0-5.5-2.7-5.5-6.1zm9.8 0c0-2.6-1.5-4.9-4.2-4.9s-4.2 2.4-4.2 4.9c0 2.6 1.5 5 4.2 5s4.2-2.4 4.2-5zM-1916 700.6v6.3h-1.2v-16h1.2v1.8c.8-1.2 2.3-2.1 4-2.1 3.1 0 5.2 2.4 5.2 6.1 0 3.7-2.1 6.1-5.2 6.1-1.6-.1-3-.9-4-2.2zm7.9-4c0-2.8-1.5-4.9-4.1-4.9-1.6 0-3.1 1-3.8 2.1v5.7c.7 1.1 2.2 2.1 3.8 2.1 2.6 0 4.1-2.1 4.1-5z"/></g><path fill="#E6EAEE" d="M-2024.4 624.9c-1-.8-1.5-1.9-1.8-3l-5.1-26.8h-67.4l-5.1 26.8c-.2 1.1-.8 2.2-1.8 3-1 .8-2.1 1.2-3.3 1.2h87.6c-1 0-2.1-.4-3.1-1.2z"/><path fill="#fff" d="M-2007.9 626.3c-.1-.1-.3-.2-.4-.2h-113.2c-.2 0-.3.1-.4.2-.1.1-.2.3-.2.4v.4c0 1.2 2.5 3.1 4.9 3.1h104.5c2.4 0 4.9-1.9 4.9-3.1v-.4c.1-.1 0-.3-.1-.4z"/><path fill="#E6EAEE" d="M-2021.1 626.1c-1.1 0-2.3-.4-3.3-1.2-1-.8-1.5-1.9-1.8-3l-5.1-26.8h-67.4l31 31h46.6z"/><path fill="#425A73" d="M-1914.9 375.2c0-2.2-.8-4.4-2.5-6.1-1.7-1.7-3.9-2.5-6.1-2.5h-282.8c-2.2 0-4.4.8-6.1 2.5-1.7 1.7-2.5 3.9-2.5 6.1v190.3h300V375.2z"/><path fill="#fff" d="M-1914.9 586.5c0 2.2-.8 4.4-2.5 6.1-1.7 1.7-3.9 2.5-6.1 2.5h-282.8c-2.2 0-4.4-.8-6.1-2.5-1.7-1.7-2.5-3.9-2.5-6.1v-21h300v21z"/><path fill="#425A73" d="M-1958.8 580.7c0 1.4 1.2 2.6 2.6 2.6h13.2c1.4 0 2.6-1.2 2.6-2.6v-.8c0-1.4-1.2-2.6-2.6-2.6h-13.2c-1.4 0-2.6 1.2-2.6 2.6v.8z"/><path fill="#fff" d="M-2199.8 381.8h269.7v168.5h-269.7z"/><path fill="#E6625C" d="M-2188.5 391.2h74.6v22.4h-74.6z"/><path fill="#E8E8E8" d="M-2102.2 391.2h162.7v22.4h-162.7zM-2190.3 517.4h250.8v7.4h-250.8zM-2190.3 533.5h250.8v7.4h-250.8z"/><path fill="#B3E9FF" d="M-2190.3 466.1h74.6v42.6h-74.6zM-2102.2 466.1h74.6v42.6h-74.6zM-2014.1 466.1h74.6v42.6h-74.6z"/><path fill="#D4D6D8" d="M-2190.3 422.4h250.8v35h-250.8z"/><g fill="#fff"><path d="M-2721.5 188.3l-5-7.5h-4v7.5h-1.5v-18h6.7c3.1 0 5.5 2 5.5 5.3s-2.3 5.1-5 5.2l5.2 7.6h-1.9zm0-12.7c0-2.3-1.6-3.9-4-3.9h-5v7.7h5c2.4.1 4-1.5 4-3.8zM-2717.6 181.8c0-3.8 2.6-6.8 6.3-6.8 4 0 6.2 3.1 6.2 6.9v.4h-10.9c.1 2.8 2 5.2 5.1 5.2 1.6 0 3.2-.6 4.3-1.8l.7.9c-1.3 1.4-2.9 2.1-5.1 2.1-3.9 0-6.6-2.9-6.6-6.9zm6.2-5.6c-3.1 0-4.6 2.7-4.7 5h9.5c-.1-2.3-1.5-5-4.8-5zM-2702.7 186.6l.8-1c.8 1.1 2.4 1.9 4.2 1.9 2.2 0 3.5-1.1 3.5-2.6 0-3.6-8.2-1.5-8.2-6.2 0-2 1.7-3.6 4.6-3.6 2.2 0 3.7.9 4.7 1.9l-.8 1c-.8-1-2.2-1.7-3.9-1.7-2 0-3.2 1-3.2 2.4 0 3.3 8.2 1.3 8.2 6.3 0 2.1-1.6 3.8-4.9 3.8-2.1-.1-3.7-.8-5-2.2zM-2687.8 186.2v7.1h-1.4v-18h1.4v2.1c.9-1.3 2.6-2.4 4.5-2.4 3.5 0 5.8 2.6 5.8 6.8 0 4.2-2.3 6.9-5.8 6.9-1.8 0-3.4-1-4.5-2.5zm8.9-4.4c0-3.2-1.6-5.6-4.6-5.6-1.8 0-3.5 1.1-4.3 2.3v6.5c.8 1.2 2.5 2.4 4.3 2.4 2.9 0 4.6-2.4 4.6-5.6zM-2674.6 181.8c0-3.8 2.4-6.8 6.2-6.8 3.9 0 6.3 3 6.3 6.8s-2.4 6.9-6.3 6.9c-3.8 0-6.2-3.1-6.2-6.9zm11 0c0-2.9-1.7-5.6-4.8-5.6-3 0-4.8 2.7-4.8 5.6 0 2.9 1.7 5.6 4.8 5.6 3.1 0 4.8-2.7 4.8-5.6zM-2649.7 188.3v-8.8c0-2.5-1.3-3.3-3.2-3.3-1.7 0-3.4 1.1-4.2 2.2v9.9h-1.4v-13h1.4v2c.9-1.1 2.8-2.3 4.7-2.3 2.6 0 4.1 1.3 4.1 4.2v9.1h-1.4zM-2645 186.6l.8-1c.8 1.1 2.4 1.9 4.2 1.9 2.2 0 3.5-1.1 3.5-2.6 0-3.6-8.2-1.5-8.2-6.2 0-2 1.7-3.6 4.6-3.6 2.2 0 3.7.9 4.7 1.9l-.8 1c-.8-1-2.2-1.7-3.9-1.7-2 0-3.2 1-3.2 2.4 0 3.3 8.2 1.3 8.2 6.3 0 2.1-1.6 3.8-4.9 3.8-2.1-.1-3.7-.8-5-2.2zM-2631.9 172.2c0-.6.5-1.1 1.1-1.1.6 0 1.1.5 1.1 1.1 0 .6-.5 1.1-1.1 1.1-.5-.1-1.1-.5-1.1-1.1zm.4 16.1v-13h1.4v13h-1.4zM-2622.2 188.3l-5.5-13h1.6l4.8 11.4 4.7-11.4h1.6l-5.5 13h-1.7zM-2613.4 181.8c0-3.8 2.6-6.8 6.3-6.8 4 0 6.2 3.1 6.2 6.9v.4h-10.9c.1 2.8 2 5.2 5.1 5.2 1.6 0 3.2-.6 4.3-1.8l.7.9c-1.3 1.4-2.9 2.1-5.1 2.1-3.9 0-6.6-2.9-6.6-6.9zm6.2-5.6c-3.1 0-4.6 2.7-4.7 5h9.5c-.1-2.3-1.5-5-4.8-5zM-2580.8 188.3v-2.1c-.9 1.3-2.6 2.4-4.5 2.4-3.5 0-5.8-2.6-5.8-6.8 0-4.1 2.3-6.9 5.8-6.9 1.9 0 3.5.9 4.5 2.4v-7.1h1.4v18h-1.4zm0-3.2v-6.5c-.8-1.3-2.5-2.4-4.3-2.4-2.9 0-4.6 2.4-4.6 5.6 0 3.2 1.7 5.6 4.6 5.6 1.8 0 3.5-1.1 4.3-2.3zM-2575.7 181.8c0-3.8 2.6-6.8 6.3-6.8 4 0 6.2 3.1 6.2 6.9v.4h-10.9c.1 2.8 2 5.2 5.1 5.2 1.6 0 3.2-.6 4.3-1.8l.7.9c-1.3 1.4-2.9 2.1-5.1 2.1-3.9 0-6.6-2.9-6.6-6.9zm6.2-5.6c-3.1 0-4.6 2.7-4.7 5h9.5c-.1-2.3-1.5-5-4.8-5zM-2560.8 186.6l.8-1c.8 1.1 2.4 1.9 4.2 1.9 2.2 0 3.5-1.1 3.5-2.6 0-3.6-8.2-1.5-8.2-6.2 0-2 1.7-3.6 4.6-3.6 2.2 0 3.7.9 4.7 1.9l-.8 1c-.8-1-2.2-1.7-3.9-1.7-2 0-3.2 1-3.2 2.4 0 3.3 8.2 1.3 8.2 6.3 0 2.1-1.6 3.8-4.9 3.8-2.1-.1-3.7-.8-5-2.2zM-2547.7 172.2c0-.6.5-1.1 1.1-1.1.6 0 1.1.5 1.1 1.1 0 .6-.5 1.1-1.1 1.1-.6-.1-1.1-.5-1.1-1.1zm.4 16.1v-13h1.4v13h-1.4zM-2541.5 191.7l.8-1.1c1.1 1.3 2.4 1.8 4.3 1.8 2.3 0 4.4-1.2 4.4-4.1v-2.1c-.9 1.3-2.6 2.5-4.5 2.5-3.5 0-5.8-2.6-5.8-6.8 0-4.1 2.3-6.8 5.8-6.8 1.9 0 3.5.9 4.5 2.4v-2.1h1.4v12.9c0 4-2.7 5.4-5.9 5.4-2.1-.1-3.5-.5-5-2zm9.6-6.7v-6.3c-.8-1.3-2.5-2.4-4.3-2.4-2.9 0-4.6 2.4-4.6 5.6s1.7 5.5 4.6 5.5c1.8-.1 3.5-1.2 4.3-2.4zM-2517.3 188.3v-8.8c0-2.5-1.3-3.3-3.2-3.3-1.7 0-3.4 1.1-4.2 2.2v9.9h-1.4v-13h1.4v2c.9-1.1 2.8-2.3 4.7-2.3 2.6 0 4.1 1.3 4.1 4.2v9.1h-1.4zM-2505.3 181.8c0-3.8 2.4-6.8 6.2-6.8 3.9 0 6.3 3 6.3 6.8s-2.4 6.9-6.3 6.9c-3.8 0-6.2-3.1-6.2-6.9zm11 0c0-2.9-1.7-5.6-4.8-5.6-3 0-4.8 2.7-4.8 5.6 0 2.9 1.7 5.6 4.8 5.6 3.1 0 4.8-2.7 4.8-5.6zM-2480.3 188.3v-8.8c0-2.5-1.3-3.3-3.2-3.3-1.7 0-3.4 1.1-4.2 2.2v9.9h-1.4v-13h1.4v2c.9-1.1 2.8-2.3 4.7-2.3 2.6 0 4.1 1.3 4.1 4.2v9.1h-1.4zM-2467.6 188.3v-18h1.4v18h-1.4zM-2453.5 188.3v-1.5c-1.2 1.3-2.6 1.9-4.4 1.9-2.2 0-4.6-1.5-4.6-4.3s2.3-4.3 4.6-4.3c1.8 0 3.3.6 4.4 1.9v-2.6c0-1.9-1.6-3-3.5-3-1.6 0-2.9.6-4.1 1.9l-.8-1c1.3-1.5 2.9-2.2 5-2.2 2.6 0 4.8 1.3 4.8 4.2v9.2h-1.4zm0-2.5v-2.9c-.9-1.2-2.4-1.8-3.9-1.8-2.1 0-3.6 1.4-3.6 3.2 0 1.8 1.4 3.2 3.6 3.2 1.5.1 3-.5 3.9-1.7zM-2446.3 186.2v7.1h-1.4v-18h1.4v2.1c.9-1.3 2.6-2.4 4.5-2.4 3.5 0 5.8 2.6 5.8 6.8 0 4.2-2.3 6.9-5.8 6.9-1.8 0-3.5-1-4.5-2.5zm8.8-4.4c0-3.2-1.6-5.6-4.6-5.6-1.8 0-3.5 1.1-4.3 2.3v6.5c.8 1.2 2.5 2.4 4.3 2.4 3 0 4.6-2.4 4.6-5.6zM-2432.1 185.8v-9.3h-2.2v-1.2h2.2v-3.6h1.4v3.6h2.6v1.2h-2.6v9.1c0 1.1.4 1.8 1.3 1.8.6 0 1.2-.3 1.5-.6l.5 1.1c-.5.5-1.1.8-2.2.8-1.7 0-2.5-1.1-2.5-2.9zM-2425.7 181.8c0-3.8 2.4-6.8 6.2-6.8 3.9 0 6.3 3 6.3 6.8s-2.4 6.9-6.3 6.9c-3.8 0-6.2-3.1-6.2-6.9zm11 0c0-2.9-1.7-5.6-4.8-5.6-3 0-4.8 2.7-4.8 5.6 0 2.9 1.7 5.6 4.8 5.6 3.1 0 4.8-2.7 4.8-5.6zM-2408.2 186.2v7.1h-1.4v-18h1.4v2.1c.9-1.3 2.6-2.4 4.5-2.4 3.5 0 5.8 2.6 5.8 6.8 0 4.2-2.3 6.9-5.8 6.9-1.8 0-3.4-1-4.5-2.5zm8.9-4.4c0-3.2-1.6-5.6-4.6-5.6-1.8 0-3.5 1.1-4.3 2.3v6.5c.8 1.2 2.5 2.4 4.3 2.4 2.9 0 4.6-2.4 4.6-5.6z"/></g><path fill="#34495E" d="M-2422.3 76c0 2.4-.9 4.8-2.8 6.7-1.9 1.9-4.3 2.8-6.7 2.8h-266.4c-2.4 0-4.8-.9-6.7-2.8-1.8-1.8-2.8-4.3-2.8-6.7V-94.3c0-2.4.9-4.8 2.8-6.7 1.9-1.8 4.3-2.8 6.7-2.8h266.4c2.4 0 4.8.9 6.7 2.8 1.8 1.8 2.8 4.3 2.8 6.7V76z"/><path fill="#283A4D" d="M-2561.7-96.3c0 1.8-1.4 3.2-3.2 3.2-1.8 0-3.2-1.4-3.2-3.2 0-1.8 1.4-3.2 3.2-3.2 1.7 0 3.2 1.4 3.2 3.2z"/><path fill="#5D6D7E" d="M-2563.6-96.3c0 .7-.6 1.3-1.3 1.3-.7 0-1.3-.6-1.3-1.3 0-.7.6-1.3 1.3-1.3.7 0 1.3.6 1.3 1.3z"/><path fill="#CDD3DA" d="M-2389.9 90.9c-5.1 5.9-12.6 9.6-21 9.6h-308c-8.4 0-15.9-3.7-21-9.6h350z"/><path fill="#fff" d="M-2389.9 91h-350v-4c0-.4.2-.8.5-1.1.3-.3.7-.5 1.1-.5h346.8c.4 0 .8.2 1.1.5.3.3.5.7.5 1.1v4z"/><path fill="#AAB5BD" d="M-2532.4 86.4c0 .5-.2 1-.6 1.3-.4.4-.8.5-1.3.5h-61.3c-.5 0-1-.2-1.3-.5-.4-.4-.6-.9-.6-1.3v-.9h65v.9z"/><path fill="#fff" d="M-2692.7-89.2h255.6V70.5h-255.6z"/><path fill="#E6625C" d="M-2682.1-80.2h70.7V-59h-70.7z"/><path fill="#E8E8E8" d="M-2600.3-80.2h154.2V-59h-154.2zM-2683.8 39.4h237.7v7h-237.7zM-2683.8 54.6h237.7v7h-237.7z"/><path fill="#B3E9FF" d="M-2683.8-9.3h70.7V31h-70.7zM-2600.3-9.3h70.7V31h-70.7zM-2516.8-9.3h70.7V31h-70.7z"/><path fill="#D4D6D8" d="M-2683.8-50.7h237.7v33.2h-237.7z"/><g fill="#fff"><path d="M-2218.1 202.3l-5-7.5h-4v7.5h-1.5v-18h6.7c3.1 0 5.5 2 5.5 5.3s-2.3 5.1-5 5.2l5.2 7.6h-1.9zm0-12.8c0-2.3-1.6-3.9-4-3.9h-5v7.7h5c2.4.1 4-1.5 4-3.8zM-2214.3 195.7c0-3.8 2.6-6.8 6.3-6.8 4 0 6.2 3.1 6.2 6.9v.4h-10.9c.1 2.8 2 5.2 5.1 5.2 1.6 0 3.2-.6 4.3-1.8l.7.9c-1.3 1.4-2.9 2.1-5.1 2.1-3.9 0-6.6-2.8-6.6-6.9zm6.3-5.6c-3.1 0-4.6 2.7-4.7 5h9.5c-.1-2.2-1.6-5-4.8-5zM-2199.3 200.5l.8-1c.8 1.1 2.4 1.9 4.2 1.9 2.2 0 3.5-1.1 3.5-2.6 0-3.6-8.2-1.5-8.2-6.2 0-2 1.7-3.6 4.6-3.6 2.2 0 3.7.9 4.7 1.9l-.8 1c-.8-1-2.2-1.7-3.9-1.7-2 0-3.2 1-3.2 2.4 0 3.3 8.2 1.3 8.2 6.3 0 2.1-1.6 3.8-4.9 3.8-2.1-.1-3.8-.7-5-2.2zM-2184.4 200.2v7.1h-1.4v-18h1.4v2.1c.9-1.3 2.6-2.4 4.5-2.4 3.5 0 5.8 2.6 5.8 6.8 0 4.2-2.3 6.9-5.8 6.9-1.8-.1-3.5-1.1-4.5-2.5zm8.8-4.5c0-3.2-1.6-5.6-4.6-5.6-1.8 0-3.5 1.1-4.3 2.3v6.5c.8 1.2 2.5 2.4 4.3 2.4 3 0 4.6-2.4 4.6-5.6zM-2171.2 195.7c0-3.8 2.4-6.8 6.2-6.8 3.9 0 6.3 3 6.3 6.8s-2.4 6.9-6.3 6.9c-3.8 0-6.2-3.1-6.2-6.9zm11 0c0-2.9-1.7-5.6-4.8-5.6-3 0-4.8 2.7-4.8 5.6 0 2.9 1.7 5.6 4.8 5.6 3.1 0 4.8-2.6 4.8-5.6zM-2146.3 202.3v-8.8c0-2.5-1.3-3.3-3.2-3.3-1.7 0-3.4 1.1-4.2 2.2v9.9h-1.4v-13h1.4v2c.9-1.1 2.8-2.3 4.7-2.3 2.6 0 4.1 1.3 4.1 4.2v9.1h-1.4zM-2141.6 200.5l.8-1c.8 1.1 2.4 1.9 4.2 1.9 2.2 0 3.5-1.1 3.5-2.6 0-3.6-8.2-1.5-8.2-6.2 0-2 1.7-3.6 4.6-3.6 2.2 0 3.7.9 4.7 1.9l-.8 1c-.8-1-2.2-1.7-3.9-1.7-2 0-3.2 1-3.2 2.4 0 3.3 8.2 1.3 8.2 6.3 0 2.1-1.6 3.8-4.9 3.8-2.1-.1-3.8-.7-5-2.2zM-2128.5 186.1c0-.6.5-1.1 1.1-1.1.6 0 1.1.5 1.1 1.1 0 .6-.5 1.1-1.1 1.1-.6 0-1.1-.5-1.1-1.1zm.4 16.2v-13h1.4v13h-1.4zM-2118.8 202.3l-5.5-13h1.6l4.8 11.4 4.7-11.4h1.6l-5.5 13h-1.7zM-2110.1 195.7c0-3.8 2.6-6.8 6.3-6.8 4 0 6.2 3.1 6.2 6.9v.4h-10.9c.1 2.8 2 5.2 5.1 5.2 1.6 0 3.2-.6 4.3-1.8l.7.9c-1.3 1.4-2.9 2.1-5.1 2.1-3.9 0-6.6-2.8-6.6-6.9zm6.2-5.6c-3.1 0-4.6 2.7-4.7 5h9.5c0-2.2-1.5-5-4.8-5zM-2077.4 202.3v-2.1c-.9 1.3-2.6 2.4-4.5 2.4-3.5 0-5.8-2.6-5.8-6.8 0-4.1 2.3-6.9 5.8-6.9 1.9 0 3.5.9 4.5 2.4v-7.1h1.4v18h-1.4zm0-3.3v-6.5c-.8-1.3-2.5-2.4-4.3-2.4-2.9 0-4.6 2.4-4.6 5.6s1.7 5.6 4.6 5.6c1.8 0 3.5-1.1 4.3-2.3zM-2072.4 195.7c0-3.8 2.6-6.8 6.3-6.8 4 0 6.2 3.1 6.2 6.9v.4h-10.9c.1 2.8 2 5.2 5.1 5.2 1.6 0 3.2-.6 4.3-1.8l.7.9c-1.3 1.4-2.9 2.1-5.1 2.1-3.9 0-6.6-2.8-6.6-6.9zm6.3-5.6c-3.1 0-4.6 2.7-4.7 5h9.5c-.1-2.2-1.6-5-4.8-5zM-2057.5 200.5l.8-1c.8 1.1 2.4 1.9 4.2 1.9 2.2 0 3.5-1.1 3.5-2.6 0-3.6-8.2-1.5-8.2-6.2 0-2 1.7-3.6 4.6-3.6 2.2 0 3.7.9 4.7 1.9l-.8 1c-.8-1-2.2-1.7-3.9-1.7-2 0-3.2 1-3.2 2.4 0 3.3 8.2 1.3 8.2 6.3 0 2.1-1.6 3.8-4.9 3.8-2.1-.1-3.7-.7-5-2.2zM-2044.3 186.1c0-.6.5-1.1 1.1-1.1.6 0 1.1.5 1.1 1.1 0 .6-.5 1.1-1.1 1.1-.6 0-1.1-.5-1.1-1.1zm.4 16.2v-13h1.4v13h-1.4zM-2038.1 205.6l.8-1.1c1.1 1.3 2.4 1.8 4.3 1.8 2.3 0 4.4-1.2 4.4-4.1v-2.1c-.9 1.3-2.6 2.5-4.5 2.5-3.5 0-5.8-2.6-5.8-6.8 0-4.1 2.3-6.8 5.8-6.8 1.9 0 3.5.9 4.5 2.4v-2.1h1.4v12.9c0 4-2.7 5.4-5.9 5.4-2.1 0-3.5-.4-5-2zm9.5-6.7v-6.3c-.8-1.3-2.5-2.4-4.3-2.4-2.9 0-4.6 2.4-4.6 5.6s1.7 5.5 4.6 5.5c1.9 0 3.6-1.1 4.3-2.4zM-2014 202.3v-8.8c0-2.5-1.3-3.3-3.2-3.3-1.7 0-3.4 1.1-4.2 2.2v9.9h-1.4v-13h1.4v2c.9-1.1 2.8-2.3 4.7-2.3 2.6 0 4.1 1.3 4.1 4.2v9.1h-1.4zM-2001.9 195.7c0-3.8 2.4-6.8 6.2-6.8 3.9 0 6.3 3 6.3 6.8s-2.4 6.9-6.3 6.9c-3.8 0-6.2-3.1-6.2-6.9zm11 0c0-2.9-1.7-5.6-4.8-5.6-3 0-4.8 2.7-4.8 5.6 0 2.9 1.7 5.6 4.8 5.6 3.1 0 4.8-2.6 4.8-5.6zM-1977 202.3v-8.8c0-2.5-1.3-3.3-3.2-3.3-1.7 0-3.4 1.1-4.2 2.2v9.9h-1.4v-13h1.4v2c.9-1.1 2.8-2.3 4.7-2.3 2.6 0 4.1 1.3 4.1 4.2v9.1h-1.4zM-1963.9 199.8v-9.3h-2.2v-1.2h2.2v-3.6h1.4v3.6h2.6v1.2h-2.6v9.1c0 1.1.4 1.8 1.3 1.8.6 0 1.2-.3 1.5-.6l.5 1.1c-.5.5-1.1.8-2.2.8-1.7-.1-2.5-1.2-2.5-2.9zM-1948.5 202.3v-1.5c-1.2 1.3-2.6 1.9-4.4 1.9-2.2 0-4.6-1.5-4.6-4.3s2.3-4.3 4.6-4.3c1.8 0 3.3.6 4.4 1.9v-2.6c0-1.9-1.6-3-3.5-3-1.6 0-2.9.6-4.1 1.9l-.8-1c1.3-1.5 2.9-2.2 5-2.2 2.6 0 4.8 1.3 4.8 4.2v9.2h-1.4zm0-2.6v-2.9c-.9-1.2-2.4-1.8-3.9-1.8-2.1 0-3.6 1.4-3.6 3.2 0 1.8 1.4 3.2 3.6 3.2 1.5.1 3-.5 3.9-1.7zM-1942.7 202.3v-18h1.4v7.1c1.1-1.5 2.7-2.4 4.5-2.4 3.5 0 5.8 2.7 5.8 6.9s-2.4 6.8-5.8 6.8c-1.9 0-3.6-1.1-4.5-2.4v2.1h-1.4zm5.7-1c2.9 0 4.6-2.4 4.6-5.6s-1.6-5.6-4.6-5.6c-1.8 0-3.5 1.1-4.3 2.4v6.5c.7 1.2 2.5 2.3 4.3 2.3zM-1927.3 202.3v-18h1.4v18h-1.4zM-1922.3 195.7c0-3.8 2.6-6.8 6.3-6.8 4 0 6.2 3.1 6.2 6.9v.4h-10.9c.1 2.8 2 5.2 5.1 5.2 1.6 0 3.2-.6 4.3-1.8l.7.9c-1.3 1.4-2.9 2.1-5.1 2.1-3.9 0-6.6-2.8-6.6-6.9zm6.3-5.6c-3.1 0-4.6 2.7-4.7 5h9.5c-.1-2.2-1.6-5-4.8-5zM-1905.9 199.8v-9.3h-2.2v-1.2h2.2v-3.6h1.4v3.6h2.6v1.2h-2.6v9.1c0 1.1.4 1.8 1.3 1.8.6 0 1.2-.3 1.5-.6l.5 1.1c-.5.5-1.1.8-2.2.8-1.7-.1-2.5-1.2-2.5-2.9z"/></g><path fill="#34495E" d="M-2154.5-121.8c0-5.4 4.4-9.8 9.7-9.8h159.7c5.4 0 9.7 4.4 9.7 9.8v240.5c0 5.4-4.4 9.7-9.7 9.7h-159.7c-5.4 0-9.7-4.4-9.7-9.7v-240.5z"/><path fill="#283A4D" d="M-2074.8 117.5c-2.4 0-4.3-1.9-4.3-4.3v-1.1c0-2.4 2-4.3 4.3-4.3h19.8c2.4 0 4.3 2 4.3 4.3v1.1c0 2.4-1.9 4.3-4.3 4.3h-19.8zM-2065-114.4c-2.5 0-4.4-2-4.4-4.5 0-2.4 2-4.5 4.4-4.5 2.5 0 4.5 2 4.5 4.5s-2 4.5-4.5 4.5z"/><path fill="#5D6D7E" d="M-2064.9-117c-1 0-1.9-.8-1.9-1.9 0-1 .8-1.9 1.9-1.9s1.9.8 1.9 1.9c-.1 1-.9 1.9-1.9 1.9z"/><path fill="#fff" d="M-2144.4-106.2h158.9V96.9h-158.9z"/><path fill="#E6625C" d="M-2132.7-94.6h62.2v24.1h-62.2z"/><path fill="#E8E8E8" d="M-2059.3-94.6h62.2v24.1h-62.2zM-2132.7 60h135.6v7.9h-135.6zM-2132.7 77.4h135.6v7.9h-135.6z"/><path fill="#B3E9FF" d="M-2132.7-7.5h62.2v58.2h-62.2zM-2059.3-7.5h62.2v58.2h-62.2z"/><path fill="#D4D6D8" d="M-2132.7-61.1h135.6V-17h-135.6z"/><path fill="#2D2D2D" d="M-1458.5 18.5c0 2.4-.9 4.8-2.8 6.7-1.9 1.9-4.3 2.8-6.7 2.8h-266.4c-2.4 0-4.8-.9-6.7-2.8-1.8-1.8-2.8-4.3-2.8-6.7v-170.2c0-2.4.9-4.8 2.8-6.7 1.9-1.8 4.3-2.8 6.7-2.8h266.4c2.4 0 4.8.9 6.7 2.8 1.8 1.8 2.8 4.3 2.8 6.7V18.5z"/><path fill="#191919" d="M-1597.9-153.8c0 1.8-1.4 3.2-3.2 3.2-1.8 0-3.2-1.4-3.2-3.2 0-1.8 1.4-3.2 3.2-3.2 1.7 0 3.2 1.5 3.2 3.2z"/><path fill="#7F7F7F" d="M-1599.8-153.7c0 .7-.6 1.3-1.3 1.3-.7 0-1.3-.6-1.3-1.3 0-.7.6-1.3 1.3-1.3.7 0 1.3.5 1.3 1.3z"/><path fill="#CDD3DA" d="M-1426.1 33.5c-5.1 5.9-12.6 9.6-21 9.6h-308c-8.4 0-15.9-3.7-21-9.6h350z"/><path fill="#fff" d="M-1426.1 33.5h-350v-4c0-.4.2-.8.5-1.1.3-.3.7-.5 1.1-.5h346.8c.4 0 .8.2 1.1.5.3.3.5.7.5 1.1v4z"/><path fill="#AAB5BD" d="M-1568.6 28.9c0 .5-.2 1-.6 1.3-.4.4-.8.5-1.3.5h-61.3c-.5 0-1-.2-1.3-.5-.4-.4-.6-.9-.6-1.3V28h65v.9z"/><path fill="#fff" d="M-1728.9-146.6h255.6V13.1h-255.6z"/><path fill="#E6625C" d="M-1718.3-137.7h70.7v21.2h-70.7z"/><path fill="#E8E8E8" d="M-1636.5-137.7h154.2v21.2h-154.2zM-1720-18.1h237.7v7H-1720zM-1720-2.8h237.7v7H-1720z"/><path fill="#B3E9FF" d="M-1720-66.7h70.7v40.3h-70.7zM-1636.5-66.7h70.7v40.3h-70.7zM-1553-66.7h70.7v40.3h-70.7z"/><path fill="#D4D6D8" d="M-1720-108.2h237.7V-75H-1720z"/><path fill="#2D2D2D" d="M-1314.5-154.4c0-5.4 4.4-9.8 9.7-9.8h159.7c5.4 0 9.7 4.4 9.7 9.8V86.1c0 5.4-4.4 9.7-9.7 9.7h-159.7c-5.4 0-9.7-4.4-9.7-9.7v-240.5z"/><path fill="#191919" d="M-1234.8 85c-2.4 0-4.3-1.9-4.3-4.3v-1.1c0-2.4 2-4.3 4.3-4.3h19.8c2.4 0 4.3 2 4.3 4.3v1.1c0 2.4-1.9 4.3-4.3 4.3h-19.8zM-1225-147c-2.5 0-4.4-2-4.4-4.5 0-2.4 2-4.5 4.4-4.5 2.5 0 4.5 2 4.5 4.5s-2 4.5-4.5 4.5z"/><path fill="#7F7F7F" d="M-1225-149.6c-1 0-1.9-.8-1.9-1.9 0-1 .8-1.9 1.9-1.9s1.9.8 1.9 1.9c0 1.1-.8 1.9-1.9 1.9z"/><path fill="#fff" d="M-1304.4-138.7h158.9V64.4h-158.9z"/><path fill="#E6625C" d="M-1292.8-127.1h62.2v24.1h-62.2z"/><path fill="#E8E8E8" d="M-1219.4-127.1h62.2v24.1h-62.2zM-1292.8 27.5h135.6v7.9h-135.6zM-1292.8 44.8h135.6v7.9h-135.6z"/><path fill="#B3E9FF" d="M-1292.8-40.1h62.2v58.2h-62.2zM-1219.4-40.1h62.2v58.2h-62.2z"/><path fill="#D4D6D8" d="M-1292.8-93.6h135.6v44.1h-135.6z"/><path fill="#E6EAEE" d="M-1560.6 408.3c-1-.8-1.5-1.9-1.8-3l-5.1-26.8h-67.4l-5.1 26.8c-.2 1.1-.8 2.2-1.8 3-1 .8-2.1 1.2-3.3 1.2h87.6c-1 0-2.1-.4-3.1-1.2z"/><path fill="#fff" d="M-1544.1 409.7c-.1-.1-.3-.2-.4-.2h-113.2c-.2 0-.3.1-.4.2-.1.1-.2.3-.2.4v.4c0 1.2 2.5 3.1 4.9 3.1h104.5c2.4 0 4.9-1.9 4.9-3.1v-.4c0-.1 0-.3-.1-.4z"/><path fill="#E6EAEE" d="M-1557.3 409.5c-1.1 0-2.3-.4-3.3-1.2-1-.8-1.5-1.9-1.8-3l-5.1-26.8h-67.4l31 31h46.6z"/><path fill="#2D2D2D" d="M-1451.1 158.7c0-2.2-.8-4.4-2.5-6.1-1.7-1.7-3.9-2.5-6.1-2.5h-282.8c-2.2 0-4.4.8-6.1 2.5-1.7 1.7-2.5 3.9-2.5 6.1V349h300V158.7z"/><path fill="#fff" d="M-1451.1 369.9c0 2.2-.8 4.4-2.5 6.1-1.7 1.7-3.9 2.5-6.1 2.5h-282.8c-2.2 0-4.4-.8-6.1-2.5-1.7-1.7-2.5-3.9-2.5-6.1v-21h300v21z"/><path fill="#2D2D2D" d="M-1495 364.1c0 1.4 1.2 2.6 2.6 2.6h13.2c1.4 0 2.6-1.2 2.6-2.6v-.8c0-1.4-1.2-2.6-2.6-2.6h-13.2c-1.4 0-2.6 1.2-2.6 2.6v.8z"/><path fill="#fff" d="M-1736 165.2h269.7v168.5H-1736z"/><path fill="#E6625C" d="M-1724.8 174.7h74.6v22.4h-74.6z"/><path fill="#E8E8E8" d="M-1638.5 174.7h162.7v22.4h-162.7zM-1726.6 300.8h250.8v7.4h-250.8zM-1726.6 317h250.8v7.4h-250.8z"/><path fill="#B3E9FF" d="M-1726.6 249.5h74.6v42.6h-74.6zM-1638.5 249.5h74.6v42.6h-74.6zM-1550.4 249.5h74.6v42.6h-74.6z"/><path fill="#D4D6D8" d="M-1726.6 205.8h250.8v35h-250.8z"/><path fill="#2D2D2D" d="M-1283.2 431c-10 0-18.1-8.2-18.1-18.1V189.1c0-10 8.2-18.1 18.1-18.1h105.2c10 0 18.1 8.2 18.1 18.1v223.7c0 10-8.2 18.1-18.1 18.1h-105.2z"/><path fill="#191919" d="M-1214.9 412.3c0 2.4-1.9 4.3-4.3 4.3h-22.7c-2.4 0-4.3-1.9-4.3-4.3v-1.8c0-2.4 2-4.3 4.3-4.3h22.7c2.4 0 4.3 1.9 4.3 4.3v1.8zM-1225.4 190.6c0 2.9-2.3 5.2-5.2 5.2-2.9 0-5.2-2.3-5.2-5.2 0-2.9 2.4-5.2 5.2-5.2 2.9 0 5.2 2.4 5.2 5.2z"/><path fill="#7F7F7F" d="M-1228.1 190.6c0 1.4-1.1 2.5-2.5 2.5s-2.5-1.1-2.5-2.5 1.1-2.5 2.5-2.5c1.4.1 2.5 1.2 2.5 2.5z"/><path fill="#fff" d="M-1291.1 210.3h120.9v181.4h-120.9z"/><path fill="#E6625C" d="M-1281.8 219.6h102.3v15.6h-102.3z"/><path fill="#E8E8E8" d="M-1281.8 366h102.3v5.1h-102.3zM-1281.8 377.3h102.3v5.1h-102.3z"/><path fill="#B3E9FF" d="M-1281.8 279.7h102.3v80.2h-102.3z"/><path fill="#D4D6D8" d="M-1281.8 241.3h102.3v32.2h-102.3z"/><path fill="#2D2D2D" d="M-359.5 323.5c0 2.4-.9 4.8-2.8 6.7-1.9 1.9-4.3 2.8-6.7 2.8h-266.4c-2.4 0-4.8-.9-6.7-2.8-1.8-1.8-2.8-4.3-2.8-6.7V153.3c0-2.4.9-4.8 2.8-6.7 1.9-1.8 4.3-2.8 6.7-2.8H-369c2.4 0 4.8.9 6.7 2.8 1.8 1.8 2.8 4.3 2.8 6.7v170.2z"/><path fill="#191919" d="M-498.9 151.2c0 1.8-1.4 3.2-3.2 3.2-1.8 0-3.2-1.4-3.2-3.2 0-1.8 1.4-3.2 3.2-3.2 1.7 0 3.2 1.5 3.2 3.2z"/><path fill="#7F7F7F" d="M-500.8 151.3c0 .7-.6 1.3-1.3 1.3-.7 0-1.3-.6-1.3-1.3 0-.7.6-1.3 1.3-1.3.7 0 1.3.5 1.3 1.3z"/><path fill="#CDD3DA" d="M-327.1 338.5c-5.1 5.9-12.6 9.6-21 9.6h-308c-8.4 0-15.9-3.7-21-9.6h350z"/><path fill="#fff" d="M-327.1 338.5h-350v-4c0-.4.2-.8.5-1.1.3-.3.7-.5 1.1-.5h346.8c.4 0 .8.2 1.1.5.3.3.5.7.5 1.1v4z"/><path fill="#AAB5BD" d="M-469.6 333.9c0 .5-.2 1-.6 1.3-.4.4-.8.5-1.3.5h-61.3c-.5 0-1-.2-1.3-.5-.4-.4-.6-.9-.6-1.3v-.9h65v.9z"/><path fill="#fff" d="M-629.9 158.4h255.6v159.7h-255.6z"/><path fill="#E6625C" d="M-619.3 167.3h70.7v21.2h-70.7z"/><path fill="#E8E8E8" d="M-537.5 167.3h154.2v21.2h-154.2zM-621 286.9h237.7v7H-621zM-621 302.2h237.7v7H-621z"/><path fill="#B3E9FF" d="M-621 238.3h70.7v40.3H-621zM-537.5 238.3h70.7v40.3h-70.7zM-454 238.3h70.7v40.3H-454z"/><path fill="#D4D6D8" d="M-621 196.8h237.7V230H-621z"/><path fill="#2D2D2D" d="M-258.8 185.6c0-5.4 4.4-9.8 9.7-9.8h159.7c5.4 0 9.7 4.4 9.7 9.8v240.5c0 5.4-4.4 9.7-9.7 9.7H-249c-5.4 0-9.7-4.4-9.7-9.7V185.6z"/><path fill="#191919" d="M-179.1 425c-2.4 0-4.3-1.9-4.3-4.3v-1.1c0-2.4 2-4.3 4.3-4.3h19.8c2.4 0 4.3 2 4.3 4.3v1.1c0 2.4-1.9 4.3-4.3 4.3h-19.8zM-169.2 193c-2.5 0-4.4-2-4.4-4.5 0-2.4 2-4.5 4.4-4.5 2.5 0 4.5 2 4.5 4.5s-2 4.5-4.5 4.5z"/><path fill="#7F7F7F" d="M-169.2 190.4c-1 0-1.9-.8-1.9-1.9 0-1 .8-1.9 1.9-1.9 1 0 1.9.8 1.9 1.9 0 1.1-.8 1.9-1.9 1.9z"/><path fill="#fff" d="M-248.6 201.3h158.9v203.1h-158.9z"/><path fill="#E6625C" d="M-237 212.9h62.2V237H-237z"/><path fill="#E8E8E8" d="M-163.6 212.9h62.2V237h-62.2zM-237 367.5h135.6v7.9H-237zM-237 384.8h135.6v7.9H-237z"/><path fill="#B3E9FF" d="M-237 299.9h62.2v58.2H-237zM-163.6 299.9h62.2v58.2h-62.2z"/><path fill="#D4D6D8" d="M-237 246.4h135.6v44.1H-237z"/><path fill="#2D2D2D" d="M18.1 260C8.2 260 0 251.8 0 241.9V18.1C0 8.2 8.2 0 18.1 0h105.2c10 0 18.1 8.2 18.1 18.1v223.7c0 10-8.2 18.1-18.1 18.1H18.1z"/><path fill="#191919" d="M86.4 241.3c0 2.4-1.9 4.3-4.3 4.3H59.4c-2.4 0-4.3-1.9-4.3-4.3v-1.8c0-2.4 2-4.3 4.3-4.3h22.7c2.4 0 4.3 1.9 4.3 4.3v1.8zM76 19.6c0 2.9-2.3 5.2-5.2 5.2-2.9 0-5.2-2.3-5.2-5.2 0-2.9 2.4-5.2 5.2-5.2 2.9 0 5.2 2.4 5.2 5.2z"/><path fill="#7F7F7F" d="M73.2 19.6c0 1.4-1.1 2.5-2.5 2.5s-2.5-1.1-2.5-2.5 1.1-2.5 2.5-2.5c1.4.1 2.5 1.2 2.5 2.5z"/><path fill="#fff" d="M10.3 39.3h120.9v181.4H10.3z"/><path fill="#E6625C" d="M19.6 48.6h102.3v15.6H19.6z"/><path fill="#E8E8E8" d="M19.6 195h102.3v5.1H19.6zM19.6 206.3h102.3v5.1H19.6z"/><path fill="#B3E9FF" d="M19.6 108.7h102.3v80.2H19.6z"/><path fill="#D4D6D8" d="M19.6 70.3h102.3v32.2H19.6z"/></svg>