<svg width="76" viewBox="0 0 76 84"><g fill="#8CC84B"><path d="M34.571.896c2.077-1.192 4.781-1.197 6.856 0 10.439 5.916 20.88 11.822 31.317 17.742 1.963 1.109 3.276 3.3 3.256 5.569v35.591c.014 2.363-1.428 4.606-3.5 5.69C62.098 71.37 51.699 77.26 41.297 83.145c-2.12 1.215-4.879 1.121-6.932-.194-3.12-1.813-6.244-3.618-9.363-5.43-.638-.38-1.356-.684-1.806-1.304.397-.538 1.109-.605 1.687-.84 1.302-.415 2.498-1.082 3.694-1.728.302-.208.672-.128.961.057 2.668 1.534 5.311 3.113 7.988 4.632.57.33 1.149-.108 1.637-.381 10.21-5.788 20.431-11.553 30.639-17.343.378-.182.587-.585.556-1 .008-11.741.002-23.484.004-35.225a1.101 1.101 0 0 0-.654-1.098C59.34 17.435 48.977 11.57 38.611 5.711a1.077 1.077 0 0 0-1.222 0C27.023 11.57 16.663 17.44 6.296 23.295c-.423.193-.707.62-.657 1.093.002 11.74 0 23.484 0 35.227a.996.996 0 0 0 .564.988c2.766 1.573 5.536 3.135 8.304 4.703 1.56.842 3.474 1.342 5.192.697 1.516-.545 2.579-2.097 2.55-3.711.014-11.673-.007-23.347.01-35.018-.037-.518.453-.946.955-.897 1.33-.01 2.66-.018 3.99.003.554-.012.936.546.867 1.068-.005 11.746.015 23.493-.009 35.239.004 3.13-1.278 6.537-4.165 8.069-3.557 1.848-7.953 1.456-11.467-.316-3.042-1.523-5.945-3.32-8.932-4.952C1.42 64.412-.014 62.16 0 59.8V24.206c-.022-2.316 1.344-4.547 3.368-5.64C13.77 12.68 24.17 6.787 34.57.897z"/><path d="M43.46 25.116c4.496-.292 9.31-.173 13.355 2.062 3.133 1.713 4.87 5.308 4.925 8.82-.088.473-.579.735-1.027.702-1.304-.002-2.609.018-3.913-.009-.554.022-.875-.493-.945-.987-.375-1.68-1.283-3.345-2.85-4.155-2.406-1.216-5.196-1.155-7.82-1.13-1.915.103-3.974.27-5.597 1.407-1.245.861-1.624 2.6-1.18 3.999.42 1.005 1.57 1.329 2.51 1.628 5.419 1.43 11.16 1.288 16.476 3.17 2.2.767 4.353 2.258 5.106 4.583.985 3.117.553 6.841-1.644 9.343-1.781 2.058-4.376 3.179-6.964 3.787-3.443.775-7.016.795-10.512.45-3.288-.378-6.71-1.25-9.248-3.51-2.17-1.901-3.23-4.864-3.125-7.724.025-.483.502-.82.96-.78a191.75 191.75 0 0 1 3.941.001c.525-.037.914.42.94.92.243 1.6.84 3.28 2.223 4.23 2.67 1.738 6.02 1.619 9.077 1.668 2.533-.114 5.376-.148 7.443-1.837 1.09-.964 1.414-2.576 1.119-3.963-.32-1.17-1.533-1.716-2.575-2.073-5.35-1.707-11.155-1.088-16.453-3.019-2.15-.767-4.23-2.217-5.056-4.446-1.153-3.156-.625-7.059 1.802-9.476 2.367-2.404 5.783-3.33 9.032-3.662z"/></g></svg>