<svg xmlns="http://www.w3.org/2000/svg" viewBox="0 0 1280 296"><defs><pattern id="a" data-name="New Pattern" width="160" height="180" patternTransform="translate(-20 -2810.87)" patternUnits="userSpaceOnUse" viewBox="0 0 160 180"><path fill="none" d="M0 0h160v180H0z"/><path fill="#3b3b3b" d="M152 0l24 45-24 45h16l24-45-24-45h-16z"/><path fill="#4d4d4e" d="M168 90l-24 45 24 45h-16l-24-45 24-45h16z"/><path fill="#3b3b3b" d="M120 0l24 45-24 45h16l24-45-24-45h-16z"/><path fill="#3b3b3b" d="M152 0l24 45-24 45h16l24-45-24-45h-16z"/><path fill="#4d4d4e" d="M168 90l-24 45 24 45h-16l-24-45 24-45h16z"/><path fill="#4d4d4e" d="M136 90l-24 45 24 45h-16l-24-45 24-45h16z"/><path fill="#3b3b3b" d="M88 0l24 45-24 45h16l24-45-24-45H88z"/><path fill="#3b3b3b" d="M120 0l24 45-24 45h16l24-45-24-45h-16z"/><path fill="#3b3b3b" d="M152 0l24 45-24 45h16l24-45-24-45h-16z"/><path fill="#4d4d4e" d="M168 90l-24 45 24 45h-16l-24-45 24-45h16z"/><path fill="#4d4d4e" d="M136 90l-24 45 24 45h-16l-24-45 24-45h16z"/><path fill="#4d4d4e" d="M104 90l-24 45 24 45H88l-24-45 24-45h16z"/><path fill="#3b3b3b" d="M56 0l24 45-24 45h16l24-45L72 0H56z"/><path fill="#3b3b3b" d="M88 0l24 45-24 45h16l24-45-24-45H88z"/><path fill="#3b3b3b" d="M120 0l24 45-24 45h16l24-45-24-45h-16z"/><path fill="#3b3b3b" d="M152 0l24 45-24 45h16l24-45-24-45h-16z"/><path fill="#4d4d4e" d="M168 90l-24 45 24 45h-16l-24-45 24-45h16z"/><path fill="#4d4d4e" d="M136 90l-24 45 24 45h-16l-24-45 24-45h16z"/><path fill="#4d4d4e" d="M104 90l-24 45 24 45H88l-24-45 24-45h16z"/><path fill="#4d4d4e" d="M72 90l-24 45 24 45H56l-24-45 24-45h16z"/><path fill="#3b3b3b" d="M24 0l24 45-24 45h16l24-45L40 0H24z"/><path fill="#3b3b3b" d="M56 0l24 45-24 45h16l24-45L72 0H56z"/><path fill="#3b3b3b" d="M88 0l24 45-24 45h16l24-45-24-45H88z"/><path fill="#3b3b3b" d="M120 0l24 45-24 45h16l24-45-24-45h-16z"/><path fill="#4d4d4e" d="M136 90l-24 45 24 45h-16l-24-45 24-45h16z"/><path fill="#4d4d4e" d="M104 90l-24 45 24 45H88l-24-45 24-45h16z"/><path fill="#4d4d4e" d="M72 90l-24 45 24 45H56l-24-45 24-45h16z"/><path fill="#4d4d4e" d="M40 90l-24 45 24 45H24L0 135l24-45h16z"/><path fill="#3b3b3b" d="M-8 0l24 45-24 45H8l24-45L8 0H-8z"/><path fill="#3b3b3b" d="M24 0l24 45-24 45h16l24-45L40 0H24z"/><path fill="#3b3b3b" d="M56 0l24 45-24 45h16l24-45L72 0H56z"/><path fill="#3b3b3b" d="M88 0l24 45-24 45h16l24-45-24-45H88z"/><path fill="#4d4d4e" d="M104 90l-24 45 24 45H88l-24-45 24-45h16z"/><path fill="#4d4d4e" d="M72 90l-24 45 24 45H56l-24-45 24-45h16z"/><path fill="#4d4d4e" d="M40 90l-24 45 24 45H24L0 135l24-45h16z"/><path fill="#4d4d4e" d="M8 90l-24 45 24 45H-8l-24-45 24-45H8z"/><path fill="#3b3b3b" d="M-8 0l24 45-24 45H8l24-45L8 0H-8z"/><path fill="#3b3b3b" d="M24 0l24 45-24 45h16l24-45L40 0H24z"/><path fill="#3b3b3b" d="M56 0l24 45-24 45h16l24-45L72 0H56z"/><path fill="#4d4d4e" d="M72 90l-24 45 24 45H56l-24-45 24-45h16z"/><path fill="#4d4d4e" d="M40 90l-24 45 24 45H24L0 135l24-45h16z"/><path fill="#4d4d4e" d="M8 90l-24 45 24 45H-8l-24-45 24-45H8z"/><path fill="#3b3b3b" d="M-8 0l24 45-24 45H8l24-45L8 0H-8z"/><path fill="#3b3b3b" d="M24 0l24 45-24 45h16l24-45L40 0H24z"/><path fill="#4d4d4e" d="M40 90l-24 45 24 45H24L0 135l24-45h16z"/><path fill="#4d4d4e" d="M8 90l-24 45 24 45H-8l-24-45 24-45H8z"/><path fill="#3b3b3b" d="M-8 0l24 45-24 45H8l24-45L8 0H-8z"/><path fill="#4d4d4e" d="M8 90l-24 45 24 45H-8l-24-45 24-45H8z"/></pattern></defs><title>pattern</title><g data-name="Layer 1" style="isolation:isolate"><path fill="#013333" d="M0 0h1280v296H0z"/><path opacity=".1" fill="url(#a)" style="mix-blend-mode:multiply" d="M0 .06h1280V295H0z"/></g></svg>