<svg width="100" viewBox="0 0 120 116"><g fill="none"><path d="M69.857 113H59.143c-1.183 0-2.143-.914-2.143-2.04V64.04c0-1.126.96-2.04 2.143-2.04h10.714C71.04 62 72 62.914 72 64.04v46.92c0 1.126-.96 2.04-2.143 2.04z" fill="#FFD782"/><path d="M69.857 114H59.143c-1.183 0-2.143-.92-2.143-2.053V77.053c0-1.134.96-2.053 2.143-2.053h10.714C71.04 75 72 75.92 72 77.053v34.894c0 1.134-.96 2.053-2.143 2.053z" fill="#FFC36E"/><path d="M89.857 114H79.143c-1.183 0-2.143-.927-2.143-2.07V27.07c0-1.143.96-2.07 2.143-2.07h10.714C91.04 25 92 25.927 92 27.07v84.86c0 1.143-.96 2.07-2.143 2.07z" fill="#C3E678"/><path d="M89.857 114H79.143c-1.183 0-2.143-.924-2.143-2.065v-59.87c0-1.14.96-2.065 2.143-2.065h10.714C91.04 50 92 50.924 92 52.065v59.87c0 1.14-.96 2.065-2.143 2.065z" fill="#A5D76E"/><path d="M27.857 114H17.143c-1.183 0-2.143-.92-2.143-2.053V77.053c0-1.134.96-2.053 2.143-2.053h10.714C29.04 75 30 75.92 30 77.053v34.894c0 1.134-.96 2.053-2.143 2.053z" fill="#00D2FF"/><path d="M110.857 114h-10.714c-1.183 0-2.143-.923-2.143-2.061V15.06c0-1.138.96-2.061 2.143-2.061h10.714c1.183 0 2.143.923 2.143 2.061v96.878c0 1.138-.96 2.061-2.143 2.061z" fill="#9BE6D2"/><path d="M110.857 114h-10.714c-1.183 0-2.143-.92-2.143-2.054V40.054c0-1.134.96-2.054 2.143-2.054h10.714c1.183 0 2.143.92 2.143 2.054v71.892c0 1.134-.96 2.054-2.143 2.054z" fill="#78D2BE"/><path d="M48.857 114H38.143c-1.183 0-2.143-.924-2.143-2.065v-59.87c0-1.14.96-2.065 2.143-2.065h10.714C50.04 50 51 50.924 51 52.065v59.87c0 1.14-.96 2.065-2.143 2.065z" fill="#FF6464"/><path d="M48.857 113H38.143c-1.183 0-2.143-.914-2.143-2.04V64.04c0-1.126.96-2.04 2.143-2.04h10.714C50.04 62 51 62.914 51 64.04v46.92c0 1.126-.96 2.04-2.143 2.04z" fill="#D2555A"/><path d="M27.857 113H17.143c-1.183 0-2.143-.896-2.143-2V89c0-1.104.96-2 2.143-2h10.714C29.04 87 30 87.896 30 89v22c0 1.104-.96 2-2.143 2z" fill="#18BDF6"/><path d="M5.885 103.815H1.962c-1.084 0-1.962-.922-1.962-2.06 0-1.137.878-2.06 1.962-2.06h3.923v4.12zm0-12.359H1.962C.878 91.456 0 90.534 0 89.396c0-1.137.878-2.06 1.962-2.06h3.923v4.12zm0-12.358H1.962C.878 79.098 0 78.175 0 77.038c0-1.138.878-2.06 1.962-2.06h3.923v4.12zm0-12.359H1.962C.878 66.739 0 65.817 0 64.679c0-1.137.878-2.06 1.962-2.06h3.923v4.12zm0-12.359H1.962C.878 54.38 0 53.459 0 52.32c0-1.137.878-2.06 1.962-2.06h3.923v4.12zm0-12.358H1.962C.878 42.022 0 41.099 0 39.962c0-1.138.878-2.06 1.962-2.06h3.923v4.12zm0-12.359H1.962C.878 29.663 0 28.741 0 27.603c0-1.137.878-2.06 1.962-2.06h3.923v4.12zm0-12.358H1.962C.878 17.305 0 16.382 0 15.245c0-1.138.878-2.06 1.962-2.06h3.923v4.12z" fill="#D7DEED"/><path d="M6 114c-1.104 0-2-.928-2-2.073V2.073C4 .928 4.896 0 6 0s2 .928 2 2.073v109.854C8 113.072 7.104 114 6 114z" fill="#C7CFE2"/><path d="M0 114c0-1.104.926-2 2.07-2h115.86c1.144 0 2.07.896 2.07 2s-.926 2-2.07 2H2.07C.925 116 0 115.104 0 114z" fill="#AFB9D2"/></g></svg>