<svg xmlns="http://www.w3.org/2000/svg" viewBox="0 0 566.9 139.7" enable-background="new 0 0 566.9 139.7"><path fill="#227C7F" d="M560.7 139.6v-13.4h-1.5v-.4h-3v.4h-1v-1.3h-2.6v-1h-9.9v2.2H540v-18.7h-6.3v-2.1h-.6v-.6h-2.6v1.5h-1v-1.5h-.8v-1.2h-.7v-.5h-5.8v.5h-1v1.2h-1.4v2.7h-3.5v15.1h-1.6v2.8h-1.5v.3h-7v-3.8h-2.6v-2.5h-1v2.5h-.5v3.8h-7.2v-18.4h-.8v-7.5H493V94h-1.1v-2.9h-.7V88h-2.4v.7h-8.3V88h-3.3v.7H472V88h-2.4V91.2h-.7V94h-1.1v5.8h-.9v7.5h-.9v14.8h-.6v-10.7h-2.5v-.5h-1.6v-1.8h-7.7v1.8h-4.1v-2.1h-1.2v2.5h-3.1v7.3h-.9v-1.5H442V74.6h-2.5v-2.2h2.6v-.7l-13.6-1.2v-1.8h-2.1v-.4h-1.3v.4H424l-3.1-2.1h-5.5v-.4h-.8l-3.7 2.2v.5h-.8v5h.3v.7H409v5h-.3V36.8h-11.1v-2.3h-1v-2.3h-.4v2.3h-.2v-6.3h-.3v-.4h-.3v-1h.3v-1h.3v-6.1h-.3v-1l-5-1v-3h-.2v3l-.9-.2h-3.9v-1.1h-.4v1.1h-1.8v-.4h-.4V16h-.3v1.1h-.4v-.5h-.3L382 0l-.2 16.6h-.2v.5h-.5v-.8h-.4v.8h-.3v.4H376.7v-.9h-.6l-.2-4-.2 5-3.8.3-.2-15.7-.2 15.7-5.2.4v-.7c.1-.1.2-.4.2-.6 0-.4-.2-.7-.4-.7s-.4.3-.4.7c0 .3.1.5.2.6v.7l-.7.1-5.5 2.1v.5h-.3v5.4h.3v.3h.4v1h-.4v.6h-.3v54.8h-1.5v14.3h-.4l-.3-10.2h-.6v-.8h-.6v-.5h-.7v-.7h-.7v-.5h-.5v-.6h-.6v-.8h-.5v-.7h-.4V82h-.5v-.6h-.8l-.4-26.5-.4 26.5h-.5v.6h-.5v.7h-.4v.7h-.5v.8h-.6v.6h-.5v.5h-.7v.7h-.7v.5h-.6v.8h-.6l-.4 14.8h-1.7V43.2h-.7V41h-.5v.4h-.8v-6.2h-.5v.5h-.7V28h-.5v-4.7h-1.7V20h-1.1v-2.7h-.8v-1.8h-.3v1.8H334v-1.8h-.3v1.8h-.4v-1.8h-.3v1.8h-.4v-1.4h-.3v1.4h-.3V15h-.3v2.3h-.4v-1.8h-.3v1.8h-.4v-1.4h-.3v1.4h-.5v-3.2h-.3v3.2h-.4v-1.8h-.3v1.8h-.4v-1.4h-.3v1.4h-.3v-1.8h-.3v1.8h-.4v-1.8h-.3v1.8h-.4v-1.4h-.3v1.4h-.4v-1.8h-.3v1.8h-.4v-2.7 2.7h-.4v-1.4h-.3v1.4h-.4v-2.8h-.3v2.8h-.4v-1.8h-.2v1.8h-.4v-1.4h-.3v1.4h-.9V20h-.8v3.2h-1.8V28h-.6v7.6h-1v-.5h-.5v6.2h-1.6v21.8h-1.5v-4.7h-3.4v-5.3h-3.6v-8.9l-3.8-1.2-.3-6.6-.3 6.6-2.4 1.3v-2.6h-.3v1.7h-.6v-.6h-.3v.6h-.6v-1.2h-.3v3.3l-3.4 1.8v12.9l-8 3.8v1.4h-2.6v2.4h-3.4v13.6h-2.9v29.8h-2.3V86.9h-.6v-6.2h-.8v-4.4h-1.3v-2.1h-.7v-2.7h-1.6v.5h-5.8v-.5h-2.8v.5h-2.9v-.5H257v2.7h-.7v2.1H255v4.4h-.8v6.2h-.6v12.7H252V39.5h-4.9v-1.3h.7v-.7h-.7v-1.4h.7v-.7h-.7V34h.7v-.7h-.7v-1.4h.7v-.7h-.7v-1.4h.7V29h-.7v-1.4h.7v-.7h-.7v-1.4h.7v-.7h-.7v-1.4h.7v-.7h-.7V22h-2.5v-2h-.2v-5.3h-.5v-.6h.6V13l3.7-1.5v-.9c-3.1-.6-7.6-1-12.5-1s-9.3.4-12.5 1v.9l3.7 1.5v1.2h.6v.6h-.5V20h-1.4v2H224v35.8h-5.6v6.9h-1.1v32.2H215v-.6h.4v-1.1h-.4V94h.4v-1.1h-.4v-1.1h.4v-1.1h-.4v-1.1h.4v-1.1h-.4v-1.1h.4V86H211v-1h-.5v-1.1h.5v-1.1h-.5v-1.1h.5v-1.1h-3V62.1h-6.1v-2.8h-8.6v-1.1h-1.9v-1.1h-.7v-.5h-.3v-.5h-.4v.5h-.3v-.8h-1.5v.8h-1v.5h-1v1.1h-1.7v1.1h-5.4v2.8h-6.5v48h-1.9v-1h-.3V85.8h-1V85h-6.6v.8h-1.1v-3.9h-.3v-1.2h-.3v-2h-1.5v-2.1l.3-.3h.1v-.4h-.4v-.4h.3v-.3h.2v-.4l-.9-.2h-.8v-.2h.1V74h.2v-.3h-.5v.5h-.2l.1-2.4.2-.3v-.8h-.8l.3-.8h.3v-.5h-.8v-.3l.2-.7h.4v-.8h-3.2v.8h.4l.2.7v.3h-.8v.5h.3l.3.8h-.8v.8l.2.3.1 2.4h-.3v-.5h-.5v.3h.2v.3h.1v.2H153l-.9.2v.4h.2v.3h.3v.4h-.4v.4h.1l.3.3v2.1H151v2h-.3v1.2h-.3v3.9h-10.1v12.5h-5.4v2.8h-3.5v3h-1.2v-3h-14.7v4.9h-1.6v6.9h-1.2v-3.1h-3v-14h-4.4v-7.3h.4l-1.7-3.2-.8 1.5-5-9.1-.2-19.5-.3 19.7-5 9.1-.8-1.5-1.7 3.2h.4v1.5h-4.7v-4.8H66v4.8h-9.1v5.4H44.2v3.1h-3.6V122h-1V92.6h-9v-3.3h-9v3.3H11.1v17.7H6.3v5h-3v22.4H1.9v1.9H0v17.1h566.9v-17.1h-6.2zM243.3 12.8v-1c.2 0 .4 0 .5.1v.8l-.5.1zm-.3.1l-.6.2v-1.5h.6v1.3zm-.9.2h-.7v-1.5c.2 0 .5 0 .7.1v1.4zm-1 0h-.8v-1.6h.8v1.6zm-1.1 0h-1v-1.6h1v1.6zm-1.3 0h-1.3v-1.7h1.3v1.7zm-1.6 0h-1.3v-1.7h1.3v1.7zm-1.6 0h-1.3v-1.7h1.3v1.7zm-1.6 0h-1.3v-1.7h1.3v1.7zm-1.6 0h-1v-1.6h1v1.6zm-1.2 0h-.8v-1.5h.8v1.5zm-1.2 0h-.7v-1.5c.2 0 .5 0 .7-.1v1.6zm-1 0l-.6-.2v-1.2h.6v1.4zm-.9-.3l-.5-.2v-.8c.2 0 .4 0 .5-.1v1.1zm15.7.6h-.4l.4-.2v.2zm.4-1v-.6c.4 0 .8.1 1.2.1l-1.2.5zm-16.9-.6v.6l-1.2-.5c.3 0 .8 0 1.2-.1zm.8 1.6h-.4v-.2l.4.2zm70.9 31.5l.1-.1-.1.1zm68.8 94.2v-.2h.3c-.1.1-.1.2-.1.3-.2 0-.2-.1-.2-.1zm-42.4-.5h.2c-.1 0-.1.1-.2 0 0 .1 0 .1 0 0zm1.4.4l.3-.3h.1v.3c-.1 0-.3.1-.4.1v-.1zm-228.9-.6v.2c-.1 0-.1-.1-.2-.1 0-.1.1-.2.1-.2h-.1c0-.1.1-.2.1-.3 0 .1.1.2.1.4zm201.7-94.7v.7h-.6v-.7h.6zm-.9 0v.7h-.6v-.7h.6zm-.6 1.1h.6v.2l-.6.3v-.5z"/></svg>