<svg class="custom-icon" xmlns="http://www.w3.org/2000/svg" viewBox="0 0 100 100"><path class="inner-shape" d="M66.27 25.5H33.73c-4.526 0-8.23 3.704-8.23 8.23v32.54c0 4.526 3.704 8.23 8.23 8.23h32.54c4.526 0 8.23-3.704 8.23-8.23V33.73c0-4.526-3.704-8.23-8.23-8.23zm-6.125 15.313h-6.126V19.375h6.124v21.438zM12.292 95.937c-1.69 0-3.062-1.37-3.062-3.063S32.995 50 34.688 50s3.062 1.37 3.062 3.063-1.37 3.062-3.063 3.062zm21.438 0H50v-12.25c0-1.692-1.37-3.063-3.063-3.063s-3.062 1.372-3.062 3.063v12.25H37.75V34.687h6.125v3.804c1.263-1.735 3.195-3.803 5.36-3.803 3.805 0 6.89 3.43 6.89 7.657v13.78z" fill="#fff"/></svg>