<svg width="90" viewBox="0 0 108 108"><g fill="none"><path d="M88.536 66.854c-.906 0-1.64-.752-1.64-1.68v-12.75l-4.944-3.309a1.704 1.704 0 0 1-.475-2.325 1.618 1.618 0 0 1 2.27-.486l5.686 3.806c.463.31.743.839.743 1.406v13.658c0 .928-.734 1.68-1.64 1.68zm8.748 0c-.906 0-1.64-.752-1.64-1.68v-12.75L90.7 49.115a1.704 1.704 0 0 1-.475-2.325 1.618 1.618 0 0 1 2.27-.486l5.686 3.806c.463.31.743.839.743 1.406v13.658c0 .928-.734 1.68-1.64 1.68z" fill="#F74B68"/><path d="M62.475 51h-15.95C44.578 51 43 52.517 43 54.387V65l23-1.738v-8.875C66 52.517 64.422 51 62.475 51z" fill="#666"/><path fill="#FFD371" d="M10 43h21v21H10z"/><path fill="#81A9C9" d="M104 67.245l-.914 5.576L97.326 108H11.674L5 67.245 83.643 61z"/><path d="M103 74l-5.721 34H23.13l-4.01-23.825C18.225 78.846 22.407 74 27.902 74H103z" fill="#A6C8E8"/><path d="M108 60.954v5.092c0 1.08-.9 1.954-2.01 1.954H2.008C.899 68 0 67.126 0 66.046v-5.092C0 59.874.9 59 2.008 59H105.99c1.11 0 2.01.874 2.01 1.954z" fill="#3180B5"/><path d="M108 60.547v5.243a2.014 2.014 0 0 1-2.018 2.013H13.198c-1.114 0-2.016-.9-2.016-2.013v-5.243c0-1.112.902-2.012 2.016-2.012h92.784c1.115 0 2.018.9 2.018 2.012zM67.19 41.544H40.372c-3.151 0-5.706-2.547-5.706-5.69V5.69c0-3.143 2.554-5.69 5.706-5.69H67.19c3.151 0 5.706 2.547 5.706 5.69v30.164c0 3.142-2.555 5.69-5.706 5.69z" fill="#428FCE"/><g transform="translate(49 5)" fill="#FFF"><ellipse cx="5.5" cy="5.359" rx="5.373" ry="5.196"/><path d="M1.178 15.752h8.643v14.233H1.178z"/></g><path d="M23.244 50.39h-9.358c-.938 0-1.698-.72-1.698-1.608 0-.888.76-1.608 1.698-1.608h9.358c.937 0 1.698.72 1.698 1.608 0 .888-.76 1.607-1.698 1.607zm0 4.536h-9.358c-.938 0-1.698-.72-1.698-1.607 0-.888.76-1.608 1.698-1.608h9.358c.937 0 1.698.72 1.698 1.608 0 .888-.76 1.607-1.698 1.607z" fill="#666"/></g></svg>