<svg xmlns="http://www.w3.org/2000/svg" viewBox="0 0 179.2 260" enable-background="new 0 0 179.2 260"><g fill="#fff"><path d="M-2474.5 525.7l-4.5-6.6h-3.5v6.6h-1.4v-16h6c2.8 0 4.9 1.8 4.9 4.7 0 2.9-2 4.5-4.4 4.6l4.6 6.7h-1.7zm0-11.3c0-2-1.4-3.4-3.6-3.4h-4.5v6.9h4.5c2.2-.1 3.6-1.5 3.6-3.5zM-2471 519.9c0-3.4 2.4-6.1 5.6-6.1 3.5 0 5.5 2.8 5.5 6.1v.3h-9.7c.1 2.5 1.8 4.6 4.5 4.6 1.5 0 2.8-.6 3.8-1.6l.6.8c-1.2 1.2-2.6 1.9-4.5 1.9-3.4.1-5.8-2.4-5.8-6zm5.5-5c-2.7 0-4.1 2.4-4.2 4.4h8.4c0-1.9-1.3-4.4-4.2-4.4zM-2457.8 524.2l.7-.9c.7.9 2.1 1.7 3.7 1.7 1.9 0 3.1-1 3.1-2.4 0-3.2-7.3-1.4-7.3-5.5 0-1.8 1.5-3.2 4.1-3.2 2 0 3.3.8 4.2 1.7l-.7.9c-.7-.9-1.9-1.5-3.5-1.5-1.8 0-2.9.9-2.9 2.1 0 2.9 7.3 1.1 7.3 5.6 0 1.9-1.4 3.4-4.3 3.4-1.8-.1-3.2-.6-4.4-1.9zM-2444.5 523.8v6.3h-1.2v-16h1.2v1.8c.8-1.2 2.3-2.1 4-2.1 3.1 0 5.2 2.4 5.2 6.1 0 3.7-2.1 6.1-5.2 6.1-1.6 0-3.1-.8-4-2.2zm7.9-3.9c0-2.8-1.5-4.9-4.1-4.9-1.6 0-3.1 1-3.8 2.1v5.7c.7 1.1 2.2 2.1 3.8 2.1 2.6 0 4.1-2.2 4.1-5zM-2432.8 519.9c0-3.4 2.2-6.1 5.5-6.1 3.4 0 5.6 2.7 5.6 6.1 0 3.4-2.2 6.1-5.6 6.1-3.3 0-5.5-2.7-5.5-6.1zm9.8 0c0-2.6-1.5-4.9-4.2-4.9s-4.2 2.4-4.2 4.9c0 2.6 1.5 5 4.2 5s4.2-2.4 4.2-5zM-2410.6 525.7v-7.8c0-2.2-1.1-2.9-2.8-2.9-1.5 0-3 .9-3.8 2v8.8h-1.2v-11.6h1.2v1.8c.8-1 2.5-2 4.2-2 2.4 0 3.6 1.2 3.6 3.8v8.1h-1.2zM-2406.5 524.2l.7-.9c.7.9 2.1 1.7 3.7 1.7 1.9 0 3.1-1 3.1-2.4 0-3.2-7.3-1.4-7.3-5.5 0-1.8 1.5-3.2 4.1-3.2 2 0 3.3.8 4.2 1.7l-.7.9c-.7-.9-1.9-1.5-3.5-1.5-1.8 0-2.9.9-2.9 2.1 0 2.9 7.3 1.1 7.3 5.6 0 1.9-1.4 3.4-4.3 3.4-1.8-.1-3.2-.6-4.4-1.9zM-2394.8 511.3c0-.5.5-.9 1-.9s1 .4 1 .9-.4 1-1 1c-.5 0-1-.4-1-1zm.3 14.4v-11.6h1.2v11.6h-1.2zM-2386.2 525.7l-4.9-11.6h1.4l4.2 10.1 4.2-10.1h1.4l-4.9 11.6h-1.4zM-2378.4 519.9c0-3.4 2.4-6.1 5.6-6.1 3.5 0 5.5 2.8 5.5 6.1v.3h-9.7c.1 2.5 1.8 4.6 4.5 4.6 1.5 0 2.8-.6 3.8-1.6l.6.8c-1.2 1.2-2.6 1.9-4.5 1.9-3.4.1-5.8-2.4-5.8-6zm5.5-5c-2.7 0-4.1 2.4-4.2 4.4h8.4c0-1.9-1.3-4.4-4.2-4.4zM-2349.4 525.7v-1.8c-.8 1.2-2.3 2.1-4 2.1-3.1 0-5.2-2.4-5.2-6.1 0-3.7 2.1-6.1 5.2-6.1 1.7 0 3.1.8 4 2.2v-6.3h1.3v16h-1.3zm0-2.9v-5.7c-.7-1.1-2.2-2.1-3.8-2.1-2.6 0-4.1 2.2-4.1 5s1.5 4.9 4.1 4.9c1.6 0 3.1-1 3.8-2.1zM-2344.9 519.9c0-3.4 2.4-6.1 5.6-6.1 3.5 0 5.5 2.8 5.5 6.1v.3h-9.7c.1 2.5 1.8 4.6 4.5 4.6 1.5 0 2.8-.6 3.8-1.6l.6.8c-1.2 1.2-2.6 1.9-4.5 1.9-3.4.1-5.8-2.4-5.8-6zm5.5-5c-2.7 0-4.1 2.4-4.2 4.4h8.4c0-1.9-1.3-4.4-4.2-4.4zM-2331.7 524.2l.7-.9c.7.9 2.1 1.7 3.7 1.7 1.9 0 3.1-1 3.1-2.4 0-3.2-7.3-1.4-7.3-5.5 0-1.8 1.5-3.2 4.1-3.2 2 0 3.3.8 4.2 1.7l-.7.9c-.7-.9-1.9-1.5-3.5-1.5-1.8 0-2.9.9-2.9 2.1 0 2.9 7.3 1.1 7.3 5.6 0 1.9-1.4 3.4-4.3 3.4-1.8-.1-3.2-.6-4.4-1.9zM-2320 511.3c0-.5.5-.9 1-.9s1 .4 1 .9-.4 1-1 1c-.5 0-1-.4-1-1zm.4 14.4v-11.6h1.2v11.6h-1.2zM-2314.5 528.7l.7-1c1 1.2 2.1 1.6 3.9 1.6 2.1 0 3.9-1.1 3.9-3.7v-1.8c-.8 1.2-2.3 2.2-4 2.2-3.1 0-5.2-2.3-5.2-6s2.1-6.1 5.2-6.1c1.7 0 3.1.8 4 2.2v-1.9h1.3v11.5c0 3.5-2.4 4.8-5.2 4.8-2-.1-3.2-.4-4.6-1.8zm8.5-6v-5.6c-.7-1.1-2.2-2.1-3.8-2.1-2.6 0-4.1 2.1-4.1 4.9 0 2.8 1.5 4.9 4.1 4.9 1.6 0 3.2-1 3.8-2.1zM-2293 525.7v-7.8c0-2.2-1.1-2.9-2.8-2.9-1.5 0-3 .9-3.8 2v8.8h-1.2v-11.6h1.2v1.8c.8-1 2.5-2 4.2-2 2.4 0 3.6 1.2 3.6 3.8v8.1h-1.2zM-2282.3 519.9c0-3.4 2.2-6.1 5.5-6.1 3.4 0 5.6 2.7 5.6 6.1 0 3.4-2.2 6.1-5.6 6.1-3.3 0-5.5-2.7-5.5-6.1zm9.8 0c0-2.6-1.5-4.9-4.2-4.9s-4.2 2.4-4.2 4.9c0 2.6 1.5 5 4.2 5s4.2-2.4 4.2-5zM-2260.1 525.7v-7.8c0-2.2-1.1-2.9-2.8-2.9-1.5 0-3 .9-3.8 2v8.8h-1.2v-11.6h1.2v1.8c.8-1 2.5-2 4.2-2 2.4 0 3.6 1.2 3.6 3.8v8.1h-1.2zM-2249.8 524.2l.7-.9c.7.9 2.1 1.7 3.7 1.7 1.9 0 3.1-1 3.1-2.4 0-3.2-7.3-1.4-7.3-5.5 0-1.8 1.5-3.2 4.1-3.2 2 0 3.3.8 4.2 1.7l-.7.9c-.7-.9-1.9-1.5-3.5-1.5-1.8 0-2.9.9-2.9 2.1 0 2.9 7.3 1.1 7.3 5.6 0 1.9-1.4 3.4-4.3 3.4-1.8-.1-3.2-.6-4.4-1.9zM-2223.9 525.7v-8.1c0-1.6-.7-2.6-2.3-2.6-1.2 0-2.7.9-3.3 2v8.8h-1.3v-8.1c0-1.6-.7-2.6-2.3-2.6-1.2 0-2.6.9-3.3 2v8.8h-1.2v-11.6h1.2v1.8c.5-.7 2.1-2 3.7-2 1.8 0 2.8 1.1 3 2.2.6-1.1 2.2-2.2 3.8-2.2 2.1 0 3.2 1.2 3.2 3.5v8.4h-1.2zM-2211.4 525.7v-1.4c-1 1.1-2.3 1.7-3.9 1.7-2 0-4.1-1.4-4.1-3.9s2-3.8 4.1-3.8c1.6 0 2.9.5 3.9 1.7v-2.4c0-1.7-1.4-2.7-3.1-2.7-1.5 0-2.6.5-3.6 1.7l-.7-.9c1.2-1.3 2.5-1.9 4.5-1.9 2.4 0 4.2 1.1 4.2 3.7v8.2h-1.3zm0-2.3v-2.5c-.8-1.1-2.1-1.6-3.5-1.6-1.9 0-3.2 1.2-3.2 2.9 0 1.6 1.3 2.9 3.2 2.9 1.3-.1 2.6-.6 3.5-1.7zM-2206.3 525.7v-11.6h1.2v2c1-1.3 2.3-2.2 3.9-2.2v1.4h-.6c-1.2 0-2.8 1.1-3.3 2.1v8.4h-1.2zM-2198.5 523.5v-8.3h-1.9v-1.1h1.9V511h1.3v3.2h2.4v1.1h-2.4v8.1c0 .9.4 1.6 1.2 1.6.6 0 1-.3 1.3-.6l.5 1c-.5.4-1 .7-2 .7-1.5-.1-2.3-1-2.3-2.6zM-2190.9 523.8v6.3h-1.2v-16h1.2v1.8c.8-1.2 2.3-2.1 4-2.1 3.1 0 5.2 2.4 5.2 6.1 0 3.7-2.1 6.1-5.2 6.1-1.6 0-3-.8-4-2.2zm7.9-3.9c0-2.8-1.5-4.9-4.1-4.9-1.6 0-3.1 1-3.8 2.1v5.7c.7 1.1 2.2 2.1 3.8 2.1 2.7 0 4.1-2.2 4.1-5zM-2170.7 525.7v-7.9c0-2.2-1.1-2.9-2.8-2.9-1.5 0-3 .9-3.8 2v8.8h-1.2v-16h1.2v6.2c.8-1 2.5-2 4.2-2 2.4 0 3.6 1.1 3.6 3.7v8.2h-1.2zM-2166.2 519.9c0-3.4 2.2-6.1 5.5-6.1 3.4 0 5.6 2.7 5.6 6.1 0 3.4-2.2 6.1-5.6 6.1-3.3 0-5.5-2.7-5.5-6.1zm9.8 0c0-2.6-1.5-4.9-4.2-4.9s-4.2 2.4-4.2 4.9c0 2.6 1.5 5 4.2 5s4.2-2.4 4.2-5zM-2144 525.7v-7.8c0-2.2-1.1-2.9-2.8-2.9-1.5 0-3 .9-3.8 2v8.8h-1.2v-11.6h1.2v1.8c.8-1 2.5-2 4.2-2 2.4 0 3.6 1.2 3.6 3.8v8.1h-1.2zM-2139.5 519.9c0-3.4 2.4-6.1 5.6-6.1 3.5 0 5.5 2.8 5.5 6.1v.3h-9.7c.1 2.5 1.8 4.6 4.5 4.6 1.5 0 2.8-.6 3.8-1.6l.6.8c-1.2 1.2-2.6 1.9-4.5 1.9-3.4.1-5.8-2.4-5.8-6zm5.5-5c-2.7 0-4.1 2.4-4.2 4.4h8.4c0-1.9-1.3-4.4-4.2-4.4z"/></g><path fill="#34495E" d="M-2358.8 452.6c-10 0-18.1-8.2-18.1-18.1V210.7c0-10 8.2-18.1 18.1-18.1h105.2c10 0 18.1 8.2 18.1 18.1v223.7c0 10-8.2 18.1-18.1 18.1h-105.2z"/><path fill="#283A4D" d="M-2290.5 433.8c0 2.4-1.9 4.3-4.3 4.3h-22.7c-2.4 0-4.3-1.9-4.3-4.3V432c0-2.4 2-4.3 4.3-4.3h22.7c2.4 0 4.3 1.9 4.3 4.3v1.8zM-2300.9 212.2c0 2.9-2.3 5.2-5.2 5.2-2.9 0-5.2-2.3-5.2-5.2 0-2.9 2.4-5.2 5.2-5.2 2.8 0 5.2 2.3 5.2 5.2z"/><path fill="#5D6D7E" d="M-2303.7 212.2c0 1.4-1.1 2.5-2.5 2.5s-2.5-1.1-2.5-2.5 1.1-2.5 2.5-2.5 2.5 1.1 2.5 2.5z"/><path fill="#fff" d="M-2366.6 231.9h120.9v181.4h-120.9z"/><path fill="#E6625C" d="M-2357.3 241.2h102.3v15.6h-102.3z"/><path fill="#E8E8E8" d="M-2357.3 387.6h102.3v5.1h-102.3zM-2357.3 398.8h102.3v5.1h-102.3z"/><path fill="#B3E9FF" d="M-2357.3 301.3h102.3v80.2h-102.3z"/><path fill="#D4D6D8" d="M-2357.3 262.9h102.3v32.2h-102.3z"/><g fill="#fff"><path d="M-1954.9 526.6l-4.5-6.6h-3.5v6.6h-1.4v-16h6c2.8 0 4.9 1.8 4.9 4.7 0 2.9-2 4.5-4.4 4.6l4.6 6.7h-1.7zm0-11.3c0-2-1.4-3.4-3.6-3.4h-4.5v6.9h4.5c2.2-.1 3.6-1.5 3.6-3.5zM-1951.5 520.8c0-3.4 2.4-6.1 5.6-6.1 3.5 0 5.5 2.8 5.5 6.1v.3h-9.7c.1 2.5 1.8 4.6 4.5 4.6 1.5 0 2.8-.6 3.8-1.6l.6.8c-1.2 1.2-2.6 1.9-4.5 1.9-3.4.1-5.8-2.4-5.8-6zm5.6-5c-2.7 0-4.1 2.4-4.2 4.4h8.4c0-1.9-1.3-4.4-4.2-4.4zM-1938.2 525l.7-.9c.7.9 2.1 1.7 3.7 1.7 1.9 0 3.1-1 3.1-2.4 0-3.2-7.3-1.4-7.3-5.5 0-1.8 1.5-3.2 4.1-3.2 2 0 3.3.8 4.2 1.7l-.7.9c-.7-.9-1.9-1.5-3.5-1.5-1.8 0-2.9.9-2.9 2.1 0 2.9 7.3 1.1 7.3 5.6 0 1.9-1.4 3.4-4.3 3.4-1.8 0-3.3-.6-4.4-1.9zM-1925 524.7v6.3h-1.2v-16h1.2v1.8c.8-1.2 2.3-2.1 4-2.1 3.1 0 5.2 2.4 5.2 6.1 0 3.7-2.1 6.1-5.2 6.1-1.6 0-3-.8-4-2.2zm7.9-3.9c0-2.8-1.5-4.9-4.1-4.9-1.6 0-3.1 1-3.8 2.1v5.7c.7 1.1 2.2 2.1 3.8 2.1 2.6 0 4.1-2.2 4.1-5zM-1913.3 520.8c0-3.4 2.2-6.1 5.5-6.1 3.4 0 5.6 2.7 5.6 6.1 0 3.4-2.2 6.1-5.6 6.1-3.3 0-5.5-2.7-5.5-6.1zm9.8 0c0-2.6-1.5-4.9-4.2-4.9s-4.2 2.4-4.2 4.9c0 2.6 1.5 5 4.2 5s4.2-2.4 4.2-5zM-1891.1 526.6v-7.8c0-2.2-1.1-2.9-2.8-2.9-1.5 0-3 .9-3.8 2v8.8h-1.2V515h1.2v1.8c.8-1 2.5-2 4.2-2 2.4 0 3.6 1.2 3.6 3.8v8.1h-1.2zM-1887 525l.7-.9c.7.9 2.1 1.7 3.7 1.7 1.9 0 3.1-1 3.1-2.4 0-3.2-7.3-1.4-7.3-5.5 0-1.8 1.5-3.2 4.1-3.2 2 0 3.3.8 4.2 1.7l-.7.9c-.7-.9-1.9-1.5-3.5-1.5-1.8 0-2.9.9-2.9 2.1 0 2.9 7.3 1.1 7.3 5.6 0 1.9-1.4 3.4-4.3 3.4-1.8 0-3.2-.6-4.4-1.9zM-1875.3 512.2c0-.5.5-.9 1-.9s1 .4 1 .9-.4 1-1 1c-.5 0-1-.4-1-1zm.4 14.4V515h1.2v11.6h-1.2zM-1866.7 526.6l-4.9-11.6h1.4l4.2 10.1 4.2-10.1h1.4l-4.9 11.6h-1.4zM-1858.9 520.8c0-3.4 2.4-6.1 5.6-6.1 3.5 0 5.5 2.8 5.5 6.1v.3h-9.7c.1 2.5 1.8 4.6 4.5 4.6 1.5 0 2.8-.6 3.8-1.6l.6.8c-1.2 1.2-2.6 1.9-4.5 1.9-3.4.1-5.8-2.4-5.8-6zm5.5-5c-2.7 0-4.1 2.4-4.2 4.4h8.4c0-1.9-1.2-4.4-4.2-4.4zM-1829.9 526.6v-1.8c-.8 1.2-2.3 2.1-4 2.1-3.1 0-5.2-2.4-5.2-6.1 0-3.7 2.1-6.1 5.2-6.1 1.7 0 3.1.8 4 2.2v-6.3h1.3v16h-1.3zm0-2.9V518c-.7-1.1-2.2-2.1-3.8-2.1-2.6 0-4.1 2.2-4.1 5s1.5 4.9 4.1 4.9c1.6 0 3.1-1 3.8-2.1zM-1825.4 520.8c0-3.4 2.4-6.1 5.6-6.1 3.5 0 5.5 2.8 5.5 6.1v.3h-9.7c.1 2.5 1.8 4.6 4.5 4.6 1.5 0 2.8-.6 3.8-1.6l.6.8c-1.2 1.2-2.6 1.9-4.5 1.9-3.4.1-5.8-2.4-5.8-6zm5.6-5c-2.7 0-4.1 2.4-4.2 4.4h8.4c0-1.9-1.3-4.4-4.2-4.4zM-1812.1 525l.7-.9c.7.9 2.1 1.7 3.7 1.7 1.9 0 3.1-1 3.1-2.4 0-3.2-7.3-1.4-7.3-5.5 0-1.8 1.5-3.2 4.1-3.2 2 0 3.3.8 4.2 1.7l-.7.9c-.7-.9-1.9-1.5-3.5-1.5-1.8 0-2.9.9-2.9 2.1 0 2.9 7.3 1.1 7.3 5.6 0 1.9-1.4 3.4-4.3 3.4-1.8 0-3.3-.6-4.4-1.9zM-1800.4 512.2c0-.5.5-.9 1-.9s1 .4 1 .9-.4 1-1 1-1-.4-1-1zm.3 14.4V515h1.2v11.6h-1.2zM-1794.9 529.6l.7-1c1 1.2 2.1 1.6 3.9 1.6 2.1 0 3.9-1.1 3.9-3.7v-1.8c-.8 1.2-2.3 2.2-4 2.2-3.1 0-5.2-2.3-5.2-6s2.1-6.1 5.2-6.1c1.7 0 3.1.8 4 2.2v-2h1.3v11.5c0 3.5-2.4 4.8-5.2 4.8-2 0-3.3-.3-4.6-1.7zm8.5-6V518c-.7-1.1-2.2-2.1-3.8-2.1-2.6 0-4.1 2.1-4.1 4.9 0 2.8 1.5 4.9 4.1 4.9 1.6 0 3.1-1 3.8-2.1zM-1773.5 526.6v-7.8c0-2.2-1.1-2.9-2.8-2.9-1.5 0-3 .9-3.8 2v8.8h-1.2V515h1.2v1.8c.8-1 2.5-2 4.2-2 2.4 0 3.6 1.2 3.6 3.8v8.1h-1.2zM-1762.8 520.8c0-3.4 2.2-6.1 5.5-6.1 3.4 0 5.6 2.7 5.6 6.1 0 3.4-2.2 6.1-5.6 6.1-3.3 0-5.5-2.7-5.5-6.1zm9.8 0c0-2.6-1.5-4.9-4.2-4.9s-4.2 2.4-4.2 4.9c0 2.6 1.5 5 4.2 5s4.2-2.4 4.2-5zM-1740.6 526.6v-7.8c0-2.2-1.1-2.9-2.8-2.9-1.5 0-3 .9-3.8 2v8.8h-1.2V515h1.2v1.8c.8-1 2.5-2 4.2-2 2.4 0 3.6 1.2 3.6 3.8v8.1h-1.2zM-1720.7 526.6v-1.8c-.8 1.2-2.3 2.1-4 2.1-3.1 0-5.2-2.4-5.2-6.1 0-3.7 2.1-6.1 5.2-6.1 1.7 0 3.1.8 4 2.2v-6.3h1.3v16h-1.3zm0-2.9V518c-.7-1.1-2.2-2.1-3.8-2.1-2.6 0-4.1 2.2-4.1 5s1.5 4.9 4.1 4.9c1.6 0 3.1-1 3.8-2.1zM-1716.2 520.8c0-3.4 2.4-6.1 5.6-6.1 3.5 0 5.5 2.8 5.5 6.1v.3h-9.7c.1 2.5 1.8 4.6 4.5 4.6 1.5 0 2.8-.6 3.8-1.6l.6.8c-1.2 1.2-2.6 1.9-4.5 1.9-3.4.1-5.8-2.4-5.8-6zm5.6-5c-2.7 0-4.1 2.4-4.2 4.4h8.4c0-1.9-1.3-4.4-4.2-4.4zM-1702.9 525l.7-.9c.7.9 2.1 1.7 3.7 1.7 1.9 0 3.1-1 3.1-2.4 0-3.2-7.3-1.4-7.3-5.5 0-1.8 1.5-3.2 4.1-3.2 2 0 3.3.8 4.2 1.7l-.7.9c-.7-.9-1.9-1.5-3.5-1.5-1.8 0-2.9.9-2.9 2.1 0 2.9 7.3 1.1 7.3 5.6 0 1.9-1.4 3.4-4.3 3.4-1.8 0-3.3-.6-4.4-1.9zM-1682.9 526.6l-4.6-5.5-2.2 2v3.5h-1.2v-16h1.2v11l6.8-6.6h1.7l-5.4 5.2 5.4 6.4h-1.7zM-1678.5 524.4v-8.3h-1.9V515h1.9v-3.2h1.3v3.2h2.4v1.1h-2.4v8.1c0 .9.4 1.6 1.2 1.6.6 0 1-.3 1.3-.6l.5 1c-.5.4-1 .7-2 .7-1.6 0-2.3-.9-2.3-2.5zM-1672.8 520.8c0-3.4 2.2-6.1 5.5-6.1 3.4 0 5.6 2.7 5.6 6.1 0 3.4-2.2 6.1-5.6 6.1-3.4 0-5.5-2.7-5.5-6.1zm9.8 0c0-2.6-1.5-4.9-4.2-4.9s-4.2 2.4-4.2 4.9c0 2.6 1.5 5 4.2 5s4.2-2.4 4.2-5zM-1657.2 524.7v6.3h-1.2v-16h1.2v1.8c.8-1.2 2.3-2.1 4-2.1 3.1 0 5.2 2.4 5.2 6.1 0 3.7-2.1 6.1-5.2 6.1-1.6 0-3.1-.8-4-2.2zm7.8-3.9c0-2.8-1.5-4.9-4.1-4.9-1.6 0-3.1 1-3.8 2.1v5.7c.7 1.1 2.2 2.1 3.8 2.1 2.7 0 4.1-2.2 4.1-5z"/></g><path fill="#E6EAEE" d="M-1765.6 449.1c-1-.8-1.5-1.9-1.8-3l-5.1-26.8h-67.4l-5.1 26.8c-.2 1.1-.8 2.2-1.8 3-1 .8-2.1 1.2-3.3 1.2h87.6c-1 0-2.2-.4-3.1-1.2z"/><path fill="#fff" d="M-1749.2 450.4c-.1-.1-.3-.2-.4-.2h-113.2c-.2 0-.3.1-.4.2-.1.1-.2.3-.2.4v.4c0 1.2 2.5 3.1 4.9 3.1h104.5c2.4 0 4.9-1.9 4.9-3.1v-.4c.1-.1.1-.2-.1-.4z"/><path fill="#E6EAEE" d="M-1762.4 450.3c-1.1 0-2.3-.4-3.3-1.2-1-.8-1.5-1.9-1.8-3l-5.1-26.8h-67.4l31 31h46.6z"/><path fill="#425A73" d="M-1656.2 199.4c0-2.2-.8-4.4-2.5-6.1-1.7-1.7-3.9-2.5-6.1-2.5h-282.8c-2.2 0-4.4.8-6.1 2.5-1.7 1.7-2.5 3.9-2.5 6.1v190.3h300V199.4z"/><path fill="#fff" d="M-1656.2 410.7c0 2.2-.8 4.4-2.5 6.1-1.7 1.7-3.9 2.5-6.1 2.5h-282.8c-2.2 0-4.4-.8-6.1-2.5-1.7-1.7-2.5-3.9-2.5-6.1v-21h300v21z"/><path fill="#425A73" d="M-1700 404.9c0 1.4 1.2 2.6 2.6 2.6h13.2c1.4 0 2.6-1.2 2.6-2.6v-.8c0-1.4-1.2-2.6-2.6-2.6h-13.2c-1.4 0-2.6 1.2-2.6 2.6v.8z"/><path fill="#fff" d="M-1941 206h269.7v168.5H-1941z"/><path fill="#E6625C" d="M-1929.8 215.4h74.6v22.4h-74.6z"/><path fill="#E8E8E8" d="M-1843.5 215.4h162.7v22.4h-162.7zM-1931.6 341.6h250.8v7.4h-250.8zM-1931.6 357.7h250.8v7.4h-250.8z"/><path fill="#B3E9FF" d="M-1931.6 290.3h74.6v42.6h-74.6zM-1843.5 290.3h74.6v42.6h-74.6zM-1755.4 290.3h74.6v42.6h-74.6z"/><path fill="#D4D6D8" d="M-1931.6 246.5h250.8v35h-250.8z"/><g fill="#fff"><path d="M-2462.7 12.5l-5-7.5h-4v7.5h-1.5v-18h6.7c3.1 0 5.5 2 5.5 5.3s-2.3 5.1-5 5.2l5.2 7.6h-1.9zm0-12.8c0-2.3-1.6-3.9-4-3.9h-5v7.7h5c2.4.1 4-1.5 4-3.8zM-2458.9 5.9c0-3.8 2.6-6.8 6.3-6.8 4 0 6.2 3.1 6.2 6.9v.4h-10.9c.1 2.8 2 5.2 5.1 5.2 1.6 0 3.2-.6 4.3-1.8l.7.9c-1.3 1.4-2.9 2.1-5.1 2.1-3.9 0-6.6-2.8-6.6-6.9zm6.3-5.6c-3.1 0-4.6 2.7-4.7 5h9.5c-.1-2.2-1.6-5-4.8-5zM-2444 10.7l.8-1c.8 1.1 2.4 1.9 4.2 1.9 2.2 0 3.5-1.1 3.5-2.6 0-3.6-8.2-1.5-8.2-6.2 0-2 1.7-3.6 4.6-3.6 2.2 0 3.7.9 4.7 1.9l-.8 1c-.8-1-2.2-1.7-3.9-1.7-2 0-3.2 1-3.2 2.4 0 3.3 8.2 1.3 8.2 6.3 0 2.1-1.6 3.8-4.9 3.8-2-.1-3.7-.7-5-2.2zM-2429 10.4v7.1h-1.4v-18h1.4v2.1c.9-1.3 2.6-2.4 4.5-2.4 3.5 0 5.8 2.6 5.8 6.8 0 4.2-2.3 6.9-5.8 6.9-1.8-.1-3.5-1-4.5-2.5zm8.8-4.5c0-3.2-1.6-5.6-4.6-5.6-1.8 0-3.5 1.1-4.3 2.3v6.5c.8 1.2 2.5 2.4 4.3 2.4 3 0 4.6-2.4 4.6-5.6zM-2415.8 5.9c0-3.8 2.4-6.8 6.2-6.8 3.9 0 6.3 3 6.3 6.8s-2.4 6.9-6.3 6.9c-3.8 0-6.2-3-6.2-6.9zm11 0c0-2.9-1.7-5.6-4.8-5.6-3 0-4.8 2.7-4.8 5.6 0 2.9 1.7 5.6 4.8 5.6 3.1 0 4.8-2.6 4.8-5.6zM-2390.9 12.5V3.7c0-2.5-1.3-3.3-3.2-3.3-1.7 0-3.4 1.1-4.2 2.2v9.9h-1.4v-13h1.4v2c.9-1.1 2.8-2.3 4.7-2.3 2.6 0 4.1 1.3 4.1 4.2v9.1h-1.4zM-2386.3 10.7l.8-1c.8 1.1 2.4 1.9 4.2 1.9 2.2 0 3.5-1.1 3.5-2.6 0-3.6-8.2-1.5-8.2-6.2 0-2 1.7-3.6 4.6-3.6 2.2 0 3.7.9 4.7 1.9l-.8 1c-.8-1-2.2-1.7-3.9-1.7-2 0-3.2 1-3.2 2.4 0 3.3 8.2 1.3 8.2 6.3 0 2.1-1.6 3.8-4.9 3.8-2-.1-3.7-.7-5-2.2zM-2373.1-3.7c0-.6.5-1.1 1.1-1.1.6 0 1.1.5 1.1 1.1 0 .6-.5 1.1-1.1 1.1-.6 0-1.1-.5-1.1-1.1zm.4 16.2v-13h1.4v13h-1.4zM-2363.4 12.5l-5.5-13h1.6l4.8 11.4 4.7-11.4h1.6l-5.5 13h-1.7zM-2354.7 5.9c0-3.8 2.6-6.8 6.3-6.8 4 0 6.2 3.1 6.2 6.9v.4h-10.9c.1 2.8 2 5.2 5.1 5.2 1.6 0 3.2-.6 4.3-1.8l.7.9c-1.3 1.4-2.9 2.1-5.1 2.1-3.9 0-6.6-2.8-6.6-6.9zm6.2-5.6c-3.1 0-4.6 2.7-4.7 5h9.5c0-2.2-1.5-5-4.8-5zM-2322.1 12.5v-2.1c-.9 1.3-2.6 2.4-4.5 2.4-3.5 0-5.8-2.6-5.8-6.8 0-4.1 2.3-6.9 5.8-6.9 1.9 0 3.5.9 4.5 2.4v-7.1h1.4v18h-1.4zm0-3.3V2.8c-.8-1.3-2.5-2.4-4.3-2.4-2.9 0-4.6 2.4-4.6 5.6 0 3.2 1.7 5.6 4.6 5.6 1.9-.1 3.6-1.1 4.3-2.4zM-2317 5.9c0-3.8 2.6-6.8 6.3-6.8 4 0 6.2 3.1 6.2 6.9v.4h-10.9c.1 2.8 2 5.2 5.1 5.2 1.6 0 3.2-.6 4.3-1.8l.7.9c-1.3 1.4-2.9 2.1-5.1 2.1-3.9 0-6.6-2.8-6.6-6.9zm6.3-5.6c-3.1 0-4.6 2.7-4.7 5h9.5c-.1-2.2-1.6-5-4.8-5zM-2302.1 10.7l.8-1c.8 1.1 2.4 1.9 4.2 1.9 2.2 0 3.5-1.1 3.5-2.6 0-3.6-8.2-1.5-8.2-6.2 0-2 1.7-3.6 4.6-3.6 2.2 0 3.7.9 4.7 1.9l-.8 1c-.8-1-2.2-1.7-3.9-1.7-2 0-3.2 1-3.2 2.4 0 3.3 8.2 1.3 8.2 6.3 0 2.1-1.6 3.8-4.9 3.8-2.1-.1-3.7-.7-5-2.2zM-2288.9-3.7c0-.6.5-1.1 1.1-1.1.6 0 1.1.5 1.1 1.1 0 .6-.5 1.1-1.1 1.1-.6 0-1.1-.5-1.1-1.1zm.4 16.2v-13h1.4v13h-1.4zM-2282.7 15.8l.8-1.1c1.1 1.3 2.4 1.8 4.3 1.8 2.3 0 4.4-1.2 4.4-4.1v-2.1c-.9 1.3-2.6 2.5-4.5 2.5-3.5 0-5.8-2.6-5.8-6.8 0-4.1 2.3-6.8 5.8-6.8 1.9 0 3.5.9 4.5 2.4V-.5h1.4v12.9c0 4-2.7 5.4-5.9 5.4-2.1 0-3.5-.4-5-2zm9.5-6.7V2.8c-.8-1.3-2.5-2.4-4.3-2.4-2.9 0-4.6 2.4-4.6 5.6s1.7 5.5 4.6 5.5c1.9 0 3.6-1.1 4.3-2.4zM-2258.6 12.5V3.7c0-2.5-1.3-3.3-3.2-3.3-1.7 0-3.4 1.1-4.2 2.2v9.9h-1.4v-13h1.4v2c.9-1.1 2.8-2.3 4.7-2.3 2.6 0 4.1 1.3 4.1 4.2v9.1h-1.4zM-2246.5 5.9c0-3.8 2.4-6.8 6.2-6.8 3.9 0 6.3 3 6.3 6.8s-2.4 6.9-6.3 6.9c-3.8 0-6.2-3-6.2-6.9zm11 0c0-2.9-1.7-5.6-4.8-5.6-3 0-4.8 2.7-4.8 5.6 0 2.9 1.7 5.6 4.8 5.6 3.1 0 4.8-2.6 4.8-5.6zM-2221.6 12.5V3.7c0-2.5-1.3-3.3-3.2-3.3-1.7 0-3.4 1.1-4.2 2.2v9.9h-1.4v-13h1.4v2c.9-1.1 2.8-2.3 4.7-2.3 2.6 0 4.1 1.3 4.1 4.2v9.1h-1.4zM-2208.8 12.5v-18h1.4v18h-1.4zM-2194.7 12.5V11c-1.2 1.3-2.6 1.9-4.4 1.9-2.2 0-4.6-1.5-4.6-4.3s2.3-4.3 4.6-4.3c1.8 0 3.3.6 4.4 1.9V3.4c0-1.9-1.6-3-3.5-3-1.6 0-2.9.6-4.1 1.9l-.8-1c1.3-1.5 2.9-2.2 5-2.2 2.6 0 4.8 1.3 4.8 4.2v9.2h-1.4zm0-2.6V7.1c-.9-1.2-2.4-1.8-3.9-1.8-2.1 0-3.6 1.4-3.6 3.2 0 1.8 1.4 3.2 3.6 3.2 1.5 0 2.9-.6 3.9-1.8zM-2187.6 10.4v7.1h-1.4v-18h1.4v2.1c.9-1.3 2.6-2.4 4.5-2.4 3.5 0 5.8 2.6 5.8 6.8 0 4.2-2.3 6.9-5.8 6.9-1.8-.1-3.4-1-4.5-2.5zm8.9-4.5c0-3.2-1.6-5.6-4.6-5.6-1.8 0-3.5 1.1-4.3 2.3v6.5c.8 1.2 2.5 2.4 4.3 2.4 2.9 0 4.6-2.4 4.6-5.6zM-2173.4 10V.7h-2.2V-.5h2.2v-3.6h1.4v3.6h2.6V.7h-2.6v9.1c0 1.1.4 1.8 1.3 1.8.6 0 1.2-.3 1.5-.6l.5 1.1c-.5.5-1.1.8-2.2.8-1.7-.1-2.5-1.1-2.5-2.9zM-2167 5.9c0-3.8 2.4-6.8 6.2-6.8 3.9 0 6.3 3 6.3 6.8s-2.4 6.9-6.3 6.9c-3.7 0-6.2-3-6.2-6.9zm11 0c0-2.9-1.7-5.6-4.8-5.6-3 0-4.8 2.7-4.8 5.6 0 2.9 1.7 5.6 4.8 5.6 3.1 0 4.8-2.6 4.8-5.6zM-2149.4 10.4v7.1h-1.4v-18h1.4v2.1c.9-1.3 2.6-2.4 4.5-2.4 3.5 0 5.8 2.6 5.8 6.8 0 4.2-2.3 6.9-5.8 6.9-1.8-.1-3.5-1-4.5-2.5zm8.8-4.5c0-3.2-1.6-5.6-4.6-5.6-1.8 0-3.5 1.1-4.3 2.3v6.5c.8 1.2 2.5 2.4 4.3 2.4 3 0 4.6-2.4 4.6-5.6z"/></g><path fill="#34495E" d="M-2163.5-99.9c0 2.4-.9 4.8-2.8 6.7-1.9 1.9-4.3 2.8-6.7 2.8h-266.4c-2.4 0-4.8-.9-6.7-2.8-1.8-1.8-2.8-4.3-2.8-6.7v-170.2c0-2.4.9-4.8 2.8-6.7 1.9-1.8 4.3-2.8 6.7-2.8h266.4c2.4 0 4.8.9 6.7 2.8 1.8 1.8 2.8 4.3 2.8 6.7v170.2z"/><path fill="#283A4D" d="M-2303-272.2c0 1.8-1.4 3.2-3.2 3.2-1.8 0-3.2-1.4-3.2-3.2 0-1.8 1.4-3.2 3.2-3.2 1.8 0 3.2 1.5 3.2 3.2z"/><path fill="#5D6D7E" d="M-2304.9-272.2c0 .7-.6 1.3-1.3 1.3-.7 0-1.3-.6-1.3-1.3 0-.7.6-1.3 1.3-1.3.7.1 1.3.6 1.3 1.3z"/><path fill="#CDD3DA" d="M-2131.2-84.9c-5.1 5.9-12.6 9.6-21 9.6h-308c-8.4 0-15.9-3.7-21-9.6h350z"/><path fill="#fff" d="M-2131.2-84.9h-350v-4c0-.4.2-.8.5-1.1.3-.3.7-.5 1.1-.5h346.8c.4 0 .8.2 1.1.5.3.3.5.7.5 1.1v4z"/><path fill="#AAB5BD" d="M-2273.7-89.5c0 .5-.2 1-.6 1.3-.4.4-.8.5-1.3.5h-61.3c-.5 0-1-.2-1.3-.5-.4-.4-.6-.9-.6-1.3v-.9h65v.9z"/><path fill="#fff" d="M-2434-265h255.6v159.7H-2434z"/><path fill="#E6625C" d="M-2423.3-256.1h70.7v21.2h-70.7z"/><path fill="#E8E8E8" d="M-2341.5-256.1h154.2v21.2h-154.2zM-2425-136.5h237.7v7H-2425zM-2425-121.2h237.7v7H-2425z"/><path fill="#B3E9FF" d="M-2425-185.1h70.7v40.3h-70.7zM-2341.5-185.1h70.7v40.3h-70.7zM-2258-185.1h70.7v40.3h-70.7z"/><path fill="#D4D6D8" d="M-2425-226.6h237.7v33.2H-2425z"/><g fill="#fff"><path d="M-1959.4 26.4l-5-7.5h-4v7.5h-1.5v-18h6.7c3.1 0 5.5 2 5.5 5.3s-2.3 5.1-5 5.2l5.2 7.6h-1.9zm0-12.7c0-2.3-1.6-3.9-4-3.9h-5v7.7h5c2.4.1 4-1.6 4-3.8zM-1955.5 19.9c0-3.8 2.6-6.8 6.3-6.8 4 0 6.2 3.1 6.2 6.9v.4h-10.9c.1 2.8 2 5.2 5.1 5.2 1.6 0 3.2-.6 4.3-1.8l.7.9c-1.3 1.4-2.9 2.1-5.1 2.1-3.9-.1-6.6-2.9-6.6-6.9zm6.2-5.6c-3.1 0-4.6 2.7-4.7 5h9.5c0-2.3-1.5-5-4.8-5zM-1940.6 24.7l.8-1c.8 1.1 2.4 1.9 4.2 1.9 2.2 0 3.5-1.1 3.5-2.6 0-3.6-8.2-1.5-8.2-6.2 0-2 1.7-3.6 4.6-3.6 2.2 0 3.7.9 4.7 1.9l-.8 1c-.8-1-2.2-1.7-3.9-1.7-2 0-3.2 1-3.2 2.4 0 3.3 8.2 1.3 8.2 6.3 0 2.1-1.6 3.8-4.9 3.8-2.1-.2-3.7-.8-5-2.2zM-1925.7 24.3v7.1h-1.4v-18h1.4v2.1c.9-1.3 2.6-2.4 4.5-2.4 3.5 0 5.8 2.6 5.8 6.8 0 4.2-2.3 6.9-5.8 6.9-1.8-.1-3.4-1-4.5-2.5zm8.9-4.4c0-3.2-1.6-5.6-4.6-5.6-1.8 0-3.5 1.1-4.3 2.3v6.5c.8 1.2 2.5 2.4 4.3 2.4 2.9 0 4.6-2.5 4.6-5.6zM-1912.5 19.9c0-3.8 2.4-6.8 6.2-6.8 3.9 0 6.3 3 6.3 6.8s-2.4 6.9-6.3 6.9c-3.8-.1-6.2-3.1-6.2-6.9zm11 0c0-2.9-1.7-5.6-4.8-5.6-3 0-4.8 2.7-4.8 5.6 0 2.9 1.7 5.6 4.8 5.6 3.1 0 4.8-2.7 4.8-5.6zM-1887.5 26.4v-8.8c0-2.5-1.3-3.3-3.2-3.3-1.7 0-3.4 1.1-4.2 2.2v9.9h-1.4v-13h1.4v2c.9-1.1 2.8-2.3 4.7-2.3 2.6 0 4.1 1.3 4.1 4.2v9.1h-1.4zM-1882.9 24.7l.8-1c.8 1.1 2.4 1.9 4.2 1.9 2.2 0 3.5-1.1 3.5-2.6 0-3.6-8.2-1.5-8.2-6.2 0-2 1.7-3.6 4.6-3.6 2.2 0 3.7.9 4.7 1.9l-.8 1c-.8-1-2.2-1.7-3.9-1.7-2 0-3.2 1-3.2 2.4 0 3.3 8.2 1.3 8.2 6.3 0 2.1-1.6 3.8-4.9 3.8-2.1-.2-3.7-.8-5-2.2zM-1869.7 10.2c0-.6.5-1.1 1.1-1.1.6 0 1.1.5 1.1 1.1 0 .6-.5 1.1-1.1 1.1-.6 0-1.1-.5-1.1-1.1zm.3 16.2v-13h1.4v13h-1.4zM-1860.1 26.4l-5.5-13h1.6l4.8 11.4 4.7-11.4h1.6l-5.5 13h-1.7zM-1851.3 19.9c0-3.8 2.6-6.8 6.3-6.8 4 0 6.2 3.1 6.2 6.9v.4h-10.9c.1 2.8 2 5.2 5.1 5.2 1.6 0 3.2-.6 4.3-1.8l.7.9c-1.3 1.4-2.9 2.1-5.1 2.1-3.9-.1-6.6-2.9-6.6-6.9zm6.2-5.6c-3.1 0-4.6 2.7-4.7 5h9.5c-.1-2.3-1.5-5-4.8-5zM-1818.7 26.4v-2.1c-.9 1.3-2.6 2.4-4.5 2.4-3.5 0-5.8-2.6-5.8-6.8 0-4.1 2.3-6.9 5.8-6.9 1.9 0 3.5.9 4.5 2.4v-7h1.4v18h-1.4zm0-3.2v-6.5c-.8-1.3-2.5-2.4-4.3-2.4-2.9 0-4.6 2.4-4.6 5.6s1.7 5.6 4.6 5.6c1.9 0 3.6-1.1 4.3-2.3zM-1813.6 19.9c0-3.8 2.6-6.8 6.3-6.8 4 0 6.2 3.1 6.2 6.9v.4h-10.9c.1 2.8 2 5.2 5.1 5.2 1.6 0 3.2-.6 4.3-1.8l.7.9c-1.3 1.4-2.9 2.1-5.1 2.1-3.9-.1-6.6-2.9-6.6-6.9zm6.2-5.6c-3.1 0-4.6 2.7-4.7 5h9.5c-.1-2.3-1.5-5-4.8-5zM-1798.7 24.7l.8-1c.8 1.1 2.4 1.9 4.2 1.9 2.2 0 3.5-1.1 3.5-2.6 0-3.6-8.2-1.5-8.2-6.2 0-2 1.7-3.6 4.6-3.6 2.2 0 3.7.9 4.7 1.9l-.8 1c-.8-1-2.2-1.7-3.9-1.7-2 0-3.2 1-3.2 2.4 0 3.3 8.2 1.3 8.2 6.3 0 2.1-1.6 3.8-4.9 3.8-2.1-.2-3.7-.8-5-2.2zM-1785.6 10.2c0-.6.5-1.1 1.1-1.1.6 0 1.1.5 1.1 1.1 0 .6-.5 1.1-1.1 1.1-.5 0-1.1-.5-1.1-1.1zm.4 16.2v-13h1.4v13h-1.4zM-1779.4 29.7l.8-1.1c1.1 1.3 2.4 1.8 4.3 1.8 2.3 0 4.4-1.2 4.4-4.1v-2.1c-.9 1.3-2.6 2.5-4.5 2.5-3.5 0-5.8-2.6-5.8-6.8 0-4.1 2.3-6.8 5.8-6.8 1.9 0 3.5.9 4.5 2.4v-2.1h1.4v12.9c0 4-2.7 5.4-5.9 5.4-2 0-3.4-.4-5-2zm9.6-6.7v-6.3c-.8-1.3-2.5-2.4-4.3-2.4-2.9 0-4.6 2.4-4.6 5.6s1.7 5.5 4.6 5.5c1.8 0 3.5-1.1 4.3-2.4zM-1755.2 26.4v-8.8c0-2.5-1.3-3.3-3.2-3.3-1.7 0-3.4 1.1-4.2 2.2v9.9h-1.4v-13h1.4v2c.9-1.1 2.8-2.3 4.7-2.3 2.6 0 4.1 1.3 4.1 4.2v9.1h-1.4zM-1743.2 19.9c0-3.8 2.4-6.8 6.2-6.8 3.9 0 6.3 3 6.3 6.8s-2.4 6.9-6.3 6.9c-3.7-.1-6.2-3.1-6.2-6.9zm11 0c0-2.9-1.7-5.6-4.8-5.6-3 0-4.8 2.7-4.8 5.6 0 2.9 1.7 5.6 4.8 5.6 3.1 0 4.8-2.7 4.8-5.6zM-1718.2 26.4v-8.8c0-2.5-1.3-3.3-3.2-3.3-1.7 0-3.4 1.1-4.2 2.2v9.9h-1.4v-13h1.4v2c.9-1.1 2.8-2.3 4.7-2.3 2.6 0 4.1 1.3 4.1 4.2v9.1h-1.4zM-1705.2 23.9v-9.3h-2.2v-1.2h2.2V9.8h1.4v3.6h2.6v1.2h-2.6v9.1c0 1.1.4 1.8 1.3 1.8.6 0 1.2-.3 1.5-.6l.5 1.1c-.5.5-1.1.8-2.2.8-1.6-.1-2.5-1.1-2.5-2.9zM-1689.7 26.4v-1.5c-1.2 1.3-2.6 1.9-4.4 1.9-2.2 0-4.6-1.5-4.6-4.3s2.3-4.3 4.6-4.3c1.8 0 3.3.6 4.4 1.9v-2.6c0-1.9-1.6-3-3.5-3-1.6 0-2.9.6-4.1 1.9l-.8-1c1.3-1.5 2.9-2.2 5-2.2 2.6 0 4.8 1.3 4.8 4.2v9.2h-1.4zm0-2.5V21c-.9-1.2-2.4-1.8-3.9-1.8-2.1 0-3.6 1.4-3.6 3.2 0 1.8 1.4 3.2 3.6 3.2 1.5 0 2.9-.6 3.9-1.7zM-1684 26.4v-18h1.4v7.1c1.1-1.5 2.7-2.4 4.5-2.4 3.5 0 5.8 2.7 5.8 6.9s-2.4 6.8-5.8 6.8c-1.9 0-3.6-1.1-4.5-2.4v2.1h-1.4zm5.7-.9c2.9 0 4.6-2.4 4.6-5.6s-1.6-5.6-4.6-5.6c-1.8 0-3.5 1.1-4.3 2.4v6.5c.8 1.2 2.5 2.3 4.3 2.3zM-1668.5 26.4v-18h1.4v18h-1.4zM-1663.5 19.9c0-3.8 2.6-6.8 6.3-6.8 4 0 6.2 3.1 6.2 6.9v.4h-10.9c.1 2.8 2 5.2 5.1 5.2 1.6 0 3.2-.6 4.3-1.8l.7.9c-1.3 1.4-2.9 2.1-5.1 2.1-3.9-.1-6.6-2.9-6.6-6.9zm6.2-5.6c-3.1 0-4.6 2.7-4.7 5h9.5c0-2.3-1.5-5-4.8-5zM-1647.2 23.9v-9.3h-2.2v-1.2h2.2V9.8h1.4v3.6h2.6v1.2h-2.6v9.1c0 1.1.4 1.8 1.3 1.8.6 0 1.2-.3 1.5-.6l.5 1.1c-.5.5-1.1.8-2.2.8-1.7-.1-2.5-1.1-2.5-2.9z"/></g><path fill="#34495E" d="M-1895.8-297.7c0-5.4 4.4-9.8 9.7-9.8h159.7c5.4 0 9.7 4.4 9.7 9.8v240.5c0 5.4-4.4 9.7-9.7 9.7H-1886c-5.4 0-9.7-4.4-9.7-9.7v-240.5z"/><path fill="#283A4D" d="M-1816.1-58.3c-2.4 0-4.3-1.9-4.3-4.3v-1.1c0-2.4 2-4.3 4.3-4.3h19.8c2.4 0 4.3 2 4.3 4.3v1.1c0 2.4-1.9 4.3-4.3 4.3h-19.8zM-1806.2-290.3c-2.5 0-4.4-2-4.4-4.5 0-2.4 2-4.5 4.4-4.5 2.5 0 4.5 2 4.5 4.5s-2 4.5-4.5 4.5z"/><path fill="#5D6D7E" d="M-1806.2-292.9c-1 0-1.9-.8-1.9-1.9 0-1 .8-1.9 1.9-1.9 1 0 1.9.8 1.9 1.9 0 1.1-.9 1.9-1.9 1.9z"/><path fill="#fff" d="M-1885.6-282h158.9v203.1h-158.9z"/><path fill="#E6625C" d="M-1874-270.4h62.2v24.1h-62.2z"/><path fill="#E8E8E8" d="M-1800.6-270.4h62.2v24.1h-62.2zM-1874-115.8h135.6v7.9H-1874zM-1874-98.5h135.6v7.9H-1874z"/><path fill="#B3E9FF" d="M-1874-183.4h62.2v58.2h-62.2zM-1800.6-183.4h62.2v58.2h-62.2z"/><path fill="#D4D6D8" d="M-1874-236.9h135.6v44.1H-1874z"/><path fill="#2D2D2D" d="M-1199.7-157.3c0 2.4-.9 4.8-2.8 6.7-1.9 1.9-4.3 2.8-6.7 2.8h-266.4c-2.4 0-4.8-.9-6.7-2.8-1.8-1.8-2.8-4.3-2.8-6.7v-170.2c0-2.4.9-4.8 2.8-6.7 1.9-1.8 4.3-2.8 6.7-2.8h266.4c2.4 0 4.8.9 6.7 2.8 1.8 1.8 2.8 4.3 2.8 6.7v170.2z"/><path fill="#191919" d="M-1339.2-329.6c0 1.8-1.4 3.2-3.2 3.2-1.8 0-3.2-1.4-3.2-3.2 0-1.8 1.4-3.2 3.2-3.2 1.8 0 3.2 1.4 3.2 3.2z"/><path fill="#7F7F7F" d="M-1341.1-329.6c0 .7-.6 1.3-1.3 1.3-.7 0-1.3-.6-1.3-1.3 0-.7.6-1.3 1.3-1.3.7 0 1.3.6 1.3 1.3z"/><path fill="#CDD3DA" d="M-1167.4-142.4c-5.1 5.9-12.6 9.6-21 9.6h-308c-8.4 0-15.9-3.7-21-9.6h350z"/><path fill="#fff" d="M-1167.4-142.3h-350v-4c0-.4.2-.8.5-1.1.3-.3.7-.5 1.1-.5h346.8c.4 0 .8.2 1.1.5.3.3.5.7.5 1.1v4z"/><path fill="#AAB5BD" d="M-1309.9-146.9c0 .5-.2 1-.6 1.3-.4.4-.8.5-1.3.5h-61.3c-.5 0-1-.2-1.3-.5-.4-.4-.6-.9-.6-1.3v-.9h65v.9z"/><path fill="#fff" d="M-1470.2-322.5h255.6v159.7h-255.6z"/><path fill="#E6625C" d="M-1459.6-313.5h70.7v21.2h-70.7z"/><path fill="#E8E8E8" d="M-1377.7-313.5h154.2v21.2h-154.2zM-1461.2-193.9h237.7v7h-237.7zM-1461.2-178.7h237.7v7h-237.7z"/><path fill="#B3E9FF" d="M-1461.2-242.6h70.7v40.3h-70.7zM-1377.7-242.6h70.7v40.3h-70.7zM-1294.2-242.6h70.7v40.3h-70.7z"/><path fill="#D4D6D8" d="M-1461.2-284h237.7v33.2h-237.7z"/><path fill="#2D2D2D" d="M-1055.8-330.2c0-5.4 4.4-9.8 9.7-9.8h159.7c5.4 0 9.7 4.4 9.7 9.8v240.5c0 5.4-4.4 9.7-9.7 9.7H-1046c-5.4 0-9.7-4.4-9.7-9.7v-240.5z"/><path fill="#191919" d="M-976.1-90.9c-2.4 0-4.3-1.9-4.3-4.3v-1.1c0-2.4 2-4.3 4.3-4.3h19.8c2.4 0 4.3 2 4.3 4.3v1.1c0 2.4-1.9 4.3-4.3 4.3h-19.8zM-966.2-322.8c-2.5 0-4.4-2-4.4-4.5 0-2.4 2-4.5 4.4-4.5 2.5 0 4.5 2 4.5 4.5s-2.1 4.5-4.5 4.5z"/><path fill="#7F7F7F" d="M-966.2-325.4c-1 0-1.9-.8-1.9-1.9 0-1 .8-1.9 1.9-1.9s1.9.8 1.9 1.9c0 1-.9 1.9-1.9 1.9z"/><path fill="#fff" d="M-1045.6-314.6h158.9v203.1h-158.9z"/><path fill="#E6625C" d="M-1034-303h62.2v24.1h-62.2z"/><path fill="#E8E8E8" d="M-960.6-303h62.2v24.1h-62.2zM-1034-148.4h135.6v7.9H-1034zM-1034-131h135.6v7.9H-1034z"/><path fill="#B3E9FF" d="M-1034-215.9h62.2v58.2h-62.2zM-960.6-215.9h62.2v58.2h-62.2z"/><path fill="#D4D6D8" d="M-1034-269.5h135.6v44.1H-1034z"/><path fill="#E6EAEE" d="M-1301.8 232.5c-1-.8-1.5-1.9-1.8-3l-5.1-26.8h-67.4l-5.1 26.8c-.2 1.1-.8 2.2-1.8 3-1 .8-2.1 1.2-3.3 1.2h87.6c-1 0-2.2-.4-3.1-1.2z"/><path fill="#fff" d="M-1285.4 233.9c-.1-.1-.3-.2-.4-.2H-1399c-.2 0-.3.1-.4.2-.1.1-.2.3-.2.4v.4c0 1.2 2.5 3.1 4.9 3.1h104.5c2.4 0 4.9-1.9 4.9-3.1v-.4c.1-.2 0-.3-.1-.4z"/><path fill="#E6EAEE" d="M-1298.6 233.7c-1.1 0-2.3-.4-3.3-1.2-1-.8-1.5-1.9-1.8-3l-5.1-26.8h-67.4l31 31h46.6z"/><path fill="#2D2D2D" d="M-1192.4-17.2c0-2.2-.8-4.4-2.5-6.1-1.7-1.7-3.9-2.5-6.1-2.5h-282.8c-2.2 0-4.4.8-6.1 2.5-1.7 1.7-2.5 3.9-2.5 6.1v190.3h300V-17.2z"/><path fill="#fff" d="M-1192.4 194.1c0 2.2-.8 4.4-2.5 6.1-1.7 1.7-3.9 2.5-6.1 2.5h-282.8c-2.2 0-4.4-.8-6.1-2.5-1.7-1.7-2.5-3.9-2.5-6.1v-21h300v21z"/><path fill="#2D2D2D" d="M-1236.2 188.3c0 1.4 1.2 2.6 2.6 2.6h13.2c1.4 0 2.6-1.2 2.6-2.6v-.8c0-1.4-1.2-2.6-2.6-2.6h-13.2c-1.4 0-2.6 1.2-2.6 2.6v.8z"/><path fill="#fff" d="M-1477.2-10.6h269.7v168.5h-269.7z"/><path fill="#E6625C" d="M-1466-1.2h74.6v22.4h-74.6z"/><path fill="#E8E8E8" d="M-1379.7-1.2h162.7v22.4h-162.7zM-1467.8 125h250.8v7.4h-250.8zM-1467.8 141.1h250.8v7.4h-250.8z"/><path fill="#B3E9FF" d="M-1467.8 73.7h74.6v42.6h-74.6zM-1379.7 73.7h74.6v42.6h-74.6zM-1291.6 73.7h74.6v42.6h-74.6z"/><path fill="#D4D6D8" d="M-1467.8 29.9h250.8v35h-250.8z"/><path fill="#2D2D2D" d="M-1024.4 255.1c-10 0-18.1-8.2-18.1-18.1V13.3c0-10 8.2-18.1 18.1-18.1h105.2c10 0 18.1 8.2 18.1 18.1V237c0 10-8.2 18.1-18.1 18.1h-105.2z"/><path fill="#191919" d="M-956.1 236.4c0 2.4-1.9 4.3-4.3 4.3h-22.7c-2.4 0-4.3-1.9-4.3-4.3v-1.8c0-2.4 2-4.3 4.3-4.3h22.7c2.4 0 4.3 1.9 4.3 4.3v1.8zM-966.6 14.8c0 2.9-2.3 5.2-5.2 5.2-2.9 0-5.2-2.3-5.2-5.2 0-2.9 2.4-5.2 5.2-5.2 2.9 0 5.2 2.3 5.2 5.2z"/><path fill="#7F7F7F" d="M-969.4 14.8c0 1.4-1.1 2.5-2.5 2.5s-2.5-1.1-2.5-2.5 1.1-2.5 2.5-2.5 2.5 1.1 2.5 2.5z"/><path fill="#fff" d="M-1032.3 34.4h120.9v181.4h-120.9z"/><path fill="#E6625C" d="M-1023 43.7h102.3v15.6H-1023z"/><path fill="#E8E8E8" d="M-1023 190.1h102.3v5.1H-1023zM-1023 201.4h102.3v5.1H-1023z"/><path fill="#B3E9FF" d="M-1023 103.8h102.3V184H-1023z"/><path fill="#D4D6D8" d="M-1023 65.5h102.3v32.2H-1023z"/><path fill="#2D2D2D" d="M-100.7 147.7c0 2.4-.9 4.8-2.8 6.7-1.9 1.9-4.3 2.8-6.7 2.8h-266.4c-2.4 0-4.8-.9-6.7-2.8-1.8-1.8-2.8-4.3-2.8-6.7V-22.6c0-2.4.9-4.8 2.8-6.7 1.9-1.8 4.3-2.8 6.7-2.8h266.4c2.4 0 4.8.9 6.7 2.8 1.8 1.8 2.8 4.3 2.8 6.7v170.3z"/><path fill="#191919" d="M-240.2-24.6c0 1.8-1.4 3.2-3.2 3.2-1.8 0-3.2-1.4-3.2-3.2 0-1.8 1.4-3.2 3.2-3.2 1.8 0 3.2 1.4 3.2 3.2z"/><path fill="#7F7F7F" d="M-242.1-24.6c0 .7-.6 1.3-1.3 1.3-.7 0-1.3-.6-1.3-1.3 0-.7.6-1.3 1.3-1.3.7 0 1.3.6 1.3 1.3z"/><path fill="#CDD3DA" d="M-68.4 162.6c-5.1 5.9-12.6 9.6-21 9.6h-308c-8.4 0-15.9-3.7-21-9.6h350z"/><path fill="#fff" d="M-68.4 162.7h-350v-4c0-.4.2-.8.5-1.1.3-.3.7-.5 1.1-.5H-70c.4 0 .8.2 1.1.5.3.3.5.7.5 1.1v4z"/><path fill="#AAB5BD" d="M-210.9 158.1c0 .5-.2 1-.6 1.3-.4.4-.8.5-1.3.5H-274c-.5 0-1-.2-1.3-.5-.4-.4-.6-.9-.6-1.3v-.9h65v.9z"/><path fill="#fff" d="M-371.2-17.5h255.6v159.7h-255.6z"/><path fill="#E6625C" d="M-360.6-8.5h70.7v21.2h-70.7z"/><path fill="#E8E8E8" d="M-278.7-8.5h154.2v21.2h-154.2zM-362.2 111.1h237.7v7h-237.7zM-362.2 126.3h237.7v7h-237.7z"/><path fill="#B3E9FF" d="M-362.2 62.4h70.7v40.3h-70.7zM-278.7 62.4h70.7v40.3h-70.7zM-195.2 62.4h70.7v40.3h-70.7z"/><path fill="#D4D6D8" d="M-362.2 21h237.7v33.2h-237.7z"/><path fill="#2D2D2D" d="M0 9.8C0 4.4 4.4 0 9.7 0h159.7c5.4 0 9.7 4.4 9.7 9.8v240.5c0 5.4-4.4 9.7-9.7 9.7H9.7c-5.4 0-9.7-4.4-9.7-9.7V9.8z"/><path fill="#191919" d="M79.7 249.1c-2.4 0-4.3-1.9-4.3-4.3v-1.1c0-2.4 2-4.3 4.3-4.3h19.8c2.4 0 4.3 2 4.3 4.3v1.1c0 2.4-1.9 4.3-4.3 4.3H79.7zM89.6 17.2c-2.5 0-4.4-2-4.4-4.5 0-2.4 2-4.5 4.4-4.5 2.5 0 4.5 2 4.5 4.5-.1 2.5-2.1 4.5-4.5 4.5z"/><path fill="#7F7F7F" d="M89.6 14.6c-1 0-1.9-.8-1.9-1.9 0-1 .8-1.9 1.9-1.9 1 0 1.9.8 1.9 1.9-.1 1-.9 1.9-1.9 1.9z"/><path fill="#fff" d="M10.1 25.4H169v203.1H10.1z"/><path fill="#E6625C" d="M21.8 37H84v24.1H21.8z"/><path fill="#E8E8E8" d="M95.2 37h62.2v24.1H95.2zM21.8 191.6h135.6v7.9H21.8zM21.8 209h135.6v7.9H21.8z"/><path fill="#B3E9FF" d="M21.8 124.1H84v58.2H21.8zM95.2 124.1h62.2v58.2H95.2z"/><path fill="#D4D6D8" d="M21.8 70.5h135.6v44.1H21.8z"/></svg>