<svg width="100" viewBox="0 0 109 109"><g fill="none"><path d="M106.63 109H2.37A2.37 2.37 0 0 1 0 106.63V2.37A2.37 2.37 0 0 1 2.37 0h104.26A2.37 2.37 0 0 1 109 2.37v104.26a2.371 2.371 0 0 1-2.37 2.37z" fill="#E6E6E6"/><path d="M101.848 104H7.152A2.153 2.153 0 0 1 5 101.848V7.152C5 5.964 5.964 5 7.152 5h94.696c1.188 0 2.152.964 2.152 2.152v94.696a2.153 2.153 0 0 1-2.152 2.152z" fill="#EBEBEB"/><path d="M109 18H0V2.25C0 1.008 1.061 0 2.37 0h104.26c1.308 0 2.37 1.008 2.37 2.25V18z" fill="#67809F"/><path d="M104 19H5V7.334C5 6.046 6.057 5 7.357 5h94.286C102.944 5 104 6.046 104 7.334V19z" fill="#72869F"/><path fill="#FED96C" d="M7 7h5v5H7z"/><path fill="#FA5419" d="M16 7h5v5h-5z"/><path fill="#FED96C" d="M26 7h5v5h-5zm66 0h10v5H92z"/><path fill="#FA5419" d="M83 7h5v5h-5z"/><path d="M97.562 61H63.438C62.093 61 61 59.944 61 58.643V30.357C61 29.056 62.093 28 63.438 28h34.124c1.346 0 2.438 1.056 2.438 2.357v28.286C100 59.944 98.908 61 97.562 61z" fill="#FED96C"/><path d="M92.666 57H69.333C68.045 57 67 55.925 67 54.6V35.4c0-1.324 1.045-2.4 2.333-2.4h23.333C93.954 33 95 34.076 95 35.4v19.2c0 1.325-1.046 2.4-2.334 2.4z" fill="#FEDF84"/><path d="M59.145 69.072h13.928v4.595H59.145zm18.57 0h23.213v4.595H77.715zm-18.57 9.19h32.497v4.594H59.145zm37.14 0h4.643v4.594h-4.643z" fill="#DEDEDE"/><path d="M99.647 100H64.353C63.055 100 62 98.88 62 97.5v-5c0-1.38 1.055-2.5 2.353-2.5h35.294c1.298 0 2.353 1.12 2.353 2.5v5c0 1.38-1.055 2.5-2.353 2.5z" fill="#FED96C"/><path d="M45.563 98H11.437C10.092 98 9 96.955 9 95.666V30.334C9 29.045 10.092 28 11.437 28h34.126C46.908 28 48 29.045 48 30.334v65.332C48 96.955 46.908 98 45.563 98z" fill="#FA5419"/><path d="M37.6 93H18.4c-1.325 0-2.4-1.064-2.4-2.375v-52.25C16 37.064 17.075 36 18.4 36h19.2c1.325 0 2.4 1.064 2.4 2.375v52.25C40 91.936 38.925 93 37.6 93z" fill="#FA6632"/><path d="M95.616 97H69.384C68.068 97 67 95.88 67 94.5s1.068-2.5 2.384-2.5h26.232C96.932 92 98 93.12 98 94.5S96.932 97 95.616 97z" fill="#FEDF84"/></g></svg>