<svg xmlns="http://www.w3.org/2000/svg" viewBox="0 0 291.5 36.6" enable-background="new 0 0 291.5 36.6"><path fill="#464342" d="M132.4 8.5h-15.2v1.6c4.7 0 5.5 1 5.5 7v10.8c0 6-.8 7.1-5.5 7.1-3.6-.5-6.1-2.5-9.5-6.2l-3.9-4.2c5.2-.9 8-4.2 8-8 0-4.7-4-8.2-11.4-8.2H85.6V10c4.7 0 5.5 1 5.5 7v10.8c0 6-.8 7.1-5.5 7.1v1.6h16.8V35c-4.7 0-5.5-1.1-5.5-7.1v-3h1.4l9.4 11.8h24.6c12.1 0 17.4-6.4 17.4-14.1 0-7.8-5.2-14.1-17.3-14.1zM96.9 22.3V11h3.5c3.8 0 5.5 2.6 5.5 5.7 0 3-1.7 5.6-5.5 5.6h-3.5zM132.6 34h-.6c-3 0-3.5-.8-3.5-4.7V11h4.1c8.8 0 10.4 6.4 10.4 11.4 0 5.2-1.6 11.6-10.4 11.6zM38.4 25.4l5.8-17.3c1.7-5 .9-6.4-4.5-6.4V0h15.9v1.7c-5.3 0-6.6 1.3-8.7 7.4L37.3 38h-1.1l-8.6-26.5L18.8 38h-1.1L8.3 9.1C6.3 3 4.9 1.7 0 1.7V0h18.8v1.7c-5 0-6.3 1.2-4.6 6.4l5.7 17.3L28.4 0H30l8.4 25.4zM67.2 37.7c-9.3 0-16.9-6.9-16.9-15.2 0-8.3 7.6-15.2 16.9-15.2 9.3 0 16.9 6.9 16.9 15.2 0 8.4-7.6 15.2-16.9 15.2zm0-27.7c-7.8 0-10.5 7-10.5 12.5 0 5.6 2.7 12.5 10.5 12.5 7.9 0 10.6-6.9 10.6-12.5C77.8 17 75.1 10 67.2 10zM170.6 35v1.7h-19.4V35c5.7 0 6.7-1.4 6.7-9.9V11.5c0-8.5-1-9.8-6.7-9.8V0h17.5c8.7 0 13.5 4.5 13.5 10.5 0 5.8-4.8 10.4-13.5 10.4h-4.8V25c0 8.5 1.1 10 6.7 10zm-1.8-32H164v14.7h4.8c4.7 0 6.9-3.3 6.9-7.3S173.5 3 168.8 3zM240.5 28.7l-.4 1.5c-.8 2.8-1.7 3.8-7.7 3.8h-1.2c-4.4 0-5.2-1-5.2-7v-3.9c6.6 0 7.1.6 7.1 5h1.6V15.5h-1.6c0 4.4-.5 5-7.1 5V11h4.7c6 0 6.9 1 7.7 3.8l.4 1.6h1.4l-.6-8h-24.9V10c4.7 0 5.5 1 5.5 7v10.8c0 5.5-.6 6.9-4.4 7.1-3.6-.5-6-2.5-9.3-6.1l-3.9-4.2c5.2-.9 8-4.2 8-8 0-4.7-4-8.2-11.4-8.2h-14.9V10c4.7 0 5.5 1 5.5 7v10.8c0 6-.8 7.1-5.5 7.1v1.6h16.8V35c-4.7 0-5.5-1.1-5.5-7.1v-3h1.4l9.4 11.8h34.8l.5-8h-1.2zm-44.9-6.4V11h3.5c3.8 0 5.5 2.6 5.5 5.7 0 3-1.7 5.6-5.5 5.6h-3.5zM257.6 37.7c-3.4 0-6.3-1.8-7.6-2.9-.4.4-1.2 1.7-1.4 2.9H247V26.1h1.7c.7 5.6 4.6 8.9 9.6 8.9 2.7 0 4.9-1.5 4.9-4.1 0-2.2-1.9-3.9-5.4-5.5l-4.8-2.3c-3.4-1.6-5.9-4.4-5.9-8.1 0-4.1 3.8-7.5 9.1-7.5 2.8 0 5.2 1 6.6 2.2.4-.3.8-1.3 1.1-2.3h1.6v10h-1.8c-.6-4-2.8-7.3-7.3-7.3-2.4 0-4.6 1.4-4.6 3.5 0 2.2 1.8 3.4 5.8 5.2l4.7 2.3c4.1 1.9 5.7 5.1 5.7 7.6 0 5.3-4.7 9-10.4 9zM283.7 37.7c-3.4 0-6.3-1.8-7.6-2.9-.4.4-1.2 1.7-1.4 2.9h-1.6V26.1h1.7c.7 5.6 4.6 8.9 9.6 8.9 2.7 0 4.9-1.5 4.9-4.1 0-2.2-1.9-3.9-5.4-5.5l-4.8-2.3c-3.4-1.6-5.9-4.4-5.9-8.1 0-4.1 3.8-7.5 9.1-7.5 2.8 0 5.2 1 6.6 2.2.4-.3.8-1.3 1.1-2.3h1.6v10h-1.8c-.6-4-2.8-7.3-7.3-7.3-2.4 0-4.6 1.4-4.6 3.5 0 2.2 1.8 3.4 5.8 5.2l4.7 2.3c4.1 1.9 5.7 5.1 5.7 7.6-.1 5.3-4.7 9-10.4 9z"/></svg>