<svg width="166" height="33" viewBox="0 0 166 33" fill="none" xmlns="http://www.w3.org/2000/svg">
<path fill-rule="evenodd" clip-rule="evenodd" d="M0 3.11895L2.46303 0.671875H10.3574V10.9621H0V3.11895ZM10.9258 0.671875H21.2832V8.51501L18.757 10.9621H13.3888L10.9258 8.51501V0.671875ZM24.3146 11.5268L21.8516 13.9738V19.3699L24.3146 21.817H32.2089V11.5268H24.3146ZM10.9258 32.6719H21.2832V24.8287L18.757 22.3817H13.3888L10.9258 24.8287V32.6719ZM32.2089 32.6719V24.8287L29.7459 22.3817H21.8516V32.6719H32.2089ZM21.8516 0.671875V8.51501L24.3146 10.9621H32.2089V0.671875H21.8516ZM14.6519 16.6719C14.6519 17.4248 15.2835 18.115 16.1045 18.115C16.9255 18.115 17.557 17.4876 17.557 16.6719C17.557 15.9189 16.9255 15.2287 16.1045 15.2287C15.3466 15.2287 14.6519 15.8562 14.6519 16.6719ZM10.3574 11.5268H0V21.817H7.83119L10.3574 19.3699V11.5268ZM7.83119 22.3817L10.3574 24.8287V30.2248L7.83119 32.6719H0V22.3817H7.83119Z" fill="#0ECAD4"/>
<path d="M128.117 5.6591C127.931 5.6591 127.807 5.53585 127.807 5.35098V4.05689C127.807 3.87203 127.931 3.74878 128.117 3.74878H128.861C129.047 3.74878 129.171 3.87203 129.171 4.05689V5.35098C129.171 5.53585 129.047 5.6591 128.861 5.6591H128.117Z" fill="white"/>
<path d="M128.365 25.3169C128.179 25.3169 128.055 25.1936 128.055 25.0087V10.6506C128.055 10.4657 128.179 10.3425 128.365 10.3425H128.675C128.861 10.3425 128.985 10.4657 128.985 10.6506V25.0087C128.985 25.1936 128.861 25.3169 128.675 25.3169H128.365Z" fill="white"/>
<path d="M53.0958 25.625C52.9098 25.625 52.8478 25.5634 52.7858 25.3785L50.2438 16.4431H50.1818L47.6397 25.3785C47.5777 25.5634 47.5157 25.625 47.3297 25.625H44.3537C44.1677 25.625 44.1057 25.5634 44.0437 25.3785L39.6416 9.84948C39.6416 9.72623 39.6416 9.60297 39.8276 9.60297H43.7337C43.9197 9.60297 44.0437 9.72623 44.0437 9.84948L46.1517 19.1545H46.2137L48.6938 9.84948C48.7558 9.66461 48.8178 9.60297 49.0038 9.60297H51.4218C51.6078 9.60297 51.6698 9.66461 51.7318 9.84948L54.3359 19.1545H54.3979L56.3819 9.84948C56.3819 9.72623 56.5059 9.60297 56.6919 9.60297H60.598C60.722 9.60297 60.784 9.72623 60.784 9.84948L56.4439 25.3785C56.3819 25.5634 56.3199 25.625 56.1339 25.625H53.0958Z" fill="white"/>
<path fill-rule="evenodd" clip-rule="evenodd" d="M63.884 25.625C63.76 25.625 63.636 25.5017 63.636 25.3785V9.84948C63.636 9.72623 63.76 9.60297 63.884 9.60297H70.3321C74.2382 9.60297 76.2842 11.8214 76.2842 14.9026C76.2842 17.9837 74.2382 20.2638 70.3321 20.2638H67.9761C67.8521 20.2638 67.8521 20.3254 67.8521 20.387V25.3169C67.8521 25.4401 67.7281 25.5634 67.6041 25.5634H63.884V25.625ZM72.1302 14.9642C72.1302 13.855 71.3862 13.1771 70.0841 13.1771H67.9761C67.8521 13.1771 67.8521 13.2387 67.8521 13.3004V16.6896C67.8521 16.8129 67.9141 16.8129 67.9761 16.8129H70.0841C71.3862 16.8129 72.1302 16.0734 72.1302 14.9642Z" fill="white"/>
<path fill-rule="evenodd" clip-rule="evenodd" d="M81.3683 17.7372C81.3683 19.8324 81.4923 20.88 81.8023 21.7427C82.6704 24.3309 84.5304 25.625 87.3204 25.625C89.6765 25.625 91.4745 24.5774 92.5285 23.0984C92.6525 22.9752 92.6525 22.7903 92.4665 22.6671L92.2805 22.4822C92.1565 22.359 91.9705 22.3589 91.8465 22.5438C90.9165 23.7763 89.3665 24.7006 87.2584 24.7006C85.0264 24.7006 83.3524 23.7147 82.6083 21.4346C82.3603 20.6335 82.2364 19.7092 82.2364 18.0453C82.2364 17.9221 82.2984 17.7989 82.4224 17.7989H92.5285C92.7765 17.7989 92.9005 17.6756 92.9005 17.4907C92.9005 15.5804 92.7765 14.5944 92.4665 13.7317C91.6605 11.2052 89.7385 9.91109 87.1344 9.91109C84.5924 9.91109 82.6084 11.2052 81.8023 13.7317C81.5543 14.5944 81.3683 15.7037 81.3683 17.7372ZM92.0325 16.7513C92.0325 16.8745 91.9705 16.9361 91.8465 16.9361H82.5464C82.4224 16.9361 82.3603 16.8745 82.3603 16.7513C82.3603 15.642 82.4844 14.8409 82.7324 14.1015C83.4144 11.883 85.0264 10.8354 87.1964 10.8354C89.3665 10.8354 90.9785 11.9447 91.6605 14.1015C91.9085 14.8409 92.0325 15.7037 92.0325 16.7513Z" fill="white"/>
<path d="M107.285 25.3169C107.099 25.3169 106.975 25.1936 106.975 25.0087V16.0118C106.975 12.4376 105.487 10.8971 102.573 10.8971C100.031 10.8971 97.9226 12.6225 97.9226 15.5804V25.0704C97.9226 25.2552 97.7986 25.3785 97.6126 25.3785H97.3026C97.1166 25.3785 96.9926 25.2552 96.9926 25.0704V10.7122C96.9926 10.5273 97.1166 10.4041 97.3026 10.4041H97.6126C97.7986 10.4041 97.9226 10.5273 97.9226 10.7122V12.8074H97.9846C98.7286 11.0819 100.465 10.0343 102.635 10.0343C106.045 10.0343 107.967 11.9447 107.967 15.8269V25.0704C107.967 25.2552 107.843 25.3785 107.657 25.3785H107.285V25.3169Z" fill="white"/>
<path fill-rule="evenodd" clip-rule="evenodd" d="M112.555 28.7677C112.369 28.8294 112.369 29.0143 112.493 29.1991C113.237 30.37 115.035 31.3559 117.205 31.4176C120.677 31.4176 122.909 29.5689 122.909 25.4401V10.7122C122.909 10.5273 122.785 10.4041 122.599 10.4041H122.289C122.103 10.4041 121.979 10.5273 121.979 10.7122V12.869H121.917C121.173 11.2052 119.871 10.0343 117.205 10.0343C114.663 10.0343 112.927 11.39 112.183 13.6085C111.873 14.6561 111.687 16.0118 111.687 17.8605C111.687 19.7092 111.811 21.0649 112.183 22.1125C112.927 24.3309 114.663 25.6866 117.205 25.6866C119.871 25.6866 121.173 24.5158 121.917 22.8519H121.979V25.3785C121.979 29.0759 120.119 30.4932 117.267 30.4932C115.407 30.4932 114.105 29.8153 113.237 28.7061C113.113 28.5213 112.989 28.4596 112.803 28.5829L112.555 28.7677ZM121.979 17.7989C121.979 19.7092 121.855 20.8184 121.545 21.7427C120.863 23.9612 119.189 24.7623 117.329 24.639C115.283 24.639 113.857 23.653 113.175 21.6811C112.865 20.7568 112.679 19.4627 112.679 17.7372C112.679 16.0118 112.865 14.7177 113.175 13.7934C113.795 11.8214 115.283 10.8354 117.329 10.8354C119.189 10.8354 120.801 11.6365 121.545 13.855C121.855 14.7793 121.979 15.9502 121.979 17.7989Z" fill="white"/>
<path d="M144.113 25.0087C144.113 25.1936 144.237 25.3169 144.423 25.3169V25.3785H144.795C144.981 25.3785 145.105 25.2552 145.105 25.0704V15.8269C145.105 11.9447 143.183 10.0343 139.773 10.0343C137.603 10.0343 135.867 11.0819 135.123 12.8074H135.061V10.7122C135.061 10.5273 134.937 10.4041 134.751 10.4041H134.441C134.255 10.4041 134.131 10.5273 134.131 10.7122V25.0704C134.131 25.2552 134.255 25.3785 134.441 25.3785H134.751C134.937 25.3785 135.061 25.2552 135.061 25.0704V15.5804C135.061 12.6225 137.169 10.8971 139.711 10.8971C142.625 10.8971 144.113 12.4376 144.113 16.0118V25.0087Z" fill="white"/>
<path fill-rule="evenodd" clip-rule="evenodd" d="M149.322 21.7427C149.012 20.88 148.888 19.8324 148.888 17.7372C148.888 15.7037 149.074 14.5944 149.322 13.7317C150.128 11.2052 152.112 9.91109 154.654 9.91109C157.258 9.91109 159.18 11.2052 159.986 13.7317C160.296 14.5944 160.42 15.5804 160.42 17.4907C160.42 17.6756 160.296 17.7989 160.048 17.7989H150.004C149.88 17.7989 149.818 17.9221 149.818 18.0453C149.818 19.7092 149.942 20.6335 150.19 21.4346C150.934 23.7147 152.608 24.7006 154.84 24.7006C156.948 24.7006 158.498 23.7763 159.428 22.5438C159.552 22.3589 159.738 22.359 159.862 22.4822L160.048 22.6671C160.234 22.7903 160.234 22.9752 160.11 23.0984C159.056 24.5774 157.258 25.625 154.902 25.625C152.05 25.625 150.128 24.3309 149.322 21.7427ZM159.304 16.9361C159.428 16.9361 159.49 16.8745 159.49 16.7513C159.49 15.7037 159.366 14.8409 159.118 14.1015C158.436 11.9447 156.824 10.8354 154.654 10.8354C152.484 10.8354 150.872 11.883 150.19 14.1015C149.942 14.8409 149.818 15.642 149.818 16.7513C149.818 16.8745 149.88 16.9361 150.004 16.9361H159.304Z" fill="white"/>
<path fill-rule="evenodd" clip-rule="evenodd" d="M163.458 12.7458C163.458 12.8074 163.458 12.8074 163.52 12.8074H163.644C163.644 12.8074 163.706 12.8074 163.706 12.7458V12.0063H164.14L164.574 12.8074C164.605 12.8074 164.62 12.8228 164.636 12.8382C164.651 12.8536 164.667 12.869 164.698 12.869H164.884C164.946 12.869 165.008 12.8074 164.946 12.7458L164.512 11.9447C164.822 11.883 164.946 11.6365 164.946 11.3901C164.946 11.0203 164.698 10.7738 164.264 10.7738H163.52C163.489 10.7738 163.473 10.7738 163.466 10.7815C163.458 10.7892 163.458 10.8046 163.458 10.8354V12.7458ZM164.264 11.0819C164.512 11.0819 164.636 11.2052 164.636 11.3901C164.636 11.5749 164.512 11.6982 164.264 11.6982H163.768V11.0819H164.264Z" fill="white"/>
<path fill-rule="evenodd" clip-rule="evenodd" d="M164.14 9.97271C163.086 9.97271 162.28 10.7738 162.28 11.8214C162.28 12.869 163.086 13.6701 164.14 13.6701C165.194 13.6701 166 12.869 166 11.8214C166 10.7738 165.194 9.97271 164.14 9.97271ZM164.14 10.2808C165.008 10.2808 165.69 10.8971 165.69 11.8214C165.69 12.6841 165.008 13.362 164.14 13.362C163.272 13.362 162.59 12.7458 162.59 11.8214C162.59 10.9587 163.21 10.2808 164.14 10.2808Z" fill="white"/>
</svg>
