<svg viewBox="0 0 512 512" xmlns="http://www.w3.org/2000/svg"><path d="m192 32c0 17.7 14.3 32 32 32 123.7 0 224 100.3 224 224 0 17.7 14.3 32 32 32s32-14.3 32-32c0-159.1-128.9-288-288-288-17.7 0-32 14.3-32 32zm0 96c0 17.7 14.3 32 32 32 70.7 0 128 57.3 128 128 0 17.7 14.3 32 32 32s32-14.3 32-32c0-106-86-192-192-192-17.7 0-32 14.3-32 32zm-96 16c0-26.5-21.5-48-48-48s-48 21.5-48 48v224c0 79.5 64.5 144 144 144s144-64.5 144-144-64.5-144-144-144h-16v96h16c26.5 0 48 21.5 48 48s-21.5 48-48 48-48-21.5-48-48z"/></svg>